<svg xmlns="http://www.w3.org/2000/svg" fill="none" viewBox="0 0 37 47"><g clip-path="url(#a)"><path fill="#fff" fill-rule="evenodd" d="M20.625 30.23V5.634c-2.838 5.615-8.38 10.249-15.52 13.287 8.294 3.498 14.948 15.41 15.52 27.07.57-11.66 7.227-23.572 15.52-27.07-7.018 2.19-12.658 6.303-15.52 11.31ZM8.99 6.722a3.871 3.871 0 0 1-2.662 1.057 3.88 3.88 0 0 1-3.887-3.872c0-.573.13-1.116.355-1.606l2.86-.53L1.368 0A6.254 6.254 0 0 0 0 3.906c0 3.482 2.834 6.305 6.33 6.305a6.32 6.32 0 0 0 5.041-2.506l-2.38-.984Z" clip-rule="evenodd"/></g><defs><clipPath id="a"><path fill="#fff" d="M0 0h36.403v46.08H0z"/></clipPath></defs></svg>