<svg xmlns="http://www.w3.org/2000/svg" fill="none" viewBox="0 0 250 87"><path fill="#fff" d="M0 32.5 50 53l68 21.5 69.5-17 62.5-9V87H0V32.5Z"/><path fill="#E91C24" d="M0 59.88c9.693-.463 26.44.881 43.115 8.949v-12.97C28.018 46.545 14.128 42.532 0 41.355V59.88Z"/><path fill="#E91C24" d="M0 37.464c4.716.588 9.44 1.494 14.226 2.767 9.497 2.527 17.858 6.382 28.888 12.74v-6.52l.003 6.514c19.503 12.657 49.395 25.293 88.587 25.29 8.87-.01 17.729-.636 26.513-1.871 15.701-2.186 27.593-5 39.118-7.728 15.091-3.572 29.556-6.995 51.124-8.665.49-.038 1.005-.072 1.541-.1v-18.56c-10.42-.842-20.975-.149-32.243 1.089-17.678 1.941-26.933 4.318-39.598 7.57-8.039 2.063-17.451 4.48-31.263 7.362-19.766 4.123-40.509 7.495-63.067 3.555-14.16-2.473-33.53-11.56-40.716-15.54v-.021C30.023 37.55 17.735 33.114 6.944 30.607c.076-.077.075-.078-.001 0A119.412 119.412 0 0 0 0 29.21v8.254Z"/><path fill="#E91C24" d="M0 24.572c4.945 1.06 10.07 2.55 15.685 4.577 8.551 3.087 19.124 8.992 27.12 13.458l.309.172v.014C63.877 54.35 81.63 57.591 92.382 58.173c4.854.264 9.112.395 13.003.395 16.333 0 26.128-2.32 45.718-6.96 4.008-.949 8.426-1.995 13.394-3.139l4.82-1.111c31.639-7.303 56.054-12.939 80.683-9.926v-8.266c-11.257-1.895-20.44-1.787-26.573-1.675-13.15.238-25.808 2.388-38.471 4.54-12.77 2.17-25.546 4.34-38.836 4.55-34.488.547-65.071-4.737-103.003-18.067v2.914l-.002-2.913C26.2 12.47 14.05 9.66 0 9.222v15.35ZM0 3.41c7.28.416 14.87 1.508 22.77 3.459A145.687 145.687 0 0 0 0 1.627V3.41Z"/><path fill="#E91C24" d="M167.682 10.661C189.019 3.185 218.261-3.037 250 1.59v1.806c-31.832-1.752-57.739 9.395-77.949 18.09-9.902 4.261-18.436 7.933-25.63 9.21a124.971 124.971 0 0 1-22.235 1.975c-7.844.002-16.815-.698-27.27-2.518-10.9-1.898-34.455-6.551-41.71-10.009 15.233 2.912 32.206 5.344 51.536 3.79 23.62-1.895 31.179-2.842 60.94-13.272Z"/><path fill="#E91C24" d="M239.096 9.333c3.821-.176 7.422-.22 10.904-.118v15.302c-12.036-2.545-23.03-2.544-37.438-1.53-9.625.677-20.884 2.975-32.275 5.3-11.27 2.3-22.67 4.627-32.743 5.435 12.356-2.284 24.452-7.187 34.192-11.135a445.15 445.15 0 0 1 6.724-2.685 161.235 161.235 0 0 1 50.636-10.569ZM43.117 68.814V55.86l.505.329c10.623 6.919 24.656 16.058 43.043 21.073 18.606 5.075 37.971 7.022 60.941 5.688-2.461.217-5.098.505-7.906.811-7.906.863-17.17 1.874-27.688 1.874-19.05 0-42.214-3.314-68.895-16.821Z"/></svg>