<svg xmlns="http://www.w3.org/2000/svg" fill="none" viewBox="0 0 100 13"><path fill="#fff" d="M0 0h100v12H0z"/><path fill="#E91C24" d="M6.53 7.293S3.053 7.03 0 5.078v1.555c1.433.502 3.342.915 4.735 1.183 1.754.332 3.54.45 5.323.328a17.145 17.145 0 0 0 3.151-.498c3.305-.835 8.515-5.723 16.547-4.366-3.602-.85-7.009-.563-9.892.154a21.038 21.038 0 0 0-5.051 1.996c-1.515.835-4.58 2.167-8.284 1.863ZM46.372 5.22c3.305-.834 8.515-5.722 16.547-4.366C57.44-.438 52.406.903 48.995 2.377c-3.845 1.66-4.836 1.859-7.947 2.34-2.55.394-4.82.236-6.866 0 .995.385 4.162.77 5.624.912 2.944.291 4.978-.008 6.566-.41Z"/><path fill="#E91C24" d="M99.228 4.3c-1.559-1.45-3.552-2.369-5.01-2.591.005-.006.005-.006 0 0-1.962-.304-3.525-.174-4.508-.085-3.496.32-6.655 1.636-10.16 1.944-4.567.409-8.668.004-13.825-1.381-2.883-.794-4.727-.984-7.281-.68-2.29.27-4.524.902-6.607 1.882-1.356.64-3.277 1.693-5.287 2.22 2.668-.41 5.99-1.681 8.516-2.045 2.692-.39 4.495-.438 7.134.295 1.178.328 2.66 1.017 3.768 1.527 2.863 1.32 5.246 1.575 6.676 1.551 3.91-.077 4.897-.58 9.465-1.976 5.25-1.616 8.966-2.843 13.173-2.058 1.283.24 2.428.669 3.95 1.398h-.004Z"/><path fill="#E91C24" d="M99.265 4.681c.231.13.48.264.735.401V6.63c-4.251-1.312-6.64-.972-6.64-.972-2.76.417-4.62.988-6.528 1.588l-.18.056c-1.495.469-3.041.954-5.091 1.394-6.197 1.324-11.13.117-14.452-1.45-.361-.17-.702-.344-1.023-.519-1.523-.729-2.668-1.158-3.951-1.397-4.036-.756-7.616.346-12.538 1.86l-.18.056c-.15.048-.3.093-.455.142-4.568 1.397-5.554 1.899-9.465 1.976h-.203c-1.45 0-3.744-.292-6.476-1.551a58.854 58.854 0 0 0-1.243-.567c-.845-.373-1.75-.745-2.526-.96-2.639-.733-4.442-.684-7.134-.296-1.519.22-3.326.766-5.104 1.256-1.182.324-2.347.627-3.411.79a16.896 16.896 0 0 0 2.258-.79c1.149-.486 2.196-1.037 3.029-1.43a21.477 21.477 0 0 1 6.606-1.883c.76-.093.524-.138 2.132-.138s3.123.26 5.149.818c5.157 1.39 9.258 1.79 13.826 1.381 3.505-.307 6.668-1.624 10.16-1.943.982-.09 2.546-.22 4.507.085 1.454.226 3.13.672 4.938 1.57.844.39 2.911 1.2 4.682 1.544.3.057.588.101.865.13 1.457.145 2.842.068 4.178-.13 1.433-.215 2.806-.571 4.142-.952 4.64-1.32 5.445-1.952 9.246-2.652 3.496-.644 6.5-.85 10.147 1.036Z"/><path fill="#E91C24" d="M100 7.254V13H0V7.253h.008c.029.008.142.048.337.11a7.4 7.4 0 0 0 .491.154c.041.011.082.02.122.032 7.477 1.899 11.688 1.178 14.104.862h.005c.743-.134 1.494-.3 2.25-.51.91-.251 1.725-.466 2.465-.648 4.495-1.094 6.205-.9 8.922 0 1.125.372 2.42.867 4.154 1.438 6.624 2.182 8.232 2.17 16.448-.79a58.92 58.92 0 0 1 1.884-.648c6.018-1.956 9.783-1.968 14.786 0 .813.32 1.657.692 2.55 1.118 6.945 3.304 14.154.927 18.158-.36.804-.26 1.592-.52 2.392-.758 3.021-.891 6.21-1.422 10.92 0l.004.001Z"/></svg>