<svg xmlns="http://www.w3.org/2000/svg" fill="none" viewBox="0 0 50 20"><path fill="#fff" fill-rule="evenodd" d="M50.002.984c-6.348-.922-12.197.318-16.464 1.808-5.952 2.078-7.464 2.266-12.188 2.644-3.61.289-6.809-.114-9.697-.641a17.795 17.795 0 0 1-1.583-.425c-1.001-.315-2.247-.939-3.2-1.417l-.08-.04C5.3 2.166 3.95 1.76 2.837 1.551 1.883 1.313.937 1.13.002.991v.356l.057.003L0 1.351v8.712h.002v9.124h50V.985Z" clip-rule="evenodd"/><path fill="#E91C24" d="M.001 13.598c1.94-.092 5.289.176 8.623 1.783v-2.584c-3.019-1.856-5.797-2.656-8.623-2.89v3.691Z"/><path fill="#E91C24" d="M.001 9.132a21.35 21.35 0 0 1 2.846.551c1.9.504 3.571 1.272 5.777 2.538v-1.299 1.298c3.901 2.522 9.88 5.04 17.718 5.04a38.583 38.583 0 0 0 5.303-.374c3.14-.435 5.518-.996 7.824-1.54 3.018-.711 5.91-1.393 10.224-1.726l.309-.02V9.902c-2.085-.167-4.196-.03-6.45.217-3.535.387-5.386.86-7.919 1.508-1.608.412-3.49.893-6.252 1.467-3.954.822-8.102 1.494-12.614.709-2.832-.493-6.706-2.304-8.143-3.097v-.004C6.006 9.15 3.548 8.265 1.39 7.766c.015-.016.015-.016 0 0a23.97 23.97 0 0 0-1.389-.279v1.645Z"/><path fill="#E91C24" d="M.001 6.563c.99.211 2.015.508 3.137.912 1.71.615 3.825 1.792 5.425 2.681l.061.035v.003c4.153 2.302 7.704 2.948 9.854 3.064.97.052 1.822.079 2.6.079 3.267 0 5.226-.463 9.144-1.387.802-.19 1.685-.398 2.679-.625l.964-.222C40.193 9.648 45.075 8.525 50 9.125V7.48c-2.251-.378-4.087-.356-5.314-.334-2.63.047-5.162.476-7.694.904-2.554.433-5.11.865-7.768.907-6.897.109-13.014-.944-20.6-3.6v.58-.58C5.241 4.152 2.811 3.592 0 3.505v3.058ZM.001 2.347c1.456.083 2.974.3 4.555.689A29.23 29.23 0 0 0 0 1.992v.355Z"/><path fill="#E91C24" d="M33.538 3.792c4.267-1.49 10.116-2.73 16.464-1.808v.36c-6.367-.35-11.548 1.872-15.59 3.604-1.98.85-3.688 1.58-5.126 1.835a25.088 25.088 0 0 1-4.447.394c-1.57 0-3.363-.14-5.454-.502-2.18-.378-6.891-1.305-8.342-1.994 3.046.58 6.44 1.064 10.307.755 4.724-.378 6.236-.566 12.188-2.644Z"/><path fill="#E91C24" d="M47.82 3.527a29.122 29.122 0 0 1 2.181-.024v3.05c-2.407-.508-4.605-.508-7.487-.306-1.925.135-4.177.593-6.455 1.056-2.254.459-4.534.922-6.549 1.083 2.471-.455 4.89-1.432 6.839-2.218.478-.194.929-.376 1.344-.535a32.353 32.353 0 0 1 10.128-2.106ZM8.625 15.378v-2.581l.1.066c2.126 1.378 4.932 3.199 8.61 4.198 3.72 1.011 7.594 1.4 12.188 1.134-.492.043-1.02.1-1.581.161-1.582.172-3.435.373-5.538.373-3.81 0-8.443-.66-13.78-3.351Z"/></svg>