<svg xmlns="http://www.w3.org/2000/svg" viewBox="0 0 1601 315"><g fill="#fff" fill-opacity=".1" fill-rule="nonzero"><path d="M37.907 314.466c-.748-.267-8.276-2.402-16.818-4.752a2772.885 2772.885 0 0 1-18.26-5.125L0 303.735v-5.34c0-4.858.107-5.338.961-5.071 2.082.64 26.588 5.82 43.086 9.076 18.259 3.577 35.984 6.834 57.127 10.411l12.28 2.082H76.346c-20.394 0-37.693-.16-38.44-.427ZM577.144 314.092c53.443-10.037 94.02-19.807 164.708-39.722 94.713-26.695 189.106-57.5 276.559-90.335 20.769-7.795 26.535-10.038 55.045-21.196 105.712-41.537 167.537-63.961 242.87-88.093 82.755-26.482 180.565-53.39 241.59-66.524C1570.141 5.606 1598.544 0 1599.665 0c.214 0 .427 27.496.427 61.078v61.078l-2.776.374c-105.338 13.667-206.352 35.824-386.436 84.623-57.82 15.696-81.366 21.996-119.593 32.033-11.319 2.99-30.86 8.17-43.513 11.533-133.741 35.824-190.28 50.24-244.525 62.412L794.868 315l-110.837-.053c-97.17-.054-110.41-.16-106.887-.855ZM912.432 311.743c41.324-10.945 86.118-23.438 158.568-44.046 147.623-42.072 204.697-57.501 270.42-73.038 3.256-.747 10.304-2.456 15.75-3.737 69.887-16.711 157.873-33.475 229.042-43.513 6.3-.907 12.013-1.762 12.707-1.868l1.174-.16V315l-349.81-.053H900.42l12.013-3.204ZM312.064 312.277c-80.886-2.242-177.895-12.066-259.208-26.16C30.006 282.164.96 276.612.374 276.078c-.214-.214-.32-21.303-.267-46.876l.16-46.45 8.275 3.684c71.276 31.927 147.356 56.327 245.86 78.857 50.134 11.479 103.79 17.992 172.45 20.982 19.38.855 81.686.855 100.906 0 41.965-1.868 76.241-4.912 109.93-9.77 7.955-1.121 14.469-1.975 14.579-1.922.317.374-25.47 7.741-38.55 10.998-35.559 8.916-73.732 15.59-114.255 20.075-32.781 3.577-62.2 5.606-97.437 6.674-19.38.587-68.659.587-89.961-.054Z"/></g></svg>