<svg xmlns="http://www.w3.org/2000/svg" fill="none" viewBox="0 0 50 20"><path fill="#fff" fill-rule="evenodd" d="M50.001.984c-6.347-.922-12.195.318-16.463 1.808-5.952 2.077-7.464 2.266-12.187 2.644-3.61.289-6.807-.114-9.695-.641a17.805 17.805 0 0 1-1.585-.425c-1.001-.315-2.246-.94-3.2-1.417l-.08-.04c-1.49-.748-2.84-1.153-3.954-1.362-.953-.238-1.9-.422-2.834-.56v.356l.057.003L0 1.351v8.711h.002v9.528H50V.984Z" clip-rule="evenodd"/><path fill="#E91C24" d="M.003 13.598c1.938-.093 5.288.175 8.622 1.783v-2.584C5.606 10.94 2.828 10.14.003 9.907v3.69Z"/><path fill="#E91C24" d="M.003 9.132c.943.117 1.888.297 2.845.551 1.9.504 3.571 1.272 5.777 2.538v-1.299 1.298c3.901 2.522 9.88 5.04 17.718 5.039a38.565 38.565 0 0 0 5.302-.373c3.14-.436 5.518-.996 7.824-1.54 3.018-.711 5.91-1.393 10.224-1.726.098-.008.2-.014.308-.02V9.902c-2.084-.168-4.195-.03-6.448.217-3.536.387-5.387.86-7.92 1.508-1.607.411-3.49.893-6.252 1.467-3.953.822-8.102 1.493-12.613.708-2.832-.492-6.706-2.303-8.143-3.096v-.004C6.007 9.149 3.549 8.265 1.391 7.766c.016-.016.015-.016 0 0a23.96 23.96 0 0 0-1.388-.279v1.645Z"/><path fill="#E91C24" d="M.003 6.563c.989.211 2.014.508 3.136.912 1.71.615 3.825 1.792 5.424 2.681l.062.035v.002c4.153 2.303 7.703 2.949 9.854 3.065.97.052 1.822.078 2.6.078 3.267 0 5.225-.462 9.143-1.386.802-.19 1.686-.398 2.68-.626l.963-.221c6.328-1.455 11.21-2.578 16.136-1.978V7.478c-2.251-.377-4.088-.356-5.314-.333-2.63.047-5.162.476-7.694.904-2.554.432-5.11.865-7.767.907-6.898.109-13.014-.944-20.6-3.6v.58-.58C5.242 4.152 2.812 3.592.002 3.505v3.058ZM.003 2.347c1.456.083 2.973.3 4.554.689A29.23 29.23 0 0 0 .003 1.992v.355Z"/><path fill="#E91C24" d="M33.538 3.792c4.267-1.49 10.116-2.73 16.463-1.808v.36c-6.366-.35-11.547 1.872-15.59 3.604-1.98.849-3.686 1.58-5.125 1.835a25.09 25.09 0 0 1-4.447.394c-1.569 0-3.363-.14-5.454-.502-2.18-.378-6.89-1.305-8.341-1.994 3.046.58 6.44 1.064 10.306.755 4.724-.378 6.236-.566 12.188-2.644Z"/><path fill="#E91C24" d="M47.82 3.527a29.124 29.124 0 0 1 2.181-.024v3.05c-2.407-.508-4.606-.508-7.487-.306-1.925.135-4.177.593-6.455 1.056-2.254.459-4.534.922-6.548 1.083 2.47-.455 4.89-1.432 6.838-2.218.479-.194.929-.376 1.345-.535A32.352 32.352 0 0 1 47.82 3.527ZM8.626 15.378v-2.581l.1.065c2.125 1.379 4.932 3.2 8.61 4.199 3.72 1.011 7.593 1.399 12.187 1.133-.492.043-1.02.1-1.581.162-1.581.172-3.434.373-5.538.373-3.81 0-8.442-.66-13.778-3.351Z"/></svg>