<svg xmlns="http://www.w3.org/2000/svg" fill="none" viewBox="0 0 50 41"><path fill="#fff" d="M1.047 16.392C3.702 6.894 10.254 0 16.622 0c.511 0 1.022.045 1.52.133a1.015 1.015 0 0 1 .827.85c.02.14.011.282-.027.418L17.63 6.09a1.022 1.022 0 0 1-1.017.738l-.104-.002c-2.362 0-6.678 3.54-8.878 11.406-.09.32-.172.641-.249.964a11.498 11.498 0 0 1 8.085-.762c6.02 1.685 9.546 7.951 7.863 13.97-1.364 4.876-5.85 8.283-10.91 8.283-1.03 0-2.06-.142-3.058-.422-3.97-1.11-6.954-4.405-8.404-9.278-1.309-4.395-1.276-9.715.088-14.595ZM42.873 0c.51 0 1.022.044 1.519.132a1.011 1.011 0 0 1 .8 1.268L43.88 6.09a1.016 1.016 0 0 1-1.016.738l-.104-.002c-2.361 0-6.678 3.54-8.878 11.406-.09.32-.172.641-.25.964a11.499 11.499 0 0 1 8.086-.762c6.018 1.685 9.545 7.951 7.862 13.97-1.364 4.876-5.85 8.283-10.91 8.283-1.03 0-2.06-.142-3.059-.422-3.969-1.11-6.953-4.405-8.404-9.278-1.308-4.396-1.276-9.716.089-14.597C29.953 6.894 36.503.001 42.873.001Z"/></svg>