<svg xmlns="http://www.w3.org/2000/svg" fill="none" viewBox="0 0 800 652"><path fill="#E91C24" d="M16.748 262.768C59.238 110.812 164.057.504 265.946.504c8.184 0 16.36.713 24.325 2.121a16.243 16.243 0 0 1 10.912 7.302 16.175 16.175 0 0 1 1.886 12.992L282.095 97.94c-2.024 7.245-9.009 12.143-16.27 11.811l-1.668-.033c-37.786 0-106.843 56.632-142.047 182.497a421.339 421.339 0 0 0-3.983 15.429c39.519-19.557 86.663-24.082 129.355-12.191 96.312 26.948 152.732 127.21 125.809 223.506-21.823 78.025-93.6 132.536-174.548 132.536-16.489 0-32.954-2.275-48.941-6.751C86.29 626.993 38.539 574.263 15.339 496.302-5.6 425.967-5.076 340.85 16.748 262.768ZM685.96.52c8.168 0 16.352.697 24.309 2.105a16.173 16.173 0 0 1 10.904 7.302 16.21 16.21 0 0 1 1.894 12.992L702.085 97.94c-2.023 7.245-8.88 12.143-16.27 11.811l-1.652-.033c-37.786 0-106.851 56.632-142.055 182.497a424.483 424.483 0 0 0-3.983 15.429c39.535-19.557 86.663-24.082 129.355-12.191 96.296 26.948 152.733 127.21 125.793 223.506-21.823 78.025-93.6 132.536-174.548 132.536-16.489 0-32.954-2.275-48.949-6.751-63.504-17.752-111.255-70.482-134.463-148.443-20.933-70.335-20.415-155.46 1.417-233.551C479.244 110.812 584.047.521 685.96.521Z"/></svg>