<svg width="146" height="40" viewBox="0 0 146 40" fill="none" xmlns="http://www.w3.org/2000/svg">
<path d="M57.118 7.62636L54.1944 7.63478L53.7828 5.02261C53.3952 4.6377 52.9068 4.33362 52.3182 4.1106C51.7293 3.88814 51.035 3.77771 50.2358 3.77999C48.5292 3.785 47.2174 4.40865 46.3006 5.65092C45.3835 6.89308 44.9281 8.51116 44.9339 10.505L44.9359 11.1921C44.9419 13.186 45.4047 14.8059 46.3245 16.0513C47.2444 17.2976 48.5395 17.9176 50.2103 17.9126C50.9825 17.9108 51.6895 17.7961 52.3311 17.5697C52.9724 17.3437 53.468 17.0367 53.817 16.6491L54.2135 14.0342L57.1371 14.0257L57.1486 17.9056C56.3607 18.8244 55.3547 19.5566 54.1304 20.1039C52.9059 20.6506 51.5349 20.9268 50.0169 20.9314C47.3854 20.9392 45.227 20.0339 43.542 18.2154C41.8573 16.397 41.0104 14.06 41.0022 11.2037L41.0001 10.5436C40.9918 7.69649 41.8202 5.35424 43.4852 3.51712C45.1504 1.67978 47.3077 0.757404 49.9573 0.749664C51.475 0.744995 52.8457 1.01709 54.0687 1.56616C55.2917 2.11478 56.3044 2.84145 57.1065 3.74641L57.118 7.62636ZM64.4645 18.0577C65.0409 18.056 65.5649 17.9302 66.0358 17.68C66.5068 17.4292 66.8728 17.1159 67.1337 16.7394L67.1272 14.5772L65.1748 14.583C64.3625 14.5857 63.7472 14.7778 63.3288 15.1582C62.9106 15.5396 62.7023 15.9971 62.7039 16.5299C62.7054 17.0107 62.8614 17.3854 63.1726 17.6553C63.4833 17.9252 63.914 18.0596 64.4645 18.0577ZM67.7873 20.6032C67.6811 20.3665 67.5885 20.1239 67.51 19.8766C67.4305 19.6278 67.3686 19.3775 67.3242 19.1237C66.8714 19.6493 66.32 20.075 65.6703 20.4C65.0205 20.7246 64.2763 20.8888 63.4376 20.8916C62.0487 20.8956 60.9445 20.5209 60.1255 19.7679C59.3063 19.0145 58.8951 17.987 58.891 16.6852C58.8872 15.3575 59.4171 14.3295 60.4807 13.6013C61.5444 12.8729 63.107 12.5058 65.1687 12.4995L67.1212 12.4937L67.117 11.1045C67.1149 10.4233 66.9168 9.8954 66.5227 9.52097C66.1284 9.14653 65.5469 8.96028 64.7784 8.96255C64.3414 8.96381 63.9529 9.01561 63.6124 9.11693C63.272 9.21836 62.997 9.33949 62.788 9.47975L62.5434 11.0005L59.6606 11.009L59.6643 7.86395C60.3619 7.39035 61.1623 6.99031 62.0654 6.66437C62.9686 6.33866 63.9531 6.17404 65.0189 6.17085C66.775 6.16573 68.2021 6.59185 69.3011 7.44864C70.3999 8.30624 70.9519 9.52996 70.9566 11.1198L70.9738 16.9771C70.9745 17.1956 70.9772 17.4011 70.9823 17.5931C70.987 17.7852 71.0029 17.9687 71.0298 18.1432L72.1964 18.2973L72.2033 20.5902L67.7873 20.6032ZM73.5369 18.2924L75.3703 17.8935L75.3443 9.10099L73.3122 8.7138L73.3052 6.40765L78.9006 6.39114L79.0769 8.46084C79.4066 7.72631 79.8333 7.15276 80.3562 6.74053C80.8791 6.32841 81.4857 6.12133 82.1757 6.11939C82.3767 6.11871 82.5885 6.13351 82.8114 6.16345C83.0343 6.1935 83.2199 6.22993 83.3688 6.27285L82.9728 9.76004L81.4002 9.72509C80.841 9.72691 80.3783 9.83768 80.0122 10.0571C79.6457 10.2767 79.367 10.5874 79.1761 10.99L79.1965 17.8823L81.0323 18.2704L81.0391 20.5634L73.5437 20.5853L73.5369 18.2924ZM83.8628 2.95404L83.8558 0.647663L89.7263 0.630356L89.7789 17.8523L91.6278 18.2405L91.6345 20.5334L84.113 20.5553L84.106 18.2623L85.9525 17.8635L85.908 3.34112L83.8628 2.95404ZM99.2035 9.01845C98.4959 9.0205 97.9374 9.29293 97.5285 9.83586C97.1196 10.3787 96.8682 11.0911 96.7748 11.974L96.8142 12.0391L101.505 12.0252L101.505 11.6846C101.502 10.8725 101.31 10.2243 100.929 9.74057C100.547 9.25685 99.9722 9.01606 99.2035 9.01845ZM99.2037 20.785C97.1594 20.7908 95.5236 20.1403 94.297 18.8336C93.07 17.5269 92.4535 15.8642 92.4477 13.8466L92.4461 13.3224C92.4398 11.2169 93.0133 9.48089 94.167 8.11487C95.3203 6.74873 96.871 6.06702 98.8194 6.0701C100.732 6.06429 102.219 6.6367 103.28 7.78676C104.34 8.9366 104.873 10.4945 104.879 12.4601L104.885 14.5436L96.4203 14.5686L96.3941 14.6469C96.4669 15.5817 96.7813 16.3495 97.338 16.9507C97.8945 17.5519 98.6488 17.851 99.6009 17.8483C100.448 17.8455 101.151 17.7588 101.71 17.5864C102.269 17.4145 102.879 17.1441 103.542 16.7752L104.584 19.1308C104 19.5956 103.244 19.9864 102.314 20.3038C101.385 20.6207 100.348 20.7814 99.2037 20.785ZM111.18 2.48L111.191 6.29209L113.68 6.28481L113.688 8.97098L111.199 8.97838L111.22 16.1991C111.222 16.7492 111.336 17.1419 111.564 17.3768C111.792 17.6124 112.098 17.7292 112.482 17.7278C112.744 17.7274 112.974 17.7158 113.17 17.6934C113.367 17.671 113.587 17.633 113.832 17.5797L114.167 20.344C113.74 20.476 113.316 20.5759 112.897 20.6426C112.478 20.7093 112.024 20.7433 111.535 20.7452C110.216 20.7487 109.199 20.3893 108.485 19.6663C107.771 18.9432 107.411 17.7954 107.407 16.2232L107.385 8.98988L106.055 8.99591L106.047 6.30962L107.377 6.30359L107.367 2.49149L111.18 2.48ZM118.765 13.5023C118.769 14.7952 118.999 15.8324 119.456 16.6127C119.913 17.3935 120.647 17.782 121.661 17.7789C122.648 17.7757 123.37 17.3809 123.826 16.593C124.283 15.8055 124.509 14.7697 124.505 13.4853L124.504 13.21C124.5 11.952 124.266 10.9266 123.8 10.1328C123.335 9.33927 122.604 8.94389 121.609 8.94685C120.613 8.94981 119.889 9.34951 119.437 10.1457C118.985 10.9423 118.761 11.9691 118.765 13.227L118.765 13.5023ZM114.938 13.2385C114.932 11.1245 115.519 9.39095 116.698 8.03756C117.878 6.68452 119.512 6.00475 121.6 5.99849C123.697 5.99245 125.339 6.66038 126.527 8.00182C127.714 9.34394 128.311 11.0764 128.317 13.1988L128.318 13.4741C128.325 15.6059 127.738 17.3437 126.558 18.6886C125.378 20.0325 123.749 20.7079 121.67 20.7142C119.564 20.7205 117.918 20.0548 116.73 18.7177C115.542 17.3796 114.945 15.6453 114.939 13.5137L114.938 13.2385ZM129.296 18.1218L131.129 17.7229L131.103 8.93045L129.071 8.54326L129.064 6.23711L134.66 6.2206L134.836 8.25114C135.305 7.52481 135.885 6.95945 136.574 6.55564C137.263 6.15184 138.035 5.94851 138.892 5.94589C140.324 5.94168 141.443 6.3884 142.25 7.28573C143.056 8.18317 143.462 9.5928 143.468 11.5148L143.486 17.6863L145.322 18.0744L145.329 20.3673L138.017 20.3893L138.01 18.0963L139.647 17.6979L139.629 11.5393C139.626 10.5871 139.432 9.91271 139.046 9.5163C138.661 9.11989 138.079 8.92294 137.301 8.9251C136.795 8.92669 136.341 9.03075 135.94 9.23715C135.538 9.44378 135.203 9.73522 134.933 10.1117L134.956 17.7118L136.503 18.1008L136.51 20.3937L129.303 20.4148L129.296 18.1218ZM76.6162 25.9344L76.6199 27.2165L75.4841 27.4388L75.5005 32.9756C75.5026 33.6753 75.6922 34.198 76.0696 34.5443C76.4471 34.8903 76.9638 35.062 77.6194 35.0599C78.2848 35.0582 78.8063 34.8845 79.1842 34.5381C79.562 34.1927 79.75 33.6671 79.7479 32.9628L79.7316 27.4259L78.6015 27.2107L78.5979 25.9286L82.9908 25.9158L82.9946 27.1978L81.8587 27.4198L81.8751 32.9566C81.8787 34.1465 81.4891 35.0662 80.7066 35.7141C79.9242 36.3623 78.8967 36.6883 77.6243 36.6921C76.3566 36.6962 75.3321 36.3759 74.5506 35.7323C73.7693 35.089 73.3767 34.1719 73.3732 32.9819L73.3568 27.4451L72.2269 27.2298L72.2231 25.9477L73.3524 25.9444L75.4797 25.9382L76.6162 25.9344ZM83.5794 35.2465L84.5987 35.0251L84.5842 30.1369L83.4544 29.9216L83.4506 28.6392L86.5615 28.6301L86.6595 29.7591C86.9205 29.355 87.2425 29.041 87.6257 28.8163C88.0087 28.5915 88.4381 28.4787 88.9142 28.4774C89.7106 28.4749 90.3331 28.7234 90.7815 29.222C91.2297 29.721 91.4554 30.5049 91.4586 31.5733L91.4687 35.0047L92.4894 35.22L92.493 36.495L88.4279 36.5071L88.4242 35.2321L89.3343 35.011L89.324 31.587C89.3225 31.0577 89.2145 30.6828 89.0001 30.4622C88.7858 30.2423 88.4624 30.1323 88.0303 30.1336C87.7485 30.1344 87.496 30.1925 87.273 30.3075C87.05 30.4219 86.8634 30.5841 86.7136 30.7936L86.7261 35.0188L87.5863 35.2346L87.59 36.5095L83.5832 36.5216L83.5794 35.2465ZM96.2308 26.7146L94.1035 26.7209L94.0987 25.1252L96.226 25.119L96.2308 26.7146ZM93.1013 35.2184L94.1279 34.9969L94.1134 30.1087L92.9763 29.8935L92.9725 28.6109L96.2363 28.6014L96.2552 34.9907L97.2759 35.2059L97.2795 36.4809L93.105 36.4933L93.1013 35.2184ZM100.977 29.8686L100.234 30.0092L101.286 33.5324L101.427 34.2748H101.471L101.621 33.5314L102.638 30.0097L101.88 29.8661L101.876 28.5836L105.453 28.5728L105.457 29.8552L104.773 29.9665L102.468 36.4648L100.435 36.4706L98.0847 29.9864L97.3996 29.8794L97.396 28.5968L100.973 28.5861L100.977 29.8686ZM109.298 30.0544C108.905 30.0556 108.595 30.2071 108.367 30.5086C108.14 30.8105 108 31.2066 107.948 31.6973L107.97 31.7338L110.578 31.7263L110.578 31.5368C110.576 31.0851 110.47 30.7247 110.258 30.4559C110.046 30.1867 109.726 30.0531 109.298 30.0544ZM109.507 36.5958C108.371 36.5991 107.461 36.2379 106.779 35.5112C106.097 34.7849 105.754 33.8603 105.751 32.7384L105.75 32.4473C105.747 31.2767 106.066 30.3116 106.707 29.5516C107.348 28.7926 108.21 28.4131 109.294 28.4152C110.357 28.4118 111.184 28.73 111.774 29.3691C112.363 30.0087 112.66 30.8749 112.663 31.9678L112.666 33.1263L107.96 33.1399L107.945 33.1834C107.986 33.7032 108.16 34.1304 108.47 34.4643C108.779 34.7987 109.199 34.965 109.728 34.9632C110.199 34.9616 110.59 34.9135 110.901 34.8176C111.211 34.7223 111.551 34.5718 111.919 34.3668L112.499 35.6763C112.174 35.9347 111.753 36.152 111.237 36.3287C110.72 36.505 110.143 36.5942 109.507 36.5958ZM113.511 35.1549L114.53 34.9334L114.516 30.0453L113.386 29.83L113.382 28.5475L116.493 28.5384L116.591 29.6889C116.775 29.2808 117.012 28.9619 117.302 28.7325C117.593 28.5036 117.93 28.3886 118.314 28.3875C118.426 28.387 118.544 28.3953 118.667 28.4118C118.791 28.4289 118.895 28.4488 118.977 28.4728L118.757 30.4115L117.883 30.3921C117.572 30.3929 117.315 30.4547 117.111 30.5766C116.908 30.6985 116.752 30.8714 116.646 31.0951L116.658 34.9272L117.678 35.1429L117.682 36.4179L113.515 36.4299L113.511 35.1549ZM125.726 31.2204L124.298 31.2245L124.069 30.2419C123.923 30.1258 123.739 30.0291 123.518 29.9519C123.297 29.8749 123.052 29.8366 122.785 29.8375C122.411 29.8388 122.115 29.9233 121.897 30.0913C121.679 30.2598 121.571 30.4704 121.571 30.723C121.572 30.9611 121.677 31.1586 121.886 31.3153C122.096 31.4729 122.514 31.6114 123.141 31.7305C124.118 31.9221 124.842 32.2053 125.314 32.5804C125.786 32.9557 126.024 33.4734 126.026 34.1337C126.028 34.843 125.725 35.4228 125.116 35.8737C124.508 36.325 123.706 36.5519 122.711 36.5552C122.103 36.5569 121.546 36.4698 121.038 36.2939C120.53 36.118 120.079 35.8658 119.684 35.5365L119.657 33.7662L121.143 33.7621L121.438 34.7886C121.564 34.8948 121.737 34.9733 121.956 35.0238C122.174 35.0736 122.403 35.0988 122.641 35.098C123.073 35.0968 123.402 35.0185 123.627 34.8621C123.853 34.7058 123.965 34.4946 123.964 34.2275C123.963 33.9943 123.849 33.7928 123.62 33.6235C123.391 33.4544 122.971 33.305 122.358 33.1756C121.43 32.989 120.729 32.7106 120.254 32.3403C119.779 31.9698 119.541 31.4646 119.539 30.8234C119.537 30.1631 119.807 29.5927 120.35 29.1124C120.893 28.6326 121.667 28.3911 122.672 28.3883C123.284 28.3862 123.863 28.467 124.41 28.6305C124.957 28.7944 125.386 29.0042 125.698 29.2605L125.726 31.2204ZM130.047 26.6105L127.919 26.6167L127.915 25.0211L130.042 25.0148L130.047 26.6105ZM126.917 35.1147L127.944 34.8928L127.929 30.0046L126.792 29.7893L126.789 28.5069L130.052 28.4973L130.071 34.8865L131.092 35.1023L131.096 36.3772L126.921 36.3897L126.917 35.1147ZM134.579 26.5524L134.585 28.4828L135.969 28.4787L135.974 29.9723L134.589 29.9764L134.601 33.9906C134.602 34.2967 134.666 34.5153 134.793 34.646C134.919 34.7767 135.089 34.8418 135.303 34.8409C135.449 34.8406 135.576 34.8338 135.686 34.8219C135.795 34.8093 135.917 34.7883 136.053 34.7588L136.24 36.2955C136.002 36.3689 135.767 36.4241 135.534 36.4615C135.301 36.4983 135.048 36.5175 134.776 36.5183C134.043 36.5203 133.478 36.3204 133.081 35.9185C132.684 35.5166 132.484 34.8782 132.481 34.0044L132.469 29.9827L131.736 29.9864L131.731 28.4928L132.465 28.489L132.459 26.5587L134.579 26.5524ZM145.174 29.7342L144.439 29.8454L141.562 37.5253C141.335 38.094 141.032 38.5714 140.652 38.9559C140.272 39.3409 139.698 39.5345 138.931 39.537C138.751 39.5375 138.582 39.5233 138.424 39.4943C138.266 39.4657 138.08 39.4251 137.866 39.3724L138.11 37.8194C138.178 37.8294 138.248 37.8385 138.321 37.8485C138.394 37.8575 138.457 37.8626 138.51 37.8626C138.865 37.8613 139.137 37.7742 139.326 37.6013C139.514 37.4283 139.66 37.2126 139.761 36.9554L139.999 36.3573L137.481 29.8736L136.745 29.7591L136.741 28.4766L140.603 28.465L140.606 29.7475L139.725 29.8959L140.813 33.04L140.924 33.6078L140.968 33.6149L142.202 29.8885L141.313 29.7454L141.309 28.4629L145.171 28.4517L145.174 29.7342Z" fill="white"/>
<path d="M31.8444 12.3492L25.6057 19.077L28.3027 7.30862L24.7109 9.21017L22.0185 1.88448L19.3249 9.21017L15.7331 7.30862L18.4301 19.077L12.0582 12.2058L11.6449 15.2062L6.42059 13.6825L8.83183 19.3812L6.61868 19.9849L14.0846 25.56C22.5786 22.2837 27.9077 23.2354 31.0293 24.5013C30.5705 26.2953 29.8909 27.9635 28.9926 29.5036C28.741 29.3657 28.478 29.2322 28.198 29.1054C27.113 28.6135 25.8095 28.2144 24.2407 27.9817C23.6374 27.8922 22.993 27.8285 22.3099 27.7923C22.1187 27.7822 21.9251 27.7743 21.7282 27.7687C21.3525 27.7581 20.9654 27.7562 20.5658 27.763C18.8012 27.7934 16.8021 27.9981 14.5298 28.4339C14.4444 28.4504 14.3601 28.4642 14.2759 28.4796C13.8626 28.5546 13.4608 28.6174 13.0691 28.6686C7.36322 29.4148 3.842 27.7256 1.73132 25.7989C1.51159 25.1674 1.32261 24.5273 1.16779 23.8786C3.28416 26.0875 7.01486 28.0227 13.1978 25.8853L4.84498 19.6483L7.75031 18.856L5.04193 12.4561L10.9858 14.1898L11.5026 10.4428L16.9979 16.3683L14.5753 5.8004L18.8946 8.08698L21.5278 0.925562C21.8739 0.971214 22.2189 1.02119 22.5638 1.07493L25.1413 8.08698L29.4605 5.8004L27.0391 16.3683L31.849 11.1806L31.8444 12.3492Z" fill="white"/>
<path d="M13.1762 29.9955C7.29155 30.4659 3.97525 28.8249 2.10364 26.7926C2.4076 27.5384 2.75482 28.2718 3.14759 28.9919C3.16808 29.0297 3.18972 29.0664 3.21135 29.104C4.96342 30.3903 7.90631 31.611 12.8529 32.0113C18.0453 32.4315 21.4607 33.8296 23.7069 35.4312C25.065 34.3829 26.2558 33.2313 27.277 31.9784C24.7337 30.5289 20.4361 29.4153 13.1762 29.9955Z" fill="white"/>
<path d="M3.21131 29.104C6.01872 34.1816 10.5315 37.0584 15.7468 39.3271C16.0564 39.4619 16.3934 39.4688 16.7019 39.3271C18.2309 38.6184 19.9294 37.9123 21.3627 37.0391C22.1927 36.5331 22.9737 35.9969 23.7068 35.4312C21.4607 33.8296 18.0453 32.4315 12.8528 32.0113C7.90627 31.611 4.96338 30.3903 3.21131 29.104ZM14.5298 28.4339C7.95637 29.6949 4.01733 27.8872 1.73132 25.8009C1.84745 26.1338 1.9704 26.4646 2.1036 26.7926C3.97521 28.8249 7.29151 30.4659 13.1762 29.9955C20.436 29.4153 24.7337 30.5289 27.277 31.9784C27.9168 31.1929 28.4894 30.3675 28.9938 29.5017C26.2114 27.9738 21.7248 27.0538 14.5298 28.4339ZM29.4605 5.80041L27.0391 16.3683L31.849 11.1806C31.8558 8.82356 31.8513 6.46618 31.8741 4.10993C31.8797 3.6813 31.7773 3.44154 31.3265 3.28762C28.4587 2.30389 25.542 1.53976 22.5638 1.07494L25.1413 8.08699L29.4605 5.80041Z" fill="#100F0D"/>
<path d="M13.1978 25.8853L4.84503 19.6483L7.75036 18.856L5.04198 12.4561L10.9858 14.1897L11.5027 10.4428L16.998 16.3683L14.5754 5.8004L18.8946 8.08698L21.5279 0.925556C20.8049 0.830381 20.0775 0.752398 19.3477 0.69445C13.1614 0.204462 7.1686 1.17556 1.32608 3.20712C0.761177 3.40476 0.566965 3.65681 0.573909 4.25689C0.607152 6.90788 0.605439 12.2133 0.605439 12.2133C0.605439 14.6035 0.580962 16.9936 0.610676 19.3838C0.630371 20.9242 0.819472 22.4236 1.16784 23.8803C3.28422 26.0895 7.01492 28.0225 13.1978 25.8853Z" fill="#100F0D"/>
<path d="M31.0305 24.5018C31.4266 22.9558 31.6589 21.3163 31.7204 19.5816C31.8058 17.1723 31.8342 14.7609 31.8445 12.3492L25.6057 19.077L28.3027 7.30861L24.7109 9.21017L22.0185 1.88447L19.3249 9.21017L15.7331 7.30861L18.4301 19.077L12.0582 12.2058L11.6449 15.2062L6.42059 13.6825L8.83184 19.3812L6.61869 19.9849L14.0846 25.56C22.5798 22.2832 27.9088 23.2358 31.0305 24.5018Z" fill="#E91D26"/>
<path d="M16.1783 0C11.2932 0 6.23391 0.898121 1.13935 2.66943C0.334009 2.9512 -0.00502017 3.42787 0.00465666 4.26361C0.0375579 6.88102 0.0361864 12.16 0.0361864 12.2131C0.0361864 12.9562 0.0337965 13.6992 0.0314058 14.4423C0.0262828 16.0634 0.0209307 17.7399 0.0414228 19.3909C0.0614595 20.9537 0.253971 22.5074 0.613494 24.0087C0.613721 24.0097 0.614067 24.0108 0.614294 24.0118L0.614639 24.0131C0.772314 24.6711 0.967445 25.3348 1.19286 25.9857C1.194 25.9889 1.19513 25.9922 1.19627 25.9954C1.2327 26.0921 1.26457 26.18 1.29417 26.2621C1.39322 26.5327 1.47063 26.7464 1.57651 27.007C1.88844 27.774 2.24934 28.5335 2.64779 29.2646C2.66146 29.2881 2.67398 29.3116 2.68764 29.3349C2.69561 29.3496 2.70472 29.3644 2.71269 29.3794C4.07314 31.839 5.87757 33.9132 8.22961 35.7202C10.1889 37.2257 12.5056 38.5378 15.5202 39.849C15.7502 39.9492 15.9893 40 16.2318 40C16.4765 40 16.7156 39.9475 16.9399 39.8441C17.2689 39.6915 17.599 39.5426 17.9474 39.3849C19.2054 38.816 20.5066 38.2278 21.6588 37.5252C22.5001 37.0119 23.3061 36.4591 24.0541 35.8819C25.4407 34.812 26.6736 33.6197 27.7176 32.338C28.3733 31.5334 28.9676 30.6775 29.4822 29.7942C29.4833 29.792 29.4845 29.7898 29.4856 29.7877C30.3998 28.2196 31.1011 26.5022 31.5712 24.6827C31.5747 24.6696 31.5792 24.6563 31.5826 24.6429C31.9891 23.0533 32.227 21.3572 32.2885 19.6017C32.3818 16.9824 32.4046 14.3513 32.4137 12.3518L32.4183 11.1828C32.4205 10.5268 32.4205 9.8715 32.4217 9.21621C32.4251 7.54382 32.4274 5.81452 32.4433 4.11538C32.449 3.66808 32.3579 3.03795 31.5098 2.74878C28.4382 1.69492 25.5397 0.963356 22.6515 0.512527C22.2963 0.457085 21.9434 0.406197 21.6018 0.361229C20.8539 0.262753 20.1105 0.183975 19.3921 0.126938C18.3288 0.0426903 17.2473 0 16.1783 0ZM16.1783 0.569225C17.2291 0.569225 18.2855 0.610207 19.3477 0.694454C20.0775 0.752399 20.8049 0.830383 21.5278 0.92556C21.8739 0.97121 22.2189 1.02119 22.5638 1.07492C25.542 1.53975 28.4587 2.30388 31.3265 3.28761C31.7773 3.44153 31.8798 3.68129 31.8741 4.10992C31.8513 6.46617 31.8559 8.82355 31.849 11.1806L31.8445 12.3492C31.8342 14.7609 31.8058 17.1723 31.7204 19.5816C31.6589 21.3163 31.4267 22.9558 31.0305 24.5018C31.0305 24.5016 31.0305 24.5015 31.0293 24.5013C30.5705 26.2945 29.8909 27.962 28.9938 29.5017V29.5021C28.9938 29.5026 28.9927 29.5031 28.9927 29.5036C28.4883 30.3687 27.9157 31.1935 27.277 31.9784C26.2558 33.2312 25.065 34.3829 23.7068 35.4312C22.9737 35.9969 22.1927 36.5331 21.3628 37.0391C19.9295 37.9123 18.2309 38.6184 16.702 39.3271C16.5494 39.3971 16.3912 39.4308 16.2318 39.4308C16.0678 39.4308 15.9039 39.3952 15.7468 39.3271C10.5316 37.0583 6.01874 34.1816 3.21133 29.104C3.1897 29.0664 3.16806 29.0297 3.14757 28.9919C2.7548 28.2718 2.40758 27.5384 2.10362 26.7926C1.97042 26.4646 1.88276 26.213 1.73134 25.7989C1.51194 25.1691 1.32387 24.5288 1.16781 23.8803V23.8786C0.818306 22.4225 0.630343 20.9237 0.610648 19.3838C0.580934 16.9936 0.605411 14.6035 0.605411 12.2133C0.605411 12.2133 0.607124 6.90789 0.573881 4.25689C0.566937 3.65681 0.761149 3.40476 1.32605 3.20713C6.1656 1.52438 11.1076 0.569225 16.1783 0.569225Z" fill="white"/>
</svg>
