<svg width="146" height="40" viewBox="0 0 146 40" fill="none" xmlns="http://www.w3.org/2000/svg">
<path d="M16.1173 7.62606L13.1939 7.63449L12.7823 5.02242C12.3947 4.63752 11.9064 4.33345 11.3178 4.11044C10.7289 3.888 10.0346 3.77757 9.23542 3.77985C7.52888 3.78485 6.21718 4.40847 5.30041 5.6507C4.38336 6.89281 3.92796 8.51083 3.93374 10.5046L3.93579 11.1917C3.94179 13.1855 4.40453 14.8053 5.32433 16.0507C6.24412 17.2969 7.53924 17.9169 9.2099 17.9119C9.98214 17.9101 10.6891 17.7954 11.3307 17.569C11.9719 17.343 12.4675 17.036 12.8165 16.6485L13.213 14.0337L16.1365 14.0252L16.1479 17.9049C15.3601 18.8236 14.3542 19.5559 13.1299 20.1031C11.9055 20.6498 10.5344 20.9259 9.01658 20.9306C6.38518 20.9383 4.22688 20.0331 2.54195 18.2147C0.857292 16.3963 0.0104209 14.0594 0.00215606 11.2033L6.13985e-05 10.5432C-0.00821481 7.69619 0.820202 5.35403 2.48512 3.51699C4.15025 1.67971 6.30741 0.757381 8.957 0.749641C10.4746 0.744972 11.8452 1.01705 13.0682 1.5661C14.2911 2.1147 15.3038 2.84135 16.1058 3.74627L16.1173 7.62606ZM23.4636 18.057C24.0399 18.0553 24.564 17.9295 25.0348 17.6793C25.5058 17.4285 25.8718 17.1152 26.1327 16.7388L26.1262 14.5766L24.1738 14.5824C23.3616 14.5851 22.7463 14.7772 22.3279 15.1576C21.9098 15.539 21.7014 15.9965 21.703 16.5293C21.7045 17.01 21.8606 17.3847 22.1717 17.6546C22.4824 17.9245 22.9132 18.0589 23.4636 18.057ZM26.7862 20.6024C26.6801 20.3657 26.5875 20.1231 26.5089 19.8759C26.4295 19.627 26.3675 19.3768 26.3231 19.1229C25.8704 19.6485 25.3191 20.0742 24.6694 20.3992C24.0196 20.7238 23.2754 20.888 22.4367 20.8908C21.0479 20.8947 19.9437 20.5201 19.1248 19.7672C18.3056 19.0138 17.8944 17.9863 17.8903 16.6846C17.8865 15.3569 18.4163 14.329 19.4799 13.6008C20.5436 12.8724 22.1061 12.5053 24.1678 12.499L26.1201 12.4932L26.1159 11.1041C26.1139 10.4229 25.9158 9.89502 25.5217 9.5206C25.1275 9.14618 24.546 8.95993 23.7774 8.96221C23.3405 8.96346 22.952 9.01526 22.6115 9.11658C22.2711 9.21801 21.9962 9.33913 21.7872 9.47938L21.5425 11.0001L18.6598 11.0086L18.6636 7.86365C19.3611 7.39007 20.1615 6.99004 21.0646 6.66411C21.9677 6.33841 22.9522 6.1738 24.018 6.17061C25.774 6.16549 27.2011 6.59159 28.3 7.44836C29.3988 8.30592 29.9508 9.52959 29.9554 11.1194L29.9726 16.9765C29.9733 17.1949 29.976 17.4004 29.9812 17.5925C29.9858 17.7845 30.0018 17.968 30.0286 18.1425L31.1952 18.2966L31.2021 20.5894L26.7862 20.6024ZM32.5356 18.2917L34.3689 17.8928L34.343 9.10064L32.3109 8.71347L32.304 6.4074L37.8991 6.39089L38.0755 8.46051C38.4051 7.72601 38.8318 7.15248 39.3547 6.74027C39.8775 6.32817 40.4841 6.12109 41.1741 6.11916C41.3751 6.11847 41.5869 6.13327 41.8098 6.16321C42.0327 6.19327 42.2182 6.22969 42.3671 6.27261L41.9712 9.75966L40.3986 9.72471C39.8394 9.72653 39.3768 9.8373 39.0107 10.0567C38.6442 10.2763 38.3655 10.5869 38.1746 10.9896L38.195 17.8816L40.0308 18.2697L40.0375 20.5626L32.5425 20.5845L32.5356 18.2917ZM42.8611 2.95393L42.8541 0.64764L48.7244 0.630337L48.777 17.8516L50.6258 18.2398L50.6325 20.5326L43.1113 20.5545L43.1044 18.2616L44.9507 17.8628L44.9062 3.34099L42.8611 2.95393ZM58.2012 9.0181C57.4937 9.02015 56.9352 9.29257 56.5263 9.83548C56.1174 10.3783 55.866 11.0907 55.7726 11.9735L55.812 12.0386L60.5031 12.0247L60.5021 11.6841C60.4996 10.8721 60.3078 10.2239 59.9265 9.74019C59.5451 9.25649 58.9699 9.01571 58.2012 9.0181ZM58.2014 20.7842C56.1572 20.79 54.5214 20.1395 53.2949 18.8329C52.0679 17.5262 51.4515 15.8636 51.4457 13.8461L51.4441 13.3218C51.4378 11.2165 52.0112 9.48052 53.1649 8.11455C54.3182 6.74847 55.8688 6.06679 57.8171 6.06986C59.7301 6.06406 61.2167 6.63644 62.2773 7.78646C63.3375 8.93625 63.8709 10.494 63.8767 12.4596L63.8828 14.543L55.4181 14.5681L55.392 14.6464C55.4647 15.5811 55.7791 16.3489 56.3358 16.9501C56.8923 17.5512 57.6466 17.8503 58.5986 17.8476C59.446 17.8448 60.1491 17.7581 60.7075 17.5857C61.2662 17.4138 61.8768 17.1435 62.5398 16.7745L63.5819 19.1301C62.998 19.5948 62.2414 19.9856 61.3119 20.303C60.3826 20.6199 59.3455 20.7806 58.2014 20.7842ZM70.1776 2.4799L70.1878 6.29185L72.6775 6.28456L72.6856 8.97063L70.1959 8.97803L70.2172 16.1985C70.2188 16.7486 70.3335 17.1412 70.5614 17.3762C70.789 17.6117 71.0952 17.7285 71.4796 17.7271C71.7416 17.7267 71.9711 17.7151 72.1674 17.6928C72.3641 17.6703 72.5844 17.6323 72.8288 17.579L73.1645 20.3432C72.737 20.4752 72.3136 20.5751 71.8945 20.6418C71.4753 20.7085 71.0211 20.7425 70.5321 20.7444C69.2129 20.7479 68.1963 20.3885 67.4823 19.6655C66.768 18.9425 66.4088 17.7948 66.4041 16.2226L66.3828 8.98953L65.0521 8.99556L65.044 6.30938L66.3747 6.30335L66.3645 2.4914L70.1776 2.4799ZM77.7624 13.5018C77.7662 14.7946 77.9964 15.8318 78.4529 16.6121C78.9095 17.3928 79.6443 17.7813 80.6578 17.7782C81.6448 17.7751 82.3667 17.3803 82.8229 16.5924C83.2792 15.8049 83.5056 14.7691 83.5017 13.4847L83.5009 13.2095C83.497 11.9515 83.2625 10.9262 82.7971 10.1324C82.3319 9.33891 81.6012 8.94354 80.6055 8.9465C79.6096 8.94946 78.8856 9.34915 78.4338 10.1454C77.9818 10.9419 77.7578 11.9686 77.7615 13.2264L77.7624 13.5018ZM73.9354 13.2379C73.9292 11.124 74.5158 9.39059 75.6954 8.03725C76.8751 6.68426 78.5089 6.00452 80.5967 5.99826C82.6933 5.99223 84.3352 6.66013 85.5231 8.00151C86.7107 9.34357 87.3077 11.076 87.314 13.1983L87.3149 13.4736C87.3212 15.6053 86.7342 17.343 85.5547 18.6878C84.3748 20.0317 82.7454 20.7071 80.6666 20.7134C78.5612 20.7197 76.9148 20.054 75.7272 18.717C74.5394 17.3789 73.9424 15.6446 73.9361 13.5132L73.9354 13.2379ZM88.2925 18.1211L90.1258 17.7222L90.0999 8.9301L88.0678 8.54293L88.0609 6.23687L93.656 6.22036L93.8322 8.25082C94.3017 7.52452 94.8811 6.95919 95.5703 6.55539C96.2589 6.1516 97.0313 5.94828 97.8877 5.94566C99.3202 5.94145 100.44 6.38816 101.246 7.28545C102.052 8.18286 102.458 9.59243 102.464 11.5144L102.482 17.6856L104.318 18.0737L104.325 20.3665L97.0132 20.3885L97.0062 18.0956L98.6432 17.6972L98.6249 11.5389C98.6221 10.5867 98.4278 9.91232 98.0424 9.51593C97.6567 9.11954 97.0752 8.92259 96.2977 8.92475C95.7911 8.92635 95.337 9.0304 94.9362 9.23679C94.5345 9.44341 94.1993 9.73484 93.9296 10.1113L93.9519 17.7111L95.4994 18.1001L95.5062 20.3929L88.2995 20.414L88.2925 18.1211ZM35.6148 25.9334L35.6185 27.2154L34.4828 27.4377L34.4992 32.9743C34.5012 33.674 34.6909 34.1967 35.0682 34.543C35.4457 34.8889 35.9623 35.0606 36.618 35.0586C37.2834 35.0568 37.8049 34.8831 38.1827 34.5368C38.5605 34.1913 38.7485 33.6658 38.7464 32.9615L38.73 27.4249L37.6001 27.2096L37.5964 25.9276L41.9892 25.9148L41.9929 27.1967L40.8571 27.4187L40.8735 32.9553C40.8771 34.1452 40.4875 35.0648 39.7051 35.7127C38.9227 36.3609 37.8952 36.6869 36.6228 36.6907C35.3552 36.6948 34.3308 36.3745 33.5493 35.7309C32.768 35.0876 32.3755 34.1706 32.3719 32.9806L32.3555 27.444L31.2257 27.2287L31.2219 25.9466L32.3511 25.9433L34.4783 25.9372L35.6148 25.9334ZM42.5777 35.2451L43.5969 35.0237L43.5825 30.1358L42.4527 29.9205L42.449 28.638L45.5597 28.629L45.6577 29.7579C45.9187 29.3539 46.2407 29.0399 46.6239 28.8152C47.0068 28.5904 47.4362 28.4775 47.9123 28.4763C48.7087 28.4738 49.3312 28.7223 49.7795 29.2208C50.2277 29.7198 50.4534 30.5037 50.4566 31.5721L50.4668 35.0033L51.4873 35.2186L51.491 36.4936L47.4261 36.5057L47.4223 35.2307L48.3324 35.0096L48.3221 31.5858C48.3206 31.0565 48.2126 30.6816 47.9982 30.461C47.7839 30.2411 47.4606 30.1312 47.0284 30.1325C46.7467 30.1332 46.4942 30.1913 46.2712 30.3063C46.0482 30.4207 45.8616 30.5829 45.7118 30.7924L45.7243 35.0175L46.5845 35.2332L46.5882 36.5081L42.5815 36.5202L42.5777 35.2451ZM55.2286 26.7136L53.1014 26.7198L53.0966 25.1243L55.2238 25.118L55.2286 26.7136ZM52.0992 35.217L53.1259 34.9955L53.1113 30.1075L51.9742 29.8924L51.9705 28.6098L55.2342 28.6003L55.2531 34.9893L56.2737 35.2045L56.2773 36.4795L52.103 36.4919L52.0992 35.217ZM59.9744 29.8674L59.2317 30.008L60.2839 33.531L60.4245 34.2734H60.4683L60.6191 33.5301L61.6358 30.0085L60.8778 29.8649L60.8741 28.5825L64.4509 28.5717L64.4547 29.8541L63.7702 29.9653L61.4655 36.4633L59.433 36.4691L57.0825 29.9852L56.3974 29.8782L56.3938 28.5957L59.9707 28.585L59.9744 29.8674ZM68.2958 30.0532C67.9024 30.0545 67.5919 30.2059 67.3647 30.5074C67.1372 30.8093 66.9975 31.2054 66.9456 31.696L66.9676 31.7326L69.5756 31.7251L69.5751 31.5356C69.5738 31.0839 69.467 30.7235 69.255 30.4547C69.0429 30.1855 68.723 30.052 68.2958 30.0532ZM68.5046 36.5944C67.3682 36.5977 66.4587 36.2364 65.7767 35.5098C65.0946 34.7835 64.7518 33.859 64.7485 32.7371L64.7477 32.446C64.7443 31.2755 65.0632 30.3104 65.7044 29.5505C66.3457 28.7915 67.2078 28.412 68.2909 28.4141C69.3545 28.4107 70.1812 28.7289 70.7708 29.368C71.3603 30.0075 71.6567 30.8737 71.6599 31.9665L71.6633 33.125L66.9571 33.1386L66.9427 33.1821C66.9831 33.7019 67.1578 34.129 67.4674 34.4629C67.7767 34.7973 68.1962 34.9636 68.7255 34.9619C69.1965 34.9602 69.5874 34.9122 69.898 34.8163C70.2084 34.7209 70.548 34.5704 70.9165 34.3655L71.4961 35.6749C71.1713 35.9333 70.7506 36.1506 70.2339 36.3273C69.7173 36.5035 69.1407 36.5928 68.5046 36.5944ZM72.5083 35.1535L73.5275 34.9321L73.5131 30.0441L72.3832 29.8288L72.3795 28.5464L75.4902 28.5373L75.5882 29.6878C75.7716 29.2797 76.0087 28.9608 76.2995 28.7314C76.5902 28.5025 76.9273 28.3875 77.311 28.3864C77.4227 28.3859 77.5405 28.3942 77.6644 28.4107C77.7883 28.4278 77.8915 28.4477 77.9742 28.4717L77.7541 30.4104L76.8798 30.3909C76.569 30.3917 76.3117 30.4535 76.1082 30.5754C75.9045 30.6973 75.7495 30.8702 75.6434 31.0938L75.6548 34.9258L76.6752 35.1415L76.679 36.4165L72.512 36.4285L72.5083 35.1535ZM84.7223 31.2192L83.2944 31.2232L83.0656 30.2407C82.9195 30.1246 82.736 30.0279 82.5147 29.9508C82.2934 29.8737 82.0492 29.8355 81.7822 29.8363C81.4083 29.8376 81.1123 29.9222 80.8943 30.0901C80.6762 30.2586 80.5674 30.4692 80.5682 30.7218C80.5689 30.9598 80.674 31.1573 80.8832 31.3141C81.0925 31.4716 81.5106 31.6102 82.1374 31.7293C83.1143 31.9209 83.8388 32.2041 84.311 32.5791C84.7831 32.9544 85.0202 33.4721 85.0223 34.1324C85.0243 34.8416 84.7213 35.4215 84.1131 35.8723C83.5049 36.3236 82.703 36.5504 81.7074 36.5537C81.1002 36.5554 80.5426 36.4684 80.0347 36.2925C79.5266 36.1166 79.0755 35.8644 78.6811 35.5351L78.654 33.7649L80.1401 33.7608L80.4346 34.7872C80.5611 34.8935 80.7338 34.9719 80.9525 35.0224C81.1713 35.0722 81.3995 35.0975 81.6374 35.0967C82.0698 35.0954 82.3986 35.0171 82.624 34.8607C82.8493 34.7044 82.9616 34.4932 82.9607 34.2261C82.9601 33.993 82.8454 33.7915 82.6166 33.6222C82.3878 33.453 81.9673 33.3037 81.355 33.1743C80.4267 32.9877 79.7255 32.7093 79.2508 32.339C78.7762 31.9686 78.5379 31.4634 78.536 30.8222C78.534 30.1619 78.8044 29.5916 79.3468 29.1113C79.8894 28.6315 80.6634 28.39 81.6687 28.3872C82.2806 28.3851 82.86 28.4659 83.407 28.6294C83.9539 28.7932 84.3829 29.003 84.6946 29.2594L84.7223 31.2192ZM89.0433 26.6094L86.916 26.6157L86.9112 25.0201L89.0385 25.0138L89.0433 26.6094ZM85.914 35.1133L86.9405 34.8914L86.926 30.0035L85.789 29.7882L85.7852 28.5058L89.0489 28.4962L89.0678 34.8852L90.0883 35.1009L90.092 36.3758L85.9177 36.3883L85.914 35.1133ZM93.5755 26.5514L93.5813 28.4816L94.9655 28.4775L94.9699 29.9711L93.5857 29.9752L93.5976 33.9893C93.5984 34.2954 93.6623 34.5139 93.7889 34.6446C93.9156 34.7753 94.0857 34.8404 94.2994 34.8395C94.4452 34.8392 94.5727 34.8325 94.6818 34.8205C94.7911 34.808 94.9137 34.7869 95.0497 34.7575L95.2364 36.2941C94.9985 36.3675 94.7631 36.4227 94.5301 36.46C94.2971 36.4969 94.0446 36.5161 93.7726 36.5168C93.0392 36.5189 92.474 36.319 92.0771 35.9171C91.68 35.5152 91.4803 34.8768 91.4777 34.003L91.4657 29.9815L90.7321 29.9852L90.7278 28.4917L91.4614 28.4879L91.4556 26.5576L93.5755 26.5514ZM104.17 29.733L103.435 29.8442L100.558 37.5239C100.331 38.0925 100.028 38.5699 99.648 38.9544C99.2678 39.3393 98.694 39.5329 97.9267 39.5354C97.7471 39.5359 97.5783 39.5218 97.4204 39.4927C97.2623 39.4642 97.0765 39.4235 96.8627 39.3708L97.1057 37.8179C97.1738 37.8279 97.2443 37.8371 97.3171 37.847C97.39 37.8561 97.4531 37.8611 97.5064 37.8611C97.8611 37.8598 98.1328 37.7727 98.3218 37.5998C98.5106 37.4268 98.6557 37.2112 98.757 36.954L98.9956 36.3559L96.4776 29.8725L95.7415 29.7579L95.7377 28.4755L99.5987 28.4639L99.6025 29.7463L98.7215 29.8947L99.809 33.0387L99.9199 33.6065L99.9637 33.6136L101.198 29.8873L100.309 29.7442L100.305 28.4618L104.166 28.4506L104.17 29.733ZM144.865 12.3487L138.627 19.0763L141.324 7.30833L137.732 9.20981L135.04 1.8844L132.346 9.20981L128.755 7.30833L131.452 19.0763L125.08 12.2053L124.667 15.2056L119.443 13.6819L121.854 19.3804L119.641 19.9841L127.106 25.559C135.6 22.2828 140.929 23.2345 144.05 24.5003C143.592 26.2943 142.912 27.9624 142.014 29.5025C141.762 29.3646 141.499 29.231 141.219 29.1042C140.134 28.6123 138.831 28.2133 137.262 27.9806C136.659 27.8912 136.014 27.8274 135.331 27.7912C135.14 27.7811 134.947 27.7732 134.75 27.7676C134.374 27.757 133.987 27.7551 133.587 27.7619C131.823 27.7923 129.824 27.997 127.551 28.4328C127.466 28.4493 127.382 28.4631 127.298 28.4785C126.884 28.5535 126.482 28.6163 126.091 28.6675C120.385 29.4137 116.864 27.7245 114.754 25.7979C114.534 25.1664 114.345 24.5264 114.19 23.8777C116.306 26.0864 120.037 28.0216 126.22 25.8843L117.867 19.6475L120.772 18.8553L118.064 12.4556L124.008 14.1892L124.524 10.4424L130.02 16.3676L127.597 5.80017L131.916 8.08666L134.549 0.925526C134.895 0.971172 135.24 1.02115 135.585 1.07488L138.163 8.08666L142.482 5.80017L140.06 16.3676L144.87 11.1802L144.865 12.3487Z" fill="white"/>
<path d="M126.198 29.9943C120.314 30.4647 116.997 28.8237 115.126 26.7916C115.43 27.5373 115.777 28.2707 116.17 28.9907C116.19 29.0285 116.212 29.0652 116.233 29.1029C117.985 30.3891 120.928 31.6098 125.875 32.01C131.067 32.4302 134.482 33.8283 136.728 35.4298C138.086 34.3816 139.277 33.2299 140.298 31.9771C137.755 30.5277 133.458 29.4141 126.198 29.9943Z" fill="white"/>
<path d="M116.233 29.1029C119.041 34.1803 123.553 37.0569 128.768 39.3255C129.078 39.4603 129.415 39.4673 129.724 39.3255C131.252 38.6169 132.951 37.9108 134.384 37.0376C135.214 36.5316 135.995 35.9955 136.728 35.4298C134.482 33.8283 131.067 32.4302 125.875 32.01C120.928 31.6098 117.985 30.3891 116.233 29.1029ZM127.551 28.4328C120.978 29.6937 117.039 27.8861 114.753 25.7999C114.87 26.1328 114.993 26.4636 115.126 26.7916C116.997 28.8237 120.313 30.4647 126.198 29.9943C133.457 29.4141 137.755 30.5277 140.298 31.9771C140.938 31.1917 141.511 30.3663 142.015 29.5005C139.233 27.9727 134.746 27.0527 127.551 28.4328ZM144.051 24.5009C144.448 22.9549 144.68 21.3155 144.741 19.5808C144.827 17.1716 144.855 14.7603 144.865 12.3487L138.627 19.0763L141.324 7.30834L137.732 9.20982L135.04 1.88441L132.346 9.20982L128.755 7.30834L131.452 19.0763L125.08 12.2053L124.667 15.2056L119.443 13.6819L121.854 19.3804L119.641 19.9841L127.106 25.559C135.601 22.2823 140.93 23.2349 144.051 24.5009Z" fill="#100F0D"/>
<path d="M142.482 5.80017L140.06 16.3676L144.87 11.1802C144.877 8.82321 144.872 6.46591 144.895 4.10976C144.901 3.68115 144.798 3.4414 144.347 3.28749C141.48 2.30379 138.563 1.53969 135.585 1.07488L138.163 8.08666L142.482 5.80017ZM126.219 25.8843L117.867 19.6475L120.772 18.8553L118.064 12.4556L124.008 14.1892L124.524 10.4424L130.019 16.3676L127.597 5.80017L131.916 8.08666L134.549 0.925524C133.826 0.830353 133.099 0.752373 132.369 0.694427C126.183 0.204458 120.19 1.17552 114.348 3.207C113.783 3.40463 113.589 3.65667 113.596 4.25673C113.629 6.90762 113.628 12.2128 113.628 12.2128C113.628 14.6029 113.603 16.993 113.633 19.3831C113.653 20.9234 113.842 22.4227 114.19 23.8794C116.306 26.0885 120.037 28.0214 126.219 25.8843Z" fill="#100F0D"/>
<path d="M129.2 0C124.315 0 119.256 0.89809 114.162 2.66933C113.356 2.95109 113.017 3.42774 113.027 4.26344C113.06 6.88075 113.058 12.1595 113.058 12.2126C113.058 12.9557 113.056 13.6987 113.054 14.4417C113.048 16.0628 113.043 17.7392 113.064 19.3901C113.084 20.9529 113.276 22.5065 113.636 24.0077C113.636 24.0087 113.636 24.0099 113.636 24.0109L113.637 24.0122C113.795 24.6701 113.99 25.3338 114.215 25.9847C114.216 25.9879 114.217 25.9912 114.218 25.9943C114.255 26.0911 114.287 26.179 114.316 26.2611C114.415 26.5317 114.493 26.7453 114.599 27.0059C114.911 27.7729 115.271 28.5324 115.67 29.2635C115.684 29.2869 115.696 29.3104 115.71 29.3338C115.718 29.3484 115.727 29.3632 115.735 29.3783C117.095 31.8378 118.9 33.9118 121.252 35.7188C123.211 37.2242 125.527 38.5363 128.542 39.8475C128.772 39.9477 129.011 39.9984 129.253 39.9984C129.498 39.9984 129.737 39.946 129.961 39.8426C130.29 39.6899 130.621 39.541 130.969 39.3833C132.227 38.8145 133.528 38.2263 134.68 37.5238C135.521 37.0105 136.327 36.4576 137.075 35.8805C138.462 34.8106 139.695 33.6183 140.739 32.3367C141.394 31.5321 141.989 30.6763 142.503 29.793C142.504 29.7908 142.506 29.7886 142.507 29.7865C143.421 28.2184 144.122 26.5012 144.592 24.6818C144.596 24.6687 144.6 24.6554 144.604 24.6419C145.01 23.0524 145.248 21.3564 145.309 19.6009C145.403 16.9817 145.426 14.3507 145.435 12.3514L145.439 11.1823C145.441 10.5264 145.441 9.87111 145.443 9.21585C145.446 7.54353 145.448 5.81429 145.464 4.11522C145.47 3.66794 145.379 3.03783 144.531 2.74868C141.459 1.69486 138.561 0.963322 135.673 0.512512C135.318 0.457069 134.965 0.406185 134.623 0.361217C133.875 0.262745 133.132 0.183968 132.414 0.126934C131.35 0.0426941 130.269 0 129.2 0ZM129.2 0.569202C130.251 0.569202 131.307 0.610188 132.369 0.694427C133.099 0.752373 133.826 0.830353 134.549 0.925526C134.895 0.971176 135.24 1.02115 135.585 1.07489C138.563 1.5397 141.48 2.30379 144.347 3.28749C144.798 3.4414 144.901 3.68115 144.895 4.10976C144.872 6.46592 144.877 8.82321 144.87 11.1802L144.865 12.3487C144.855 14.7603 144.827 17.1716 144.741 19.5808C144.68 21.3155 144.448 22.9549 144.051 24.5009C144.051 24.5006 144.051 24.5005 144.05 24.5003C143.592 26.2935 142.912 27.9609 142.015 29.5005V29.501C142.015 29.5014 142.014 29.502 142.014 29.5025C141.509 30.3675 140.937 31.1923 140.298 31.9771C139.277 33.2299 138.086 34.3816 136.728 35.4298C135.995 35.9955 135.214 36.5316 134.384 37.0376C132.951 37.9108 131.252 38.6169 129.724 39.3255C129.571 39.3955 129.413 39.4292 129.253 39.4292C129.089 39.4292 128.925 39.3937 128.768 39.3255C123.553 37.0569 119.041 34.1803 116.233 29.1029C116.212 29.0652 116.19 29.0285 116.17 28.9907C115.777 28.2707 115.43 27.5373 115.126 26.7916C114.993 26.4636 114.905 26.212 114.753 25.7979C114.534 25.1681 114.346 24.5278 114.19 23.8794V23.8777C113.84 22.4216 113.653 20.9229 113.633 19.3831C113.603 16.993 113.628 14.6029 113.628 12.2128C113.628 12.2128 113.629 6.90762 113.596 4.25673C113.589 3.65667 113.783 3.40463 114.348 3.207C119.188 1.52433 124.129 0.569202 129.2 0.569202Z" fill="white"/>
</svg>
