<?xml version="1.0" encoding="UTF-8"?>
<svg width="429px" height="72px" viewBox="0 0 429 72" version="1.1" xmlns="http://www.w3.org/2000/svg" xmlns:xlink="http://www.w3.org/1999/xlink">
    <title>cu_crm-tagline--21</title>
    <g id="Lofi-Flow" stroke="none" stroke-width="1" fill="none" fill-rule="evenodd">
        <g id="Artboard" transform="translate(-630.000000, -2677.000000)">
            <g id="cu_crm-tagline--21" transform="translate(630.000000, 2677.000000)">
                <g id="Group" fill-rule="nonzero">
                    <g transform="translate(0.964052, 0.954907)" id="Path">
                        <path d="M56.8308824,21.3001592 L45.5302614,33.3720955 L50.4160784,12.2571883 L43.9106536,15.6681167 L39.032549,2.52477454 L34.1544444,15.6681167 L27.6490196,12.2571883 L32.5348366,33.3720955 L20.9932026,21.044244 L20.2431699,26.4280106 L10.7800327,23.6950663 L15.1471895,33.9202122 L11.1386601,35.0030769 L24.6643137,45.0066844 C40.0505882,39.1282759 49.7026797,40.8356499 55.3597386,43.1064191 C54.5267974,46.326366 53.2966667,49.3190451 51.6693464,52.0825464 C51.2143137,51.8342706 50.7361438,51.5955438 50.2290523,51.3682759 C48.2643137,50.4859416 45.9023856,49.7697613 43.0603595,49.3515119 C41.9671242,49.1910875 40.8006209,49.0764987 39.5627778,49.011565 C39.2176471,48.9924668 38.866732,48.9790981 38.5081046,48.9695491 C37.8274837,48.9504509 37.1256536,48.9466313 36.4026144,48.96 C33.2077451,49.0153846 29.5848366,49.382069 25.4683333,50.163183 C25.314085,50.1918302 25.1617647,50.2166578 25.0094444,50.245305 C24.2613399,50.378992 23.5325163,50.4916711 22.8229739,50.585252 C12.4883333,51.9240318 6.1101634,48.8931565 2.28480392,45.4363926 C1.88761438,44.3038727 1.54633987,43.1541645 1.2648366,41.9910875 C5.0998366,45.9539523 11.855915,49.4259947 23.0562745,45.5910875 L7.92643791,34.3995756 L13.1882353,32.9786737 L8.28313725,21.4949602 L19.0496732,24.6060477 L19.986732,17.8835013 L29.9396078,28.5154377 L25.5493137,9.54907162 L33.3735621,13.6513528 L38.1436928,0.802122016 C38.7703268,0.884244032 39.3969608,0.974005305 40.0197386,1.06949602 L44.6896078,13.6513528 L52.5119281,9.54907162 L48.1254902,28.5097082 L56.8385948,19.2012732 L56.8308824,21.3001592 Z" fill="#FFFFFF"></path>
                        <path d="M23.0138562,52.9629708 C12.3552941,53.8071088 6.34732026,50.8621751 2.95771242,47.2163395 C3.50722222,48.5551194 4.13578431,49.8709814 4.84918301,51.1620159 C4.88581699,51.2307692 4.92630719,51.2957029 4.96294118,51.3625464 C8.13660131,53.6696021 13.4697386,55.8601592 22.4296405,56.5782493 C31.8349346,57.332626 38.0222222,59.8402122 42.0905229,62.7144828 C44.5507843,60.8333156 46.7083333,58.7668966 48.5573856,56.5190451 C43.9511438,53.9197878 36.1635294,51.9202122 23.0138562,52.9629708 Z" fill="#FFFFFF"></path>
                        <path d="M4.96101307,51.3625464 C10.049281,60.4723607 18.2225163,65.6345889 27.6702288,69.706313 C28.2313072,69.9488594 28.8425163,69.9603183 29.3997386,69.706313 C32.1704248,68.4343767 35.2476797,67.1681698 37.8429085,65.6002122 C39.344902,64.6930504 40.7601307,63.730504 42.0885948,62.7144828 C38.0202941,59.8402122 31.8330065,57.332626 22.4277124,56.5782493 C13.4678105,55.8601592 8.13660131,53.6715119 4.96101307,51.3625464 Z" fill="#2D2A26"></path>
                        <path d="M25.4644771,50.1612732 C13.5565033,52.4244032 6.42251634,49.1796286 2.28094771,45.4363926 C2.49111111,46.0341645 2.71477124,46.6281167 2.95578431,47.2163395 C6.34539216,50.8621751 12.353366,53.8071088 23.0119281,52.9629708 C36.1616013,51.922122 43.9492157,53.9197878 48.5535294,56.5209549 C49.7123203,55.1115119 50.7496405,53.629496 51.6635621,52.076817 C46.6254248,49.3343236 38.5003922,47.684244 25.4644771,50.1612732 Z" fill="#2D2A26"></path>
                        <path d="M52.5119281,9.54907162 L48.1254902,28.5097082 L56.8385948,19.2012732 C56.8501634,14.9729443 56.842451,10.7427056 56.8829412,6.51437666 C56.8925817,5.74472149 56.7094118,5.31501326 55.8899673,5.03809019 C50.6956536,3.27342175 45.4126471,1.90217507 40.0158824,1.06758621 L44.6857516,13.649443 L52.5119281,9.54907162 Z" fill="#2D2A26"></path>
                        <path d="M23.0524183,45.5872679 L7.9225817,34.395756 L13.1843791,32.9748541 L8.27928105,21.4911406 L19.045817,24.6022281 L19.9828758,17.8796817 L29.9357516,28.511618 L25.5493137,9.54907162 L33.3735621,13.6513528 L38.1436928,0.802122016 C36.8345098,0.632148541 35.5176144,0.490822281 34.1949346,0.387692308 C22.990719,-0.490822281 12.1335621,1.25092838 1.55019608,4.89676393 C0.526372549,5.25198939 0.175457516,5.70270557 0.186750484,6.77984085 C0.246797386,11.5371883 0.244869281,21.0557029 0.244869281,21.0557029 C0.244869281,25.3451459 0.200522876,29.632679 0.254509804,33.922122 C0.291143791,36.6856233 0.632418301,39.3765517 1.2648366,41.9891777 C5.09598039,45.9539523 11.8539869,49.4221751 23.0524183,45.5872679 Z" fill="#2D2A26"></path>
                    </g>
                    <path d="M56.3199346,44.0594164 C57.0371895,41.2844562 57.4575163,38.3433422 57.5674183,35.2303448 C57.7235948,30.9065252 57.7737255,26.5807958 57.7930065,22.2531565 L46.4923856,34.3250928 L51.3782026,13.2101857 L44.8727778,16.6211141 L39.9946732,3.47777188 L35.1165686,16.6211141 L28.6111438,13.2101857 L33.4969608,34.3250928 L21.9553268,21.9972414 L21.2052941,27.381008 L11.7421569,24.6480637 L16.1093137,34.8732095 L12.1007843,35.9560743 L25.6264379,45.9596817 C41.0127124,40.0793634 50.6648039,41.7886472 56.3199346,44.0594164 Z" id="Path" fill="#EA0029"></path>
                    <path d="M29.4151634,1.11915119 C31.3182026,1.11915119 33.2328105,1.19363395 35.1570588,1.34450928 C36.4797386,1.44763926 37.796634,1.58896552 39.105817,1.75893899 C39.732451,1.84106101 40.359085,1.93082228 40.9818627,2.026313 C46.3766993,2.86090186 51.661634,4.23214854 56.8559477,5.99681698 C57.6734641,6.27374005 57.856634,6.70344828 57.8491517,7.47310345 C57.8084314,11.7014324 57.8161438,15.9297613 57.8045752,20.16 L57.7968627,22.2569761 C57.7775817,26.5846154 57.727451,30.9103448 57.5712745,35.2341645 C57.4594444,38.3471618 57.0391176,41.2882759 56.3237908,44.0632361 C56.3237908,44.0632361 56.3218627,44.0632361 56.3218627,44.0613263 C55.4889216,47.2793634 54.2587908,50.2701326 52.6333987,53.033634 C52.6333987,53.033634 52.6333987,53.033634 52.6333987,53.033634 C52.6333987,53.033634 52.6333987,53.033634 52.6333987,53.033634 C52.6333987,53.033634 52.6314706,53.0355438 52.6314706,53.0355438 C52.6314706,53.0355438 52.6314706,53.0355438 52.6314706,53.0355438 C51.717549,54.5882228 50.6821569,56.0683289 49.523366,57.4758621 C47.6743137,59.7237135 45.5167647,61.7901326 43.0565033,63.6712997 C41.7280392,64.6854111 40.3128105,65.6479576 38.810817,66.5570292 C36.2155882,68.1230769 33.1383333,69.3911936 30.3676471,70.66313 C30.0919281,70.7891777 29.8046405,70.848382 29.5154248,70.848382 C29.2184967,70.848382 28.9215686,70.7853581 28.6381373,70.66313 C19.1904248,66.5933156 11.0171895,61.4310875 5.92892157,52.3193634 C5.89035948,52.2525199 5.85179739,52.1856764 5.8151634,52.1188329 C5.10369281,50.8258886 4.47320261,49.5100265 3.92369281,48.1731565 C3.68267974,47.5849337 3.52457516,47.1323077 3.2469281,46.3893899 C2.84973856,45.25687 2.50846405,44.1109814 2.22696078,42.9479045 L2.22696078,42.9479045 C2.22696078,42.9479045 2.22696078,42.9479045 2.22696078,42.9479045 C2.22696078,42.9479045 2.22696078,42.9459947 2.22696078,42.9459947 C2.22696078,42.9459947 2.22696078,42.9459947 2.22696078,42.9459947 C1.59454248,40.3333687 1.25326797,37.6443501 1.21856209,34.8808488 C1.16457516,30.5914058 1.20892157,26.3038727 1.20892157,22.0144297 C1.20892157,22.0144297 1.21277778,12.4959151 1.15070738,7.73856764 C1.1375817,6.66143236 1.49042484,6.20880637 2.51424837,5.85549072 C11.2794118,2.83225464 20.2316013,1.11915119 29.4151634,1.11915119 M29.4151634,0.0974005305 C20.5670915,0.0974005305 11.4008824,1.70928382 2.17297386,4.88721485 C0.713398693,5.39331565 0.100261438,6.24891247 0.117256737,7.74811671 C0.177385621,12.4443501 0.175457516,21.9170292 0.175457516,22.0106101 C0.175457516,23.3436605 0.171601307,24.6767109 0.167745098,26.0097613 C0.158104575,28.9184085 0.148464052,31.926366 0.185098039,34.8884881 C0.221732026,37.6920955 0.570718954,40.4804244 1.2204902,43.1732626 C1.2204902,43.1751724 1.2204902,43.1770822 1.2224183,43.178992 C1.2224183,43.178992 1.2224183,43.1809019 1.2224183,43.1809019 C1.50777778,44.3611671 1.86062092,45.5528912 2.27130719,46.7197878 C2.27323529,46.7255172 2.2751634,46.7312467 2.2770915,46.7369761 C2.34071895,46.9107692 2.4004902,47.0692838 2.45447712,47.2163395 C2.63379085,47.7014324 2.77454248,48.085305 2.96542484,48.5532095 C3.53035948,49.9301857 4.18398693,51.2918833 4.90702614,52.6039257 C4.9301634,52.6459416 4.95330065,52.6879576 4.97836601,52.7299735 C4.99379085,52.7567109 5.00921569,52.7834483 5.02464052,52.8101857 C7.48875817,57.2237666 10.7588235,60.9440849 15.0180065,64.1869496 C18.5676471,66.8874271 22.7632026,69.2422281 28.2235948,71.5951194 C28.6400654,71.7746419 29.0738889,71.866313 29.5115686,71.866313 C29.9569608,71.866313 30.3888562,71.7727321 30.7956863,71.5874801 C31.3933987,71.3143767 31.989183,71.0470027 32.6216013,70.7624403 C34.9006209,69.7425995 37.2567647,68.6864721 39.344902,67.4259947 C40.8681046,66.5054642 42.3276797,65.5123607 43.6831373,64.4772414 C46.1954575,62.557878 48.4282026,60.4188859 50.3196732,58.1194695 C51.5073856,56.6756499 52.583268,55.1401592 53.5164706,53.5550133 C53.5183987,53.5511936 53.5203268,53.547374 53.524183,53.5435544 C55.1784967,50.7303979 56.4491176,47.6479576 57.2994118,44.3840849 C57.3071242,44.3611671 57.3148366,44.3363395 57.3206209,44.3115119 C58.0571569,41.4601592 58.4871242,38.4159151 58.6008824,35.2666313 C58.7705556,30.5665782 58.8110458,25.8455172 58.8264706,22.2588859 L58.834183,20.1619098 C58.8380392,18.9854642 58.8399673,17.8090186 58.8399673,16.6325729 C58.8438235,13.6322546 58.8496078,10.5288064 58.8789085,7.48074271 C58.8881699,6.67862069 58.724281,5.54801061 57.1875817,5.02854111 C51.6230719,3.13782493 46.3728431,1.82578249 41.1399673,1.01602122 C40.4959804,0.916710875 39.8558497,0.825039788 39.2388562,0.744827586 C37.8833987,0.567214854 36.5375817,0.425888594 35.2361111,0.324668435 C33.3118627,0.173793103 31.3529085,0.0974005305 29.4151634,0.0974005305 L29.4151634,0.0974005305 Z" id="Shape" fill="#FFFFFF"></path>
                </g>
                <g id="Group" transform="translate(74.000000, 8.000000)" fill="#2D2A26" fill-rule="nonzero">
                    <path d="M36.6279677,15.8966116 L29.9919677,15.9156198 L29.0573468,10.0192562 C28.1781532,9.15057851 27.0696048,8.46438017 25.7336129,7.96066116 C24.397621,7.45884298 22.8208065,7.20793388 21.0069919,7.21363636 C17.1328065,7.22504132 14.1550161,8.63355372 12.073621,11.4372727 C9.99222581,14.2409917 8.95821774,17.8943802 8.97159677,22.3955372 L8.97733065,23.9466116 C8.99070968,28.4477686 10.0419194,32.1049587 12.1290484,34.916281 C14.2161774,37.7295041 17.1576532,39.1304132 20.9496532,39.1190083 C22.7023065,39.1152066 24.3077903,38.8566942 25.7641935,38.3453719 C27.2205968,37.8359504 28.3444355,37.1421488 29.137621,36.2677686 L30.0378387,30.3638017 L36.6738387,30.3447934 L36.7005968,39.1038017 C34.911629,41.1776033 32.6295484,42.8313223 29.848621,44.0668595 C27.0696048,45.3004959 23.9561129,45.9239669 20.5119677,45.9354784 C14.5391855,45.9524793 9.6386371,43.9090909 5.81414516,39.8033058 C1.98965323,35.6975207 0.0668951613,30.4227273 0.0477822581,23.9732231 L0.0419041751,22.4829752 C0.0229354839,16.056281 1.90364516,10.7681818 5.68417742,6.62057851 C9.46470968,2.47297521 14.3614355,0.389669421 20.3762661,0.372453324 C23.8223226,0.363057851 26.9319919,0.977024793 29.7090968,2.21636364 C32.4842903,3.45570248 34.7835726,5.0961157 36.6050323,7.13760331 L36.6279677,15.8966116 Z" id="Path"></path>
                    <path d="M60.8478387,45.1921488 C60.6089274,44.6599174 60.3986855,44.1143802 60.2190242,43.5517355 C60.0393629,42.9890909 59.8979274,42.4245455 59.796629,41.8523967 C58.7683548,43.0385124 57.5164597,44.0003306 56.0428548,44.7340496 C54.5673387,45.4658678 52.8777581,45.8384298 50.9741129,45.8442114 C47.8204839,45.8536364 45.3147823,45.0077686 43.4550968,43.3065289 C41.5954113,41.6052893 40.6627016,39.286281 40.6530887,36.3476033 C40.6435887,33.35 41.8477016,31.0290909 44.2616613,29.384876 C46.675621,27.7406612 50.2229758,26.9119008 54.9037258,26.898595 L59.3360081,26.8852893 L59.3264516,23.7489256 C59.322629,22.211157 58.8715645,21.0193388 57.9770806,20.1734711 C57.0825968,19.3276033 55.7618952,18.9075207 54.0168871,18.9132231 C53.0249274,18.9170248 52.1438226,19.0329752 51.36975,19.2629752 C50.5975887,19.4910744 49.9725968,19.7647934 49.4985968,20.0822314 L48.9424113,23.515124 L42.3981532,23.5341322 L42.4057984,16.4345455 C43.9883468,15.366281 45.8059839,14.4614876 47.8567984,13.7258678 C49.9076129,12.9902479 52.1419113,12.6195868 54.5616048,12.6118832 C58.5485565,12.6005785 61.7881935,13.5623967 64.2824274,15.497438 C66.7766613,17.4324793 68.0304677,20.196281 68.0400242,23.7850413 L68.07825,37.0071901 C68.0801613,37.501405 68.0858952,37.9652066 68.0973629,38.398595 C68.1088306,38.8319835 68.1432339,39.2463636 68.2043952,39.6398347 L70.8534435,39.987686 L70.8687339,45.1636364 L60.8478387,45.1921488 Z M53.3058871,39.4459858 C54.6132097,39.4421488 55.8039435,39.1570248 56.8723548,38.5924793 C57.9407661,38.0260331 58.7721774,37.3189256 59.3646774,36.4692562 L59.3493871,31.5879339 L54.9171048,31.6012397 C53.0727097,31.6069421 51.6755565,32.0403306 50.7275565,32.8995041 C49.7776452,33.7605785 49.3055565,34.7927273 49.309356,35.9959504 C49.3132016,37.0813223 49.6667903,37.9271901 50.3739677,38.5373554 C51.0773226,39.1475207 52.0559032,39.4497521 53.3058871,39.4459858" id="Shape"></path>
                    <path d="M73.898129,39.976281 L78.0609194,39.0752893 L78.0016694,19.2268595 L73.3878145,18.3524793 L73.3725242,13.1461157 L86.0730484,13.1080992 L86.4744194,17.7803306 C87.2236452,16.1228099 88.1907581,14.8264463 89.3776694,13.8969421 C90.5645806,12.967438 91.9407097,12.4998347 93.5079677,12.4940571 C93.9647661,12.4922314 94.4445,12.5264463 94.9509919,12.5929752 C95.4574839,12.661405 95.8779677,12.7431405 96.2162661,12.8400826 L95.3179597,20.7133058 L91.7476694,20.6353719 C90.4785726,20.6391736 89.4292742,20.8900826 88.5978629,21.3842975 C87.7664516,21.8804132 87.1338145,22.5818182 86.6999516,23.4904132 L86.7458226,39.0505785 L90.9124355,39.9268595 L90.9277258,45.1028099 L73.9134194,45.1522314 L73.898129,39.976281 Z" id="Path"></path>
                    <polygon id="Path" points="97.3381935 5.34892562 97.3229032 0.142561983 110.648419 0.102644628 110.768831 38.9821488 114.964113 39.8584298 114.979403 45.0343802 97.9058468 45.0838017 97.8905565 39.9078512 102.082016 39.0068595 101.980718 6.22330579"></polygon>
                    <path d="M132.161903,45.6028168 C127.52129,45.6160331 123.807653,44.1466942 121.024815,41.1966116 C118.240065,38.2465289 116.839089,34.4923967 116.827621,29.9380165 L116.823696,28.7538017 C116.810419,24.0017355 118.112008,20.0822314 120.730476,16.9971901 C123.348944,13.9140496 126.86954,12.3743802 131.290355,12.3818818 C135.632806,12.3686777 139.008145,13.6612397 141.41446,16.2577686 C143.820774,18.8542975 145.032532,22.3708264 145.045911,26.8073554 L145.05929,31.51 L125.845089,31.5670248 L125.785839,31.7438017 C125.95021,33.853719 126.665032,35.5872727 127.928395,36.9444628 C129.191758,38.3016529 130.904274,38.9764463 133.065944,38.9707438 C134.988702,38.9650413 136.58654,38.7692562 137.853726,38.3795868 C139.122823,37.9918182 140.508508,37.3816529 142.012694,36.5490909 L144.378871,41.8676033 C143.052435,42.9168595 141.336097,43.798843 139.226032,44.5154545 C137.112145,45.2320661 134.759347,45.595124 132.161903,45.6028168 M132.161903,19.0386333 C130.556419,19.0424793 129.287323,19.6583471 128.360347,20.8843802 C127.43146,22.1104132 126.861895,23.7185124 126.649742,25.7105785 L126.739573,25.8569421 L137.387371,25.8246281 L137.38546,25.0547934 C137.379726,23.2223967 136.943952,21.7587603 136.078137,20.6657851 C135.212323,19.5766116 133.906911,19.0329752 132.161903,19.0386333" id="Shape"></path>
                    <path d="M159.348097,4.27876033 L159.371032,12.8857025 L165.022718,12.868595 L165.039919,18.9322314 L159.388234,18.9493388 L159.436016,35.2508264 C159.439839,36.4920661 159.699774,37.3797521 160.217734,37.9100826 C160.733782,38.442314 161.429492,38.7046281 162.30104,38.7027273 C162.895452,38.7008264 163.417234,38.6761157 163.862565,38.6247934 C164.309806,38.5734711 164.808653,38.4879339 165.362927,38.3681818 L166.125532,44.608595 C165.154597,44.9070248 164.193218,45.1313223 163.243306,45.2833884 C162.291484,45.4335537 161.261298,45.5114876 160.150839,45.5153422 C157.155847,45.5228926 154.848919,44.7112397 153.228145,43.0803306 C151.607371,41.4475207 150.79125,38.8566942 150.779782,35.3078512 L150.732,18.9778512 L147.71025,18.991157 L147.691137,12.9275207 L150.712887,12.9142149 L150.689952,4.30727273 L159.348097,4.27876033 Z" id="Path"></path>
                    <path d="M167.878086,28.5656198 C167.864806,23.7926446 169.195065,19.878843 171.872782,16.8242149 C174.5505,13.7695868 178.260315,12.2356198 182.998403,12.2203259 C187.757516,12.2071074 191.484532,13.7144628 194.181363,16.7424793 C196.876282,19.7723967 198.231387,23.6842975 198.246677,28.4743802 L198.248688,29.0959504 C198.261968,33.908843 196.929798,37.8321488 194.252081,40.8677686 C191.574363,43.9014876 187.874105,45.4259504 183.155129,45.4412447 C178.376903,45.4544628 174.638419,43.9528099 171.9435,40.9342975 C169.246669,37.9138843 167.891565,33.9981818 167.878086,29.1852893 L167.878086,28.5656198 Z M176.566911,29.1624793 C176.576468,32.0802479 177.09825,34.4220661 178.134169,36.1841322 C179.170089,37.9461983 180.838645,38.8243802 183.139839,38.8168258 C185.379871,38.8091736 187.019758,37.917686 188.053766,36.1404132 C189.089685,34.3631405 189.603823,32.0232231 189.594266,29.1244628 L189.592355,28.5028926 C189.582798,25.6630579 189.05146,23.3478512 187.994516,21.5553719 C186.937573,19.7647934 185.280484,18.871405 183.019427,18.8789601 C180.758371,18.8866116 179.114661,19.7876033 178.09021,21.5857851 C177.063847,23.3839669 176.555444,25.7029752 176.565,28.5409091 L176.566911,29.1624793 Z" id="Shape"></path>
                    <path d="M200.469508,39.5904132 L204.632298,38.6894215 L204.573048,18.8409917 L199.959194,17.9666116 L199.943903,12.7602479 L212.644427,12.7222314 L213.043887,17.3070248 C214.110387,15.6666116 215.425355,14.391157 216.98879,13.4787603 C218.552226,12.5663636 220.304879,12.1082645 222.248661,12.1024955 C225.499766,12.0930579 228.041782,13.1023967 229.872798,15.1267769 C231.703815,17.1530579 232.625056,20.3350413 232.638435,24.6746281 L232.680484,38.6057851 L236.847097,39.4820661 L236.862387,44.6580165 L220.264742,44.707438 L220.249452,39.5314876 L223.965,38.6323967 L223.924863,24.7297521 C223.917218,22.5799174 223.477621,21.0573554 222.60225,20.1620661 C221.726879,19.2667769 220.406177,18.8219835 218.642056,18.827686 C217.49146,18.8314876 216.461274,19.0652893 215.5515,19.5328926 C214.639815,19.998595 213.879121,20.656281 213.267508,21.5078512 L213.319113,38.6647107 L216.832065,39.5428926 L216.847355,44.718843 L200.488621,44.7663636 L200.469508,39.5904132 Z" id="Path"></path>
                </g>
                <g id="Group" transform="translate(312.000000, 10.000000)">
                    <rect id="Rectangle" x="0.0479508197" y="1.07756098" width="116.898344" height="45.7657724"></rect>
                    <path d="M34.9139508,31.2874797 C34.9139508,39.0176423 28.8241967,44.3710569 18.9731803,44.3710569 C7.80831148,44.3710569 2.31698361,38.4826829 2.31698361,29.3845528 L10.1387213,29.3845528 C10.2576393,35.0341057 13.2440164,37.5904472 18.7353443,37.5904472 C23.6301639,37.5904472 26.557082,35.0341057 26.557082,30.9894309 C26.557082,26.5893902 23.5131639,24.1495935 18.4380492,24.1495935 L15.2732951,24.1495935 L15.2732951,18.2650407 L18.3785902,18.2650407 C23.2139508,18.2650407 25.8416557,16.3028862 25.8416557,12.3785772 C25.8416557,8.80963415 23.1544918,6.66979675 18.6778033,6.66979675 C14.2605738,6.66979675 11.3336557,8.51349593 11.0958197,13.3892683 L3.33545902,13.3892683 C3.51383607,5.06300813 8.7692459,0.12800813 18.7391803,0.12800813 C27.7539344,0.12800813 33.6653115,4.46882114 33.6653115,11.7251626 C33.6653115,15.8882927 31.2179016,19.0999593 27.6944754,20.8232927 C31.8700328,22.546626 34.9139508,26.1136585 34.9139508,31.2874797 Z" id="Path" fill="#EA0029" fill-rule="nonzero"></path>
                    <path d="M71.3930164,29.6826016 C71.3930164,38.4845935 64.9445902,44.3710569 55.632541,44.3710569 C51.6334426,44.3710569 48.1100164,43.2419106 45.5436885,41.3370732 C40.4685738,37.5312195 38.7979672,30.8709756 38.7979672,22.8427642 C38.7979672,8.51158537 44.5885082,0.126097561 55.753377,0.126097561 C63.8724098,0.126097561 69.6034918,4.40768293 70.7984262,11.900935 L63.2164426,11.900935 C62.4396393,8.0950813 59.7543934,6.31060976 55.8128361,6.31060976 C49.782541,6.31060976 46.6791639,10.5921951 46.3204918,20.8806098 C48.5895246,17.5504878 52.4102459,15.5883333 56.9463934,15.5883333 C66.4368197,15.5883333 71.3930164,22.1893496 71.3930164,29.6826016 Z M63.5712787,29.8010569 C63.5712787,25.1621951 60.4065246,21.7136179 55.630623,21.7136179 C50.8547213,21.7136179 47.5710492,25.0437398 47.5710492,29.8010569 C47.5710492,34.558374 50.8547213,37.8884959 55.630623,37.8884959 C60.4065246,37.8884959 63.5712787,34.4991463 63.5712787,29.8010569 Z" id="Shape" fill="#EA0029" fill-rule="nonzero"></path>
                    <path d="M75.6299508,22.2485772 C75.6299508,8.21353659 81.3610328,0.126097561 92.6448197,0.126097561 C103.988066,0.126097561 109.719148,8.21353659 109.719148,22.2485772 C109.719148,36.2836179 104.047525,44.3710569 92.6448197,44.3710569 C81.3629508,44.3710569 75.6299508,36.2836179 75.6299508,22.2485772 Z M101.30282,22.2485772 C101.30282,11.4844309 98.1975246,6.90479675 92.6467377,6.90479675 C87.1534918,6.90479675 84.0501148,11.4844309 84.0501148,22.2485772 C84.0501148,33.0127236 87.1554098,37.5923577 92.6467377,37.5923577 C98.2569836,37.5923577 101.30282,33.0127236 101.30282,22.2485772 Z" id="Shape" fill="#EA0029" fill-rule="nonzero"></path>
                </g>
            </g>
        </g>
    </g>
</svg>