<svg width="146" height="40" viewBox="0 0 146 40" fill="none" xmlns="http://www.w3.org/2000/svg">
<path d="M16.118 7.62636L13.1944 7.63479L12.7828 5.02261C12.3952 4.6377 11.9068 4.33362 11.3182 4.1106C10.7293 3.88815 10.035 3.77772 9.23578 3.77999C7.52918 3.785 6.21742 4.40865 5.30061 5.65092C4.38354 6.89309 3.92811 8.51116 3.93389 10.505L3.93594 11.1921C3.94194 13.186 4.4047 14.8059 5.32453 16.0513C6.24437 17.2976 7.53954 17.9176 9.21026 17.9126C9.98253 17.9108 10.6895 17.7961 11.3311 17.5697C11.9724 17.3437 12.468 17.0367 12.817 16.6491L13.2135 14.0342L16.1371 14.0257L16.1486 17.9057C15.3607 18.8244 14.3547 19.5566 13.1304 20.1039C11.9059 20.6506 10.5349 20.9268 9.01694 20.9314C6.38543 20.9392 4.22705 20.0339 2.54205 18.2154C0.857325 16.397 0.0104213 14.06 0.00215615 11.2037L6.14009e-05 10.5436C-0.00821513 7.69649 0.820235 5.35424 2.48522 3.51712C4.15042 1.67978 6.30765 0.757412 8.95735 0.749668C10.475 0.745003 11.8457 1.01709 13.0687 1.56617C14.2917 2.11478 15.3044 2.84146 16.1065 3.74641L16.118 7.62636ZM23.4645 18.0577C24.0409 18.056 24.5649 17.9302 25.0358 17.68C25.5068 17.4292 25.8728 17.1159 26.1337 16.7394L26.1272 14.5772L24.1748 14.583C23.3625 14.5857 22.7472 14.7778 22.3288 15.1582C21.9106 15.5396 21.7023 15.9972 21.7039 16.5299C21.7054 17.0107 21.8614 17.3854 22.1726 17.6553C22.4833 17.9252 22.914 18.0596 23.4645 18.0577ZM26.7873 20.6032C26.6811 20.3665 26.5885 20.1239 26.51 19.8766C26.4305 19.6278 26.3686 19.3776 26.3242 19.1237C25.8714 19.6493 25.32 20.075 24.6703 20.4C24.0205 20.7246 23.2763 20.8888 22.4376 20.8916C21.0487 20.8956 19.9445 20.5209 19.1255 19.7679C18.3063 19.0145 17.8951 17.987 17.891 16.6852C17.8872 15.3575 18.4171 14.3296 19.4807 13.6013C20.5444 12.8729 22.107 12.5058 24.1687 12.4995L26.1212 12.4937L26.117 11.1046C26.1149 10.4233 25.9168 9.8954 25.5227 9.52097C25.1284 9.14653 24.5469 8.96028 23.7784 8.96256C23.3414 8.96381 22.9529 9.01561 22.6124 9.11693C22.272 9.21837 21.997 9.3395 21.788 9.47976L21.5434 11.0005L18.6606 11.009L18.6643 7.86395C19.3619 7.39036 20.1623 6.99031 21.0654 6.66437C21.9686 6.33866 22.9531 6.17404 24.0189 6.17085C25.775 6.16573 27.2021 6.59185 28.3011 7.44865C29.3999 8.30624 29.9519 9.52996 29.9566 11.1198L29.9738 16.9771C29.9745 17.1956 29.9772 17.4011 29.9823 17.5931C29.987 17.7852 30.0029 17.9687 30.0298 18.1432L31.1964 18.2973L31.2033 20.5902L26.7873 20.6032ZM32.5369 18.2924L34.3703 17.8935L34.3443 9.101L32.3122 8.71381L32.3052 6.40765L37.9006 6.39114L38.0769 8.46084C38.4066 7.72631 38.8333 7.15277 39.3562 6.74053C39.8791 6.32841 40.4857 6.12133 41.1757 6.1194C41.3767 6.11871 41.5885 6.13351 41.8114 6.16345C42.0343 6.19351 42.2199 6.22994 42.3688 6.27286L41.9728 9.76004L40.4002 9.72509C39.841 9.72691 39.3783 9.83769 39.0122 10.0571C38.6457 10.2767 38.367 10.5874 38.1761 10.99L38.1965 17.8823L40.0323 18.2704L40.0391 20.5634L32.5437 20.5853L32.5369 18.2924ZM42.8628 2.95405L42.8558 0.647667L48.7263 0.63036L48.7789 17.8523L50.6278 18.2405L50.6345 20.5334L43.113 20.5553L43.106 18.2623L44.9525 17.8635L44.908 3.34112L42.8628 2.95405ZM58.2035 9.01846C57.4959 9.02051 56.9374 9.29294 56.5285 9.83586C56.1196 10.3787 55.8682 11.0911 55.7748 11.974L55.8142 12.0391L60.5054 12.0252L60.5045 11.6846C60.502 10.8725 60.3102 10.2243 59.9288 9.74058C59.5474 9.25685 58.9722 9.01607 58.2035 9.01846ZM58.2037 20.785C56.1594 20.7908 54.5236 20.1403 53.297 18.8336C52.07 17.5269 51.4535 15.8642 51.4477 13.8466L51.4461 13.3224C51.4398 11.2169 52.0133 9.48089 53.167 8.11487C54.3203 6.74873 55.871 6.06702 57.8194 6.0701C59.7324 6.06429 61.2191 6.63671 62.2797 7.78677C63.3399 8.9366 63.8734 10.4945 63.8792 12.4601L63.8853 14.5436L55.4203 14.5686L55.3941 14.647C55.4669 15.5817 55.7813 16.3495 56.338 16.9507C56.8945 17.5519 57.6488 17.851 58.6009 17.8483C59.4484 17.8455 60.1515 17.7588 60.7099 17.5864C61.2686 17.4145 61.8792 17.1441 62.5422 16.7752L63.5844 19.1308C63.0005 19.5956 62.2438 19.9864 61.3143 20.3038C60.385 20.6207 59.3479 20.7814 58.2037 20.785ZM70.1803 2.48L70.1906 6.2921L72.6804 6.28481L72.6884 8.97098L70.1986 8.97838L70.2199 16.1991C70.2215 16.7492 70.3363 17.1419 70.5642 17.3768C70.7918 17.6124 71.098 17.7292 71.4824 17.7278C71.7444 17.7274 71.9739 17.7158 72.1702 17.6934C72.3669 17.671 72.5872 17.633 72.8316 17.5797L73.1674 20.344C72.7399 20.476 72.3164 20.5759 71.8973 20.6426C71.4781 20.7093 71.0239 20.7434 70.5348 20.7452C69.2156 20.7487 68.199 20.3893 67.4849 19.6663C66.7707 18.9432 66.4114 17.7954 66.4067 16.2232L66.3854 8.98988L65.0547 8.99591L65.0466 6.30963L66.3773 6.3036L66.3671 2.4915L70.1803 2.48ZM77.7655 13.5024C77.7692 14.7952 77.9994 15.8324 78.4559 16.6127C78.9126 17.3935 79.6474 17.782 80.661 17.7789C81.648 17.7758 82.3699 17.3809 82.8261 16.593C83.2825 15.8056 83.5088 14.7697 83.505 13.4853L83.5042 13.21C83.5003 11.952 83.2658 10.9266 82.8004 10.1328C82.3351 9.33927 81.6044 8.94389 80.6086 8.94685C79.6127 8.94981 78.8887 9.34952 78.4369 10.1457C77.9848 10.9423 77.7608 11.9691 77.7646 13.227L77.7655 13.5024ZM73.9383 13.2385C73.9321 11.1245 74.5187 9.39096 75.6984 8.03757C76.8782 6.68452 78.5119 6.00475 80.5999 5.99849C82.6965 5.99246 84.3385 6.66039 85.5265 8.00182C86.7141 9.34394 87.3111 11.0764 87.3174 13.1988L87.3183 13.4741C87.3246 15.6059 86.7376 17.3437 85.558 18.6886C84.3782 20.0325 82.7487 20.7079 80.6698 20.7142C78.5643 20.7205 76.9178 20.0548 75.7301 18.7177C74.5423 17.3796 73.9453 15.6453 73.939 13.5137L73.9383 13.2385ZM88.296 18.1218L90.1294 17.7229L90.1034 8.93045L88.0713 8.54327L88.0643 6.23711L93.6597 6.2206L93.8359 8.25114C94.3054 7.52481 94.8848 6.95946 95.574 6.55565C96.2626 6.15184 97.0351 5.94851 97.8915 5.9459C99.3241 5.94168 100.443 6.38841 101.25 7.28574C102.056 8.18318 102.462 9.5928 102.468 11.5148L102.486 17.6863L104.322 18.0744L104.329 20.3673L97.017 20.3893L97.01 18.0963L98.647 17.6979L98.6288 11.5393C98.6259 10.5871 98.4316 9.91271 98.0462 9.5163C97.6605 9.11989 97.079 8.92294 96.3015 8.9251C95.7949 8.9267 95.3407 9.03075 94.9399 9.23715C94.5382 9.44378 94.203 9.73522 93.9333 10.1117L93.9556 17.7118L95.5032 18.1008L95.5099 20.3937L88.303 20.4148L88.296 18.1218ZM35.6162 25.9345L35.6199 27.2165L34.4841 27.4388L34.5005 32.9756C34.5026 33.6753 34.6922 34.198 35.0696 34.5443C35.4471 34.8903 35.9638 35.062 36.6194 35.0599C37.2848 35.0582 37.8063 34.8845 38.1842 34.5381C38.562 34.1927 38.75 33.6671 38.7479 32.9628L38.7316 27.4259L37.6015 27.2107L37.5979 25.9286L41.9908 25.9158L41.9946 27.1978L40.8587 27.4198L40.8751 32.9566C40.8787 34.1465 40.4891 35.0662 39.7066 35.7141C38.9242 36.3623 37.8967 36.6884 36.6243 36.6921C35.3566 36.6962 34.3321 36.3759 33.5506 35.7323C32.7693 35.089 32.3767 34.1719 32.3732 32.9819L32.3568 27.4451L31.2269 27.2298L31.2231 25.9477L32.3524 25.9444L34.4797 25.9382L35.6162 25.9345ZM42.5794 35.2465L43.5987 35.0251L43.5842 30.1369L42.4544 29.9216L42.4506 28.6392L45.5615 28.6301L45.6595 29.7591C45.9205 29.3551 46.2425 29.041 46.6257 28.8163C47.0087 28.5915 47.4381 28.4787 47.9142 28.4774C48.7106 28.4749 49.3331 28.7234 49.7815 29.222C50.2297 29.721 50.4554 30.5049 50.4586 31.5733L50.4687 35.0047L51.4894 35.22L51.493 36.495L47.4279 36.5071L47.4242 35.2321L48.3343 35.011L48.324 31.587C48.3225 31.0577 48.2145 30.6828 48.0001 30.4622C47.7858 30.2423 47.4624 30.1323 47.0303 30.1336C46.7485 30.1344 46.496 30.1925 46.273 30.3075C46.05 30.4219 45.8634 30.5841 45.7136 30.7936L45.7261 35.0188L46.5863 35.2346L46.59 36.5095L42.5832 36.5216L42.5794 35.2465ZM55.2308 26.7146L53.1035 26.7209L53.0987 25.1252L55.226 25.119L55.2308 26.7146ZM52.1013 35.2184L53.1279 34.9969L53.1134 30.1087L51.9763 29.8935L51.9725 28.6109L55.2363 28.6014L55.2552 34.9907L56.2759 35.2059L56.2795 36.4809L52.105 36.4933L52.1013 35.2184ZM59.9767 29.8686L59.234 30.0092L60.2863 33.5324L60.4269 34.2748H60.4707L60.6214 33.5314L61.6382 30.0097L60.8802 29.8661L60.8764 28.5836L64.4535 28.5728L64.4572 29.8553L63.7727 29.9665L61.4679 36.4648L59.4353 36.4706L57.0847 29.9864L56.3996 29.8794L56.396 28.5968L59.9731 28.5861L59.9767 29.8686ZM68.2985 30.0544C67.905 30.0556 67.5946 30.2071 67.3673 30.5086C67.1399 30.8105 67.0002 31.2066 66.9483 31.6973L66.9702 31.7338L69.5783 31.7263L69.5778 31.5368C69.5765 31.0851 69.4697 30.7247 69.2577 30.4559C69.0456 30.1867 68.7257 30.0531 68.2985 30.0544ZM68.5072 36.5958C67.3708 36.5991 66.4613 36.2379 65.7793 35.5112C65.0971 34.7849 64.7543 33.8603 64.751 32.7384L64.7503 32.4473C64.7468 31.2767 65.0657 30.3116 65.707 29.5516C66.3483 28.7926 67.2104 28.4131 68.2936 28.4152C69.3572 28.4118 70.184 28.73 70.7736 29.3691C71.3631 30.0087 71.6595 30.8749 71.6627 31.9678L71.6661 33.1263L66.9598 33.1399L66.9453 33.1834C66.9857 33.7032 67.1605 34.1304 67.47 34.4643C67.7793 34.7987 68.1988 34.965 68.7282 34.9632C69.1992 34.9616 69.5901 34.9135 69.9007 34.8177C70.2112 34.7223 70.5508 34.5718 70.9193 34.3668L71.4989 35.6763C71.1741 35.9347 70.7534 36.152 70.2367 36.3287C69.72 36.505 69.1434 36.5942 68.5072 36.5958ZM72.5112 35.1549L73.5304 34.9335L73.516 30.0453L72.3861 29.83L72.3823 28.5475L75.4931 28.5384L75.5911 29.6889C75.7745 29.2808 76.0117 28.9619 76.3024 28.7325C76.5932 28.5036 76.9303 28.3886 77.3141 28.3875C77.4258 28.387 77.5436 28.3953 77.6674 28.4118C77.7913 28.4289 77.8946 28.4488 77.9772 28.4729L77.7571 30.4115L76.8828 30.3921C76.572 30.3929 76.3147 30.4547 76.1112 30.5766C75.9075 30.6985 75.7525 30.8715 75.6464 31.0951L75.6577 34.9272L76.6782 35.1429L76.682 36.4179L72.5148 36.4299L72.5112 35.1549ZM84.7256 31.2204L83.2976 31.2245L83.0688 30.2419C82.9228 30.1258 82.7392 30.0291 82.5179 29.9519C82.2966 29.8749 82.0524 29.8366 81.7854 29.8375C81.4115 29.8388 81.1155 29.9233 80.8975 30.0913C80.6793 30.2598 80.5706 30.4704 80.5714 30.723C80.5721 30.9611 80.6772 31.1586 80.8864 31.3153C81.0957 31.4729 81.5138 31.6114 82.1406 31.7305C83.1175 31.9221 83.842 32.2054 84.3143 32.5804C84.7864 32.9557 85.0235 33.4734 85.0256 34.1337C85.0276 34.843 84.7246 35.4229 84.1164 35.8737C83.5081 36.325 82.7062 36.5519 81.7106 36.5552C81.1034 36.5569 80.5458 36.4698 80.0378 36.2939C79.5297 36.118 79.0786 35.8658 78.6842 35.5365L78.6571 33.7662L80.1432 33.7621L80.4377 34.7886C80.5642 34.8948 80.7369 34.9733 80.9556 35.0238C81.1744 35.0736 81.4027 35.0988 81.6406 35.098C82.073 35.0968 82.4018 35.0185 82.6272 34.8621C82.8525 34.7058 82.9649 34.4946 82.964 34.2275C82.9634 33.9943 82.8486 33.7928 82.6198 33.6235C82.391 33.4544 81.9706 33.305 81.3582 33.1756C80.4299 32.989 79.7286 32.7106 79.2539 32.3403C78.7793 31.9698 78.541 31.4646 78.539 30.8234C78.5371 30.1631 78.8075 29.5927 79.35 29.1124C79.8925 28.6326 80.6666 28.3911 81.6719 28.3883C82.2839 28.3862 82.8632 28.467 83.4102 28.6305C83.9571 28.7944 84.3862 29.0042 84.6979 29.2605L84.7256 31.2204ZM89.0468 26.6105L86.9194 26.6167L86.9146 25.0211L89.042 25.0148L89.0468 26.6105ZM85.9173 35.1147L86.9439 34.8928L86.9294 30.0046L85.7923 29.7893L85.7886 28.5069L89.0524 28.4973L89.0713 34.8865L90.0918 35.1023L90.0956 36.3772L85.9211 36.3897L85.9173 35.1147ZM93.5792 26.5524L93.585 28.4828L94.9693 28.4787L94.9736 29.9723L93.5893 29.9764L93.6013 33.9906C93.6021 34.2967 93.666 34.5153 93.7925 34.646C93.9193 34.7767 94.0893 34.8418 94.3031 34.8409C94.4489 34.8406 94.5764 34.8338 94.6855 34.8219C94.7948 34.8093 94.9175 34.7883 95.0534 34.7588L95.2401 36.2955C95.0023 36.3689 94.7668 36.4241 94.5338 36.4615C94.3008 36.4983 94.0482 36.5175 93.7763 36.5183C93.0429 36.5203 92.4776 36.3204 92.0807 35.9185C91.6836 35.5166 91.4839 34.8782 91.4813 34.0044L91.4693 29.9827L90.7357 29.9864L90.7314 28.4928L91.465 28.489L91.4592 26.5587L93.5792 26.5524ZM104.174 29.7342L103.439 29.8454L100.562 37.5253C100.335 38.094 100.032 38.5714 99.6519 38.9559C99.2717 39.3409 98.6979 39.5345 97.9306 39.537C97.7509 39.5375 97.5821 39.5233 97.4242 39.4943C97.2661 39.4657 97.0803 39.4251 96.8665 39.3724L97.1095 37.8194C97.1776 37.8294 97.2481 37.8385 97.3209 37.8485C97.3938 37.8575 97.4569 37.8626 97.5103 37.8626C97.8649 37.8613 98.1366 37.7742 98.3256 37.6013C98.5145 37.4283 98.6595 37.2126 98.7609 36.9554L98.9995 36.3573L96.4813 29.8736L95.7452 29.7591L95.7415 28.4766L99.6026 28.465L99.6064 29.7475L98.7253 29.8959L99.8129 33.04L99.9238 33.6078L99.9676 33.6149L101.202 29.8885L100.313 29.7454L100.309 28.4629L104.171 28.4517L104.174 29.7342ZM144.871 12.3492L138.632 19.077L141.329 7.30862L137.738 9.21017L135.045 1.88448L132.352 9.21017L128.76 7.30862L131.457 19.077L125.085 12.2058L124.672 15.2062L119.447 13.6825L121.859 19.3812L119.645 19.9849L127.111 25.56C135.605 22.2837 140.934 23.2354 144.056 24.5013C143.597 26.2953 142.918 27.9635 142.019 29.5036C141.768 29.3657 141.505 29.2322 141.225 29.1054C140.14 28.6135 138.836 28.2144 137.267 27.9817C136.664 27.8922 136.02 27.8285 135.337 27.7923C135.145 27.7822 134.952 27.7743 134.755 27.7687C134.379 27.7581 133.992 27.7562 133.593 27.763C131.828 27.7934 129.829 27.9981 127.556 28.4339C127.471 28.4504 127.387 28.4642 127.303 28.4796C126.889 28.5546 126.487 28.6174 126.096 28.6686C120.39 29.4148 116.869 27.7256 114.758 25.7989C114.538 25.1674 114.349 24.5273 114.194 23.8786C116.311 26.0875 120.042 28.0227 126.224 25.8853L117.872 19.6483L120.777 18.856L118.069 12.4561L124.012 14.1898L124.529 10.4428L130.025 16.3683L127.602 5.8004L131.921 8.08698L134.555 0.92556C134.901 0.97121 135.246 1.02119 135.59 1.07492L138.168 8.08698L142.487 5.8004L140.066 16.3683L144.876 11.1806L144.871 12.3492Z" fill="white"/>
<path d="M126.203 29.9955C120.318 30.4659 117.002 28.8249 115.13 26.7926C115.434 27.5384 115.781 28.2718 116.174 28.9919C116.195 29.0297 116.216 29.0664 116.238 29.104C117.99 30.3902 120.933 31.611 125.88 32.0113C131.072 32.4315 134.487 33.8296 136.734 35.4312C138.092 34.3829 139.283 33.2312 140.304 31.9784C137.76 30.5289 133.463 29.4153 126.203 29.9955Z" fill="white"/>
<path d="M116.238 29.104C119.045 34.1816 123.558 37.0583 128.773 39.3271C129.083 39.4619 129.42 39.4688 129.729 39.3271C131.258 38.6184 132.956 37.9123 134.389 37.0391C135.219 36.5331 136 35.9969 136.733 35.4312C134.487 33.8296 131.072 32.4315 125.88 32.0113C120.933 31.611 117.99 30.3902 116.238 29.104ZM127.556 28.4339C120.983 29.6949 117.044 27.8872 114.758 25.8009C114.874 26.1338 114.997 26.4646 115.13 26.7926C117.002 28.8249 120.318 30.4659 126.203 29.9955C133.463 29.4153 137.76 30.5289 140.304 31.9784C140.943 31.1929 141.516 30.3675 142.02 29.5017C139.238 27.9738 134.751 27.0538 127.556 28.4339ZM142.487 5.8004L140.066 16.3683L144.876 11.1806C144.883 8.82356 144.878 6.46617 144.901 4.10992C144.906 3.68129 144.804 3.44154 144.353 3.28762C141.485 2.30388 138.569 1.53976 135.59 1.07493L138.168 8.08698L142.487 5.8004Z" fill="#100F0D"/>
<path d="M126.225 25.8853L117.872 19.6483L120.777 18.856L118.069 12.4561L124.012 14.1897L124.529 10.4428L130.025 16.3683L127.602 5.8004L131.921 8.08698L134.555 0.925556C133.832 0.830381 133.104 0.752398 132.374 0.69445C126.188 0.204462 120.195 1.17556 114.353 3.20712C113.788 3.40476 113.594 3.65681 113.601 4.25689C113.634 6.90788 113.632 12.2133 113.632 12.2133C113.632 14.6035 113.608 16.9936 113.637 19.3838C113.657 20.9242 113.846 22.4236 114.195 23.8803C116.311 26.0895 120.042 28.0225 126.225 25.8853Z" fill="#100F0D"/>
<path d="M144.057 24.5018C144.453 22.9558 144.686 21.3163 144.747 19.5816C144.832 17.1723 144.861 14.7609 144.871 12.3492L138.632 19.077L141.329 7.30862L137.738 9.21018L135.045 1.88448L132.352 9.21018L128.76 7.30862L131.457 19.077L125.085 12.2058L124.672 15.2062L119.447 13.6825L121.859 19.3812L119.645 19.9849L127.111 25.56C135.606 22.2832 140.936 23.2358 144.057 24.5018Z" fill="#E91D26"/>
<path d="M129.205 0C124.32 0 119.261 0.898121 114.166 2.66943C113.361 2.9512 113.022 3.42787 113.031 4.26361C113.064 6.88102 113.063 12.16 113.063 12.2131C113.063 12.9562 113.06 13.6992 113.058 14.4423C113.053 16.0634 113.048 17.7399 113.068 19.3909C113.088 20.9537 113.281 22.5074 113.64 24.0087C113.64 24.0097 113.641 24.0108 113.641 24.0118L113.641 24.0131C113.799 24.6711 113.994 25.3348 114.22 25.9857C114.221 25.9889 114.222 25.9922 114.223 25.9954C114.259 26.0921 114.291 26.18 114.321 26.2621C114.42 26.5327 114.497 26.7464 114.603 27.007C114.915 27.774 115.276 28.5335 115.674 29.2646C115.688 29.2881 115.701 29.3116 115.714 29.3349C115.722 29.3496 115.731 29.3644 115.739 29.3794C117.1 31.839 118.904 33.9132 121.256 35.7202C123.216 37.2257 125.532 38.5378 128.547 39.849C128.777 39.9492 129.016 40 129.258 40C129.503 40 129.742 39.9475 129.967 39.8441C130.296 39.6915 130.626 39.5426 130.974 39.3849C132.232 38.816 133.533 38.2278 134.685 37.5252C135.527 37.0119 136.333 36.4591 137.081 35.8819C138.467 34.812 139.7 33.6197 140.744 32.338C141.4 31.5334 141.994 30.6775 142.509 29.7942C142.51 29.792 142.511 29.7898 142.512 29.7877C143.426 28.2196 144.128 26.5022 144.598 24.6827C144.601 24.6696 144.606 24.6563 144.609 24.6429C145.016 23.0533 145.254 21.3572 145.315 19.6017C145.408 16.9824 145.431 14.3513 145.44 12.3518L145.445 11.1828C145.447 10.5268 145.447 9.8715 145.448 9.21621C145.452 7.54382 145.454 5.81452 145.47 4.11538C145.476 3.66808 145.385 3.03795 144.536 2.74878C141.465 1.69492 138.566 0.963356 135.678 0.512527C135.323 0.457085 134.97 0.406197 134.629 0.361229C133.881 0.262753 133.137 0.183975 132.419 0.126938C131.355 0.0426903 130.274 0 129.205 0ZM129.205 0.569225C130.256 0.569225 131.312 0.610207 132.374 0.694454C133.104 0.752399 133.832 0.830383 134.555 0.92556C134.901 0.97121 135.246 1.02119 135.59 1.07492C138.569 1.53975 141.485 2.30388 144.353 3.28761C144.804 3.44153 144.906 3.68129 144.901 4.10992C144.878 6.46617 144.883 8.82355 144.876 11.1806L144.871 12.3492C144.861 14.7609 144.832 17.1723 144.747 19.5816C144.686 21.3163 144.453 22.9558 144.057 24.5018C144.057 24.5016 144.057 24.5015 144.056 24.5013C143.597 26.2945 142.918 27.962 142.02 29.5017V29.5021C142.02 29.5026 142.019 29.5031 142.019 29.5036C141.515 30.3687 140.942 31.1935 140.304 31.9784C139.282 33.2312 138.092 34.3829 136.734 35.4312C136 35.9969 135.219 36.5331 134.389 37.0391C132.956 37.9123 131.258 38.6184 129.729 39.3271C129.576 39.3971 129.418 39.4308 129.258 39.4308C129.095 39.4308 128.931 39.3952 128.773 39.3271C123.558 37.0583 119.045 34.1816 116.238 29.104C116.216 29.0664 116.195 29.0297 116.174 28.9919C115.781 28.2718 115.434 27.5384 115.13 26.7926C114.997 26.4646 114.909 26.213 114.758 25.7989C114.539 25.1691 114.351 24.5288 114.194 23.8803V23.8786C113.845 22.4225 113.657 20.9237 113.637 19.3838C113.608 16.9936 113.632 14.6035 113.632 12.2133C113.632 12.2133 113.634 6.90789 113.601 4.25689C113.594 3.65681 113.788 3.40476 114.353 3.20713C119.192 1.52438 124.134 0.569225 129.205 0.569225Z" fill="white"/>
</svg>
