<svg width="146" height="40" viewBox="0 0 146 40" fill="none" xmlns="http://www.w3.org/2000/svg">
<path d="M57.1173 7.62607L54.1939 7.63449L53.7823 5.02242C53.3947 4.63752 52.9064 4.33346 52.3178 4.11044C51.7289 3.888 51.0346 3.77757 50.2354 3.77985C48.5289 3.78486 47.2172 4.40848 46.3004 5.65071C45.3834 6.89282 44.928 8.51083 44.9337 10.5046L44.9358 11.1917C44.9418 13.1855 45.4045 14.8053 46.3243 16.0507C47.2441 17.2969 48.5392 17.9169 50.2099 17.9119C50.9821 17.9101 51.6891 17.7954 52.3307 17.569C52.9719 17.343 53.4675 17.036 53.8165 16.6485L54.213 14.0337L57.1365 14.0252L57.1479 17.905C56.3601 18.8236 55.3542 19.5559 54.1299 20.1031C52.9055 20.6498 51.5344 20.9259 50.0166 20.9306C47.3852 20.9383 45.2269 20.0331 43.5419 18.2147C41.8573 16.3963 41.0104 14.0594 41.0022 11.2033L41.0001 10.5432C40.9918 7.69619 41.8202 5.35403 43.4851 3.51699C45.1503 1.67972 47.3074 0.757385 49.957 0.749645C51.4746 0.744976 52.8452 1.01706 54.0682 1.56611C55.2911 2.11471 56.3038 2.84135 57.1058 3.74627L57.1173 7.62607ZM64.4636 18.057C65.0399 18.0553 65.564 17.9295 66.0348 17.6793C66.5058 17.4285 66.8717 17.1152 67.1327 16.7388L67.1262 14.5766L65.1738 14.5824C64.3616 14.5851 63.7463 14.7772 63.3279 15.1576C62.9098 15.539 62.7014 15.9965 62.703 16.5293C62.7045 17.0101 62.8606 17.3847 63.1717 17.6546C63.4824 17.9245 63.9132 18.0589 64.4636 18.057ZM67.7862 20.6024C67.6801 20.3657 67.5875 20.1231 67.5089 19.8759C67.4295 19.627 67.3675 19.3768 67.3231 19.1229C66.8704 19.6485 66.3191 20.0742 65.6694 20.3992C65.0196 20.7238 64.2754 20.888 63.4367 20.8908C62.0479 20.8947 60.9437 20.5201 60.1248 19.7672C59.3056 19.0138 58.8944 17.9863 58.8903 16.6846C58.8865 15.3569 59.4163 14.329 60.4799 13.6008C61.5436 12.8724 63.1061 12.5053 65.1678 12.499L67.1201 12.4932L67.1159 11.1041C67.1139 10.4229 66.9158 9.89502 66.5217 9.5206C66.1275 9.14618 65.546 8.95993 64.7774 8.96221C64.3405 8.96346 63.952 9.01526 63.6115 9.11658C63.2711 9.21801 62.9962 9.33914 62.7872 9.47939L62.5425 11.0001L59.6598 11.0086L59.6636 7.86365C60.3611 7.39008 61.1615 6.99004 62.0646 6.66412C62.9677 6.33842 63.9522 6.17381 65.018 6.17062C66.774 6.16549 68.2011 6.5916 69.3 7.44836C70.3988 8.30592 70.9508 9.52959 70.9554 11.1194L70.9726 16.9765C70.9733 17.1949 70.976 17.4004 70.9812 17.5925C70.9858 17.7845 71.0018 17.968 71.0286 18.1425L72.1952 18.2966L72.2021 20.5894L67.7862 20.6024ZM73.5356 18.2917L75.3689 17.8928L75.343 9.10064L73.3109 8.71347L73.304 6.4074L78.8991 6.3909L79.0755 8.46052C79.4051 7.72602 79.8318 7.15249 80.3547 6.74027C80.8775 6.32817 81.4841 6.12109 82.1741 6.11916C82.3751 6.11848 82.5869 6.13327 82.8098 6.16322C83.0327 6.19327 83.2182 6.2297 83.3671 6.27262L82.9712 9.75966L81.3986 9.72471C80.8394 9.72654 80.3768 9.83731 80.0107 10.0567C79.6442 10.2763 79.3655 10.5869 79.1746 10.9896L79.195 17.8816L81.0308 18.2697L81.0375 20.5626L73.5425 20.5845L73.5356 18.2917ZM83.8611 2.95394L83.8541 0.647644L89.7244 0.630341L89.777 17.8516L91.6258 18.2398L91.6325 20.5326L84.1113 20.5545L84.1044 18.2616L85.9507 17.8628L85.9062 3.341L83.8611 2.95394ZM99.2012 9.01811C98.4937 9.02016 97.9352 9.29258 97.5263 9.83548C97.1174 10.3783 96.866 11.0907 96.7726 11.9735L96.812 12.0386L101.503 12.0247L101.502 11.6841C101.5 10.8721 101.308 10.2239 100.926 9.7402C100.545 9.25649 99.9699 9.01572 99.2012 9.01811ZM99.2014 20.7842C97.1572 20.79 95.5214 20.1395 94.2949 18.8329C93.0679 17.5262 92.4515 15.8636 92.4457 13.8461L92.4441 13.3218C92.4378 11.2165 93.0112 9.48053 94.1649 8.11456C95.3182 6.74847 96.8688 6.06679 98.8171 6.06987C100.73 6.06406 102.217 6.63645 103.277 7.78647C104.337 8.93626 104.871 10.494 104.877 12.4596L104.883 14.543L96.4181 14.5681L96.392 14.6464C96.4647 15.5811 96.7791 16.3489 97.3358 16.9501C97.8923 17.5513 98.6466 17.8503 99.5986 17.8476C100.446 17.8448 101.149 17.7581 101.708 17.5857C102.266 17.4138 102.877 17.1435 103.54 16.7745L104.582 19.1301C103.998 19.5948 103.241 19.9856 102.312 20.303C101.383 20.6199 100.346 20.7806 99.2014 20.7842ZM111.178 2.47991L111.188 6.29185L113.677 6.28457L113.686 8.97064L111.196 8.97804L111.217 16.1985C111.219 16.7486 111.334 17.1412 111.561 17.3762C111.789 17.6117 112.095 17.7285 112.48 17.7271C112.742 17.7267 112.971 17.7151 113.167 17.6928C113.364 17.6703 113.584 17.6323 113.829 17.579L114.165 20.3432C113.737 20.4752 113.314 20.5751 112.895 20.6418C112.475 20.7085 112.021 20.7425 111.532 20.7444C110.213 20.7479 109.196 20.3885 108.482 19.6655C107.768 18.9425 107.409 17.7948 107.404 16.2226L107.383 8.98953L106.052 8.99557L106.044 6.30939L107.375 6.30335L107.364 2.49141L111.178 2.47991ZM118.762 13.5018C118.766 14.7946 118.996 15.8318 119.453 16.6121C119.909 17.3928 120.644 17.7813 121.658 17.7782C122.645 17.7751 123.367 17.3803 123.823 16.5924C124.279 15.8049 124.506 14.7691 124.502 13.4848L124.501 13.2095C124.497 11.9515 124.263 10.9262 123.797 10.1324C123.332 9.33891 122.601 8.94354 121.605 8.9465C120.61 8.94946 119.886 9.34916 119.434 10.1454C118.982 10.9419 118.758 11.9686 118.762 13.2264L118.762 13.5018ZM114.935 13.2379C114.929 11.124 115.516 9.39059 116.695 8.03726C117.875 6.68427 119.509 6.00452 121.597 5.99826C123.693 5.99223 125.335 6.66013 126.523 8.00151C127.711 9.34358 128.308 11.076 128.314 13.1983L128.315 13.4736C128.321 15.6053 127.734 17.343 126.555 18.6878C125.375 20.0317 123.745 20.7071 121.667 20.7134C119.561 20.7197 117.915 20.054 116.727 18.717C115.539 17.3789 114.942 15.6446 114.936 13.5132L114.935 13.2379ZM129.293 18.1211L131.126 17.7222L131.1 8.93011L129.068 8.54294L129.061 6.23687L134.656 6.22036L134.832 8.25082C135.302 7.52452 135.881 6.95919 136.57 6.5554C137.259 6.1516 138.031 5.94828 138.888 5.94567C140.32 5.94146 141.44 6.38816 142.246 7.28545C143.052 8.18286 143.458 9.59243 143.464 11.5144L143.482 17.6856L145.318 18.0737L145.325 20.3665L138.013 20.3885L138.006 18.0956L139.643 17.6972L139.625 11.5389C139.622 10.5867 139.428 9.91233 139.042 9.51593C138.657 9.11954 138.075 8.92259 137.298 8.92476C136.791 8.92635 136.337 9.0304 135.936 9.2368C135.535 9.44342 135.199 9.73485 134.93 10.1113L134.952 17.7111L136.499 18.1001L136.506 20.3929L129.299 20.414L129.293 18.1211ZM76.6148 25.9334L76.6185 27.2154L75.4828 27.4377L75.4992 32.9743C75.5012 33.674 75.6909 34.1967 76.0682 34.543C76.4457 34.8889 76.9623 35.0606 77.618 35.0586C78.2834 35.0568 78.8049 34.8831 79.1827 34.5368C79.5605 34.1913 79.7485 33.6658 79.7464 32.9615L79.73 27.4249L78.6001 27.2096L78.5964 25.9276L82.9892 25.9148L82.9929 27.1967L81.8571 27.4187L81.8735 32.9554C81.8771 34.1452 81.4875 35.0648 80.7051 35.7127C79.9227 36.3609 78.8952 36.6869 77.6228 36.6907C76.3552 36.6948 75.3308 36.3745 74.5493 35.7309C73.768 35.0876 73.3755 34.1706 73.3719 32.9806L73.3555 27.444L72.2257 27.2287L72.2219 25.9466L73.3511 25.9433L75.4783 25.9372L76.6148 25.9334ZM83.5777 35.2452L84.5969 35.0237L84.5825 30.1358L83.4527 29.9205L83.449 28.638L86.5597 28.629L86.6577 29.7579C86.9187 29.3539 87.2407 29.0399 87.6239 28.8152C88.0068 28.5904 88.4362 28.4775 88.9123 28.4763C89.7087 28.4738 90.3312 28.7223 90.7795 29.2208C91.2277 29.7198 91.4534 30.5037 91.4566 31.5721L91.4668 35.0033L92.4873 35.2186L92.491 36.4936L88.4261 36.5057L88.4223 35.2307L89.3324 35.0096L89.3221 31.5858C89.3206 31.0565 89.2126 30.6816 88.9982 30.461C88.7839 30.2411 88.4606 30.1312 88.0284 30.1325C87.7467 30.1332 87.4942 30.1913 87.2712 30.3063C87.0482 30.4207 86.8616 30.5829 86.7118 30.7924L86.7243 35.0175L87.5845 35.2332L87.5882 36.5081L83.5815 36.5202L83.5777 35.2452ZM96.2286 26.7136L94.1014 26.7199L94.0966 25.1243L96.2238 25.118L96.2286 26.7136ZM93.0992 35.217L94.1259 34.9955L94.1113 30.1075L92.9742 29.8924L92.9705 28.6098L96.2342 28.6003L96.2531 34.9893L97.2737 35.2045L97.2773 36.4795L93.103 36.4919L93.0992 35.217ZM100.974 29.8674L100.232 30.008L101.284 33.5311L101.425 34.2734H101.468L101.619 33.5301L102.636 30.0085L101.878 29.8649L101.874 28.5825L105.451 28.5717L105.455 29.8541L104.77 29.9653L102.465 36.4633L100.433 36.4692L98.0825 29.9852L97.3974 29.8782L97.3938 28.5957L100.971 28.585L100.974 29.8674ZM109.296 30.0532C108.902 30.0545 108.592 30.2059 108.365 30.5074C108.137 30.8093 107.998 31.2054 107.946 31.696L107.968 31.7326L110.576 31.7251L110.575 31.5356C110.574 31.0839 110.467 30.7235 110.255 30.4547C110.043 30.1855 109.723 30.052 109.296 30.0532ZM109.505 36.5944C108.368 36.5977 107.459 36.2365 106.777 35.5098C106.095 34.7835 105.752 33.859 105.749 32.7371L105.748 32.446C105.744 31.2755 106.063 30.3104 106.704 29.5505C107.346 28.7915 108.208 28.412 109.291 28.4141C110.354 28.4107 111.181 28.7289 111.771 29.368C112.36 30.0076 112.657 30.8737 112.66 31.9665L112.663 33.125L107.957 33.1386L107.943 33.1821C107.983 33.7019 108.158 34.129 108.467 34.4629C108.777 34.7973 109.196 34.9636 109.726 34.9619C110.196 34.9602 110.587 34.9122 110.898 34.8163C111.208 34.7209 111.548 34.5704 111.917 34.3655L112.496 35.6749C112.171 35.9333 111.751 36.1506 111.234 36.3273C110.717 36.5035 110.141 36.5928 109.505 36.5944ZM113.508 35.1535L114.528 34.9321L114.513 30.0441L113.383 29.8288L113.379 28.5464L116.49 28.5373L116.588 29.6878C116.772 29.2797 117.009 28.9608 117.299 28.7314C117.59 28.5025 117.927 28.3875 118.311 28.3864C118.423 28.3859 118.541 28.3942 118.664 28.4107C118.788 28.4278 118.892 28.4477 118.974 28.4717L118.754 30.4104L117.88 30.3909C117.569 30.3917 117.312 30.4535 117.108 30.5754C116.905 30.6973 116.749 30.8702 116.643 31.0938L116.655 34.9258L117.675 35.1415L117.679 36.4165L113.512 36.4285L113.508 35.1535ZM125.722 31.2192L124.294 31.2232L124.066 30.2407C123.92 30.1246 123.736 30.0279 123.515 29.9508C123.293 29.8737 123.049 29.8355 122.782 29.8363C122.408 29.8376 122.112 29.9222 121.894 30.0901C121.676 30.2586 121.567 30.4692 121.568 30.7218C121.569 30.9599 121.674 31.1573 121.883 31.3141C122.092 31.4716 122.511 31.6102 123.137 31.7293C124.114 31.9209 124.839 32.2041 125.311 32.5791C125.783 32.9544 126.02 33.4721 126.022 34.1324C126.024 34.8416 125.721 35.4215 125.113 35.8723C124.505 36.3236 123.703 36.5504 122.707 36.5537C122.1 36.5554 121.543 36.4684 121.035 36.2925C120.527 36.1166 120.075 35.8644 119.681 35.5351L119.654 33.7649L121.14 33.7608L121.435 34.7872C121.561 34.8935 121.734 34.9719 121.952 35.0224C122.171 35.0722 122.399 35.0975 122.637 35.0967C123.07 35.0954 123.399 35.0171 123.624 34.8607C123.849 34.7044 123.962 34.4932 123.961 34.2261C123.96 33.993 123.845 33.7915 123.617 33.6222C123.388 33.4531 122.967 33.3037 122.355 33.1743C121.427 32.9877 120.725 32.7094 120.251 32.339C119.776 31.9686 119.538 31.4634 119.536 30.8222C119.534 30.1619 119.804 29.5916 120.347 29.1113C120.889 28.6315 121.663 28.39 122.669 28.3872C123.281 28.3851 123.86 28.4659 124.407 28.6294C124.954 28.7932 125.383 29.003 125.695 29.2594L125.722 31.2192ZM130.043 26.6094L127.916 26.6157L127.911 25.0201L130.039 25.0138L130.043 26.6094ZM126.914 35.1133L127.94 34.8914L127.926 30.0035L126.789 29.7882L126.785 28.5058L130.049 28.4962L130.068 34.8852L131.088 35.1009L131.092 36.3758L126.918 36.3883L126.914 35.1133ZM134.576 26.5514L134.581 28.4816L135.966 28.4775L135.97 29.9711L134.586 29.9752L134.598 33.9893C134.598 34.2954 134.662 34.5139 134.789 34.6446C134.916 34.7753 135.086 34.8404 135.299 34.8395C135.445 34.8392 135.573 34.8325 135.682 34.8205C135.791 34.808 135.914 34.7869 136.05 34.7575L136.236 36.2941C135.999 36.3675 135.763 36.4227 135.53 36.46C135.297 36.4969 135.045 36.5161 134.773 36.5168C134.039 36.5189 133.474 36.319 133.077 35.9171C132.68 35.5152 132.48 34.8769 132.478 34.003L132.466 29.9815L131.732 29.9852L131.728 28.4917L132.461 28.4879L132.456 26.5576L134.576 26.5514ZM145.17 29.733L144.435 29.8442L141.558 37.5239C141.331 38.0925 141.028 38.5699 140.648 38.9544C140.268 39.3393 139.694 39.5329 138.927 39.5354C138.747 39.5359 138.578 39.5218 138.42 39.4927C138.262 39.4642 138.076 39.4235 137.863 39.3708L138.106 37.8179C138.174 37.828 138.244 37.8371 138.317 37.847C138.39 37.8561 138.453 37.8611 138.506 37.8611C138.861 37.8598 139.133 37.7727 139.322 37.5998C139.511 37.4268 139.656 37.2112 139.757 36.954L139.996 36.3559L137.478 29.8725L136.741 29.7579L136.738 28.4755L140.599 28.4639L140.602 29.7463L139.721 29.8947L140.809 33.0387L140.92 33.6065L140.964 33.6136L142.198 29.8873L141.309 29.7443L141.305 28.4618L145.166 28.4506L145.17 29.733Z" fill="white"/>
<path d="M31.8388 12.3487L25.6003 19.0763L28.2972 7.30833L24.7055 9.20981L22.0132 1.8844L19.3197 9.20981L15.7281 7.30833L18.425 19.0763L12.0533 12.2053L11.6401 15.2056L6.41592 13.6819L8.82707 19.3804L6.61401 19.9841L14.0797 25.559C22.5733 22.2828 27.9022 23.2345 31.0237 24.5003C30.5649 26.2943 29.8853 27.9624 28.9871 29.5025C28.7355 29.3646 28.4725 29.231 28.1925 29.1042C27.1076 28.6123 25.8041 28.2133 24.2354 27.9806C23.632 27.8912 22.9877 27.8274 22.3046 27.7912C22.1134 27.7811 21.9199 27.7732 21.7229 27.7676C21.3472 27.757 20.9602 27.7551 20.5606 27.7619C18.7961 27.7923 16.797 27.997 14.5248 28.4328C14.4394 28.4493 14.3552 28.4631 14.2709 28.4785C13.8577 28.5535 13.4558 28.6163 13.0642 28.6675C7.35852 29.4137 3.83744 27.7245 1.72684 25.7979C1.50712 25.1664 1.31815 24.5264 1.16333 23.8777C3.27962 26.0864 7.01018 28.0216 13.1929 25.8843L4.84038 19.6475L7.74559 18.8553L5.03732 12.4556L10.9809 14.1892L11.4978 10.4424L16.9929 16.3676L14.5703 5.80017L18.8894 8.08666L21.5226 0.925524C21.8686 0.971174 22.2136 1.02115 22.5585 1.07488L25.1359 8.08666L29.455 5.80017L27.0336 16.3676L31.8433 11.1802L31.8388 12.3487Z" fill="white"/>
<path d="M13.1712 29.9943C7.28683 30.4647 3.97066 28.8237 2.09912 26.7916C2.40308 27.5373 2.75028 28.2707 3.14303 28.9907C3.16352 29.0285 3.18516 29.0652 3.20679 29.1029C4.95879 30.389 7.90156 31.6098 12.8479 32.01C18.0402 32.4302 21.4554 33.8283 23.7015 35.4298C25.0596 34.3816 26.2504 33.2299 27.2715 31.9771C24.7283 30.5277 20.4309 29.4141 13.1712 29.9943Z" fill="white"/>
<path d="M3.20673 29.1029C6.01404 34.1803 10.5267 37.0569 15.7417 39.3255C16.0514 39.4603 16.3883 39.4673 16.6968 39.3255C18.2257 38.6169 19.9242 37.9108 21.3575 37.0376C22.1874 36.5316 22.9683 35.9955 23.7014 35.4298C21.4554 33.8283 18.0401 32.4302 12.8479 32.01C7.90151 31.6098 4.95874 30.3891 3.20673 29.1029ZM14.5248 28.4328C7.95161 29.6937 4.01272 27.8861 1.72681 25.7999C1.84292 26.1328 1.96587 26.4636 2.09907 26.7916C3.97061 28.8237 7.28677 30.4647 13.1712 29.9943C20.4308 29.4141 24.7283 30.5277 27.2715 31.9771C27.9113 31.1917 28.4839 30.3663 28.9882 29.5005C26.2059 27.9727 21.7195 27.0527 14.5248 28.4328ZM31.0248 24.5009C31.421 22.9549 31.6532 21.3155 31.7147 19.5808C31.8001 17.1716 31.8285 14.7603 31.8388 12.3487L25.6003 19.0763L28.2972 7.30833L24.7055 9.20981L22.0132 1.8844L19.3197 9.20981L15.728 7.30833L18.4249 19.0763L12.0533 12.2053L11.64 15.2056L6.41589 13.6819L8.82704 19.3804L6.61398 19.9841L14.0796 25.559C22.5744 22.2823 27.9033 23.2348 31.0248 24.5009Z" fill="#100F0D"/>
<path d="M29.4549 5.80017L27.0336 16.3676L31.8433 11.1802C31.8501 8.82321 31.8456 6.46591 31.8684 4.10975C31.8741 3.68114 31.7716 3.44139 31.3208 3.28748C28.4531 2.30379 25.5365 1.53969 22.5585 1.07488L25.1358 8.08666L29.4549 5.80017ZM13.1928 25.8843L4.84035 19.6475L7.74556 18.8553L5.03729 12.4556L10.9809 14.1892L11.4977 10.4424L16.9928 16.3676L14.5703 5.80017L18.8894 8.08666L21.5225 0.92552C20.7996 0.830349 20.0722 0.752369 19.3425 0.694424C13.1564 0.204454 7.16382 1.17551 1.32153 3.207C0.756653 3.40462 0.562449 3.65667 0.569393 4.25672C0.602634 6.90761 0.600921 12.2128 0.600921 12.2128C0.600921 14.6029 0.576445 16.993 0.606158 19.383C0.625852 20.9234 0.814946 22.4227 1.1633 23.8794C3.27959 26.0885 7.01015 28.0214 13.1928 25.8843Z" fill="#100F0D"/>
<path d="M16.1732 -3.8147e-06C11.2883 -3.8147e-06 6.22921 0.898087 1.13485 2.66933C0.329541 2.95108 -0.00947536 3.42773 0.000201083 4.26344C0.033101 6.88074 0.0317296 12.1595 0.0317296 12.2126C0.0317296 12.9557 0.0293398 13.6987 0.0269492 14.4417C0.0218263 16.0628 0.0164745 17.7392 0.0369658 19.3901C0.0570017 20.9529 0.249506 22.5065 0.609014 24.0077C0.609242 24.0087 0.609587 24.0099 0.609815 24.0109L0.610159 24.0121C0.767828 24.6701 0.962952 25.3338 1.18836 25.9847C1.18949 25.9879 1.19063 25.9912 1.19177 25.9943C1.2282 26.0911 1.26007 26.179 1.28967 26.2611C1.38871 26.5317 1.46612 26.7453 1.57199 27.0059C1.88391 27.7729 2.24479 28.5324 2.64324 29.2635C2.6569 29.2869 2.66942 29.3104 2.68308 29.3337C2.69105 29.3484 2.70016 29.3632 2.70813 29.3783C4.06852 31.8377 5.87289 33.9118 8.22483 35.7188C10.184 37.2242 12.5007 38.5362 15.5152 39.8475C15.7451 39.9477 15.9842 39.9984 16.2267 39.9984C16.4714 39.9984 16.7105 39.9459 16.9348 39.8426C17.2638 39.6899 17.5939 39.541 17.9423 39.3833C19.2002 38.8145 20.5014 38.2263 21.6535 37.5238C22.4947 37.0105 23.3007 36.4576 24.0487 35.8805C25.4352 34.8106 26.6681 33.6183 27.712 32.3367C28.3678 31.5321 28.962 30.6763 29.4766 29.793C29.4777 29.7908 29.4788 29.7886 29.48 29.7865C30.3941 28.2184 31.0954 26.5012 31.5655 24.6818C31.569 24.6687 31.5735 24.6553 31.5769 24.6419C31.9833 23.0524 32.2213 21.3564 32.2827 19.6009C32.3761 16.9817 32.3989 14.3507 32.408 12.3514L32.4125 11.1823C32.4148 10.5264 32.4148 9.87111 32.4159 9.21584C32.4194 7.54353 32.4216 5.81429 32.4376 4.11522C32.4433 3.66794 32.3522 3.03783 31.5041 2.74868C28.4327 1.69485 25.5343 0.963318 22.6461 0.512508C22.291 0.457066 21.9381 0.406181 21.5965 0.361214C20.8486 0.262741 20.1052 0.183964 19.3869 0.12693C18.3236 0.0426903 17.2421 -3.8147e-06 16.1732 -3.8147e-06ZM16.1732 0.569199C17.2239 0.569199 18.2804 0.610184 19.3425 0.694424C20.0722 0.752369 20.7997 0.830349 21.5225 0.925522C21.8686 0.971172 22.2136 1.02115 22.5585 1.07488C25.5366 1.53969 28.4531 2.30379 31.3208 3.28748C31.7716 3.44139 31.8741 3.68114 31.8684 4.10975C31.8456 6.46591 31.8502 8.82321 31.8433 11.1802L31.8388 12.3487C31.8285 14.7603 31.8001 17.1716 31.7147 19.5808C31.6532 21.3155 31.421 22.9549 31.0248 24.5009C31.0248 24.5006 31.0248 24.5005 31.0237 24.5003C30.5649 26.2935 29.8853 27.9609 28.9882 29.5005V29.501C28.9882 29.5014 28.9871 29.502 28.9871 29.5025C28.4827 30.3675 27.9101 31.1923 27.2715 31.9771C26.2503 33.2299 25.0596 34.3816 23.7014 35.4298C22.9683 35.9955 22.1874 36.5316 21.3575 37.0376C19.9242 37.9108 18.2257 38.6169 16.6968 39.3255C16.5443 39.3955 16.3861 39.4292 16.2267 39.4292C16.0628 39.4292 15.8988 39.3937 15.7417 39.3255C10.5267 37.0569 6.01405 34.1803 3.20675 29.1029C3.18512 29.0652 3.16348 29.0285 3.14299 28.9907C2.75024 28.2707 2.40303 27.5373 2.09908 26.7916C1.96589 26.4636 1.87823 26.212 1.72682 25.7978C1.50743 25.1681 1.31936 24.5278 1.16331 23.8794V23.8777C0.813818 22.4216 0.625863 20.9229 0.606168 19.3831C0.576456 16.993 0.600932 14.6029 0.600932 12.2128C0.600932 12.2128 0.602645 6.90761 0.569404 4.25673C0.562459 3.65667 0.756664 3.40462 1.32154 3.207C6.1609 1.52432 11.1027 0.569199 16.1732 0.569199Z" fill="white"/>
</svg>
