<svg width="120" height="99" viewBox="0 0 120 99" fill="none" xmlns="http://www.w3.org/2000/svg">
<path d="M18.539 61.452L15.1763 61.4618L14.7028 58.4572C14.257 58.0144 13.6953 57.6648 13.0183 57.4082C12.3409 57.1524 11.5423 57.0253 10.6231 57.0279C8.66009 57.0338 7.15135 57.7511 6.09678 59.1799C5.04199 60.6088 4.51814 62.4698 4.52478 64.763L4.52718 65.5535C4.53401 67.8468 5.06633 69.71 6.12433 71.1425C7.18227 72.576 8.67202 73.2892 10.5937 73.2833C11.482 73.2812 12.2951 73.1494 13.0331 72.889C13.7708 72.629 14.3407 72.2759 14.7422 71.8302L15.1984 68.8225L18.561 68.8127L18.5742 73.2753C17.6679 74.332 16.5109 75.1743 15.1027 75.8037C13.6943 76.4326 12.1172 76.7503 10.3713 76.7556C7.34458 76.7646 4.86198 75.7232 2.92391 73.6317C0.986072 71.5401 0.0120087 68.8521 0.00246056 65.5667L7.02708e-05 64.8076C-0.00942559 61.5327 0.943478 58.8388 2.85855 56.7256C4.77386 54.6124 7.25508 53.5514 10.3028 53.5424C12.0484 53.5371 13.6249 53.85 15.0318 54.4815C16.4384 55.1126 17.6033 55.9485 18.5258 56.9892L18.539 61.452ZM26.989 73.4504C27.652 73.4483 28.2547 73.3037 28.7964 73.0158C29.338 72.7274 29.759 72.367 30.0592 71.9339L30.0517 69.447L27.8059 69.4536C26.8716 69.4568 26.1639 69.6776 25.6827 70.1153C25.2018 70.5539 24.9621 71.0802 24.9639 71.693C24.9656 72.2459 25.1451 72.677 25.503 72.9875C25.8604 73.2979 26.3559 73.4525 26.989 73.4504ZM30.811 76.3781C30.6889 76.1059 30.5823 75.8269 30.4919 75.5425C30.4006 75.2561 30.3293 74.9684 30.2782 74.6763C29.7575 75.2808 29.1233 75.7705 28.3759 76.1443C27.6285 76.5176 26.7725 76.7067 25.8079 76.7098C24.2103 76.7144 22.9403 76.2835 21.9983 75.4173C21.056 74.5507 20.583 73.369 20.5783 71.8716C20.574 70.3444 21.1834 69.1622 22.4069 68.3244C23.6302 67.4867 25.4276 67.0645 27.799 67.0572L30.0448 67.0505L30.0399 65.4528C30.0376 64.6691 29.8097 64.062 29.3563 63.6312C28.903 63.2006 28.2341 62.9864 27.3501 62.9889C26.8474 62.9904 26.4005 63.05 26.0089 63.1666C25.6173 63.2831 25.3012 63.4225 25.0607 63.5839L24.7792 65.333L21.4635 65.3428L21.4678 61.7253C22.2701 61.1806 23.1908 60.7204 24.2296 60.3456C25.2684 59.9711 26.4007 59.7816 27.6267 59.7779C29.6464 59.772 31.288 60.2622 32.5521 61.2477C33.816 62.234 34.4509 63.6416 34.4563 65.4703L34.4761 72.2074C34.4769 72.4586 34.4799 72.695 34.4859 72.9159C34.4913 73.1368 34.5096 73.348 34.5405 73.5487L35.8824 73.7258L35.8903 76.3633L30.811 76.3781ZM37.4242 73.7202L39.533 73.2614L39.5031 63.1483L37.1657 62.7029L37.1577 60.0504L43.5935 60.0313L43.7964 62.4119C44.1756 61.567 44.6664 60.9073 45.2677 60.4332C45.8692 59.9592 46.5668 59.7211 47.3606 59.7187C47.5918 59.7179 47.8354 59.7349 48.0918 59.7694C48.3482 59.8039 48.5616 59.8459 48.7329 59.8953L48.2774 63.9062L46.4685 63.8661C45.8254 63.8682 45.2932 63.9955 44.8721 64.2479C44.4506 64.5005 44.13 64.8577 43.9105 65.3209L43.9339 73.2486L46.0455 73.695L46.0532 76.3323L37.4321 76.3575L37.4242 73.7202ZM49.301 56.0779L49.2931 53.4251L56.0453 53.4053L56.1059 73.2141L58.2325 73.6604L58.2402 76.2978L49.5889 76.323L49.5809 73.6857L51.7047 73.2269L51.6535 56.5231L49.301 56.0779ZM66.9461 63.0532C66.1322 63.0556 65.4898 63.369 65.0195 63.9936C64.5491 64.6178 64.26 65.4373 64.1526 66.4527L64.1979 66.5277L69.5937 66.5117L69.5927 66.1199C69.5899 65.1858 69.3692 64.4401 68.9306 63.8838C68.4918 63.3274 67.8301 63.0505 66.9461 63.0532ZM66.9462 76.5873C64.5949 76.5939 62.7134 75.8458 61.3025 74.3427C59.8912 72.8397 59.1822 70.9274 59.1754 68.6066L59.1737 68.0036C59.1664 65.582 59.826 63.5851 61.153 62.0139C62.4796 60.4427 64.2634 59.6585 66.5042 59.662C68.7047 59.6554 70.4146 60.3137 71.6345 61.6364C72.854 62.9591 73.4675 64.751 73.4743 67.0119L73.4813 69.4083L63.7448 69.4372L63.7146 69.5273C63.7984 70.6024 64.16 71.4855 64.8003 72.177C65.4403 72.8685 66.308 73.2125 67.4033 73.2094C68.3779 73.2062 69.1866 73.1065 69.8289 72.9082C70.4716 72.7104 71.1739 72.3994 71.9365 71.9752L73.1353 74.6846C72.4635 75.2191 71.5933 75.6686 70.5241 76.0337C69.4551 76.3983 68.2623 76.5831 66.9462 76.5873ZM80.7219 55.5327L80.7338 59.9175L83.5974 59.909L83.6067 62.9987L80.743 63.0071L80.7675 71.3124C80.7693 71.9453 80.9014 72.3968 81.1634 72.6672C81.4253 72.9381 81.7774 73.0724 82.2195 73.0709C82.521 73.0704 82.7849 73.0569 83.0107 73.0312C83.2369 73.0055 83.4903 72.9617 83.7714 72.9005L84.1576 76.0801C83.6659 76.232 83.1788 76.3468 82.6968 76.4235C82.2146 76.5001 81.6922 76.5393 81.1297 76.5414C79.6123 76.5455 78.4429 76.1321 77.6216 75.3004C76.8001 74.4689 76.3868 73.1486 76.3815 71.3403L76.3569 63.0203L74.8264 63.0273L74.8171 59.9375L76.3478 59.9306L76.3359 55.5459L80.7219 55.5327ZM89.4463 68.2107C89.4508 69.6977 89.7154 70.8908 90.2406 71.7883C90.7658 72.6863 91.611 73.1332 92.7768 73.1296C93.9122 73.1259 94.7425 72.6719 95.2671 71.7655C95.7921 70.8598 96.0524 69.6684 96.0481 68.1911L96.0471 67.8745C96.0426 66.4275 95.7729 65.2481 95.2376 64.3349C94.7023 63.4222 93.862 62.9676 92.7166 62.971C91.5712 62.9742 90.7383 63.434 90.2188 64.3499C89.6987 65.2662 89.441 66.4471 89.4454 67.8939L89.4463 68.2107ZM85.0444 67.9071C85.0372 65.4757 85.712 63.4817 87.0688 61.9251C88.4258 60.3688 90.305 59.5869 92.7065 59.5798C95.1181 59.5727 97.0068 60.341 98.3731 61.884C99.7392 63.4276 100.426 65.4203 100.433 67.8615L100.434 68.1781C100.441 70.6302 99.7662 72.629 98.4094 74.1758C97.0524 75.7217 95.1781 76.4987 92.7868 76.5059C90.3652 76.5131 88.4714 75.7474 87.1053 74.2094C85.739 72.6703 85.0524 70.6755 85.0452 68.2237L85.0444 67.9071ZM101.559 73.524L103.668 73.0652L103.638 62.9522L101.3 62.5067L101.292 59.8542L107.728 59.8351L107.931 62.1707C108.471 61.3352 109.137 60.6849 109.93 60.2206C110.722 59.7561 111.61 59.5223 112.596 59.5191C114.243 59.5143 115.531 60.0282 116.458 61.0603C117.386 62.0924 117.853 63.7139 117.859 65.9247L117.881 73.023L119.992 73.4694L120 76.1069L111.59 76.1321L111.582 73.4946L113.464 73.0364L113.444 65.9527C113.44 64.8576 113.217 64.0819 112.773 63.6259C112.33 63.1699 111.661 62.9434 110.767 62.9459C110.184 62.9477 109.662 63.0675 109.2 63.3048C108.739 63.5424 108.353 63.8777 108.043 64.3107L108.068 73.0524L109.848 73.4997L109.856 76.1372L101.567 76.1613L101.559 73.524ZM23.0985 82.5101L23.1028 83.9848L21.7963 84.2405L21.8152 90.609C21.8175 91.4138 22.0356 92.0149 22.4698 92.4133C22.904 92.8112 23.4982 93.0087 24.2523 93.0064C25.0176 93.0044 25.6175 92.8046 26.0522 92.4062C26.4868 92.0088 26.703 91.4044 26.7005 90.5942L26.6817 84.2258L25.382 83.9781L25.3777 82.5034L30.4305 82.4887L30.4348 83.9633L29.1285 84.2186L29.1473 90.5871C29.1514 91.9558 28.7033 93.0136 27.8033 93.7587C26.9033 94.5044 25.7214 94.8794 24.2578 94.8836C22.7999 94.8884 21.6215 94.5201 20.7225 93.7798C19.8238 93.0398 19.3724 91.9849 19.3683 90.6162L19.3495 84.2477L18.0497 84L18.0455 82.5254L19.3444 82.5216L21.7911 82.5144L23.0985 82.5101ZM31.1075 93.2211L32.2799 92.9663L32.2632 87.3438L30.9637 87.0963L30.9594 85.6211L34.5375 85.6107L34.6504 86.9093C34.9505 86.4445 35.3208 86.0834 35.7615 85.8249C36.2021 85.5663 36.6961 85.4366 37.2436 85.4351C38.1597 85.4323 38.8757 85.718 39.3914 86.2915C39.9069 86.8654 40.1666 87.767 40.1702 88.996L40.1819 92.9429L41.3557 93.1905L41.36 94.6571L36.6843 94.6708L36.68 93.2044L37.7268 92.9501L37.715 89.0118C37.7133 88.403 37.589 87.9717 37.3425 87.7179C37.0959 87.465 36.7241 87.3386 36.2269 87.34C35.9029 87.3409 35.6125 87.4078 35.356 87.54C35.0994 87.6717 34.8848 87.8582 34.7124 88.0991L34.7269 92.9591L35.7163 93.2072L35.7206 94.6737L31.1118 94.6875L31.1075 93.2211ZM45.6593 83.4076L43.2123 83.4146L43.2068 81.5793L45.6538 81.5721L45.6593 83.4076ZM42.0598 93.1886L43.2405 92.9338L43.2238 87.3115L41.9158 87.0638L41.9116 85.5887L45.6657 85.5778L45.6874 92.9267L46.8612 93.1743L46.8656 94.6408L42.0641 94.6551L42.0598 93.1886ZM51.1182 87.0352L50.2638 87.1969L51.4741 91.2493L51.6359 92.1033H51.6862L51.8597 91.2482L53.0291 87.1974L52.1572 87.0323L52.1529 85.5573L56.2672 85.5449L56.2715 87.0199L55.4842 87.1478L52.8332 94.6222L50.4953 94.6289L47.7918 87.1708L47.0037 87.0476L46.9994 85.5726L51.1139 85.5601L51.1182 87.0352ZM60.6898 87.249C60.2372 87.2504 59.8802 87.4246 59.6187 87.7714C59.3571 88.1187 59.1965 88.5743 59.1368 89.1387L59.1621 89.1807L62.1618 89.1721L62.1613 88.9541C62.1598 88.4345 62.037 88.0199 61.7931 87.7107C61.5493 87.4012 61.1813 87.2476 60.6898 87.249ZM60.93 94.773C59.6228 94.7767 58.5767 94.3612 57.7922 93.5254C57.0076 92.69 56.6134 91.6267 56.6096 90.3362L56.6087 90.0012C56.6046 88.6549 56.9714 87.5447 57.7091 86.6708C58.4467 85.7977 59.4384 85.3612 60.6842 85.3636C61.9077 85.3597 62.8584 85.7256 63.5366 86.4609C64.2146 87.1965 64.5557 88.1926 64.5593 89.4498L64.5632 90.7822L59.15 90.7979L59.1334 90.8481C59.1799 91.4459 59.3809 91.9372 59.7369 92.3213C60.0927 92.7058 60.5751 92.897 61.1842 92.8952C61.7259 92.8932 62.1756 92.838 62.5327 92.7277C62.8898 92.618 63.2805 92.4448 63.7043 92.2092L64.3708 93.7154C63.9974 94.0125 63.5135 94.2625 62.9192 94.4657C62.3249 94.6685 61.6617 94.7711 60.93 94.773ZM65.5352 93.1155L66.7076 92.8608L66.691 87.2384L65.3914 86.9909L65.387 85.5157L68.9652 85.5053L69.0779 86.8287C69.2888 86.3593 69.5616 85.9923 69.896 85.7285C70.2305 85.4652 70.6181 85.333 71.0596 85.3315C71.188 85.3312 71.3236 85.3407 71.466 85.3597C71.6086 85.3792 71.7272 85.4022 71.8224 85.4299L71.5692 87.6597L70.5637 87.6373C70.206 87.6383 69.9102 87.7093 69.676 87.8496C69.4418 87.9899 69.2635 88.1888 69.1414 88.446L69.1544 92.8537L70.3283 93.1017L70.3326 94.5682L65.5395 94.5821L65.5352 93.1155ZM79.5843 88.5901L77.942 88.5948L77.6788 87.4645C77.5108 87.331 77.2996 87.2199 77.0451 87.1311C76.7906 87.0424 76.5097 86.9985 76.2025 86.9994C75.7724 87.0008 75.432 87.0981 75.1812 87.2915C74.9303 87.4852 74.8053 87.7274 74.8062 88.018C74.807 88.2919 74.9278 88.5189 75.1686 88.6993C75.4092 88.8805 75.8902 89.0399 76.6112 89.1768C77.7348 89.3972 78.5681 89.723 79.1114 90.1543C79.6544 90.5862 79.9272 91.1815 79.9294 91.9411C79.9318 92.7569 79.5832 93.4238 78.8838 93.9424C78.184 94.4614 77.2617 94.7224 76.1166 94.7262C75.4182 94.7281 74.7767 94.6279 74.1925 94.4256C73.608 94.2233 73.0891 93.9333 72.6355 93.5545L72.6043 91.5183L74.3137 91.5135L74.6525 92.6943C74.798 92.8165 74.9967 92.9067 75.2482 92.9648C75.4998 93.022 75.7624 93.0512 76.0361 93.0502C76.5334 93.0488 76.9115 92.9587 77.1708 92.7788C77.4299 92.5989 77.5591 92.3561 77.5582 92.0488C77.5576 91.7807 77.4255 91.5489 77.1623 91.3542C76.8991 91.1595 76.4154 90.9878 75.7112 90.839C74.6435 90.6243 73.8368 90.3042 73.2908 89.8781C72.7448 89.4521 72.4708 88.871 72.4686 88.1334C72.4664 87.3739 72.7772 86.7179 73.4013 86.1655C74.0253 85.6136 74.9157 85.3359 76.072 85.3324C76.7759 85.3301 77.4424 85.4231 78.0714 85.6112C78.7005 85.7996 79.1941 86.0409 79.5525 86.3359L79.5843 88.5901ZM84.5547 83.2878L82.1077 83.295L82.1022 81.4597L84.5492 81.4525L84.5547 83.2878ZM80.9552 93.0693L82.1359 92.8141L82.1192 87.1916L80.8114 86.9441L80.807 85.469L84.5611 85.458L84.5828 92.8069L85.7567 93.0549L85.761 94.5215L80.9595 94.5359L80.9552 93.0693ZM89.7679 83.221L89.7746 85.4413L91.3667 85.4366L91.3717 87.1544L89.7795 87.1593L89.7932 91.7765C89.7942 92.1285 89.8677 92.3799 90.0133 92.5303C90.1591 92.6805 90.3546 92.7554 90.6006 92.7544C90.7682 92.754 90.9148 92.7463 91.0405 92.7325C91.1662 92.7182 91.3071 92.6938 91.4636 92.66L91.6782 94.4276C91.4047 94.512 91.1339 94.5754 90.8659 94.6184C90.5978 94.6609 90.3075 94.6828 89.9947 94.6837C89.151 94.6861 88.5009 94.4562 88.0443 93.9939C87.5875 93.5316 87.3578 92.7974 87.3548 91.7921L87.341 87.1664L86.4973 87.1708L86.4923 85.4528L87.3361 85.4485L87.3294 83.2281L89.7679 83.221ZM101.954 86.8807L101.108 87.0085L97.7995 95.842C97.5387 96.4962 97.1899 97.0453 96.7528 97.4875C96.3155 97.9302 95.6555 98.1531 94.7729 98.1559C94.5662 98.1565 94.372 98.1401 94.1903 98.1068C94.0086 98.0739 93.7948 98.0272 93.549 97.9665L93.8285 96.1803C93.9068 96.1918 93.9879 96.2023 94.0717 96.2138C94.1555 96.2242 94.228 96.23 94.2895 96.23C94.6973 96.2286 95.0098 96.1284 95.2272 95.9294C95.4445 95.7305 95.6113 95.4823 95.7278 95.1866L96.0024 94.4987L93.1059 87.0409L92.2593 86.9093L92.255 85.4341L96.6961 85.4208L96.7004 86.896L95.6869 87.0667L96.9379 90.683L97.0655 91.336L97.1158 91.3443L98.5361 87.0582L97.5132 86.8935L97.5089 85.4184L101.95 85.4055L101.954 86.8807Z" fill="#100F0D"/>
<path d="M78.09 13.5674L70.905 21.3159L74.011 7.76201L69.8743 9.95193L66.7724 1.51485L63.6705 9.95193L59.5339 7.76201L62.6399 21.3159L55.3016 13.4022L54.825 16.8578L48.808 15.1029L51.5849 21.6665L49.0358 22.3617L57.6349 28.7827C67.418 25.0092 73.5551 26.1055 77.1512 27.5633C76.622 29.6297 75.8392 31.5509 74.8053 33.3247C74.5159 33.1658 74.2123 33.0121 73.8902 32.8661C72.6405 32.2995 71.1388 31.8398 69.3323 31.5718C68.6375 31.4687 67.8957 31.3953 67.1083 31.3537C66.8886 31.342 66.6653 31.333 66.4381 31.3266C66.0058 31.3143 65.5596 31.3121 65.0994 31.32C63.0681 31.355 60.7648 31.5907 58.1475 32.0927C58.0489 32.1116 57.9529 32.1276 57.8553 32.1453C57.3798 32.2317 56.9164 32.304 56.465 32.3631C49.8944 33.2224 45.8388 31.2769 43.407 29.0578C43.1542 28.3304 42.9373 27.5933 42.7582 26.8462C45.1961 29.3901 49.4924 31.6191 56.6133 29.1573L46.9932 21.9739L50.3392 21.0616L47.221 13.6906L54.0663 15.6872L54.6617 11.3716L60.99 18.1962L58.2006 6.02493L63.1749 8.65843L66.2075 0.410351C66.6061 0.46299 67.0038 0.520462 67.4007 0.582371L70.3698 8.65843L75.344 6.02493L72.5549 18.1962L78.0951 12.2214L78.09 13.5674Z" fill="white"/>
<path d="M56.5887 33.8913C49.8119 34.433 45.9916 32.5429 43.8367 30.2023C44.1858 31.0612 44.586 31.9059 45.0387 32.7353C45.0625 32.7788 45.0873 32.8211 45.1114 32.8644C47.1295 34.3458 50.5198 35.7518 56.2164 36.2129C62.1963 36.6968 66.1304 38.3071 68.7171 40.1516C70.2819 38.9442 71.653 37.6179 72.8288 36.175C69.9006 34.5055 64.9499 33.2229 56.5887 33.8913Z" fill="white"/>
<path d="M45.1114 32.8644C48.3458 38.7125 53.5431 42.0257 59.5498 44.6387C59.9065 44.7939 60.2947 44.802 60.6494 44.6387C62.4108 43.8225 64.3674 43.0093 66.0179 42.0037C66.9733 41.4207 67.8728 40.8032 68.7171 40.1517C66.1304 38.3071 62.1963 36.6968 56.2164 36.2129C50.5198 35.7518 47.1295 34.3459 45.1114 32.8644ZM58.1475 32.0927C50.5765 33.5449 46.0407 31.4631 43.4077 29.0602C43.5411 29.4435 43.6832 29.8245 43.8367 30.2023C45.9916 32.5429 49.8119 34.433 56.5887 33.8913C64.9499 33.2229 69.9006 34.5055 72.8288 36.175C73.5659 35.2704 74.2256 34.3196 74.8066 33.3225C71.6014 31.5627 66.4348 30.5032 58.1475 32.0927ZM75.344 6.02494L72.5549 18.1962L78.095 12.2214C78.1024 9.50666 78.0979 6.79166 78.1238 4.07796C78.1298 3.58422 78.0129 3.3081 77.4929 3.13072C74.1906 1.99788 70.8312 1.11778 67.4006 0.582382L70.3698 8.65844L75.344 6.02494Z" fill="#100F0D"/>
<path d="M56.6132 29.1574L46.9931 21.9739L50.3392 21.0616L47.2209 13.6906L54.0663 15.6872L54.6617 11.3716L60.9899 18.1962L58.2006 6.02494L63.1749 8.65844L66.2074 0.410358C65.3746 0.30064 64.5378 0.210907 63.6963 0.144163C56.5722 -0.420103 49.6699 0.698372 42.9409 3.03811C42.2899 3.26578 42.0663 3.55601 42.0742 4.24724C42.1126 7.30041 42.1106 13.4108 42.1106 13.4108C42.1106 16.1636 42.0823 18.9164 42.1166 21.6693C42.1394 23.4435 42.3565 25.1704 42.7587 26.8482C45.1963 29.3926 49.493 31.6188 56.6132 29.1574Z" fill="#100F0D"/>
<path d="M77.1528 27.564C77.6083 25.7833 77.8756 23.8952 77.9464 21.8971C78.0453 19.1222 78.0773 16.345 78.09 13.5674L70.905 21.3159L74.0111 7.76202L69.8743 9.95194L66.7724 1.51487L63.6705 9.95194L59.5339 7.76202L62.6399 21.3159L55.3016 13.4022L54.825 16.8578L48.808 15.103L51.5849 21.6665L49.0358 22.3617L57.635 28.7827C67.4193 25.0087 73.5568 26.1057 77.1528 27.564Z" fill="#100F0D"/>
</svg>
