<svg width="149" height="40" viewBox="0 0 149 40" fill="none" xmlns="http://www.w3.org/2000/svg">
<path d="M16.5449 7.2441L13.5439 7.25275L13.1213 4.57138C12.7236 4.17616 12.2222 3.86414 11.618 3.63533C11.0135 3.40687 10.3008 3.29351 9.48042 3.29585C7.72861 3.30099 6.38211 3.94115 5.44102 5.21634C4.49965 6.49152 4.03216 8.15234 4.0381 10.1989L4.0402 10.9043C4.04636 12.951 4.52137 14.6138 5.46557 15.8921C6.40977 17.1715 7.73924 17.8079 9.45422 17.8028C10.247 17.8008 10.9726 17.6833 11.6312 17.4508C12.2895 17.2188 12.7982 16.9037 13.1565 16.5059L13.5635 13.8217L16.5645 13.813L16.5763 17.7957C15.7675 18.7386 14.735 19.4904 13.4782 20.0521C12.2213 20.6133 10.8139 20.8968 9.25578 20.9016C6.55457 20.9095 4.33901 19.9803 2.60938 18.1136C0.880035 16.247 0.0106973 13.8481 0.00221326 10.9161L6.30273e-05 10.2387C-0.00843273 7.31609 0.841961 4.9118 2.55105 3.02602C4.26035 1.14001 6.47473 0.193321 9.19461 0.185257C10.7525 0.180466 12.1595 0.459763 13.4149 1.02338C14.6702 1.58653 15.7098 2.33245 16.5331 3.26138L16.5449 7.2441ZM24.086 17.9518C24.6777 17.95 25.2156 17.8209 25.6989 17.5641C26.1824 17.3066 26.5581 16.985 26.8259 16.5986L26.8193 14.379L24.8151 14.385C23.9813 14.3878 23.3497 14.5849 22.9202 14.9755C22.491 15.367 22.2771 15.8366 22.2788 16.3835C22.2803 16.877 22.4405 17.2616 22.7599 17.5387C23.0788 17.8158 23.521 17.9537 24.086 17.9518ZM27.4968 20.5647C27.3884 20.323 27.2935 20.0743 27.2122 19.8189C27.1306 19.5634 27.067 19.3066 27.0214 19.046C26.5567 19.5855 25.9907 20.0224 25.3238 20.3561C24.6568 20.6893 23.8929 20.8579 23.0319 20.8607C21.6062 20.8648 20.4728 20.4802 19.6321 19.7073C18.7912 18.9339 18.3691 17.8792 18.3649 16.5429C18.361 15.18 18.9049 14.1248 19.9967 13.3773C21.0885 12.6296 22.6926 12.2527 24.8089 12.2463L26.8131 12.2404L26.8088 10.8145C26.8067 10.115 26.6033 9.57325 26.1987 9.18889C25.7941 8.80454 25.1971 8.61336 24.4082 8.61558C23.9597 8.61698 23.5609 8.67015 23.2113 8.77415C22.8619 8.87828 22.5797 9.0025 22.3651 9.14659L22.114 10.7076L19.1549 10.7164L19.1587 7.48799C19.8747 7.00173 20.6964 6.5912 21.6234 6.25663C22.5505 5.92241 23.5611 5.75319 24.6551 5.75004C26.4577 5.74478 27.9227 6.18219 29.0507 7.0618C30.1787 7.94199 30.7453 9.19813 30.7501 10.8301L30.7678 16.8426C30.7685 17.0668 30.7713 17.2777 30.7765 17.4749C30.7813 17.672 30.7977 17.8604 30.8253 18.0396L32.0227 18.1977L32.0299 20.5514L27.4968 20.5647ZM33.3988 18.1926L35.2807 17.7832L35.254 8.75791L33.1681 8.36035L33.1609 5.99311L38.9045 5.97617L39.0855 8.10081C39.424 7.34671 39.862 6.75796 40.3987 6.33481C40.9354 5.91177 41.5581 5.69932 42.2664 5.69722C42.4727 5.69651 42.6901 5.71159 42.9189 5.74244C43.1477 5.77318 43.3382 5.81069 43.4911 5.85475L43.0846 9.4343L41.4703 9.39843C40.8963 9.4003 40.4214 9.514 40.0455 9.73919C39.6694 9.96461 39.3833 10.2835 39.1873 10.6969L39.2082 17.7717L41.0927 18.1701L41.0996 20.5238L33.4058 20.5463L33.3988 18.1926ZM43.9981 2.44803L43.991 0.0805511L50.017 0.0629044L50.071 17.7409L51.9688 18.1394L51.9757 20.493L44.255 20.5155L44.2478 18.1618L46.1432 17.7524L46.0975 2.84524L43.9981 2.44803ZM59.7452 8.67307C59.0189 8.67517 58.4456 8.95471 58.0258 9.51213C57.6061 10.0693 57.348 10.8008 57.2522 11.7069L57.2926 11.7737L62.1081 11.7595L62.1072 11.4098C62.1046 10.5761 61.9077 9.91086 61.5162 9.41432C61.1247 8.91778 60.5342 8.6705 59.7452 8.67307ZM59.7454 20.7513C57.647 20.7573 55.9678 20.0895 54.7087 18.7482C53.4492 17.4069 52.8164 15.7001 52.8105 13.6291L52.8088 13.091C52.8024 10.9298 53.391 9.14776 54.5753 7.74555C55.7592 6.34334 57.351 5.64346 59.3509 5.64662C61.3146 5.64066 62.8407 6.22812 63.9294 7.40864C65.0177 8.58893 65.5653 10.1882 65.5713 12.2059L65.5775 14.3445L56.8883 14.3703L56.8614 14.4507C56.9361 15.4102 57.2589 16.1983 57.8303 16.8154C58.4015 17.4326 59.1758 17.7396 60.1532 17.7368C61.0231 17.734 61.7448 17.6449 62.318 17.468C62.8915 17.2915 63.5183 17.014 64.1989 16.6352L65.2686 19.0533C64.6692 19.5303 63.8926 19.9315 62.9384 20.2573C61.9845 20.5827 60.9199 20.7476 59.7454 20.7513ZM72.0393 1.96142L72.0498 5.87461L74.6055 5.86702L74.6138 8.62434L72.0581 8.63194L72.0799 16.0439C72.0816 16.6086 72.1994 17.0117 72.4333 17.2529C72.6669 17.4946 72.9813 17.6145 73.3758 17.6131C73.6448 17.6127 73.8804 17.6007 74.0819 17.5777C74.2838 17.5548 74.5099 17.5158 74.7608 17.4611L75.1055 20.2986C74.6666 20.4341 74.2319 20.5366 73.8018 20.6051C73.3715 20.6736 72.9052 20.7085 72.4032 20.7104C71.049 20.714 70.0054 20.3451 69.2725 19.6029C68.5393 18.8607 68.1705 17.6826 68.1657 16.0687L68.1438 8.64362L66.7779 8.64982L66.7696 5.89249L68.1355 5.8863L68.125 1.97322L72.0393 1.96142ZM79.8253 13.2757C79.8292 14.6028 80.0655 15.6675 80.5341 16.4685C81.0028 17.2699 81.7572 17.6688 82.7976 17.6656C83.8108 17.6623 84.5518 17.2571 85.02 16.4483C85.4885 15.6399 85.7208 14.5766 85.7169 13.2582L85.716 12.9756C85.7121 11.6843 85.4713 10.6318 84.9936 9.81678C84.516 9.00227 83.766 8.59653 82.7438 8.59957C81.7215 8.60249 80.9783 9.0129 80.5146 9.83011C80.0505 10.6479 79.8205 11.7019 79.8244 12.9931L79.8253 13.2757ZM75.8968 13.0049C75.8904 10.835 76.4926 9.05544 77.7035 7.66632C78.9145 6.27731 80.5916 5.57954 82.7348 5.57311C84.887 5.56692 86.5725 6.25254 87.792 7.62951C89.011 9.00718 89.6239 10.7856 89.6303 12.9642L89.6312 13.2468C89.6376 15.435 89.0351 17.2188 87.8243 18.5993C86.6132 19.9789 84.9406 20.6722 82.8066 20.6786C80.6453 20.685 78.9552 20.0018 77.7361 18.6292C76.5168 17.2557 75.904 15.4754 75.8975 13.2874L75.8968 13.0049ZM90.6348 18.0176L92.5167 17.6081L92.4901 8.58274L90.4041 8.1853L90.397 5.81805L96.1406 5.80099L96.3215 7.88543C96.8034 7.13986 97.3981 6.55953 98.1056 6.14503C98.8125 5.73052 99.6054 5.52193 100.485 5.51912C101.955 5.5148 103.104 5.97336 103.932 6.89445C104.76 7.81555 105.176 9.26263 105.182 11.2356L105.201 17.5705L107.085 17.9689L107.093 20.3225L99.5868 20.3451L99.5797 17.9914L101.26 17.5824L101.241 11.2607C101.238 10.2833 101.039 9.59101 100.643 9.1841C100.247 8.77719 99.6505 8.57491 98.8523 8.57725C98.3323 8.57888 97.8661 8.68569 97.4547 8.89756C97.0424 9.10966 96.6982 9.40883 96.4214 9.79528L96.4443 17.5967L98.0329 17.996L98.0398 20.3497L90.6419 20.3713L90.6348 18.0176ZM36.5596 26.0371L36.5635 27.3531L35.3975 27.5813L35.4144 33.2648C35.4165 33.9831 35.6112 34.5196 35.9986 34.8751C36.3861 35.2302 36.9164 35.4065 37.5894 35.4043C38.2724 35.4026 38.8078 35.2242 39.1956 34.8688C39.5835 34.5141 39.7764 33.9746 39.7743 33.2517L39.7575 27.5681L38.5975 27.3471L38.5938 26.0312L43.1031 26.018L43.1069 27.3339L41.941 27.5618L41.9579 33.2453C41.9615 34.4668 41.5616 35.4107 40.7584 36.0757C39.9552 36.7412 38.9005 37.0759 37.5944 37.0797C36.2932 37.084 35.2415 36.7552 34.4393 36.0945C33.6373 35.4341 33.2343 34.4928 33.2307 33.2713L33.2139 27.5878L32.054 27.3668L32.0502 26.0507L33.2093 26.0473L35.393 26.041L36.5596 26.0371ZM43.7073 35.5959L44.7535 35.3686L44.7387 30.3509L43.5789 30.1299L43.5751 28.8135L46.7683 28.8042L46.8689 29.9631C47.1369 29.5483 47.4674 29.226 47.8607 28.9953C48.2538 28.7645 48.6946 28.6487 49.1833 28.6474C50.0009 28.6449 50.6399 28.9 51.1001 29.4117C51.5602 29.9239 51.7919 30.7286 51.7952 31.8254L51.8056 35.3477L52.8532 35.5686L52.857 36.8775L48.6842 36.8899L48.6804 35.581L49.6146 35.3541L49.604 31.8394C49.6025 31.2961 49.4916 30.9113 49.2716 30.6848C49.0515 30.4591 48.7196 30.3463 48.276 30.3475C47.9868 30.3484 47.7276 30.408 47.4987 30.526C47.2697 30.6434 47.0782 30.81 46.9244 31.025L46.9373 35.3621L47.8203 35.5836L47.8241 36.8923L43.7111 36.9047L43.7073 35.5959ZM56.6937 26.838L54.5101 26.8444L54.5052 25.2065L56.6888 25.2001L56.6937 26.838ZM53.4813 35.567L54.5352 35.3396L54.5202 30.3219L53.353 30.1009L53.3492 28.7845L56.6995 28.7747L56.7189 35.3333L57.7665 35.5541L57.7702 36.863L53.4852 36.8757L53.4813 35.567ZM61.5654 30.0755L60.803 30.2198L61.8832 33.8363L62.0275 34.5983H62.0725L62.2272 33.8354L63.2709 30.2203L62.4928 30.0729L62.489 28.7565L66.1607 28.7454L66.1646 30.0618L65.4619 30.176L63.0961 36.8464L61.0096 36.8523L58.5968 30.1964L57.8935 30.0866L57.8898 28.7701L61.5617 28.7591L61.5654 30.0755ZM70.1076 30.2662C69.7037 30.2675 69.385 30.4229 69.1518 30.7325C68.9183 31.0424 68.7749 31.449 68.7216 31.9526L68.7442 31.9901L71.4213 31.9824L71.4208 31.7879C71.4194 31.3243 71.3098 30.9543 71.0922 30.6784C70.8745 30.402 70.5461 30.2649 70.1076 30.2662ZM70.3219 36.9809C69.1554 36.9843 68.2218 36.6135 67.5217 35.8676C66.8214 35.122 66.4696 34.173 66.4662 33.0213L66.4654 32.7225C66.4619 31.5209 66.7892 30.5302 67.4475 29.7501C68.1057 28.971 68.9907 28.5814 70.1025 28.5836C71.1944 28.5802 72.043 28.9068 72.6482 29.5628C73.2533 30.2194 73.5576 31.1084 73.5609 32.2303L73.5644 33.4195L68.7334 33.4335L68.7186 33.4781C68.76 34.0117 68.9394 34.4502 69.2572 34.7929C69.5747 35.1361 70.0053 35.3068 70.5487 35.3051C71.0322 35.3034 71.4335 35.254 71.7523 35.1557C72.0709 35.0577 72.4195 34.9032 72.7978 34.6929L73.3928 36.037C73.0593 36.3023 72.6275 36.5254 72.0971 36.7068C71.5668 36.8877 70.9749 36.9793 70.3219 36.9809ZM74.4319 35.5018L75.4781 35.2745L75.4633 30.2569L74.3034 30.0359L74.2996 28.7194L77.4928 28.7101L77.5934 29.8911C77.7817 29.4721 78.0251 29.1448 78.3236 28.9093C78.622 28.6743 78.968 28.5563 79.362 28.555C79.4766 28.5547 79.5976 28.5632 79.7247 28.5802C79.8519 28.5977 79.9579 28.6181 80.0427 28.6428L79.8168 30.6328L78.9193 30.6128C78.6003 30.6136 78.3362 30.6771 78.1272 30.8022C77.9182 30.9274 77.759 31.1049 77.6501 31.3344L77.6618 35.268L78.7093 35.4895L78.7132 36.7982L74.4356 36.8106L74.4319 35.5018ZM86.9698 31.4631L85.5041 31.4673L85.2692 30.4587C85.1192 30.3395 84.9309 30.2403 84.7037 30.161C84.4765 30.0819 84.2258 30.0427 83.9518 30.0436C83.5679 30.0449 83.2641 30.1317 83.0403 30.3041C82.8164 30.477 82.7048 30.6932 82.7056 30.9525C82.7063 31.1969 82.8142 31.3997 83.029 31.5606C83.2437 31.7223 83.673 31.8645 84.3164 31.9867C85.3192 32.1834 86.0629 32.4742 86.5476 32.8591C87.0322 33.2444 87.2757 33.7758 87.2778 34.4535C87.2799 35.1816 86.9688 35.7769 86.3445 36.2396C85.7201 36.7029 84.897 36.9358 83.875 36.9392C83.2517 36.9409 82.6793 36.8515 82.1579 36.671C81.6363 36.4904 81.1732 36.2316 80.7684 35.8935L80.7406 34.0764L82.2661 34.0721L82.5684 35.1259C82.6982 35.2349 82.8755 35.3153 83.1 35.3673C83.3246 35.4184 83.5589 35.4443 83.8032 35.4435C84.247 35.4422 84.5845 35.3618 84.8159 35.2012C85.0471 35.0408 85.1625 34.824 85.1615 34.5499C85.161 34.3105 85.0432 34.1037 84.8083 33.9299C84.5734 33.7563 84.1418 33.6029 83.5132 33.47C82.5603 33.2785 81.8405 32.9928 81.3532 32.6127C80.866 32.2324 80.6214 31.7138 80.6194 31.0556C80.6174 30.3778 80.895 29.7924 81.4518 29.2993C82.0088 28.8068 82.8033 28.5589 83.8353 28.556C84.4634 28.5539 85.0581 28.6368 85.6196 28.8045C86.181 28.9728 86.6215 29.1882 86.9414 29.4513L86.9698 31.4631ZM91.4055 26.7311L89.2217 26.7375L89.2168 25.0996L91.4006 25.0931L91.4055 26.7311ZM88.1931 35.4606L89.2469 35.2328L89.232 30.2152L88.0648 29.9942L88.061 28.6777L91.4112 28.6679L91.4306 35.2264L92.4782 35.4478L92.482 36.7565L88.197 36.7693L88.1931 35.4606ZM96.058 26.6715L96.0639 28.653L97.4848 28.6487L97.4893 30.182L96.0684 30.1862L96.0806 34.3066C96.0815 34.6209 96.147 34.8452 96.277 34.9794C96.407 35.1136 96.5816 35.1804 96.8011 35.1795C96.9507 35.1791 97.0815 35.1722 97.1936 35.16C97.3058 35.1471 97.4317 35.1255 97.5712 35.0952L97.7628 36.6726C97.5187 36.748 97.2771 36.8047 97.0378 36.843C96.7986 36.8809 96.5394 36.9005 96.2602 36.9013C95.5074 36.9034 94.9272 36.6982 94.5197 36.2857C94.1121 35.8731 93.9072 35.2178 93.9045 34.3208L93.8922 30.1926L93.1391 30.1964L93.1347 28.6632L93.8877 28.6594L93.8818 26.6779L96.058 26.6715ZM106.934 29.9375L106.179 30.0516L103.226 37.9351C102.993 38.5188 102.682 39.0088 102.292 39.4035C101.901 39.7986 101.312 39.9974 100.525 40C100.34 40.0005 100.167 39.986 100.005 39.9562C99.8425 39.9268 99.6518 39.885 99.4323 39.831L99.6818 38.2369C99.7517 38.2472 99.824 38.2565 99.8988 38.2667C99.9736 38.2761 100.038 38.2812 100.093 38.2812C100.457 38.2799 100.736 38.1905 100.93 38.013C101.124 37.8354 101.273 37.614 101.377 37.35L101.622 36.7361L99.037 30.0806L98.2813 29.9631L98.2775 28.6466L102.241 28.6347L102.245 29.9512L101.34 30.1036L102.457 33.3309L102.571 33.9138L102.616 33.921L103.883 30.0959L102.97 29.9491L102.966 28.6326L106.93 28.6211L106.934 29.9375Z" fill="#100F0D"/>
<path d="M148.709 12.0921L142.305 18.9981L145.073 6.91809L141.386 8.86978L138.622 1.35015L135.857 8.86978L132.17 6.91809L134.939 18.9981L128.398 11.9448L127.974 15.0247L122.611 13.4606L125.086 19.3103L122.815 19.93L130.478 25.6528C139.197 22.2897 144.667 23.2666 147.872 24.566C147.401 26.4076 146.703 28.12 145.781 29.7009C145.523 29.5593 145.253 29.4223 144.965 29.2921C143.852 28.7871 142.514 28.3775 140.903 28.1387C140.284 28.0468 139.623 27.9814 138.921 27.9442C138.725 27.9338 138.526 27.9258 138.324 27.92C137.939 27.9092 137.541 27.9072 137.131 27.9142C135.32 27.9454 133.268 28.1555 130.935 28.6028C130.848 28.6198 130.761 28.6339 130.675 28.6497C130.25 28.7267 129.838 28.7912 129.436 28.8438C123.579 29.6097 119.964 27.8757 117.798 25.898C117.572 25.2498 117.378 24.5928 117.219 23.9269C119.392 26.1942 123.221 28.1807 129.568 25.9867L120.994 19.5845L123.976 18.7713L121.196 12.2018L127.297 13.9814L127.828 10.1351L133.469 16.2176L130.982 5.36981L135.416 7.71695L138.119 0.365953C138.474 0.412699 138.828 0.464001 139.182 0.519159L141.828 7.71695L146.261 5.36981L143.776 16.2176L148.713 10.8925L148.709 12.0921Z" fill="white"/>
<path d="M129.546 30.2058C123.505 30.6886 120.101 29.0041 118.18 26.9181C118.492 27.6836 118.848 28.4364 119.252 29.1756C119.273 29.2144 119.295 29.252 119.317 29.2907C121.115 30.611 124.136 31.8641 129.214 32.2749C134.544 32.7063 138.05 34.1415 140.355 35.7855C141.75 34.7094 142.972 33.5272 144.02 32.2412C141.409 30.7533 136.998 29.6102 129.546 30.2058Z" fill="white"/>
<path d="M119.317 29.2906C122.199 34.5028 126.831 37.4557 132.184 39.7845C132.502 39.9228 132.848 39.93 133.165 39.7845C134.734 39.057 136.478 38.3323 137.949 37.436C138.801 36.9165 139.603 36.3661 140.355 35.7854C138.05 34.1414 134.544 32.7062 129.214 32.2749C124.136 31.864 121.115 30.6109 119.317 29.2906ZM130.935 28.6028C124.188 29.8972 120.144 28.0417 117.798 25.9001C117.917 26.2418 118.043 26.5814 118.18 26.918C120.101 29.0041 123.505 30.6885 129.546 30.2058C136.998 29.6102 141.409 30.7533 144.02 32.2411C144.677 31.4349 145.265 30.5876 145.782 29.6989C142.926 28.1305 138.321 27.1861 130.935 28.6028Z" fill="#100F0D"/>
<path d="M147.873 24.5666C148.28 22.9796 148.518 21.2967 148.581 19.516C148.669 17.0428 148.698 14.5676 148.709 12.092L142.305 18.998L145.073 6.91804L141.386 8.86973L138.622 1.3501L135.857 8.86973L132.17 6.91804L134.939 18.998L128.398 11.9448L127.974 15.0247L122.611 13.4606L125.086 19.3103L122.815 19.93L130.478 25.6528C139.198 22.2892 144.669 23.2669 147.873 24.5666Z" fill="#E91D27"/>
<path d="M146.262 5.36977L143.776 16.2176L148.713 10.8925C148.72 8.473 148.716 6.05328 148.739 3.63462C148.745 3.19452 148.64 2.94842 148.177 2.7903C145.233 1.78063 142.239 0.996264 139.182 0.519121L141.828 7.71691L146.262 5.36977ZM129.568 25.9867L120.994 19.5844L123.976 18.7712L121.196 12.2018L127.297 13.9813L127.828 10.1351L133.469 16.2176L130.982 5.36977L135.416 7.71691L138.119 0.365917C137.377 0.268105 136.63 0.187941 135.881 0.128458C129.531 -0.374393 123.379 0.622427 117.382 2.7078C116.802 2.91079 116.603 3.1694 116.61 3.78549C116.644 6.50659 116.642 11.9525 116.642 11.9525C116.642 14.406 116.617 16.8595 116.647 19.313C116.668 20.8942 116.862 22.4333 117.219 23.9286C119.392 26.1963 123.221 28.1805 129.568 25.9867Z" fill="#100F0D"/>
</svg>
