<svg width="150" height="40" viewBox="0 0 150 40" fill="none" xmlns="http://www.w3.org/2000/svg">
<path d="M58.5449 7.2441L55.5439 7.25275L55.1213 4.57138C54.7236 4.17616 54.2222 3.86414 53.618 3.63533C53.0135 3.40687 52.3008 3.29351 51.4804 3.29585C49.7286 3.30099 48.3821 3.94115 47.441 5.21634C46.4996 6.49152 46.0322 8.15234 46.0381 10.1989L46.0402 10.9043C46.0464 12.951 46.5214 14.6138 47.4656 15.8921C48.4098 17.1715 49.7392 17.8079 51.4542 17.8028C52.247 17.8008 52.9726 17.6833 53.6312 17.4508C54.2895 17.2188 54.7982 16.9037 55.1565 16.5059L55.5635 13.8217L58.5645 13.813L58.5763 17.7957C57.7675 18.7386 56.735 19.4904 55.4782 20.0521C54.2213 20.6133 52.8139 20.8968 51.2558 20.9016C48.5546 20.9095 46.339 19.9803 44.6094 18.1136C42.88 16.247 42.0107 13.8481 42.0022 10.9161L42.0001 10.2387C41.9916 7.31609 42.842 4.9118 44.551 3.02602C46.2604 1.14001 48.4747 0.193321 51.1946 0.185257C52.7525 0.180466 54.1595 0.459763 55.4149 1.02338C56.6702 1.58653 57.7098 2.33245 58.5331 3.26138L58.5449 7.2441ZM66.086 17.9518C66.6777 17.95 67.2156 17.8209 67.6989 17.5641C68.1824 17.3066 68.5581 16.985 68.8259 16.5986L68.8193 14.379L66.8151 14.385C65.9813 14.3878 65.3497 14.5849 64.9202 14.9755C64.491 15.367 64.2771 15.8366 64.2788 16.3835C64.2803 16.877 64.4405 17.2616 64.7599 17.5387C65.0788 17.8158 65.521 17.9537 66.086 17.9518ZM69.4968 20.5647C69.3884 20.323 69.2935 20.0743 69.2122 19.8189C69.1306 19.5634 69.067 19.3066 69.0214 19.046C68.5567 19.5855 67.9907 20.0224 67.3238 20.3561C66.6568 20.6893 65.8929 20.8579 65.0319 20.8607C63.6062 20.8648 62.4728 20.4802 61.6321 19.7073C60.7912 18.9339 60.3691 17.8792 60.3649 16.5429C60.361 15.18 60.9049 14.1248 61.9967 13.3773C63.0885 12.6296 64.6926 12.2527 66.8089 12.2463L68.8131 12.2404L68.8088 10.8145C68.8067 10.115 68.6033 9.57325 68.1987 9.18889C67.7941 8.80454 67.1971 8.61336 66.4082 8.61558C65.9597 8.61698 65.5609 8.67015 65.2113 8.77415C64.8619 8.87828 64.5797 9.0025 64.3651 9.14659L64.114 10.7076L61.1549 10.7164L61.1587 7.48799C61.8747 7.00173 62.6964 6.5912 63.6234 6.25663C64.5505 5.92241 65.5611 5.75319 66.6551 5.75004C68.4577 5.74478 69.9227 6.18219 71.0507 7.0618C72.1787 7.94199 72.7453 9.19813 72.7501 10.8301L72.7678 16.8426C72.7685 17.0668 72.7713 17.2777 72.7765 17.4749C72.7813 17.672 72.7977 17.8604 72.8253 18.0396L74.0227 18.1977L74.0299 20.5514L69.4968 20.5647ZM75.3988 18.1926L77.2807 17.7832L77.254 8.75791L75.1681 8.36035L75.1609 5.99311L80.9045 5.97617L81.0855 8.10081C81.424 7.34671 81.862 6.75796 82.3987 6.33481C82.9354 5.91177 83.5581 5.69932 84.2664 5.69722C84.4727 5.69651 84.6901 5.71159 84.9189 5.74244C85.1477 5.77318 85.3382 5.81069 85.4911 5.85475L85.0846 9.4343L83.4703 9.39843C82.8963 9.4003 82.4214 9.514 82.0455 9.73919C81.6694 9.96461 81.3833 10.2835 81.1873 10.6969L81.2082 17.7717L83.0927 18.1701L83.0996 20.5238L75.4058 20.5463L75.3988 18.1926ZM85.9981 2.44803L85.991 0.0805511L92.017 0.0629044L92.071 17.7409L93.9688 18.1394L93.9757 20.493L86.255 20.5155L86.2478 18.1618L88.1432 17.7524L88.0975 2.84524L85.9981 2.44803ZM101.745 8.67307C101.019 8.67517 100.446 8.95471 100.026 9.51213C99.6061 10.0693 99.348 10.8008 99.2522 11.7069L99.2926 11.7737L104.108 11.7595L104.107 11.4098C104.105 10.5761 103.908 9.91086 103.516 9.41432C103.125 8.91778 102.534 8.6705 101.745 8.67307ZM101.745 20.7513C99.647 20.7573 97.9678 20.0895 96.7087 18.7482C95.4492 17.4069 94.8164 15.7001 94.8105 13.6291L94.8088 13.091C94.8024 10.9298 95.391 9.14776 96.5753 7.74555C97.7592 6.34334 99.351 5.64346 101.351 5.64662C103.315 5.64066 104.841 6.22812 105.929 7.40864C107.018 8.58893 107.565 10.1882 107.571 12.2059L107.577 14.3445L98.8883 14.3703L98.8614 14.4507C98.9361 15.4102 99.2589 16.1983 99.8303 16.8154C100.402 17.4326 101.176 17.7396 102.153 17.7368C103.023 17.734 103.745 17.6449 104.318 17.468C104.892 17.2915 105.518 17.014 106.199 16.6352L107.269 19.0533C106.669 19.5303 105.893 19.9315 104.938 20.2573C103.984 20.5827 102.92 20.7476 101.745 20.7513ZM114.039 1.96142L114.05 5.87461L116.606 5.86702L116.614 8.62434L114.058 8.63194L114.08 16.0439C114.082 16.6086 114.199 17.0117 114.433 17.2529C114.667 17.4946 114.981 17.6145 115.376 17.6131C115.645 17.6127 115.88 17.6007 116.082 17.5777C116.284 17.5548 116.51 17.5158 116.761 17.4611L117.105 20.2986C116.667 20.4341 116.232 20.5366 115.802 20.6051C115.371 20.6736 114.905 20.7085 114.403 20.7104C113.049 20.714 112.005 20.3451 111.272 19.6029C110.539 18.8607 110.17 17.6826 110.166 16.0687L110.144 8.64362L108.778 8.64982L108.77 5.89249L110.136 5.8863L110.125 1.97322L114.039 1.96142ZM121.825 13.2757C121.829 14.6028 122.065 15.6675 122.534 16.4685C123.003 17.2699 123.757 17.6688 124.798 17.6656C125.811 17.6623 126.552 17.2571 127.02 16.4483C127.489 15.6399 127.721 14.5766 127.717 13.2582L127.716 12.9756C127.712 11.6843 127.471 10.6318 126.994 9.81678C126.516 9.00227 125.766 8.59653 124.744 8.59957C123.722 8.60249 122.978 9.0129 122.515 9.83011C122.051 10.6479 121.821 11.7019 121.824 12.9931L121.825 13.2757ZM117.897 13.0049C117.89 10.835 118.493 9.05544 119.703 7.66632C120.915 6.27731 122.592 5.57954 124.735 5.57311C126.887 5.56692 128.573 6.25254 129.792 7.62951C131.011 9.00718 131.624 10.7856 131.63 12.9642L131.631 13.2468C131.638 15.435 131.035 17.2188 129.824 18.5993C128.613 19.9789 126.941 20.6722 124.807 20.6786C122.645 20.685 120.955 20.0018 119.736 18.6292C118.517 17.2557 117.904 15.4754 117.898 13.2874L117.897 13.0049ZM132.635 18.0176L134.517 17.6081L134.49 8.58274L132.404 8.1853L132.397 5.81805L138.141 5.80099L138.321 7.88543C138.803 7.13986 139.398 6.55953 140.106 6.14503C140.812 5.73052 141.605 5.52193 142.485 5.51912C143.955 5.5148 145.104 5.97336 145.932 6.89445C146.76 7.81555 147.176 9.26263 147.182 11.2356L147.201 17.5705L149.085 17.9689L149.093 20.3225L141.587 20.3451L141.58 17.9914L143.26 17.5824L143.241 11.2607C143.238 10.2833 143.039 9.59101 142.643 9.1841C142.247 8.77719 141.65 8.57491 140.852 8.57725C140.332 8.57888 139.866 8.68569 139.455 8.89756C139.042 9.10966 138.698 9.40883 138.421 9.79528L138.444 17.5967L140.033 17.996L140.04 20.3497L132.642 20.3713L132.635 18.0176ZM78.5596 26.0371L78.5635 27.3531L77.3975 27.5813L77.4144 33.2648C77.4165 33.9831 77.6112 34.5196 77.9986 34.8751C78.3861 35.2302 78.9164 35.4065 79.5894 35.4043C80.2724 35.4026 80.8078 35.2242 81.1956 34.8688C81.5835 34.5141 81.7764 33.9746 81.7743 33.2517L81.7575 27.5681L80.5975 27.3471L80.5938 26.0312L85.1031 26.018L85.1069 27.3339L83.941 27.5618L83.9579 33.2453C83.9615 34.4668 83.5616 35.4107 82.7584 36.0757C81.9552 36.7412 80.9005 37.0759 79.5944 37.0797C78.2932 37.084 77.2415 36.7552 76.4393 36.0945C75.6373 35.4341 75.2343 34.4928 75.2307 33.2713L75.2139 27.5878L74.054 27.3668L74.0502 26.0507L75.2093 26.0473L77.393 26.041L78.5596 26.0371ZM85.7073 35.5959L86.7535 35.3686L86.7387 30.3509L85.5789 30.1299L85.5751 28.8135L88.7683 28.8042L88.8689 29.9631C89.1369 29.5483 89.4674 29.226 89.8607 28.9953C90.2538 28.7645 90.6946 28.6487 91.1833 28.6474C92.0009 28.6449 92.6399 28.9 93.1001 29.4117C93.5602 29.9239 93.7919 30.7286 93.7952 31.8254L93.8056 35.3477L94.8532 35.5686L94.857 36.8775L90.6842 36.8899L90.6804 35.581L91.6146 35.3541L91.604 31.8394C91.6025 31.2961 91.4916 30.9113 91.2716 30.6848C91.0515 30.4591 90.7196 30.3463 90.276 30.3475C89.9868 30.3484 89.7276 30.408 89.4987 30.526C89.2697 30.6434 89.0782 30.81 88.9244 31.025L88.9373 35.3621L89.8203 35.5836L89.8241 36.8923L85.7111 36.9047L85.7073 35.5959ZM98.6937 26.838L96.5101 26.8444L96.5052 25.2065L98.6888 25.2001L98.6937 26.838ZM95.4813 35.567L96.5352 35.3396L96.5202 30.3219L95.353 30.1009L95.3492 28.7845L98.6995 28.7747L98.7189 35.3333L99.7665 35.5541L99.7702 36.863L95.4852 36.8757L95.4813 35.567ZM103.565 30.0755L102.803 30.2198L103.883 33.8363L104.027 34.5983H104.072L104.227 33.8354L105.271 30.2203L104.493 30.0729L104.489 28.7565L108.161 28.7454L108.165 30.0618L107.462 30.176L105.096 36.8464L103.01 36.8523L100.597 30.1964L99.8935 30.0866L99.8898 28.7701L103.562 28.7591L103.565 30.0755ZM112.108 30.2662C111.704 30.2675 111.385 30.4229 111.152 30.7325C110.918 31.0424 110.775 31.449 110.722 31.9526L110.744 31.9901L113.421 31.9824L113.421 31.7879C113.419 31.3243 113.31 30.9543 113.092 30.6784C112.875 30.402 112.546 30.2649 112.108 30.2662ZM112.322 36.9809C111.155 36.9843 110.222 36.6135 109.522 35.8676C108.821 35.122 108.47 34.173 108.466 33.0213L108.465 32.7225C108.462 31.5209 108.789 30.5302 109.447 29.7501C110.106 28.971 110.991 28.5814 112.103 28.5836C113.194 28.5802 114.043 28.9068 114.648 29.5628C115.253 30.2194 115.558 31.1084 115.561 32.2303L115.564 33.4195L110.733 33.4335L110.719 33.4781C110.76 34.0117 110.939 34.4502 111.257 34.7929C111.575 35.1361 112.005 35.3068 112.549 35.3051C113.032 35.3034 113.433 35.254 113.752 35.1557C114.071 35.0577 114.42 34.9032 114.798 34.6929L115.393 36.037C115.059 36.3023 114.628 36.5254 114.097 36.7068C113.567 36.8877 112.975 36.9793 112.322 36.9809ZM116.432 35.5018L117.478 35.2745L117.463 30.2569L116.303 30.0359L116.3 28.7194L119.493 28.7101L119.593 29.8911C119.782 29.4721 120.025 29.1448 120.324 28.9093C120.622 28.6743 120.968 28.5563 121.362 28.555C121.477 28.5547 121.598 28.5632 121.725 28.5802C121.852 28.5977 121.958 28.6181 122.043 28.6428L121.817 30.6328L120.919 30.6128C120.6 30.6136 120.336 30.6771 120.127 30.8022C119.918 30.9274 119.759 31.1049 119.65 31.3344L119.662 35.268L120.709 35.4895L120.713 36.7982L116.436 36.8106L116.432 35.5018ZM128.97 31.4631L127.504 31.4673L127.269 30.4587C127.119 30.3395 126.931 30.2403 126.704 30.161C126.477 30.0819 126.226 30.0427 125.952 30.0436C125.568 30.0449 125.264 30.1317 125.04 30.3041C124.816 30.477 124.705 30.6932 124.706 30.9525C124.706 31.1969 124.814 31.3997 125.029 31.5606C125.244 31.7223 125.673 31.8645 126.316 31.9867C127.319 32.1834 128.063 32.4742 128.548 32.8591C129.032 33.2444 129.276 33.7758 129.278 34.4535C129.28 35.1816 128.969 35.7769 128.345 36.2396C127.72 36.7029 126.897 36.9358 125.875 36.9392C125.252 36.9409 124.679 36.8515 124.158 36.671C123.636 36.4904 123.173 36.2316 122.768 35.8935L122.741 34.0764L124.266 34.0721L124.568 35.1259C124.698 35.2349 124.876 35.3153 125.1 35.3673C125.325 35.4184 125.559 35.4443 125.803 35.4435C126.247 35.4422 126.584 35.3618 126.816 35.2012C127.047 35.0408 127.162 34.824 127.162 34.5499C127.161 34.3105 127.043 34.1037 126.808 33.9299C126.573 33.7563 126.142 33.6029 125.513 33.47C124.56 33.2785 123.84 32.9928 123.353 32.6127C122.866 32.2324 122.621 31.7138 122.619 31.0556C122.617 30.3778 122.895 29.7924 123.452 29.2993C124.009 28.8068 124.803 28.5589 125.835 28.556C126.463 28.5539 127.058 28.6368 127.62 28.8045C128.181 28.9728 128.621 29.1882 128.941 29.4513L128.97 31.4631ZM133.406 26.7311L131.222 26.7375L131.217 25.0996L133.401 25.0931L133.406 26.7311ZM130.193 35.4606L131.247 35.2328L131.232 30.2152L130.065 29.9942L130.061 28.6777L133.411 28.6679L133.431 35.2264L134.478 35.4478L134.482 36.7565L130.197 36.7693L130.193 35.4606ZM138.058 26.6715L138.064 28.653L139.485 28.6487L139.489 30.182L138.068 30.1862L138.081 34.3066C138.081 34.6209 138.147 34.8452 138.277 34.9794C138.407 35.1136 138.582 35.1804 138.801 35.1795C138.951 35.1791 139.082 35.1722 139.194 35.16C139.306 35.1471 139.432 35.1255 139.571 35.0952L139.763 36.6726C139.519 36.748 139.277 36.8047 139.038 36.843C138.799 36.8809 138.539 36.9005 138.26 36.9013C137.507 36.9034 136.927 36.6982 136.52 36.2857C136.112 35.8731 135.907 35.2178 135.904 34.3208L135.892 30.1926L135.139 30.1964L135.135 28.6632L135.888 28.6594L135.882 26.6779L138.058 26.6715ZM148.934 29.9375L148.179 30.0516L145.226 37.9351C144.993 38.5188 144.682 39.0088 144.292 39.4035C143.901 39.7986 143.312 39.9974 142.525 40C142.34 40.0005 142.167 39.986 142.005 39.9562C141.842 39.9268 141.652 39.885 141.432 39.831L141.682 38.2369C141.752 38.2472 141.824 38.2565 141.899 38.2667C141.974 38.2761 142.038 38.2812 142.093 38.2812C142.457 38.2799 142.736 38.1905 142.93 38.013C143.124 37.8354 143.273 37.614 143.377 37.35L143.622 36.7361L141.037 30.0806L140.281 29.9631L140.277 28.6466L144.241 28.6347L144.245 29.9512L143.34 30.1036L144.457 33.3309L144.571 33.9138L144.616 33.921L145.883 30.0959L144.97 29.9491L144.966 28.6326L148.93 28.6211L148.934 29.9375Z" fill="#100F0D"/>
<path d="M32.099 12.0921L25.6951 18.998L28.4635 6.91806L24.7766 8.86975L22.0128 1.35012L19.2479 8.86975L15.5609 6.91806L18.3294 18.998L11.7887 11.9448L11.3645 15.0247L6.00174 13.4606L8.47685 19.3103L6.20508 19.93L13.8688 25.6528C22.5878 22.2897 28.058 23.2666 31.2623 24.566C30.7914 26.4076 30.0937 28.1199 29.1717 29.7008C28.9134 29.5593 28.6435 29.4222 28.356 29.292C27.2423 28.7871 25.9043 28.3775 24.2939 28.1386C23.6746 28.0468 23.0131 27.9814 22.312 27.9442C22.1156 27.9338 21.917 27.9257 21.7148 27.92C21.3292 27.9091 20.9318 27.9071 20.5217 27.9142C18.7103 27.9454 16.6583 28.1555 14.3257 28.6028C14.2381 28.6198 14.1516 28.6339 14.0651 28.6497C13.6409 28.7267 13.2284 28.7912 12.8264 28.8438C6.96935 29.6097 3.35486 27.8757 1.18826 25.898C0.962721 25.2497 0.768733 24.5927 0.609802 23.9269C2.78224 26.1942 6.61176 28.1807 12.9585 25.9867L4.3844 19.5845L7.36668 18.7712L4.58656 12.2018L10.6878 13.9813L11.2184 10.1351L16.8593 16.2176L14.3725 5.36978L18.8062 7.71692L21.5091 0.365923C21.8644 0.412668 22.2185 0.46397 22.5726 0.519129L25.2183 7.71692L29.652 5.36978L27.1664 16.2176L32.1037 10.8925L32.099 12.0921Z" fill="white"/>
<path d="M12.9363 30.2058C6.89576 30.6885 3.49162 29.0041 1.57043 26.918C1.88245 27.6836 2.23887 28.4364 2.64204 29.1755C2.66307 29.2144 2.68528 29.252 2.70749 29.2906C4.50597 30.6109 7.52681 31.864 12.6044 32.2749C17.9344 32.7062 21.4402 34.1414 23.7459 35.7854C25.14 34.7094 26.3624 33.5272 27.4106 32.2411C24.8 30.7533 20.3885 29.6102 12.9363 30.2058Z" fill="white"/>
<path d="M2.70742 29.2906C5.5892 34.5028 10.2215 37.4557 15.5749 39.7845C15.8928 39.9228 16.2387 39.93 16.5554 39.7845C18.1248 39.057 19.8684 38.3323 21.3397 37.436C22.1916 36.9165 22.9932 36.3661 23.7458 35.7854C21.4402 34.1414 17.9343 32.7062 12.6043 32.2749C7.52674 31.864 4.5059 30.6109 2.70742 29.2906ZM14.3257 28.6028C7.57817 29.8972 3.53479 28.0417 1.18823 25.9001C1.30743 26.2418 1.43364 26.5814 1.57037 26.918C3.49156 29.0041 6.8957 30.6885 12.9362 30.2058C20.3884 29.6102 24.7999 30.7533 27.4106 32.2411C28.0673 31.4349 28.6551 30.5876 29.1728 29.6989C26.3168 28.1305 21.7113 27.1861 14.3257 28.6028Z" fill="#100F0D"/>
<path d="M31.2635 24.5666C31.6702 22.9796 31.9086 21.2967 31.9717 19.516C32.0593 17.0428 32.0885 14.5676 32.0991 12.092L25.6951 18.998L28.4635 6.91804L24.7766 8.86973L22.0128 1.3501L19.2479 8.86973L15.561 6.91804L18.3294 18.998L11.7887 11.9448L11.3645 15.0247L6.00177 13.4606L8.47689 19.3103L6.20511 19.93L13.8688 25.6528C22.589 22.2892 28.0592 23.2669 31.2635 24.5666Z" fill="#E91D27"/>
<path d="M29.652 5.36977L27.1664 16.2176L32.1038 10.8925C32.1108 8.473 32.1061 6.05328 32.1295 3.63462C32.1353 3.19452 32.0301 2.94842 31.5674 2.7903C28.6236 1.78063 25.6297 0.996264 22.5726 0.519121L25.2183 7.71691L29.652 5.36977ZM12.9585 25.9867L4.38444 19.5844L7.36672 18.7712L4.58661 12.2018L10.6879 13.9813L11.2184 10.1351L16.8593 16.2176L14.3725 5.36977L18.8062 7.71691L21.5092 0.365917C20.7671 0.268105 20.0204 0.187941 19.2713 0.128458C12.9211 -0.374393 6.76956 0.622427 0.772273 2.7078C0.192411 2.91079 -0.0069448 3.1694 0.000183688 3.78549C0.034307 6.50659 0.0325486 11.9525 0.0325486 11.9525C0.0325486 14.406 0.00742311 16.8595 0.0379237 19.313C0.0581406 20.8942 0.252251 22.4333 0.609844 23.9286C2.78228 26.1963 6.6118 28.1805 12.9585 25.9867Z" fill="#100F0D"/>
</svg>
