<svg width="37" height="45" viewBox="0 0 37 45" fill="none" xmlns="http://www.w3.org/2000/svg">
<path d="M36.0159 13.5676L28.8309 21.316L31.937 7.76216L27.8002 9.95208L24.6983 1.515L21.5964 9.95208L17.4598 7.76216L20.5658 21.316L13.2275 13.4023L12.7509 16.8579L6.73387 15.1031L9.51079 21.6666L6.96167 22.3619L15.5608 28.7829C25.3439 25.0094 31.481 26.1056 35.0771 27.5634C34.5479 29.6298 33.7651 31.551 32.7312 33.3248C32.4418 33.166 32.1382 33.0123 31.8161 32.8662C30.5664 32.2996 29.0647 31.84 27.2583 31.5719C26.5634 31.4689 25.8216 31.3955 25.0342 31.3538C24.8145 31.3422 24.5912 31.3332 24.364 31.3268C23.9317 31.3145 23.4855 31.3123 23.0253 31.3201C20.994 31.3551 18.6907 31.5909 16.0734 32.0929C15.9748 32.1118 15.8788 32.1277 15.7812 32.1455C15.3057 32.2318 14.8423 32.3042 14.3909 32.3632C7.82034 33.2226 3.76468 31.277 1.33286 29.058C1.08011 28.3306 0.863158 27.5935 0.684082 26.8464C3.12205 29.3902 7.41831 31.6192 14.5392 29.1575L4.91908 21.9741L8.26509 21.0617L5.14687 13.6907L11.9923 15.6873L12.5876 11.3718L18.9159 18.1964L16.1265 6.02508L21.1008 8.65858L24.1334 0.410504C24.532 0.463142 24.9297 0.520613 25.3266 0.582525L28.2957 8.65858L33.2699 6.02508L30.4808 18.1964L36.021 12.2216L36.0159 13.5676Z" fill="white"/>
<path d="M14.5145 33.8913C7.73772 34.4329 3.91743 32.5429 1.76251 30.2023C2.11165 31.0612 2.51186 31.9059 2.96458 32.7353C2.98835 32.7788 3.01317 32.8211 3.0372 32.8644C5.05537 34.3458 8.44566 35.7518 14.1423 36.2129C20.1222 36.6968 24.0562 38.307 26.643 40.1516C28.2078 38.9442 29.5788 37.6179 30.7547 36.175C27.8265 34.5054 22.8757 33.2229 14.5145 33.8913Z" fill="white"/>
<path d="M3.03732 32.8645C6.27179 38.7126 11.469 42.0258 17.4757 44.6388C17.8324 44.794 18.2206 44.8021 18.5754 44.6388C20.3368 43.8226 22.2934 43.0094 23.9439 42.0037C24.8992 41.4208 25.7988 40.8032 26.6431 40.1517C24.0563 38.3071 20.1223 36.6969 14.1424 36.213C8.44578 35.7519 5.05548 34.3459 3.03732 32.8645ZM16.0734 32.0928C8.50246 33.545 3.96666 31.4632 1.33368 29.0602C1.46704 29.4436 1.60915 29.8246 1.76263 30.2024C3.91755 32.543 7.73783 34.433 14.5146 33.8914C22.8758 33.223 27.8266 34.5055 30.7548 36.1751C31.4918 35.2704 32.1516 34.3197 32.7326 33.3225C29.5274 31.5627 24.3608 30.5033 16.0734 32.0928ZM33.2699 6.025L30.4809 18.1963L36.021 12.2215C36.0283 9.50673 36.0239 6.79172 36.0497 4.07802C36.0557 3.58429 35.9388 3.30816 35.4189 3.13079C32.1166 1.99795 28.7571 1.11785 25.3266 0.582447L28.2958 8.6585L33.2699 6.025Z" fill="#211D1D"/>
<path d="M14.5392 29.1573L4.91911 21.9739L8.26513 21.0615L5.14691 13.6906L11.9923 15.6872L12.5876 11.3716L18.9159 18.1962L16.1266 6.02491L21.1009 8.65841L24.1334 0.41033C23.3006 0.300612 22.4637 0.210879 21.6223 0.144134C14.4982 -0.420132 7.59585 0.698343 0.86685 3.03809C0.215855 3.26575 -0.00776303 3.55598 0.000204608 4.24721C0.038606 7.30038 0.0365165 13.4108 0.0365165 13.4108C0.0365165 16.1635 0.00830274 18.9164 0.0425244 21.6693C0.0653824 23.4435 0.28247 25.1704 0.68464 26.8481C3.12222 29.3926 7.41899 31.6188 14.5392 29.1573Z" fill="#211D1D"/>
<path d="M35.0786 27.564C35.5341 25.7833 35.8015 23.8952 35.8723 21.8972C35.9711 19.1222 36.0032 16.345 36.0158 13.5675L28.8308 21.3159L31.9369 7.76205L27.8001 9.95197L24.6982 1.5149L21.5963 9.95197L17.4597 7.76205L20.5658 21.3159L13.2275 13.4022L12.7508 16.8578L6.73383 15.103L9.51075 21.6665L6.96162 22.3618L15.5608 28.7828C25.3452 25.0087 31.4826 26.1058 35.0786 27.564Z" fill="#E91D27"/>
</svg>
