<svg width="1000" height="270" fill="none" xmlns="http://www.w3.org/2000/svg"><path fill-rule="evenodd" clip-rule="evenodd" d="m390.014 48.385-20.215.056-2.848-18.063c-2.681-2.663-6.06-4.768-10.128-6.308-4.072-1.54-8.872-2.305-14.4-2.287-11.8.033-20.872 4.347-27.212 12.938-6.341 8.592-9.493 19.78-9.451 33.57l.015 4.749c.042 13.792 3.242 24.992 9.603 33.605 6.358 8.618 15.313 12.905 26.869 12.872 5.343-.015 10.229-.806 14.665-2.373 4.436-1.562 7.863-3.684 10.275-6.365l2.743-18.084 20.215-.06.081 26.834c-5.448 6.353-12.403 11.416-20.872 15.201-8.466 3.782-17.946 5.69-28.445 5.723-18.197.054-33.122-6.209-44.776-18.783-11.648-12.574-17.504-28.736-17.561-48.49l-.015-4.564c-.057-19.688 5.672-35.886 17.185-48.59C307.258 7.26 322.175.88 340.497.825c10.496-.029 19.973 1.852 28.433 5.646 8.457 3.794 15.46 8.821 21.006 15.075l.078 26.838Zm50.803 72.135c3.985-.012 7.608-.881 10.865-2.612 3.257-1.731 5.788-3.902 7.591-6.505l-.045-14.953-13.501.042c-5.615.018-9.872 1.343-12.764 3.976-2.893 2.639-4.335 5.804-4.323 9.487.012 3.326 1.09 5.914 3.242 7.783 2.149 1.866 5.129 2.794 8.935 2.782Zm22.976 17.604a47.176 47.176 0 0 1-1.917-5.024 39.477 39.477 0 0 1-1.283-5.206c-3.135 3.633-6.947 6.576-11.439 8.824-4.493 2.245-9.642 3.382-15.439 3.4-9.606.03-17.239-2.564-22.904-7.77-5.663-5.213-8.508-12.318-8.538-21.318-.024-9.183 3.642-16.29 10.994-21.33 7.355-5.036 18.161-7.573 32.418-7.618l13.502-.039-.03-9.606c-.012-4.714-1.382-8.362-4.108-10.953-2.725-2.588-6.746-3.878-12.062-3.863-3.021.012-5.708.367-8.063 1.069-2.355.701-4.257 1.54-5.702 2.507l-1.692 10.52-19.934.06.03-21.75c4.82-3.278 10.358-6.043 16.599-8.3 6.248-2.25 13.054-3.388 20.424-3.411 12.144-.036 22.012 2.913 29.612 8.836 7.6 5.931 11.415 14.395 11.448 25.39l.119 40.506c.006 1.511.024 2.932.06 4.26.03 1.328.143 2.597.328 3.803l8.066 1.066.051 15.857-30.537.09h-.003Zm39.761-15.98 12.677-2.758-.179-60.807-14.054-2.677-.047-15.948 38.692-.113 1.221 14.314c2.278-5.08 5.23-9.045 8.845-11.899 3.615-2.85 7.809-4.28 12.582-4.296a32.715 32.715 0 0 1 4.397.305c1.54.209 2.824.46 3.851.758l-2.735 24.115-10.877-.242c-3.866.012-7.066.78-9.597 2.299-2.535 1.516-4.46 3.663-5.782 6.448l.14 47.665 12.695 2.684.048 15.854-51.83.153-.047-15.855Zm71.403-106.075L574.909.12 615.506 0l.361 119.099 12.785 2.687.048 15.854-52.012.153-.048-15.858 12.767-2.758-.307-100.43-14.143-2.677ZM681.04 58.01c-4.893.015-8.755 1.899-11.582 5.654-2.827 3.753-4.567 8.681-5.212 14.786l.272.448 32.438-.096-.006-2.355c-.015-5.615-1.343-10.1-3.979-13.442-2.638-3.344-6.615-5.013-11.931-4.995Zm0 81.372c-14.134.039-25.448-4.457-33.928-13.493-8.487-9.04-12.747-20.539-12.788-34.489l-.012-3.627c-.042-14.559 3.922-26.566 11.898-36.01 7.976-9.45 18.702-14.163 32.173-14.142 13.23-.039 23.511 3.917 30.845 11.872 7.331 7.95 11.021 18.724 11.06 32.319l.041 14.406-58.537.173-.179.544c.502 6.463 2.678 11.773 6.526 15.932 3.85 4.155 9.065 6.224 15.65 6.206 5.86-.018 10.723-.621 14.582-1.812 3.866-1.188 8.087-3.057 12.672-5.609l7.206 16.29c-4.039 3.212-9.269 5.917-15.699 8.111-6.426 2.191-13.597 3.305-21.51 3.329Zm82.821-126.59.071 26.363 17.221-.05.051 18.577-17.221.05.149 49.935c.015 3.806.806 6.519 2.38 8.146 1.582 1.627 3.698 2.436 6.349 2.427 1.818-.003 3.403-.083 4.764-.238 1.358-.156 2.881-.418 4.57-.786l2.322 19.115a63.54 63.54 0 0 1-8.782 2.066c-2.901.462-6.041.698-9.421.71-9.128.024-16.152-2.463-21.092-7.463-4.937-5-7.421-12.935-7.46-23.81l-.146-50.02-9.2.04-.057-18.576 9.206-.042-.074-26.363 26.37-.08Zm52.45 76.226c.03 8.94 1.615 16.114 4.777 21.511 3.158 5.398 8.238 8.085 15.247 8.064 6.83-.021 11.821-2.753 14.97-8.201 3.162-5.445 4.726-12.61 4.699-21.494l-.009-1.901c-.021-8.7-1.645-15.792-4.866-21.282-3.218-5.487-8.268-8.221-15.152-8.2-6.886.02-11.898 2.785-15.024 8.29-3.122 5.51-4.671 12.61-4.642 21.308v1.905Zm-26.465-1.824c-.045-14.619 4.012-26.608 12.17-35.966 8.164-9.359 19.463-14.06 33.895-14.103 14.499-.041 25.851 4.577 34.069 13.852 8.218 9.284 12.34 21.264 12.385 35.942l.006 1.905c.045 14.741-4.012 26.759-12.17 36.061-8.158 9.294-19.433 13.965-33.806 14.007-14.558.045-25.94-4.561-34.158-13.806-8.209-9.255-12.34-21.246-12.382-35.987l-.009-1.905Zm99.286 33.769 12.678-2.758-.179-60.804-14.048-2.678-.054-15.947 38.693-.116 1.224 14.045c3.244-5.024 7.253-8.934 12.011-11.726 4.765-2.794 10.108-4.2 16.03-4.218 9.908-.03 17.645 3.06 23.224 9.266 5.576 6.207 8.385 15.953 8.421 29.247l.125 42.677 12.699 2.687.044 15.854-50.56.152-.045-15.857 11.316-2.756-.122-42.587c-.024-6.585-1.367-11.248-4.036-13.992-2.66-2.74-6.687-4.102-12.06-4.09-3.504.015-6.644.735-9.415 2.162a19.403 19.403 0 0 0-6.967 6.045l.155 52.561 10.708 2.687.045 15.86-49.836.143-.051-15.857Zm-576.575 54.027.027 8.869-7.857 1.537.114 38.289c.015 4.839 1.328 8.454 3.937 10.848s6.182 3.583 10.716 3.568c4.6-.012 8.209-1.215 10.821-3.612 2.612-2.389 3.911-6.022 3.899-10.891l-.114-38.291-7.815-1.49-.024-8.866 30.377-.09.026 8.867-7.853 1.537.113 38.289c.024 8.23-2.672 14.588-8.08 19.069-5.412 4.484-12.517 6.738-21.314 6.765-8.77.03-15.851-2.185-21.257-6.639-5.403-4.448-8.119-10.792-8.143-19.019l-.113-38.292-7.812-1.487-.027-8.866 7.809-.024 14.71-.041 7.86-.03Zm48.152 64.4 7.045-1.531-.099-33.805-7.812-1.487-.026-8.869 21.513-.065.678 7.809c1.806-2.794 4.029-4.964 6.68-6.52 2.648-1.552 5.618-2.334 8.911-2.343 5.507-.018 9.812 1.701 12.913 5.149 3.099 3.451 4.657 8.872 4.681 16.261l.071 23.73 7.057 1.486.027 8.819-28.111.083-.029-8.815 6.298-1.532-.075-23.676c-.008-3.662-.755-6.254-2.238-7.779-1.484-1.523-3.717-2.281-6.708-2.272-1.946.006-3.692.406-5.236 1.2a10.73 10.73 0 0 0-3.868 3.362l.089 29.222 5.947 1.493.026 8.815-27.71.084-.024-8.819Zm87.484-59.003-14.711.045-.033-11.037 14.711-.041.033 11.033Zm-21.642 58.809 7.101-1.531-.101-33.805-7.863-1.49-.027-8.866 22.57-.068.132 44.184 7.056 1.49.027 8.818-28.865.084-.03-8.816Zm54.462-36.996-5.134.97 7.275 24.366.973 5.135h.298l1.045-5.141 7.033-24.357-5.245-.991-.024-8.869 24.735-.074.026 8.866-4.734.77-15.937 44.94-14.057.038-16.254-44.838-4.737-.74-.027-8.869 24.738-.075.026 8.866v.003Zm57.544 1.284c-2.72.009-4.866 1.057-6.439 3.14-1.57 2.09-2.537 4.827-2.896 8.222l.15.253 18.035-.053v-1.311c-.012-3.122-.749-5.615-2.215-7.475-1.468-1.86-3.68-2.785-6.635-2.776Zm1.444 45.238c-7.856.021-14.149-2.478-18.865-7.502-4.717-5.021-7.087-11.415-7.108-19.174l-.006-2.015c-.024-8.093 2.179-14.768 6.615-20.022 4.436-5.251 10.397-7.875 17.887-7.86 7.355-.024 13.074 2.179 17.149 6.597 4.078 4.421 6.128 10.413 6.149 17.971l.024 8.01-32.546.095-.099.299c.278 3.597 1.487 6.549 3.627 8.86 2.141 2.311 5.042 3.463 8.702 3.451 3.256-.012 5.961-.346 8.107-1.006 2.149-.66 4.496-1.702 7.045-3.12l4.009 9.058c-2.248 1.785-5.158 3.289-8.731 4.51-3.574 1.218-7.559 1.836-11.959 1.848Zm27.687-9.968 7.051-1.528-.102-33.805-7.812-1.489-.027-8.867 21.514-.065.674 7.955c1.269-2.821 2.908-5.027 4.92-6.612 2.012-1.582 4.343-2.379 6.997-2.388.77 0 1.585.057 2.442.17.856.119 1.57.257 2.143.421l-1.523 13.407-6.044-.135c-2.15.006-3.929.433-5.338 1.278-1.409.842-2.477 2.039-3.215 3.582l.081 26.503 7.057 1.493.024 8.818-28.815.081-.027-8.816v-.003Zm84.465-27.207-9.874.03-1.582-6.798c-1.009-.803-2.281-1.468-3.809-2.003a15.17 15.17 0 0 0-5.066-.791c-2.588.006-4.633.591-6.14 1.756-1.508 1.164-2.26 2.621-2.257 4.367.006 1.645.731 3.012 2.179 4.096 1.448 1.089 4.341 2.048 8.675 2.872 6.755 1.325 11.764 3.283 15.03 5.877 3.265 2.598 4.904 6.177 4.919 10.741.015 4.905-2.084 8.914-6.286 12.031-4.209 3.122-9.753 4.693-16.636 4.717-4.2.009-8.057-.592-11.57-1.809a29.543 29.543 0 0 1-9.359-5.237l-.188-12.242 10.278-.03 2.036 7.099c.874.734 2.068 1.278 3.582 1.627a20.91 20.91 0 0 0 4.737.513c2.985-.009 5.263-.549 6.821-1.633 1.558-1.08 2.334-2.54 2.328-4.388-.003-1.612-.797-3.006-2.379-4.176-1.582-1.17-4.489-2.203-8.725-3.099-6.418-1.289-11.269-3.215-14.552-5.776-3.284-2.562-4.929-6.054-4.944-10.487-.011-4.568 1.857-8.511 5.609-11.834 3.753-3.32 9.105-4.988 16.057-5.009 4.233-.012 8.239.546 12.021 1.675 3.782 1.134 6.746 2.585 8.904 4.358l.191 13.553Zm29.881-31.879-14.71.041-.03-11.033 14.707-.042.033 11.034Zm-21.642 58.809 7.102-1.535-.102-33.801-7.862-1.49-.027-8.866 22.57-.069.131 44.185 7.057 1.492.027 8.816-28.866.089-.03-8.821Z" fill="#1A1919"/><mask id="a" style="mask-type:alpha" maskUnits="userSpaceOnUse" x="693" y="179" width="94" height="91"><path d="M693.684 179.266h92.958v89.751h-92.958v-89.751Z" fill="#fff"/></mask><g mask="url(#a)"><path fill-rule="evenodd" clip-rule="evenodd" d="m713.376 179.266.042 13.35 9.57-.03.03 10.329-9.57.03.08 27.763c.006 2.113.448 3.627 1.326 4.528.874.905 2.05 1.355 3.528 1.349.883.003 1.766-.041 2.645-.131a27.116 27.116 0 0 0 2.543-.436l1.293 10.628a36.158 36.158 0 0 1-4.884 1.146 34.04 34.04 0 0 1-5.239.391c-5.074.015-8.982-1.367-11.725-4.146-2.746-2.777-4.128-7.195-4.146-13.237l-.081-27.813-5.075.029-.029-10.334 5.074-.027-.045-13.344 14.663-.045Zm73.266 22.001-5.087.77-19.892 53.111c-1.568 3.934-3.669 7.236-6.293 9.893-2.63 2.663-6.597 4.003-11.904 4.021a19.094 19.094 0 0 1-3.499-.299 62.824 62.824 0 0 1-3.857-.841l1.681-10.738c.472.068.955.131 1.463.2.501.062.934.098 1.31.098 2.448-.009 4.328-.612 5.636-1.809 1.307-1.194 2.307-2.687 3.006-4.466l1.654-4.134-17.415-44.839-5.09-.794-.027-8.866 26.705-.081.024 8.867-6.093 1.03 7.517 21.741.773 3.926.298.05 8.54-25.771-6.149-.988-.03-8.869 26.708-.078.021 8.866" fill="#1A1919"/></g><path fill-rule="evenodd" clip-rule="evenodd" d="M215.138 82.017 172.225 128.3l18.555-80.966-24.71 13.081-18.532-50.4-18.528 50.4-24.71-13.08 18.555 80.965-43.836-47.272-2.845 20.643-35.943-10.484 16.588 39.211-15.227 4.15 51.364 38.36c58.439-22.541 95.099-15.992 116.579-7.284-3.161 12.344-7.836 23.822-14.012 34.417a80.077 80.077 0 0 0-5.465-2.74c-7.466-3.386-16.436-6.132-27.227-7.732a141.81 141.81 0 0 0-13.284-1.302 177.192 177.192 0 0 0-12-.2c-12.134.209-25.892 1.615-41.528 4.615-.588.111-1.164.209-1.746.314-2.84.516-5.606.946-8.305 1.298-39.248 5.135-63.474-6.487-78-19.744a138.879 138.879 0 0 1-3.874-13.21c14.56 15.195 40.227 28.509 82.76 13.804l-57.462-42.91 19.985-5.451L30.75 82.751l40.893 11.926 3.552-25.778 37.803 40.767L96.335 36.96l29.717 15.733 18.113-49.275c2.382.317 4.755.657 7.129 1.03l17.734 48.242 29.713-15.733-16.659 72.709 33.086-35.692-.03 8.043Z" fill="#FFFFFE"/><path fill-rule="evenodd" clip-rule="evenodd" d="M86.702 203.424c-40.48 3.239-63.301-8.054-76.173-22.034a148.359 148.359 0 0 0 7.18 15.129c.143.263.292.513.435.773 12.054 8.848 32.305 17.249 66.334 20.001 35.72 2.893 59.221 12.511 74.672 23.53 9.346-7.213 17.537-15.135 24.561-23.754-17.492-9.973-47.065-17.637-97.009-13.642" fill="#FFFFFE"/><path fill-rule="evenodd" clip-rule="evenodd" d="M18.147 197.289c19.32 34.939 50.364 54.731 86.244 70.341 2.132.925 4.448.976 6.568 0 10.522-4.875 22.209-9.732 32.071-15.741a178.884 178.884 0 0 0 16.12-11.064c-15.448-11.015-38.95-20.637-74.669-23.529-34.03-2.753-54.28-11.153-66.334-20.001v-.006Zm77.868-4.607c-45.224 8.672-72.319-3.761-88.044-18.117.794 2.29 1.641 4.567 2.56 6.824 12.873 13.98 35.693 25.27 76.174 22.034 49.943-3.991 79.516 3.672 97.009 13.643a132.76 132.76 0 0 0 11.812-17.037c-19.147-10.511-50.009-16.84-99.514-7.344" fill="#0A0B09"/><path fill-rule="evenodd" clip-rule="evenodd" d="M209.542 165.627c2.719-10.636 4.316-21.918 4.74-33.853.588-16.577.779-33.166.857-49.758l-42.92 46.284 18.556-80.966-24.711 13.081-18.531-50.4-18.529 50.4-24.71-13.081 18.555 80.966-43.833-47.272-2.844 20.643-35.944-10.484 16.589 39.211-15.227 4.15 51.364 38.36c58.447-22.545 95.11-15.992 116.591-7.281" fill="#D8232A"/><path fill-rule="evenodd" clip-rule="evenodd" d="m198.735 36.96-16.659 72.706 33.089-35.692c.045-16.216.018-32.435.173-48.647.036-2.947-.662-4.598-3.77-5.657-19.725-6.768-39.791-12.025-60.283-15.225l17.734 48.247 29.713-15.732h.003ZM86.849 175.144l-57.463-42.91 19.985-5.451-18.627-44.032 40.893 11.926 3.552-25.778 37.803 40.767L96.329 36.96l29.717 15.732 18.113-49.274a290.99 290.99 0 0 0-15-1.588C86.604-1.543 45.374 5.14 5.177 19.114c-3.886 1.365-5.224 3.1-5.176 7.228.23 18.24.218 54.74.218 54.74 0 16.446-.17 32.891.036 49.334.137 10.598 1.433 20.915 3.836 30.939 14.56 15.198 40.227 28.497 82.758 13.792" fill="#0A0B09"/></svg>