<svg xmlns="http://www.w3.org/2000/svg" viewBox="0 0 79 100">
  <path fill="#FFF" fill-rule="evenodd" d="M44.76 65.605v-53.38C38.6 24.41 26.575 34.466 11.078 41.058c18 7.592 32.44 33.442 33.682 58.747C45.998 74.5 60.443 48.65 78.44 41.057c-15.23 4.753-27.47 13.68-33.68 24.548M19.51 14.586c-1.508 1.42-3.54 2.294-5.777 2.294-4.66 0-8.435-3.762-8.435-8.404 0-1.244.28-2.422.77-3.484l6.206-1.15L2.968 0C1.114 2.332 0 5.273 0 8.476 0 16.033 6.15 22.16 13.735 22.16c4.472 0 8.435-2.142 10.942-5.44l-5.168-2.134"/>
</svg>
