<svg xmlns="http://www.w3.org/2000/svg" width="78" height="96" fill="none"><path fill="#fff" d="M39.278 36.096V6.726C35.862 13.43 29.196 18.963 20.605 22.59c9.978 4.178 17.986 18.4 18.673 32.322.686-13.922 8.694-28.145 18.675-32.323-8.444 2.616-15.23 7.528-18.675 13.508ZM25.279 8.025a4.679 4.679 0 0 1-3.203 1.262c-2.583 0-4.676-2.07-4.676-4.623 0-.685.155-1.333.426-1.917l3.441-.633L16.11 0a7.424 7.424 0 0 0-1.647 4.664c0 4.158 3.41 7.527 7.616 7.527a7.617 7.617 0 0 0 6.066-2.993l-2.865-1.173ZM19.388 72.456l-1.591.004-.224-1.404a2.236 2.236 0 0 0-.797-.491 3.212 3.212 0 0 0-1.133-.178c-.929.003-1.642.338-2.141 1.006-.5.668-.747 1.539-.744 2.611l.001.37c.004 1.072.255 1.944.756 2.614.5.67 1.205 1.003 2.114 1 .42 0 .805-.062 1.154-.184.349-.121.618-.287.808-.495l.216-1.406 1.591-.005.006 2.087c-.428.494-.976.888-1.642 1.182-.666.294-1.412.443-2.238.445-1.432.005-2.606-.483-3.523-1.46-.917-.979-1.377-2.236-1.382-3.772l-.001-.355c-.005-1.532.446-2.791 1.352-3.78.906-.988 2.08-1.484 3.521-1.488.826-.002 1.572.144 2.238.44.665.294 1.216.685 1.652 1.172l.007 2.087ZM23.385 78.067c.313-.001.598-.069.855-.203a1.65 1.65 0 0 0 .597-.506l-.003-1.163-1.063.003c-.442.001-.777.104-1.004.31a.957.957 0 0 0-.34.737c0 .258.085.46.255.605.169.146.403.218.703.217Zm1.808 1.369a3.617 3.617 0 0 1-.151-.39 3.069 3.069 0 0 1-.102-.406 2.727 2.727 0 0 1-2.115.95c-.755.003-1.355-.198-1.801-.603-.446-.406-.67-.958-.672-1.658-.002-.715.287-1.268.865-1.66.579-.391 1.429-.588 2.55-.592l1.063-.003-.002-.747c-.001-.367-.109-.65-.324-.852-.214-.201-.53-.302-.948-.3-.238 0-.45.028-.635.083-.185.054-.335.12-.448.195l-.134.818-1.568.004.002-1.691a5.89 5.89 0 0 1 1.306-.646 4.799 4.799 0 0 1 1.607-.265c.956-.003 1.732.226 2.33.687.598.462.899 1.12.901 1.975l.01 3.15c0 .118.001.229.004.332.002.103.011.202.026.296l.634.083.004 1.233-2.402.007ZM28.32 78.193l.998-.215-.014-4.729-1.105-.208-.004-1.24 3.044-.01.096 1.114c.18-.395.412-.704.696-.926.285-.221.615-.333.99-.334a2.543 2.543 0 0 1 .65.083l-.216 1.876-.856-.02c-.304.002-.556.061-.755.18-.2.117-.351.285-.455.501l.011 3.707 1 .209.003 1.234-4.078.011-.004-1.233ZM33.94 69.943l-.005-1.24 3.194-.01.029 9.263 1.006.21.004 1.232-4.093.012-.004-1.233 1.005-.215-.024-7.811-1.113-.208ZM42.286 73.205c-.385 0-.689.147-.912.44-.222.291-.359.675-.41 1.15l.022.034 2.552-.007v-.183c-.002-.437-.106-.786-.313-1.046-.208-.26-.521-.39-.94-.388Zm0 6.329c-1.113.003-2.002-.347-2.67-1.05-.667-.703-1.003-1.597-1.006-2.682v-.282c-.004-1.133.308-2.067.936-2.801.627-.735 1.47-1.102 2.53-1.1 1.042-.003 1.85.305 2.428.923.576.618.867 1.457.87 2.514l.003 1.12-4.605.014-.015.042c.04.503.21.916.514 1.24.303.323.713.484 1.231.482.461-.001.844-.048 1.147-.14a5.3 5.3 0 0 0 .998-.437l.566 1.267c-.317.25-.729.46-1.235.63-.505.171-1.07.258-1.692.26ZM48.802 69.688l.006 2.05 1.354-.004.005 1.445-1.355.004.012 3.884c0 .296.063.507.187.634.124.126.29.189.5.188.142 0 .267-.006.374-.018.107-.012.227-.033.36-.061l.183 1.486a4.998 4.998 0 0 1-.691.161 4.873 4.873 0 0 1-.742.055c-.717.002-1.27-.191-1.66-.58-.388-.389-.583-1.006-.586-1.852l-.012-3.89-.724.003-.004-1.445.724-.004-.005-2.05 2.074-.006ZM52.93 75.616c.001.696.127 1.254.375 1.673.248.42.648.63 1.2.628.537-.002.93-.214 1.178-.638.248-.424.371-.981.37-1.672l-.002-.148c-.002-.677-.129-1.228-.382-1.655-.253-.427-.65-.64-1.193-.638-.541.002-.936.217-1.182.645-.245.428-.367.98-.365 1.657v.148Zm-2.083-.142c-.004-1.136.316-2.07.957-2.797.643-.728 1.531-1.093 2.667-1.097 1.141-.003 2.035.356 2.68 1.078.647.722.972 1.653.975 2.795v.148c.004 1.147-.315 2.082-.957 2.805-.642.723-1.528 1.086-2.66 1.09-1.145.003-2.04-.355-2.687-1.074-.647-.72-.971-1.653-.975-2.8v-.148ZM58.659 78.101l.997-.214-.014-4.73-1.105-.208-.004-1.24 3.044-.01.096 1.093c.256-.39.57-.695.946-.912a2.484 2.484 0 0 1 1.26-.328c.78-.002 1.39.238 1.828.72.439.483.66 1.241.663 2.275l.01 3.32.999.209.003 1.233-3.978.012-.004-1.233.89-.215-.01-3.312c0-.513-.106-.875-.316-1.089-.21-.213-.526-.319-.95-.317a1.62 1.62 0 0 0-.74.167 1.517 1.517 0 0 0-.548.47l.012 4.089.842.209.004 1.233-3.922.012-.003-1.234ZM10.106 87.044c0-1.06-.362-1.985-1.05-2.683-.834-.806-2.067-1.232-3.568-1.232H0V95.24h2.571v-9.754h2.75c.814 0 2.18.217 2.18 1.707 0 1.043-.83 1.69-2.163 1.69H3.125l4.532 6.357h3.055L7.457 90.73c1.71-.6 2.649-1.887 2.649-3.685ZM62.459 90.047l-8.207-7.628v12.823h2.536v-7.086l8.208 7.623v-12.65h-2.537v6.918ZM31.878 90.443l-3.344-7.314H25.69L31.88 96l6.191-12.871h-2.846l-3.345 7.314ZM43.902 87.972v-2.519h6.643V83.13h-9.214v4.843h-2.676l2.676 2.189v5.08h9.299v-2.325h-6.728v-2.618h5.89v-2.326h-5.89ZM74.03 88.013c-2.336-.552-2.592-.923-2.592-1.615 0-.674.667-1.126 1.662-1.126.998 0 1.992.374 3.035 1.144l.209.154 1.395-1.945-.186-.147c-1.285-1.02-2.732-1.515-4.42-1.515-2.511 0-4.265 1.487-4.265 3.65 0 2.284 1.505 3.09 4.107 3.712 2.279.52 2.455.962 2.455 1.565 0 .734-.717 1.21-1.829 1.21-1.298 0-2.357-.434-3.542-1.45l-.195-.166-1.564 1.841.182.162a7.555 7.555 0 0 0 5.069 1.921c2.703 0 4.449-1.46 4.449-3.75 0-2.365-1.908-3.15-3.97-3.645ZM20.92 90.8h-3.093l1.546-3.097 1.546 3.098Zm-5.775 0h-3.2l2.116 2.118-1.19 2.324h2.74l1.06-2.121h5.405l1.06 2.121h2.809l-6.537-12.765-4.263 8.324Z"/></svg>