<svg width="110" height="137" viewBox="0 0 110 137" fill="none" xmlns="http://www.w3.org/2000/svg">
<path d="M55.3919 51.4923V9.59521C50.5746 19.1588 41.1734 27.0514 29.0576 32.2233C43.1299 38.1833 54.4236 58.4729 55.3919 78.3333C56.3602 58.4729 67.6535 38.1833 81.7289 32.2233C69.8209 35.954 60.2502 42.962 55.3919 51.4923Z" fill="white"/>
<path d="M35.6499 11.4489C34.471 12.5612 32.8843 13.2483 31.1337 13.2483C27.4897 13.2483 24.5385 10.2964 24.5385 6.65371C24.5385 5.67638 24.7568 4.75132 25.1388 3.91832L29.9924 3.01596L22.7176 0C21.2665 1.8293 20.3953 4.13792 20.3953 6.65371C20.3953 12.5845 25.2041 17.3915 31.1359 17.3915C34.6318 17.3915 37.732 15.7122 39.6901 13.1214L35.6499 11.4489Z" fill="white"/>
<path d="M27.3408 103.361L25.0975 103.367L24.7818 101.363C24.4844 101.068 24.1096 100.835 23.6579 100.663C23.2063 100.493 22.6735 100.408 22.0604 100.41C20.7505 100.414 19.7443 100.892 19.0407 101.845C18.3371 102.799 17.9875 104.04 17.9921 105.57L17.9937 106.097C17.998 107.627 18.3533 108.87 19.059 109.826C19.7648 110.782 20.7586 111.258 22.0405 111.254C22.633 111.252 23.1758 111.165 23.6679 110.991C24.16 110.817 24.5401 110.582 24.8082 110.284L25.1124 108.278L27.3557 108.271L27.3644 111.249C26.7597 111.953 25.988 112.515 25.0486 112.935C24.109 113.355 23.057 113.566 21.8924 113.57C19.8731 113.576 18.217 112.881 16.924 111.486C15.6312 110.091 14.9815 108.298 14.9752 106.106L14.9737 105.6C14.9672 103.415 15.6029 101.618 16.8804 100.208C18.1582 98.7984 19.8133 98.0907 21.8464 98.0845C23.0109 98.0811 24.0629 98.2895 25.0014 98.711C25.9395 99.1318 26.7168 99.6895 27.3321 100.384L27.3408 103.361Z" fill="white"/>
<path d="M32.9776 111.365C33.4199 111.364 33.8221 111.267 34.1835 111.075C34.5447 110.883 34.8255 110.643 35.0259 110.354L35.0209 108.694L33.5229 108.699C32.8995 108.701 32.4273 108.848 32.106 109.14C31.7853 109.433 31.6258 109.784 31.6267 110.193C31.6279 110.562 31.7477 110.849 31.9866 111.056C32.2248 111.263 32.5555 111.366 32.9776 111.365ZM35.5273 113.318C35.4461 113.138 35.3752 112.952 35.3145 112.761C35.2536 112.57 35.206 112.378 35.1717 112.183C34.8246 112.586 34.4016 112.913 33.903 113.162C33.4044 113.411 32.8333 113.538 32.1897 113.539C31.124 113.543 30.2767 113.255 29.6484 112.677C29.0198 112.099 28.7041 111.311 28.7009 110.312C28.6981 109.293 29.1047 108.504 29.9209 107.945C30.7368 107.387 31.9359 107.105 33.5179 107.1L35.0162 107.096L35.0128 106.03C35.0116 105.507 34.8595 105.102 34.5568 104.815C34.2545 104.528 33.8084 104.385 33.2187 104.386C32.8833 104.387 32.585 104.427 32.3238 104.505C32.0628 104.582 31.8519 104.675 31.6914 104.783L31.5035 105.95L29.2913 105.957L29.2944 103.543C29.8294 103.18 30.4438 102.873 31.1368 102.623C31.8298 102.373 32.5854 102.247 33.4031 102.244C34.7506 102.24 35.8455 102.567 36.6887 103.225C37.532 103.883 37.9557 104.822 37.9591 106.041L37.9725 110.536C37.9728 110.704 37.9749 110.861 37.979 111.008C37.9824 111.156 37.9945 111.297 38.0151 111.431L38.9103 111.549L38.9159 113.308L35.5273 113.318Z" fill="white"/>
<path d="M39.9395 111.545L41.3467 111.239L41.3268 104.492L39.7675 104.195L39.7622 102.426L44.0557 102.413L44.191 104.002C44.4435 103.438 44.7711 102.997 45.1723 102.681C45.5736 102.365 46.0389 102.206 46.5683 102.205C46.7226 102.204 46.8853 102.216 47.0561 102.239C47.2274 102.262 47.3699 102.29 47.4837 102.323L47.1802 104.998L45.9733 104.971C45.5443 104.973 45.1894 105.058 44.9082 105.226C44.6274 105.394 44.4134 105.633 44.2669 105.942L44.2827 111.23L45.6912 111.528L45.6964 113.288L39.9451 113.304L39.9395 111.545Z" fill="white"/>
<path d="M47.863 99.7761L47.8577 98.0062L52.3623 97.9932L52.4024 111.208L53.8212 111.506L53.8264 113.265L48.0549 113.282L48.0496 111.522L49.4664 111.216L49.4322 100.073L47.863 99.7761Z" fill="white"/>
<path d="M59.6338 104.429C59.0907 104.431 58.6623 104.64 58.3485 105.056C58.0346 105.473 57.8418 106.02 57.7702 106.697L57.8004 106.747L61.3999 106.736L61.3993 106.475C61.3974 105.852 61.2503 105.354 60.9576 104.983C60.6649 104.612 60.2235 104.427 59.6338 104.429ZM59.6338 113.458C58.0651 113.462 56.81 112.963 55.8691 111.96C54.9272 110.958 54.4544 109.682 54.4501 108.134L54.4485 107.731C54.4439 106.116 54.8837 104.784 55.7692 103.736C56.6539 102.687 57.844 102.165 59.3389 102.167C60.8067 102.163 61.9477 102.602 62.7614 103.484C63.5748 104.366 63.9841 105.562 63.9888 107.07L63.9931 108.669L57.4981 108.688L57.4782 108.748C57.5338 109.465 57.7749 110.054 58.2023 110.516C58.6294 110.977 59.2079 111.207 59.9386 111.204C60.589 111.202 61.1284 111.136 61.5567 111.003C61.9856 110.871 62.4541 110.664 62.9629 110.381L63.7623 112.188C63.3144 112.545 62.7337 112.845 62.0205 113.088C61.3075 113.332 60.5119 113.455 59.6338 113.458Z" fill="white"/>
<path d="M68.8237 99.4124L68.8318 102.337L70.7419 102.332L70.7482 104.393L68.8377 104.399L68.8542 109.939C68.8554 110.361 68.9434 110.662 69.1186 110.843C69.2927 111.023 69.5279 111.113 69.8228 111.112C70.0237 111.112 70.2001 111.103 70.3506 111.085C70.5015 111.068 70.6707 111.039 70.8583 110.998L71.1158 113.119C70.788 113.221 70.4629 113.297 70.1413 113.348C69.8194 113.4 69.471 113.426 69.0958 113.427C68.0837 113.43 67.3036 113.154 66.7555 112.599C66.2074 112.044 65.9318 111.164 65.9284 109.958L65.9119 104.407L64.8907 104.412L64.8845 102.351L65.9057 102.346L65.8979 99.4208L68.8237 99.4124Z" fill="white"/>
<path d="M74.643 107.87C74.6458 108.862 74.8228 109.658 75.173 110.256C75.5232 110.855 76.0872 111.154 76.8648 111.151C77.6222 111.149 78.1759 110.846 78.5261 110.241C78.8764 109.637 79.0499 108.842 79.0472 107.857L79.0462 107.645C79.0434 106.68 78.8636 105.894 78.5065 105.285C78.1495 104.675 77.5889 104.372 76.8247 104.374C76.0607 104.377 75.5049 104.684 75.1581 105.294C74.8116 105.905 74.6396 106.693 74.6423 107.659L74.643 107.87ZM71.7063 107.667C71.7017 106.045 72.1521 104.715 73.0569 103.677C73.9624 102.638 75.2156 102.117 76.8178 102.112C78.4266 102.107 79.6867 102.62 80.5981 103.649C81.5094 104.679 81.9676 106.008 81.9723 107.637L81.9729 107.848C81.9779 109.484 81.5275 110.818 80.6223 111.849C79.7172 112.88 78.4667 113.399 76.8717 113.404C75.2561 113.408 73.9929 112.898 73.0815 111.872C72.1698 110.845 71.7119 109.514 71.707 107.878L71.7063 107.667Z" fill="white"/>
<path d="M82.723 111.414L84.1299 111.108L84.11 104.362L82.5507 104.064L82.5454 102.295L86.8389 102.282L86.9739 103.84C87.3344 103.283 87.7789 102.849 88.3076 102.539C88.8361 102.23 89.4287 102.074 90.0856 102.072C91.1849 102.068 92.044 102.411 92.6627 103.1C93.2814 103.788 93.593 104.87 93.5974 106.345L93.6114 111.08L95.0201 111.378L95.0251 113.137L89.4147 113.154L89.4094 111.395L90.6654 111.089L90.6517 106.363C90.6492 105.633 90.5002 105.116 90.2044 104.811C89.9083 104.507 89.4623 104.356 88.8657 104.358C88.4772 104.359 88.1285 104.439 87.8209 104.597C87.5126 104.756 87.2554 104.979 87.0485 105.268L87.0659 111.1L88.2532 111.398L88.2585 113.157L82.7283 113.174L82.723 111.414Z" fill="white"/>
<path d="M14.2518 124.172C14.2518 122.661 13.7407 121.34 12.7702 120.343C11.5941 119.194 9.85598 118.586 7.7399 118.586H0V135.865H3.62562V121.951H7.50412C8.65221 121.951 10.5776 122.26 10.5776 124.385C10.5776 125.873 9.409 126.797 7.52745 126.797H4.40729L10.7988 135.865H15.1065L10.5157 129.429C12.9289 128.572 14.2518 126.736 14.2518 124.172Z" fill="white"/>
<path d="M88.0821 128.455L76.5088 117.574V135.866H80.0856V125.759L91.6598 136.632V118.587H88.0821V128.455Z" fill="white"/>
<path d="M44.9572 129.02L40.2408 118.586H36.2285L44.9572 136.948L53.6888 118.586H49.675L44.9572 129.02Z" fill="white"/>
<path d="M61.9127 125.496V121.902H71.2819V118.586H58.2868V125.496H54.5134L58.2868 128.617V135.865H71.401V132.548H61.9127V128.813H70.2187V125.496H61.9127Z" fill="white"/>
<path d="M104.402 125.553C101.107 124.766 100.747 124.237 100.747 123.25C100.747 122.289 101.687 121.644 103.089 121.644C104.497 121.644 105.899 122.177 107.369 123.276L107.665 123.495L109.632 120.721L109.37 120.511C107.557 119.057 105.517 118.35 103.135 118.35C99.5947 118.35 97.1215 120.472 97.1215 123.557C97.1215 126.815 99.2432 127.964 102.913 128.852C106.127 129.594 106.376 130.225 106.376 131.084C106.376 132.132 105.365 132.809 103.797 132.809C101.966 132.809 100.473 132.191 98.8006 130.743L98.5262 130.505L96.3206 133.132L96.5778 133.363C98.5853 135.156 101.058 136.103 103.725 136.103C107.537 136.103 110 134.022 110 130.755C110 127.38 107.309 126.261 104.402 125.553Z" fill="white"/>
<path d="M29.5017 129.531H25.1408L27.3209 125.111L29.5017 129.531ZM21.3587 129.531H16.8447L19.8296 132.552L18.1505 135.867H22.015L23.509 132.84H31.1326L32.629 135.867H36.589L27.3698 117.656L21.3587 129.531Z" fill="white"/>
</svg>
