<svg xmlns="http://www.w3.org/2000/svg" viewBox="0 0 576 512"><!--! Font Awesome Pro 6.5.1 by @fontawesome - https://fontawesome.com License - https://fontawesome.com/license (Commercial License) Copyright 2023 Fonticons, Inc.--><path d="M512 64c17.7 0 32 14.3 32 32v96h-96v-32h16c8.8 0 16-7.2 16-16s-7.2-16-16-16h-16V64h64zm-96 64h-16c-8.8 0-16 7.2-16 16s7.2 16 16 16h16v32H288v-32h16c8.8 0 16-7.2 16-16s-7.2-16-16-16h-16V64h128v64zm-160 0h-16c-8.8 0-16 7.2-16 16s7.2 16 16 16h16v32h-96v-32h16c8.8 0 16-7.2 16-16s-7.2-16-16-16h-16V64h96v64zm-128 0h-16c-8.8 0-16 7.2-16 16s7.2 16 16 16h16v32H32V96c0-17.7 14.3-32 32-32h64v64zM32 416V224h96v64h-16c-8.8 0-16 7.2-16 16s7.2 16 16 16h16v32h-16c-8.8 0-16 7.2-16 16s7.2 16 16 16h16v64H64c-17.7 0-32-14.3-32-32zm128-32h16c8.8 0 16-7.2 16-16s-7.2-16-16-16h-16v-32h16c8.8 0 16-7.2 16-16s-7.2-16-16-16h-16v-64h96v64h-16c-8.8 0-16 7.2-16 16s7.2 16 16 16h16v32h-16c-8.8 0-16 7.2-16 16s7.2 16 16 16h16v64h-96v-64zm128-64h16c8.8 0 16-7.2 16-16s-7.2-16-16-16h-16v-64h128v128h-16c-8.8 0-16 7.2-16 16s7.2 16 16 16h16v64H288v-64h16c8.8 0 16-7.2 16-16s-7.2-16-16-16h-16v-32zm160 64h16c8.8 0 16-7.2 16-16s-7.2-16-16-16h-16V224h96v192c0 17.7-14.3 32-32 32h-64v-64zM64 32C28.7 32 0 60.7 0 96v320c0 35.3 28.7 64 64 64h448c35.3 0 64-28.7 64-64V96c0-35.3-28.7-64-64-64H64z"/></svg>

