<svg xmlns="http://www.w3.org/2000/svg" viewBox="0 0 640 640"><!--!Font Awesome Pro v7.1.0 by @fontawesome - https://fontawesome.com License - https://fontawesome.com/license (Commercial License) Copyright 2025 Fonticons, Inc.--><path d="M544 320C544 196.3 443.7 96 320 96C196.3 96 96 196.3 96 320C96 443.7 196.3 544 320 544C443.7 544 544 443.7 544 320zM64 320C64 178.6 178.6 64 320 64C461.4 64 576 178.6 576 320C576 461.4 461.4 576 320 576C178.6 576 64 461.4 64 320zM320 224C293.5 224 272 245.5 272 272C272 280.8 264.8 288 256 288C247.2 288 240 280.8 240 272C240 227.8 275.8 192 320 192C364.2 192 400 227.8 400 272C400 311.6 374.3 332.3 353.8 342.1C342.3 347.6 336 356.6 336 364.3L336 370C336 378.8 328.8 386 320 386C311.2 386 304 378.8 304 370L304 364.3C304 339.7 322.3 321.7 340 313.3C354.5 306.4 368 294.5 368 272.1C368 245.6 346.5 224.1 320 224.1zM296 440C296 426.7 306.7 416 320 416C333.3 416 344 426.7 344 440C344 453.3 333.3 464 320 464C306.7 464 296 453.3 296 440z"/></svg>