<svg xmlns="http://www.w3.org/2000/svg" viewBox="0 0 640 640"><!--!Font Awesome Pro v7.1.0 by @fontawesome - https://fontawesome.com License - https://fontawesome.com/license (Commercial License) Copyright 2025 Fonticons, Inc.--><path d="M128.2 280.3C132.2 177.8 216.5 96 320 96C423.5 96 507.8 177.8 511.8 280.3C494.8 265.2 472.5 256 448 256L432 256C405.5 256 384 277.5 384 304L384 400C384 426.5 405.5 448 432 448L448 448C472.6 448 495 438.8 512 423.6L512 464.1C512 508.3 476.2 544.1 432 544.1L397.3 544.1C399.1 539.1 400 533.7 400 528.1C400 501.6 378.5 480.1 352 480.1L288 480.1C261.5 480.1 240 501.6 240 528.1C240 554.6 261.5 576.1 288 576.1C312 576.1 360 576.1 431.9 576.2C493.8 576.2 544 526.1 544 464.2L544 288C544 164.3 443.7 64 320 64C196.3 64 96 164.3 96 288L96 352C96 405 139 448 192 448L208 448C234.5 448 256 426.5 256 400L256 304C256 277.5 234.5 256 208 256L192 256C167.5 256 145.1 265.2 128.2 280.3zM336 544L288 544C279.2 544 272 536.8 272 528C272 519.2 279.2 512 288 512L352 512C360.8 512 368 519.2 368 528C368 536.8 360.8 544 352 544L336 544zM448 288C483.3 288 512 316.7 512 352C512 387.3 483.3 416 448 416L432 416C423.2 416 416 408.8 416 400L416 304C416 295.2 423.2 288 432 288L448 288zM128 352C128 316.7 156.7 288 192 288L208 288C216.8 288 224 295.2 224 304L224 400C224 408.8 216.8 416 208 416L192 416C156.7 416 128 387.3 128 352z"/></svg>