<svg width="1200" height="330" fill="none" xmlns="http://www.w3.org/2000/svg"><path d="m132.959 62.91-24.116.071-3.396-21.548c-3.197-3.176-7.226-5.684-12.082-7.523-4.858-1.836-10.585-2.747-17.178-2.728-14.078.042-24.898 5.186-32.462 15.433C36.16 56.863 32.404 70.21 32.451 86.657l.017 5.669c.05 16.447 3.867 29.809 11.454 40.083 7.588 10.281 18.273 15.395 32.054 15.354 6.371-.015 12.203-.961 17.495-2.829 5.291-1.864 9.379-4.397 12.258-7.593L109 115.77l24.117-.071.095 32.007c-6.5 7.578-14.798 13.619-24.897 18.133-10.101 4.51-21.412 6.788-33.933 6.827-21.708.063-39.513-7.404-53.412-22.405C7.072 135.26.086 115.982.017 92.421L0 86.976C-.067 63.49 6.766 44.17 20.5 29.014 34.237 13.858 52.032 6.25 73.89 6.184c12.52-.038 23.827 2.206 33.916 6.735 10.088 4.526 18.442 10.521 25.058 17.985l.095 32.007ZM193.563 148.961c4.754-.014 9.077-1.052 12.961-3.116 3.885-2.069 6.905-4.653 9.057-7.759l-.053-17.837-16.106.048c-6.701.023-11.777 1.607-15.228 4.746-3.449 3.146-5.168 6.92-5.155 11.315.012 3.966 1.3 7.057 3.866 9.283 2.563 2.227 6.117 3.335 10.658 3.32Zm27.41 20.998a56.37 56.37 0 0 1-2.288-5.994 47.03 47.03 0 0 1-1.533-6.211c-3.735 4.336-8.283 7.847-13.642 10.528-5.361 2.678-11.5 4.033-18.418 4.056-11.458.032-20.566-3.058-27.322-9.27-6.758-6.215-10.15-14.69-10.184-25.429-.031-10.953 4.34-19.432 13.114-25.44 8.774-6.008 21.665-9.037 38.672-9.089l16.106-.048-.035-11.458c-.017-5.62-1.651-9.974-4.902-13.063-3.252-3.09-8.049-4.626-14.389-4.607-3.605.011-6.81.437-9.619 1.274-2.808.836-5.076 1.835-6.8 2.993l-2.018 12.545-23.78.07.031-25.945c5.754-3.906 12.356-7.206 19.807-9.894 7.45-2.687 15.571-4.046 24.363-4.072 14.486-.043 26.259 3.474 35.324 10.541 9.065 7.074 13.618 17.168 13.657 30.284l.142 48.317c.005 1.802.028 3.497.07 5.081.039 1.585.17 3.099.392 4.538l9.623 1.271.057 18.915-36.428.107ZM268.401 150.895l15.124-3.291-.214-72.529-16.764-3.194-.057-19.023 46.157-.138 1.455 17.075c2.719-6.06 6.239-10.791 10.553-14.193 4.313-3.398 9.317-5.106 15.009-5.123a38.338 38.338 0 0 1 5.244.364c1.838.247 3.369.548 4.598.903l-3.267 28.765-12.973-.288c-4.613.014-8.429.93-11.449 2.738-3.023 1.811-5.322 4.374-6.897 7.696l.168 56.855 15.144 3.202.055 18.915-61.829.181-.057-18.915ZM353.581 24.369l-.058-19.025L401.95 5.2l.434 142.065 15.251 3.202.056 18.915-62.046.18-.057-18.915 15.231-3.289-.367-119.797-16.871-3.193ZM480.128 74.396c-5.837.016-10.444 2.263-13.818 6.743-3.373 4.478-5.447 10.355-6.217 17.636l.325.538 38.699-.115-.008-2.81c-.021-6.699-1.603-12.046-4.749-16.036-3.146-3.99-7.891-5.977-14.232-5.956Zm.001 97.063c-16.863.047-30.358-5.319-40.476-16.098-10.121-10.779-15.207-24.495-15.255-41.138l-.013-4.325c-.051-17.367 4.679-31.687 14.196-42.957 9.514-11.268 22.306-16.893 38.378-16.866 15.781-.048 28.045 4.673 36.794 14.16 8.746 9.485 13.146 22.336 13.194 38.55l.05 17.187-69.828.207-.216.646c.6 7.711 3.194 14.045 7.786 19.004 4.591 4.96 10.813 7.427 18.666 7.404 6.992-.022 12.792-.738 17.398-2.16 4.609-1.418 9.646-3.648 15.115-6.692l8.597 19.432c-4.817 3.834-11.058 7.058-18.726 9.676-7.666 2.614-16.221 3.94-25.66 3.97ZM578.925 20.459l.084 31.446 20.539-.06.067 22.159-20.539.06.176 59.565c.013 4.537.959 7.776 2.84 9.715 1.877 1.943 4.403 2.906 7.574 2.895 2.161-.004 4.055-.1 5.674-.284 1.622-.185 3.44-.498 5.456-.938l2.769 22.803a75.974 75.974 0 0 1-10.476 2.463c-3.458.551-7.205.831-11.24.846-10.882.03-19.269-2.935-25.159-8.9-5.892-5.964-8.856-15.432-8.894-28.401l-.176-59.67-10.977.05-.067-22.159 10.978-.05-.085-31.446 31.456-.094ZM641.497 111.382c.031 10.665 1.929 19.221 5.695 25.658 3.767 6.44 9.829 9.645 18.19 9.62 8.142-.026 14.097-3.283 17.86-9.783 3.765-6.496 5.632-15.041 5.6-25.636l-.006-2.271c-.032-10.377-1.967-18.835-5.806-25.384-3.838-6.546-9.865-9.806-18.08-9.783-8.215.025-14.188 3.322-17.915 9.89-3.729 6.571-5.577 15.041-5.546 25.417l.008 2.272Zm-31.571-2.177c-.051-17.437 4.788-31.738 14.519-42.902 9.732-11.161 23.209-16.769 40.433-16.82 17.296-.05 30.841 5.459 40.64 16.524 9.797 11.072 14.722 25.363 14.773 42.871l.008 2.271c.052 17.585-4.79 31.921-14.521 43.015-9.733 11.086-23.174 16.658-40.324 16.709-17.368.052-30.95-5.439-40.747-16.469-9.799-11.038-14.724-25.345-14.775-42.928l-.006-2.271ZM728.364 149.49l15.124-3.291-.214-72.529-16.764-3.195-.057-19.024 46.157-.136 1.454 16.751c3.873-5.991 8.652-10.656 14.337-13.987 5.681-3.331 12.053-5.007 19.118-5.03 11.817-.035 21.051 3.651 27.704 11.053 6.651 7.403 10.001 19.032 10.047 34.886l.153 50.909 15.142 3.201.057 18.915-60.317.181-.058-18.915 13.504-3.287-.15-50.802c-.024-7.855-1.627-13.418-4.806-16.688-3.182-3.27-7.979-4.895-14.393-4.876-4.179.012-7.925.871-11.232 2.573-3.313 1.704-6.079 4.109-8.303 7.214l.184 62.694 12.766 3.209.055 18.915-59.45.174-.058-18.915ZM293.801 213.935l.031 10.576-9.369 1.834.135 45.674c.017 5.772 1.581 10.083 4.695 12.94 3.114 2.854 7.375 4.27 12.784 4.253 5.489-.014 9.791-1.447 12.908-4.304 3.117-2.85 4.667-7.185 4.65-12.995l-.135-45.674-9.321-1.776-.031-10.576 36.238-.106.031 10.576-9.369 1.831.135 45.674c.029 9.816-3.185 17.402-9.639 22.746-6.455 5.348-14.93 8.037-25.427 8.068-10.457.034-18.908-2.608-25.355-7.917-6.445-5.307-9.683-12.872-9.713-22.688l-.135-45.675-9.321-1.775-.031-10.577 9.316-.027 17.548-.051 9.375-.031ZM351.242 290.751l8.408-1.826-.119-40.323-9.32-1.776-.031-10.579 25.661-.075.809 9.313c2.153-3.332 4.809-5.923 7.97-7.777 3.159-1.855 6.702-2.785 10.629-2.796 6.57-.02 11.705 2.03 15.403 6.142 3.698 4.116 5.56 10.583 5.586 19.397l.084 28.306 8.419 1.776.03 10.518-33.533.099-.031-10.518 7.507-1.824-.084-28.245c-.012-4.366-.904-7.458-2.672-9.278-1.768-1.814-4.435-2.721-8-2.71-2.325.006-4.408.485-6.247 1.434-1.84.943-3.379 2.282-4.615 4.01l.103 34.854 7.096 1.78.031 10.517-33.053.1-.031-10.519ZM455.604 220.372l-17.548.051-.04-13.162 17.549-.052.039 13.163Zm-25.815 70.148 8.469-1.827-.121-40.323-9.379-1.775-.031-10.58 26.923-.079.156 52.706 8.419 1.775.03 10.518-34.435.102-.031-10.517ZM494.755 246.39l-6.127 1.16 8.68 29.063 1.16 6.124h.362l1.243-6.132 8.387-29.051-6.252-1.184-.031-10.58 29.507-.089.031 10.579-5.647.918-19.012 53.605-16.768.048-19.39-53.489-5.651-.883-.03-10.58 29.508-.088.03 10.579ZM563.403 247.922c-3.246.01-5.807 1.259-7.682 3.747-1.876 2.491-3.028 5.758-3.456 9.805l.181.302 21.514-.062-.004-1.564c-.011-3.725-.892-6.698-2.64-8.916-1.75-2.221-4.389-3.322-7.913-3.312Zm1.722 53.961c-9.374.027-16.877-2.953-22.503-8.947-5.627-5.992-8.455-13.618-8.482-22.873l-.007-2.402c-.028-9.656 2.602-17.617 7.892-23.886 5.29-6.261 12.402-9.392 21.337-9.374 8.774-.029 15.594 2.596 20.458 7.868 4.863 5.276 7.308 12.421 7.335 21.437l.028 9.556-38.824.113-.119.359c.334 4.288 1.775 7.811 4.329 10.566 2.551 2.758 6.012 4.13 10.379 4.116 3.885-.014 7.11-.41 9.672-1.201 2.561-.787 5.362-2.029 8.402-3.719l4.781 10.802c-2.679 2.131-6.149 3.924-10.412 5.382-4.262 1.454-9.018 2.19-14.266 2.203ZM598.153 289.997l8.408-1.827-.119-40.323-9.321-1.774-.031-10.581 25.661-.075.809 9.491c1.513-3.367 3.469-5.997 5.868-7.89 2.398-1.888 5.179-2.837 8.345-2.846a21.45 21.45 0 0 1 2.915.201c1.021.141 1.873.305 2.555.503l-1.815 15.993-7.213-.161c-2.564.007-4.686.517-6.365 1.522-1.68 1.006-2.959 2.433-3.835 4.277l.094 31.612 8.419 1.779.031 10.518-34.376.099-.03-10.518ZM698.911 257.541l-11.78.033-1.887-8.105c-1.205-.958-2.719-1.755-4.545-2.392-1.825-.636-3.84-.951-6.042-.944-3.085.01-5.527.708-7.325 2.093-1.8 1.39-2.696 3.128-2.69 5.212.006 1.963.873 3.593 2.599 4.886 1.726 1.299 5.175 2.442 10.346 3.425 8.059 1.58 14.035 3.917 17.931 7.01 3.894 3.097 5.85 7.367 5.867 12.814.017 5.85-2.483 10.634-7.5 14.353-5.017 3.723-11.632 5.594-19.845 5.622-5.009.014-9.609-.705-13.799-2.156-4.192-1.451-7.914-3.531-11.167-6.248l-.223-14.603 12.259-.034 2.43 8.468c1.043.877 2.468 1.524 4.272 1.941 1.805.41 3.688.618 5.65.612 3.567-.01 6.279-.657 8.139-1.947 1.858-1.289 2.785-3.031 2.778-5.235-.005-1.923-.952-3.585-2.839-4.982-1.888-1.395-5.356-2.627-10.408-3.695-7.657-1.539-13.442-3.835-17.358-6.89-3.915-3.056-5.881-7.224-5.897-12.513-.016-5.447 2.214-10.152 6.689-14.114 4.476-3.959 10.861-5.95 19.155-5.974 5.047-.017 9.827.65 14.339 1.998 4.512 1.352 8.051 3.083 10.622 5.198l.229 16.167ZM734.557 219.512l-17.549.052-.039-13.163 17.549-.051.039 13.162Zm-25.815 70.153 8.468-1.831-.119-40.323-9.38-1.776-.031-10.579 26.923-.079.156 52.706 8.418 1.779.031 10.517-34.435.104-.031-10.518ZM771.945 219.033l.048 15.924 11.419-.034.036 12.321-11.419.034.098 33.114c.007 2.525.534 4.328 1.578 5.406 1.045 1.078 2.448 1.615 4.212 1.608a29.882 29.882 0 0 0 3.155-.157 31.239 31.239 0 0 0 3.034-.52l1.54 12.676a42.54 42.54 0 0 1-5.826 1.369c-1.923.304-4.006.462-6.249.469-6.05.017-10.713-1.632-13.987-4.948-3.276-3.316-4.923-8.581-4.945-15.79l-.099-33.175-6.051.031-.036-12.321 6.052-.031-.048-15.924 17.488-.052ZM859.345 245.28l-6.067.918-23.733 63.353c-1.869 4.691-4.371 8.629-7.506 11.801-3.137 3.175-7.87 4.772-14.199 4.793a22.816 22.816 0 0 1-4.178-.352 76.262 76.262 0 0 1-4.6-1.006l2.005-12.81c.561.082 1.143.157 1.744.239.601.075 1.121.117 1.561.117 2.926-.011 5.167-.729 6.726-2.156 1.558-1.427 2.755-3.206 3.591-5.327l1.968-4.935-20.772-53.484-6.073-.945-.031-10.579 31.851-.096.031 10.579-7.267 1.225 8.971 25.936.915 4.684.361.058 10.186-30.739-7.336-1.181-.031-10.579 31.852-.093.031 10.579ZM1195.06 101.871l-51.46 55.498 22.24-97.078-29.63 15.685-22.21-60.43-22.22 60.43-29.63-15.685 22.25 97.078-52.56-56.682-3.41 24.751-43.095-12.569 19.895 47.009-18.261 4.98 61.591 45.99c70.06-27.027 114.02-19.176 139.77-8.734-3.78 14.8-9.39 28.561-16.8 41.265a94.735 94.735 0 0 0-6.55-3.285c-8.95-4.058-19.7-7.349-32.64-9.269-4.98-.738-10.3-1.264-15.93-1.563-1.58-.083-3.18-.148-4.8-.194-3.1-.087-6.29-.103-9.59-.047-14.56.251-31.05 1.939-49.79 5.534-.71.136-1.4.25-2.1.377-3.4.619-6.72 1.137-9.95 1.56-47.069 6.155-76.116-7.78-93.527-23.674a163.987 163.987 0 0 1-4.649-15.84c17.458 18.221 48.233 34.185 99.236 16.553l-68.903-51.45 23.967-6.535-22.342-52.793 49.028 14.301 4.27-30.91 45.33 48.881-19.99-87.175 35.63 18.862 21.73-59.075c2.85.375 5.7.788 8.54 1.232l21.26 57.843 35.63-18.862-19.97 87.175 39.68-42.793-.04 9.639Z" fill="#fff"/><path d="M1041.06 247.437c-48.542 3.88-75.898-9.657-91.337-26.421a178.636 178.636 0 0 0 8.611 18.142c.169.311.348.614.526.925 14.453 10.61 38.73 20.68 79.53 23.982 42.84 3.466 71.01 14.999 89.54 28.211 11.2-8.647 21.03-18.148 29.45-28.483-20.98-11.956-56.43-21.143-116.32-16.356Z" fill="#fff"/><path d="M958.861 240.082c23.159 41.886 60.389 65.616 103.409 84.331 2.55 1.112 5.33 1.169 7.88 0 12.61-5.846 26.62-11.67 38.44-18.873a213.943 213.943 0 0 0 19.34-13.264c-18.53-13.212-46.7-24.745-89.53-28.212-40.809-3.302-65.086-13.372-79.539-23.982ZM1052.23 234.554c-54.227 10.402-86.72-4.51-105.578-21.72a174.29 174.29 0 0 0 3.071 8.181c15.439 16.764 42.796 30.301 91.337 26.421 59.89-4.787 95.34 4.4 116.32 16.356 5.28-6.478 10-13.288 14.16-20.43-22.95-12.604-59.96-20.193-119.31-8.808ZM1175.39 47.848l-19.97 87.175 39.68-42.793c.05-19.445.02-38.89.2-58.327.05-3.537-.8-5.513-4.51-6.784-23.66-8.114-47.72-14.417-72.29-18.252l21.26 57.843 35.63-18.862Z" fill="#030404"/><path d="m1041.24 213.53-68.904-51.45 23.966-6.535-22.341-52.794 49.029 14.301 4.27-30.909 45.33 48.88-19.99-87.174 35.63 18.862 21.72-59.076c-5.96-.786-11.96-1.429-17.98-1.907-51.03-4.042-100.467 3.97-148.662 20.727-4.66 1.632-6.262 3.71-6.205 8.66.274 21.868.26 65.633.26 65.633 0 19.717-.202 39.434.043 59.151a168.356 168.356 0 0 0 4.596 37.092c17.459 18.224 48.234 34.169 99.238 16.539Z" fill="#030404"/><path d="M1188.34 202.119c3.27-12.753 5.19-26.278 5.69-40.588.71-19.874.94-39.766 1.03-59.66l-51.47 55.498 22.25-97.078-29.63 15.685-22.21-60.43-22.22 60.43-29.63-15.685 22.25 97.078-52.56-56.682-3.41 24.751-43.096-12.569 19.886 47.009-18.252 4.98 61.592 45.99c70.07-27.031 114.03-19.173 139.78-8.729Z" fill="#E91E27"/><path d="M1065.83 0c-40.3 0-82.036 7.41-124.062 22.021-6.643 2.325-9.44 6.256-9.36 13.15.271 21.591.26 65.138.26 65.576 0 6.13-.02 12.259-.039 18.389-.043 13.373-.087 27.202.082 40.821.166 12.893 1.754 25.709 4.719 38.093l.007.026.003.011c1.3 5.428 2.91 10.903 4.769 16.272l.029.08c.3.798.563 1.523.807 2.2.817 2.232 1.456 3.995 2.329 6.145a183.938 183.938 0 0 0 8.837 18.623c.113.194.216.387.329.581.066.121.141.243.207.366 11.222 20.29 26.107 37.399 45.513 52.306 16.16 12.419 35.27 23.242 60.14 34.059a14.6 14.6 0 0 0 5.87 1.245c2.02 0 3.99-.433 5.84-1.285 2.71-1.26 5.44-2.488 8.31-3.789 10.38-4.693 21.11-9.545 30.62-15.34 6.94-4.235 13.58-8.795 19.75-13.556 11.44-8.826 21.61-18.662 30.22-29.234 5.41-6.638 10.32-13.698 14.56-20.985l.03-.053c7.54-12.936 13.33-27.103 17.2-42.112.03-.108.07-.217.1-.328 3.35-13.113 5.31-27.104 5.82-41.585.77-21.608.96-43.312 1.03-59.805l.04-9.643c.02-5.411.02-10.817.03-16.224.03-13.795.05-28.06.18-42.076.04-3.69-.71-8.888-7.7-11.273-25.34-8.693-49.25-14.73-73.08-18.448-2.93-.457-5.84-.877-8.65-1.247a355.134 355.134 0 0 0-18.23-1.933C1083.57.353 1074.64 0 1065.83 0Zm0 4.696c8.66 0 17.38.339 26.14 1.033a350.18 350.18 0 0 1 17.99 1.907c2.85.376 5.7.788 8.54 1.232 24.57 3.835 48.63 10.138 72.28 18.252 3.72 1.27 4.57 3.247 4.52 6.784-.19 19.437-.15 38.883-.2 58.327l-.04 9.639c-.09 19.894-.32 39.786-1.03 59.66-.5 14.311-2.42 27.835-5.69 40.588 0-.002 0-.003-.01-.004-3.78 14.793-9.39 28.548-16.79 41.248v.004c0 .004-.01.01-.01.012a159.674 159.674 0 0 1-14.15 20.415c-8.42 10.335-18.25 19.835-29.45 28.483a213.943 213.943 0 0 1-19.34 13.264c-11.82 7.203-25.83 13.027-38.44 18.873a9.255 9.255 0 0 1-3.88.856c-1.36 0-2.71-.293-4-.856-43.02-18.715-80.251-42.445-103.41-84.331-.178-.311-.357-.613-.526-.925a178.86 178.86 0 0 1-8.612-18.142c-1.098-2.705-1.821-4.781-3.07-8.197a166.395 166.395 0 0 1-4.649-15.826v-.015c-2.883-12.012-4.434-24.375-4.596-37.078-.245-19.717-.043-39.433-.043-59.15 0 0 .014-43.765-.26-65.632-.058-4.951 1.544-7.03 6.204-8.661C983.23 12.575 1024 4.696 1065.83 4.696Z" fill="#fff"/></svg>