<svg width="131" height="36" viewBox="0 0 131 36" fill="none" xmlns="http://www.w3.org/2000/svg">
<path d="M14.5062 6.86351L11.875 6.8712L11.5045 4.52024C11.1557 4.17372 10.7162 3.90015 10.1864 3.69943C9.65634 3.49912 9.03153 3.39973 8.31216 3.40178C6.77628 3.40639 5.59573 3.96767 4.77051 5.08562C3.94519 6.20367 3.53535 7.65983 3.54047 9.45433L3.54232 10.0728C3.54775 11.8672 3.96425 13.3251 4.79203 14.446C5.61991 15.5676 6.7856 16.1256 8.28921 16.1211C8.9843 16.1195 9.62058 16.0163 10.1979 15.8125C10.7752 15.6091 11.2212 15.3328 11.5354 14.984L11.8922 12.6306L14.5234 12.6229L14.5338 16.1149C13.8246 16.9417 12.9193 17.6008 11.8174 18.0933C10.7154 18.5853 9.48134 18.8339 8.11523 18.8381C5.74686 18.845 3.80431 18.0303 2.28789 16.3937C0.771582 14.7571 0.00937812 12.6538 0.0018985 10.0831L5.42142e-05 9.48916C-0.00732294 6.92673 0.738179 4.81871 2.23666 3.1653C3.73535 1.51169 5.67688 0.681559 8.06154 0.674489C9.42754 0.670391 10.6612 0.915169 11.7619 1.40934C12.8625 1.90309 13.774 2.5572 14.4959 3.37156L14.5062 6.86351Z" fill="white"/>
<path d="M21.1182 16.2518C21.637 16.2503 22.1086 16.1371 22.5324 15.9119C22.9563 15.6862 23.2857 15.4042 23.5205 15.0653L23.5147 13.1193L21.7575 13.1245C21.0264 13.127 20.4726 13.2998 20.0961 13.6423C19.7197 13.9855 19.5322 14.3973 19.5337 14.8768C19.535 15.3095 19.6755 15.6467 19.9555 15.8896C20.2351 16.1326 20.6228 16.2535 21.1182 16.2518ZM24.1087 18.5428C24.0137 18.3309 23.9305 18.1129 23.8591 17.8888C23.7876 17.6649 23.7319 17.4397 23.6919 17.2112C23.2844 17.6842 22.7882 18.0673 22.2035 18.3599C21.6186 18.652 20.9489 18.7998 20.194 18.8023C18.944 18.8059 17.9503 18.4687 17.2132 17.791C16.4758 17.1129 16.1058 16.1882 16.1021 15.0166C16.0987 13.8216 16.5755 12.8965 17.5328 12.241C18.4901 11.5855 19.8965 11.255 21.752 11.2494L23.5092 11.2442L23.5055 9.99406C23.5036 9.38084 23.3253 8.90583 22.9706 8.56884C22.6158 8.23174 22.0924 8.06412 21.4007 8.06617C21.0075 8.0674 20.6578 8.11391 20.3513 8.2052C20.045 8.29639 19.7975 8.40541 19.6094 8.53175L19.3892 9.90041L16.7947 9.908L16.7981 7.07742C17.4259 6.65119 18.1463 6.29114 18.9591 5.9979C19.7719 5.70476 20.658 5.5565 21.6172 5.55363C23.1977 5.54902 24.4821 5.93263 25.4712 6.70375C26.4601 7.47548 26.9569 8.57683 26.9611 10.0078L26.9766 15.2793C26.9772 15.4759 26.9797 15.6608 26.9843 15.8337C26.9885 16.0065 27.0028 16.1717 27.027 16.3288L28.0769 16.4674L28.0832 18.5311L24.1087 18.5428Z" fill="white"/>
<path d="M29.2833 16.4629L30.9334 16.1038L30.91 8.1907L29.0811 7.84224L29.0748 5.76669L34.1107 5.75173L34.2694 7.61457C34.5661 6.95339 34.9501 6.4373 35.4207 6.06619C35.8913 5.69538 36.4372 5.50901 37.0582 5.50716C37.2392 5.50655 37.4298 5.51987 37.6304 5.54692C37.831 5.57386 37.998 5.60665 38.132 5.64538L37.7757 8.78374L36.3603 8.75239C35.857 8.75393 35.4406 8.85373 35.1111 9.05106C34.7813 9.24871 34.5304 9.52833 34.3586 9.89073L34.377 16.0938L36.0292 16.4431L36.0353 18.5067L29.2895 18.5265L29.2833 16.4629Z" fill="white"/>
<path d="M38.5766 2.65848L38.5704 0.582835L43.8539 0.567261L43.9012 16.0669L45.5651 16.4163L45.5712 18.4799L38.8018 18.4996L38.7956 16.4359L40.4574 16.077L40.4173 3.00684L38.5766 2.65848Z" fill="white"/>
<path d="M52.3832 8.11659C51.7464 8.11833 51.2437 8.36352 50.8757 8.85225C50.5077 9.34079 50.2814 9.98198 50.1974 10.7765L50.2329 10.8351L54.455 10.8226L54.4541 10.516C54.4519 9.78516 54.2792 9.20175 53.936 8.76639C53.5927 8.33114 53.075 8.11433 52.3832 8.11659ZM52.3834 18.7064C50.5435 18.7116 49.0713 18.1262 47.9674 16.9501C46.863 15.7741 46.3082 14.2776 46.303 12.4618L46.3016 11.99C46.2959 10.0952 46.812 8.53278 47.8504 7.30326C48.8884 6.07383 50.284 5.4602 52.0375 5.46307C53.7592 5.45784 55.0973 5.97291 56.0518 7.00797C57.006 8.04282 57.4861 9.44489 57.4914 11.214L57.4968 13.0891L49.8784 13.1116L49.8548 13.1821C49.9203 14.0234 50.2033 14.7144 50.7043 15.2555C51.2051 15.7966 51.884 16.0658 52.7408 16.0633C53.5036 16.0609 54.1364 15.9828 54.639 15.8277C55.1419 15.6729 55.6913 15.4296 56.2881 15.0975L57.226 17.2176C56.7005 17.6359 56.0195 17.9876 55.1829 18.2733C54.3466 18.5585 53.4131 18.7031 52.3834 18.7064Z" fill="white"/>
<path d="M63.1623 2.23192L63.1715 5.66281L65.4123 5.65615L65.4196 8.0738L63.1788 8.08046L63.1979 14.579C63.1994 15.0741 63.3027 15.4275 63.5078 15.639C63.7126 15.851 63.9882 15.9561 64.3341 15.9549C64.57 15.9544 64.7765 15.944 64.9532 15.9239C65.1302 15.9037 65.3285 15.8695 65.5485 15.8216L65.8506 18.3094C65.4659 18.4283 65.0847 18.5181 64.7076 18.5782C64.3303 18.6382 63.9215 18.6688 63.4813 18.6705C62.294 18.6736 61.3791 18.3502 60.7364 17.6995C60.0936 17.0487 59.7702 16.0157 59.766 14.6007L59.7469 8.09071L58.5492 8.09614L58.5419 5.67848L59.7396 5.67305L59.7304 2.24216L63.1623 2.23192Z" fill="white"/>
<path d="M69.989 12.1519C69.9924 13.3154 70.1996 14.2489 70.6104 14.9512C71.0214 15.6539 71.6828 16.0036 72.595 16.0008C73.4833 15.9979 74.133 15.6426 74.5436 14.9335C74.9543 14.2248 75.158 13.2925 75.1546 12.1365L75.1538 11.8888C75.1504 10.7566 74.9393 9.83382 74.5204 9.11926C74.1017 8.40511 73.4441 8.04936 72.5479 8.05193C71.6515 8.05459 70.9999 8.41433 70.5933 9.13094C70.1865 9.84785 69.9848 10.7719 69.9882 11.904L69.989 12.1519ZM66.5446 11.9144C66.539 10.0119 67.0669 8.45162 68.1286 7.23368C69.1904 6.01593 70.6608 5.40414 72.54 5.39851C74.427 5.39297 75.9048 5.99411 76.9739 7.2014C78.0428 8.40931 78.5801 9.96855 78.5858 11.8787L78.5866 12.1265C78.5922 14.045 78.0639 15.6091 77.0023 16.8195C75.9404 18.029 74.4739 18.6369 72.6029 18.6425C70.708 18.6482 69.2261 18.0491 68.1572 16.8457C67.0881 15.6414 66.5508 14.0805 66.5452 12.1621L66.5446 11.9144Z" fill="white"/>
<path d="M79.4665 16.3095L81.1165 15.9505L81.0932 8.0374L79.2642 7.68883L79.258 5.61329L84.2938 5.59843L84.4524 7.42602C84.875 6.77232 85.3964 6.2634 86.0167 5.89997C86.6365 5.53654 87.3317 5.35365 88.1025 5.35119C89.3917 5.3474 90.3992 5.74956 91.1251 6.55715C91.8507 7.36475 92.2163 8.63351 92.2213 10.3633L92.2379 15.9175L93.89 16.2668L93.8962 18.3305L87.3154 18.3503L87.3091 16.2866L88.7824 15.928L88.766 10.3853C88.7635 9.5283 88.5886 8.92133 88.2417 8.56456C87.8946 8.20779 87.3712 8.03053 86.6714 8.03258C86.2155 8.03391 85.8068 8.12767 85.446 8.31332C85.0845 8.49929 84.7828 8.76159 84.54 9.10043L84.5601 15.9405L85.953 16.2906L85.959 18.3542L79.4728 18.3732L79.4665 16.3095Z" fill="white"/>
<path d="M32.0545 23.3407L32.0579 24.4945L31.0356 24.6946L31.0504 29.6778C31.0522 30.3075 31.2229 30.7779 31.5626 31.0896C31.9024 31.401 32.3673 31.5555 32.9574 31.5536C33.5563 31.5521 34.0256 31.3957 34.3657 31.084C34.7058 30.7731 34.8749 30.3001 34.8731 29.6662L34.8583 24.683L33.8413 24.4893L33.838 23.3355L37.7917 23.3239L37.7951 24.4777L36.7728 24.6775L36.7876 29.6607C36.7907 30.7316 36.4401 31.5593 35.7359 32.1424C35.0317 32.7258 34.107 33.0192 32.9618 33.0226C31.8209 33.0263 30.8989 32.7381 30.1955 32.1588C29.4923 31.5798 29.139 30.7544 29.1358 29.6834L29.1211 24.7002L28.1041 24.5065L28.1008 23.3526L29.1171 23.3496L31.0316 23.3441L32.0545 23.3407Z" fill="white"/>
<path d="M38.3214 31.7215L39.2388 31.5223L39.2258 27.1229L38.2089 26.9292L38.2056 25.7749L41.0053 25.7668L41.0935 26.7829C41.3285 26.4193 41.6182 26.1366 41.9631 25.9344C42.3078 25.732 42.6943 25.6305 43.1227 25.6294C43.8396 25.6271 44.3998 25.8508 44.8033 26.2994C45.2067 26.7485 45.4099 27.4541 45.4127 28.4157L45.4219 31.5039L46.3404 31.6977L46.3437 32.8452L42.6851 32.8561L42.6818 31.7085L43.5008 31.5096L43.4916 28.428C43.4903 27.9516 43.393 27.6142 43.2001 27.4156C43.0072 27.2178 42.7162 27.1188 42.3272 27.1199C42.0737 27.1207 41.8464 27.1729 41.6457 27.2764C41.445 27.3794 41.277 27.5254 41.1422 27.7139L41.1535 31.5166L41.9276 31.7108L41.931 32.8582L38.3248 32.8691L38.3214 31.7215Z" fill="white"/>
<path d="M49.7076 24.0429L47.7931 24.0486L47.7887 22.6125L49.7033 22.6069L49.7076 24.0429ZM46.8911 31.6963L47.8151 31.4969L47.802 27.0976L46.7786 26.9039L46.7752 25.7496L49.7126 25.741L49.7297 31.4914L50.6482 31.6851L50.6515 32.8326L46.8945 32.8438L46.8911 31.6963Z" fill="white"/>
<path d="M53.9791 26.8816L53.3106 27.0082L54.2577 30.179L54.3842 30.8472H54.4237L54.5593 30.1782L55.4744 27.0086L54.7922 26.8794L54.7888 25.7252L58.0082 25.7154L58.0115 26.8696L57.3954 26.9697L55.3211 32.8182L53.4918 32.8234L51.3763 26.9877L50.7597 26.8914L50.7564 25.737L53.9758 25.7274L53.9791 26.8816Z" fill="white"/>
<path d="M61.4687 27.0488C61.1146 27.0499 60.8352 27.1862 60.6307 27.4576C60.426 27.7293 60.3003 28.0858 60.2536 28.5274L60.2733 28.5602L62.6206 28.5535L62.6202 28.3829C62.619 27.9764 62.5229 27.652 62.3321 27.4101C62.1412 27.1678 61.8533 27.0476 61.4687 27.0488ZM61.6567 32.936C60.6339 32.939 59.8153 32.6139 59.2015 31.9599C58.5876 31.3062 58.279 30.4741 58.2761 29.4644L58.2754 29.2024C58.2723 28.1489 58.5593 27.2802 59.1364 26.5963C59.7136 25.9132 60.4895 25.5716 61.4643 25.5735C62.4216 25.5705 63.1657 25.8568 63.6963 26.432C64.2269 27.0077 64.4937 27.7872 64.4966 28.7708L64.4996 29.8134L60.2639 29.8257L60.2509 29.8649C60.2873 30.3327 60.4445 30.7171 60.7231 31.0177C61.0015 31.3186 61.3791 31.4683 61.8555 31.4667C62.2794 31.4652 62.6313 31.422 62.9108 31.3357C63.1902 31.2498 63.4958 31.1144 63.8275 30.93L64.3491 32.1085C64.0568 32.341 63.6782 32.5366 63.2131 32.6957C62.7482 32.8543 62.2292 32.9346 61.6567 32.936Z" fill="white"/>
<path d="M65.2601 31.6392L66.1774 31.44L66.1644 27.0406L65.1475 26.847L65.1441 25.6926L67.9438 25.6844L68.0321 26.7199C68.1971 26.3526 68.4105 26.0656 68.6722 25.8591C68.9339 25.6531 69.2373 25.5496 69.5827 25.5486C69.6832 25.5482 69.7893 25.5557 69.9007 25.5705C70.0122 25.5859 70.1051 25.6038 70.1795 25.6254L69.9815 27.3702L69.1946 27.3527C68.9149 27.3534 68.6833 27.4091 68.5001 27.5188C68.3168 27.6285 68.1772 27.7842 68.0818 27.9854L68.092 31.4343L69.0104 31.6285L69.0138 32.7759L65.2634 32.7868L65.2601 31.6392Z" fill="white"/>
<path d="M76.253 28.0982L74.9679 28.1018L74.7619 27.2175C74.6305 27.113 74.4653 27.026 74.2661 26.9565C74.0669 26.8872 73.8472 26.8527 73.6069 26.8536C73.2703 26.8547 73.0039 26.9308 72.8077 27.082C72.6114 27.2336 72.5135 27.4231 72.5143 27.6505C72.5149 27.8647 72.6094 28.0425 72.7978 28.1836C72.9861 28.3254 73.3624 28.4501 73.9266 28.5573C74.8058 28.7297 75.4578 28.9846 75.8828 29.3221C76.3078 29.66 76.5212 30.1258 76.523 30.7201C76.5249 31.3584 76.2521 31.8804 75.7048 32.2861C75.1573 32.6923 74.4356 32.8965 73.5396 32.8995C72.9931 32.901 72.4912 32.8226 72.034 32.6643C71.5767 32.506 71.1707 32.2791 70.8158 31.9826L70.7914 30.3894L72.1289 30.3857L72.394 31.3096C72.5078 31.4052 72.6632 31.4758 72.8601 31.5213C73.057 31.566 73.2624 31.5888 73.4766 31.5881C73.8657 31.5869 74.1616 31.5164 74.3645 31.3757C74.5673 31.235 74.6684 31.0449 74.6676 30.8045C74.667 30.5947 74.5638 30.4133 74.3578 30.261C74.1519 30.1087 73.7735 29.9743 73.2224 29.8578C72.3869 29.6899 71.7557 29.4394 71.3285 29.1061C70.9013 28.7726 70.6869 28.3179 70.6851 27.7409C70.6834 27.1466 70.9267 26.6333 71.415 26.201C71.9033 25.7691 72.5999 25.5518 73.5047 25.5492C74.0555 25.5474 74.5769 25.6201 75.0692 25.7673C75.5614 25.9147 75.9476 26.1036 76.2281 26.3343L76.253 28.0982Z" fill="white"/>
<path d="M80.1422 23.9492L78.2275 23.9548L78.2232 22.5187L80.1379 22.5131L80.1422 23.9492ZM77.3257 31.603L78.2495 31.4033L78.2365 27.0039L77.2132 26.8102L77.2098 25.656L80.1472 25.6474L80.1642 31.3976L81.0827 31.5918L81.0861 32.7393L77.329 32.7505L77.3257 31.603Z" fill="white"/>
<path d="M84.2213 23.8969L84.2265 25.6342L85.4724 25.6305L85.4762 26.9748L84.2304 26.9785L84.2412 30.5913C84.2419 30.8668 84.2994 31.0635 84.4133 31.1811C84.5274 31.2988 84.6804 31.3574 84.8729 31.3565C85.004 31.3562 85.1188 31.3502 85.217 31.3394C85.3154 31.3282 85.4257 31.3092 85.5481 31.2827L85.7161 32.6657C85.5021 32.7318 85.2902 32.7815 85.0804 32.8151C84.8707 32.8483 84.6434 32.8655 84.3987 32.8662C83.7386 32.868 83.2299 32.6881 82.8726 32.3264C82.5152 31.9646 82.3355 31.3902 82.3332 30.6037L82.3224 26.9841L81.6622 26.9875L81.6583 25.6432L82.3185 25.6399L82.3133 23.9025L84.2213 23.8969Z" fill="white"/>
<path d="M93.7568 26.7605L93.0949 26.8606L90.5056 33.7726C90.3016 34.2844 90.0287 34.714 89.6867 35.0601C89.3444 35.4066 88.828 35.5809 88.1374 35.5831C87.9758 35.5835 87.8238 35.5708 87.6817 35.5447C87.5394 35.519 87.3722 35.4824 87.1797 35.4349L87.3985 34.0373C87.4598 34.0463 87.5232 34.0545 87.5888 34.0634C87.6543 34.0716 87.7111 34.0761 87.7592 34.0761C88.0783 34.075 88.3229 33.9966 88.493 33.841C88.663 33.6852 88.7935 33.4912 88.8847 33.2597L89.0994 32.7214L86.8331 26.8861L86.1706 26.783L86.1672 25.6288L89.6423 25.6183L89.6457 26.7725L88.8527 26.9061L89.8315 29.7358L89.9313 30.2469L89.9708 30.2532L91.0821 26.8995L90.2816 26.7707L90.2784 25.6165L93.7534 25.6063L93.7568 26.7605Z" fill="white"/>
<path d="M130.384 11.1144L124.769 17.1694L127.196 6.57794L123.964 8.28924L121.541 1.69622L119.116 8.28924L115.884 6.57794L118.311 17.1694L112.576 10.9853L112.204 13.6856L107.502 12.3143L109.673 17.4432L107.681 17.9865L114.4 23.0041C122.045 20.0554 126.841 20.912 129.65 22.0512C129.237 23.6659 128.626 25.1672 127.817 26.5533C127.591 26.4293 127.354 26.3091 127.102 26.1949C126.126 25.7522 124.953 25.3931 123.541 25.1836C122.998 25.1031 122.418 25.0457 121.803 25.0131C121.631 25.004 121.457 24.997 121.279 24.9919C120.941 24.9824 120.593 24.9807 120.233 24.9868C118.645 25.0142 116.846 25.1984 114.801 25.5906C114.724 25.6055 114.648 25.6179 114.572 25.6317C114.2 25.6992 113.839 25.7558 113.486 25.8019C108.351 26.4734 105.182 24.9531 103.282 23.2191C103.084 22.6507 102.914 22.0747 102.775 21.4909C104.68 23.4788 108.037 25.2205 113.602 23.2968L106.084 17.6835L108.699 16.9705L106.262 11.2106L111.611 12.7709L112.076 9.39858L117.022 14.7315L114.842 5.22055L118.729 7.27847L121.099 0.833191C121.41 0.874175 121.721 0.919155 122.031 0.967619L124.351 7.27847L128.238 5.22055L126.059 14.7315L130.388 10.0627L130.384 11.1144Z" fill="white"/>
<path d="M113.582 26.996C108.286 27.4194 105.302 25.9424 103.617 24.1134C103.891 24.7846 104.203 25.4447 104.557 26.0927C104.575 26.1268 104.595 26.1597 104.614 26.1937C106.191 27.3513 108.84 28.4499 113.291 28.8102C117.965 29.1884 121.038 30.4467 123.06 31.8881C124.282 30.9446 125.354 29.9082 126.273 28.7806C123.984 27.4761 120.116 26.4738 113.582 26.996Z" fill="white"/>
<path d="M104.614 26.1936C107.141 30.7634 111.202 33.3525 115.896 35.3944C116.175 35.5157 116.478 35.5219 116.756 35.3944C118.132 34.7565 119.66 34.1211 120.95 33.3352C121.697 32.8798 122.4 32.3972 123.06 31.8881C121.039 30.4466 117.965 29.1883 113.292 28.8101C108.84 28.4499 106.191 27.3512 104.614 26.1936Z" fill="#030404"/>
<path d="M114.801 25.5905C108.885 26.7253 105.34 25.0985 103.282 23.2208C103.387 23.5204 103.497 23.8181 103.617 24.1133C105.302 25.9423 108.286 27.4193 113.582 26.9959C120.116 26.4737 123.984 27.4759 126.273 28.7805C126.849 28.0736 127.364 27.3307 127.818 26.5514C125.314 25.1763 121.276 24.3483 114.801 25.5905Z" fill="#030404"/>
<path d="M128.238 5.22037L126.059 14.7314L130.388 10.0625C130.394 7.9411 130.39 5.81956 130.411 3.69893C130.416 3.31307 130.323 3.09739 129.918 2.95876C127.337 2.0735 124.712 1.38578 122.031 0.967438L124.351 7.27829L128.238 5.22037Z" fill="#030404"/>
<path d="M113.602 23.2967L106.084 17.6834L108.699 16.9704L106.262 11.2105L111.611 12.7707L112.076 9.39844L117.022 14.7314L114.842 5.22041L118.729 7.27833L121.099 0.833052C120.448 0.747292 119.793 0.677107 119.137 0.624955C113.569 0.183965 108.176 1.05806 102.917 2.88636C102.409 3.06433 102.234 3.29108 102.24 3.83125C102.27 6.21704 102.269 10.9919 102.269 10.9919C102.269 13.1431 102.247 15.2942 102.273 17.4454C102.291 18.8318 102.461 20.1812 102.775 21.4923C104.68 23.4805 108.037 25.2202 113.602 23.2967Z" fill="#030404"/>
<path d="M129.651 22.0517C130.008 20.6603 130.217 19.1848 130.272 17.6235C130.349 15.4551 130.375 13.2849 130.384 11.1144L124.769 17.1694L127.196 6.57794L123.964 8.28924L121.54 1.69621L119.116 8.28924L115.884 6.57794L118.311 17.1694L112.576 10.9853L112.204 13.6856L107.502 12.3143L109.672 17.4432L107.681 17.9865L114.4 23.0041C122.046 20.055 126.842 20.9123 129.651 22.0517Z" fill="#E91E27"/>
<path d="M116.284 0C111.888 0 107.334 0.808413 102.749 2.4026C102.024 2.65619 101.719 3.08508 101.728 3.83725C101.758 6.19292 101.756 10.944 101.756 10.9918C101.756 11.6606 101.754 12.3293 101.752 12.998C101.747 14.4571 101.743 15.9659 101.761 17.4518C101.779 18.8584 101.952 20.2566 102.276 21.6078C102.276 21.6087 102.276 21.6097 102.277 21.6107C102.277 21.6111 102.277 21.6114 102.277 21.6118C102.419 22.204 102.595 22.8013 102.797 23.3871C102.798 23.39 102.799 23.393 102.8 23.3958C102.833 23.4829 102.862 23.562 102.889 23.6359C102.978 23.8794 103.047 24.0718 103.143 24.3063C103.423 24.9966 103.748 25.6802 104.107 26.3382C104.119 26.3593 104.13 26.3804 104.143 26.4015C104.15 26.4147 104.158 26.428 104.165 26.4415C105.39 28.6551 107.014 30.5219 109.13 32.1482C110.894 33.5031 112.979 34.684 115.692 35.8641C115.899 35.9543 116.114 36 116.332 36C116.553 36 116.768 35.9528 116.97 35.8597C117.266 35.7223 117.563 35.5883 117.877 35.4464C119.009 34.9344 120.18 34.405 121.217 33.7727C121.974 33.3107 122.699 32.8132 123.372 32.2937C124.62 31.3308 125.73 30.2577 126.67 29.1042C127.26 28.38 127.795 27.6097 128.258 26.8147C128.259 26.8128 128.26 26.8109 128.261 26.8089C129.084 25.3976 129.715 23.852 130.138 22.2145C130.141 22.2027 130.145 22.1907 130.148 22.1786C130.514 20.7479 130.728 19.2215 130.783 17.6415C130.867 15.2841 130.888 12.9162 130.896 11.1167L130.9 10.0646C130.902 9.47421 130.902 8.88445 130.903 8.29459C130.906 6.78944 130.908 5.23307 130.923 3.70395C130.928 3.30138 130.846 2.73426 130.083 2.47401C127.318 1.52553 124.71 0.867021 122.11 0.461277C121.791 0.411379 121.473 0.365579 121.165 0.32521C120.492 0.236479 119.823 0.165576 119.177 0.114346C118.22 0.0385251 117.246 0 116.284 0ZM116.284 0.512302C117.23 0.512302 118.181 0.549291 119.137 0.625009C119.794 0.677161 120.448 0.747347 121.099 0.833106C121.41 0.87409 121.721 0.919071 122.031 0.967534C124.712 1.38588 127.337 2.0736 129.918 2.95885C130.323 3.09748 130.416 3.31316 130.411 3.69903C130.39 5.81965 130.394 7.9412 130.388 10.0626L130.384 11.1143C130.375 13.2848 130.349 15.455 130.272 17.6234C130.217 19.1847 130.008 20.6602 129.651 22.0516C129.651 22.0514 129.651 22.0513 129.65 22.0511C129.237 23.6651 128.626 25.1658 127.818 26.5515V26.5519C127.818 26.5523 127.817 26.5529 127.817 26.5532C127.363 27.3318 126.848 28.0742 126.273 28.7805C125.354 29.9081 124.282 30.9446 123.06 31.8881C122.4 32.3972 121.697 32.8798 120.95 33.3352C119.66 34.1211 118.132 34.7565 116.756 35.3944C116.618 35.4574 116.476 35.4877 116.332 35.4877C116.185 35.4877 116.037 35.4557 115.896 35.3944C111.202 33.3525 107.141 30.7634 104.614 26.1936C104.595 26.1597 104.575 26.1267 104.557 26.0927C104.203 25.4446 103.891 24.7846 103.617 24.1134C103.497 23.8182 103.418 23.5917 103.282 23.219C103.084 22.6511 102.915 22.0756 102.775 21.4923V21.4908C102.46 20.1802 102.291 18.8313 102.273 17.4454C102.247 15.2943 102.269 13.1431 102.269 10.992C102.269 10.992 102.27 6.2171 102.24 3.8313C102.234 3.29113 102.409 3.06439 102.917 2.88641C107.273 1.37195 111.721 0.512302 116.284 0.512302Z" fill="white"/>
</svg>
