<svg xmlns="http://www.w3.org/2000/svg" viewBox="0 0 640 640"><!--!Font Awesome Pro 7.2.0 by @fontawesome - https://fontawesome.com License - https://fontawesome.com/license (Commercial License) Copyright 2026 Fonticons, Inc.--><path d="M176 64C184.8 64 192 71.2 192 80L192 128L384 128L384 80C384 71.2 391.2 64 400 64C408.8 64 416 71.2 416 80L416 128L448 128C483.3 128 512 156.7 512 192L512 278C501.6 275.3 491 273.5 480 272.6L480 255.9L96 255.9L96 479.9C96 497.6 110.3 511.9 128 511.9L278 511.9C280.9 523 284.7 533.7 289.4 543.9L128 544C92.7 544 64 515.3 64 480L64 192C64 156.7 92.7 128 128 128L160 128L160 80C160 71.2 167.2 64 176 64zM448 160L128 160C110.3 160 96 174.3 96 192L96 224L480 224L480 192C480 174.3 465.7 160 448 160zM464 576C525.9 576 576 525.9 576 464C576 402.1 525.9 352 464 352C402.1 352 352 402.1 352 464C352 525.9 402.1 576 464 576zM464 320C543.5 320 608 384.5 608 464C608 543.5 543.5 608 464 608C384.5 608 320 543.5 320 464C320 384.5 384.5 320 464 320zM464 384C472.8 384 480 391.2 480 400L480 448L512 448C520.8 448 528 455.2 528 464C528 472.8 520.8 480 512 480L464 480C455.2 480 448 472.8 448 464L448 400C448 391.2 455.2 384 464 384z"/></svg>