<svg xmlns="http://www.w3.org/2000/svg" viewBox="0 0 640 640"><!--!Font Awesome Pro v7.1.0 by @fontawesome - https://fontawesome.com License - https://fontawesome.com/license (Commercial License) Copyright 2025 Fonticons, Inc.--><path d="M104 64L344 64C366.1 64 384 81.9 384 104L384 296C384 318.1 366.1 336 344 336L254.5 336C241.4 336 228.7 340.6 218.6 349L160 397.8L160 352C160 343.2 152.8 336 144 336L104 336C81.9 336 64 318.1 64 296L64 104C64 81.9 81.9 64 104 64zM32 104L32 296C32 335.8 64.2 368 104 368L128 368L128 432C128 438.2 131.6 443.9 137.2 446.5C142.8 449.1 149.5 448.3 154.2 444.3L239.1 373.6C243.4 370 248.9 368 254.5 368L344 368C383.8 368 416 335.8 416 296L416 104C416 64.2 383.8 32 344 32L104 32C64.2 32 32 64.2 32 104zM256 456L256 422L224 448.7L224 456.1C224 495.9 256.2 528.1 296 528.1L385.5 528.1C391.1 528.1 396.6 530.1 400.9 533.7L485.8 604.4C490.6 608.4 497.2 609.2 502.8 606.6C508.4 604 512 598.3 512 592.1L512 528.1L536 528.1C575.8 528.1 608 495.9 608 456.1L608 264.1C608 224.3 575.8 192.1 536 192.1L464 192.1L464 224.1L536 224.1C558.1 224.1 576 242 576 264.1L576 456.1C576 478.2 558.1 496.1 536 496.1L496 496.1C487.2 496.1 480 503.3 480 512.1L480 557.9L421.4 509C411.3 500.6 398.6 496 385.5 496L296 496C273.9 496 256 478.1 256 456zM224 120C244.6 120 261.2 136.7 261.2 157.2C261.2 175 250.2 184.2 238 189.7C223.3 196.3 207.9 211.2 207.9 232C207.9 240.8 215.1 248 223.9 248C232.7 248 239.9 240.8 239.9 232C239.9 228.2 243.3 222.4 251 218.9C268.8 210.9 293.1 193 293.1 157.2C293.1 119 262.1 88 223.9 88C185.7 88 154.7 119 154.7 157.2C154.7 166 161.9 173.2 170.7 173.2C179.5 173.2 186.7 166 186.7 157.2C186.8 136.7 203.4 120 224 120zM244 296C244 285 235 276 224 276C213 276 204 285 204 296C204 307 213 316 224 316C235 316 244 307 244 296z"/></svg>