<svg width="120" height="99" viewBox="0 0 120 99" fill="none" xmlns="http://www.w3.org/2000/svg">
<path d="M18.539 62.1091L15.1763 62.1189L14.7028 59.1143C14.257 58.6715 13.6953 58.3218 13.0183 58.0654C12.3409 57.8094 11.5423 57.6823 10.6231 57.6849C8.66009 57.6908 7.15135 58.4082 6.09678 59.837C5.04199 61.2658 4.51814 63.1268 4.52478 65.4202L4.52718 66.2106C4.53401 68.5038 5.06633 70.3671 6.12433 71.7995C7.18227 73.2332 8.67202 73.9462 10.5937 73.9404C11.482 73.9383 12.2951 73.8065 13.0331 73.546C13.7708 73.2861 14.3407 72.9329 14.7422 72.4872L15.1984 69.4795L18.561 69.4697L18.5742 73.9324C17.6679 74.9891 16.5109 75.8314 15.1027 76.4609C13.6943 77.0897 12.1172 77.4073 10.3713 77.4127C7.34458 77.4217 4.86198 76.3804 2.92391 74.2887C0.986072 72.1971 0.0120087 69.5092 0.00246056 66.2238L7.02708e-05 65.4646C-0.00942559 62.1898 0.943478 59.4958 2.85855 57.3827C4.77386 55.2694 7.25508 54.2086 10.3028 54.1995C12.0484 54.1942 13.6249 54.507 15.0318 55.1387C16.4384 55.7697 17.6033 56.6055 18.5258 57.6464L18.539 62.1091ZM26.989 74.1074C27.652 74.1053 28.2547 73.9607 28.7964 73.6728C29.338 73.3844 29.759 73.0241 30.0592 72.5911L30.0517 70.104L27.8059 70.1107C26.8716 70.1138 26.1639 70.3347 25.6827 70.7724C25.2018 71.2111 24.9621 71.7374 24.9639 72.3501C24.9656 72.903 25.1451 73.334 25.503 73.6445C25.8604 73.955 26.3559 74.1095 26.989 74.1074ZM30.811 77.0352C30.6894 76.7644 30.5831 76.4858 30.4919 76.1995C30.4006 75.9132 30.3293 75.6254 30.2782 75.3334C29.7575 75.938 29.1233 76.4277 28.3759 76.8015C27.6285 77.1748 26.7725 77.3637 25.8079 77.3668C24.2103 77.3714 22.9403 76.9405 21.9983 76.0744C21.056 75.2079 20.583 74.026 20.5783 72.5288C20.574 71.0015 21.1834 69.8193 22.4069 68.9815C23.6302 68.1437 25.4276 67.7215 27.799 67.7144L30.0448 67.7076L30.0399 66.1099C30.0376 65.3262 29.8097 64.719 29.3563 64.2883C28.903 63.8576 28.2341 63.6434 27.3501 63.646C26.8474 63.6475 26.4005 63.707 26.0089 63.8237C25.6173 63.9403 25.3012 64.0795 25.0607 64.241L24.7792 65.9901L21.4635 65.9999L21.4678 62.3824C22.2701 61.8376 23.1908 61.3776 24.2296 61.0027C25.2684 60.6281 26.4007 60.4386 27.6267 60.4349C29.6464 60.4291 31.288 60.9193 32.5521 61.9048C33.816 62.8911 34.4509 64.2986 34.4563 66.1274L34.4761 72.8645C34.4769 73.1158 34.4799 73.3521 34.4859 73.5729C34.4913 73.7938 34.5096 74.005 34.5405 74.2058L35.8824 74.3829L35.8903 77.0203L30.811 77.0352ZM37.4242 74.3773L39.533 73.9184L39.5031 63.8054L37.1657 63.36L37.1577 60.7074L43.5935 60.6883L43.7964 63.069C44.1756 62.224 44.6664 61.5645 45.2677 61.0902C45.8692 60.6162 46.5668 60.3781 47.3606 60.3758C47.5918 60.375 47.8354 60.392 48.0918 60.4264C48.3482 60.4611 48.5616 60.503 48.7329 60.5524L48.2774 64.5634L46.4685 64.5231C45.8254 64.5252 45.2933 64.6527 44.8721 64.9049C44.4506 65.1575 44.13 65.5149 43.9105 65.9781L43.9339 73.9056L46.0455 74.3521L46.0532 76.9893L37.4321 77.0147L37.4242 74.3773ZM49.301 56.7349L49.2931 54.0822L56.0453 54.0624L56.1059 73.8711L58.2325 74.3176L58.2402 76.9549L49.5889 76.9801L49.5809 74.3428L51.7047 73.8839L51.6535 57.1801L49.301 56.7349ZM66.9461 63.7103C66.1322 63.7126 65.4898 64.026 65.0195 64.6506C64.5491 65.275 64.26 66.0944 64.1526 67.1097L64.1979 67.1847L69.5937 67.1688L69.5927 66.7769C69.5899 65.8429 69.3692 65.0973 68.9306 64.5409C68.4918 63.9846 67.8301 63.7076 66.9461 63.7103ZM66.9462 77.2443C64.5949 77.251 62.7134 76.5028 61.3025 74.9998C59.8912 73.4968 59.1822 71.5844 59.1754 69.2636L59.1737 68.6607C59.1664 66.239 59.826 64.2423 61.153 62.671C62.4796 61.0998 64.2634 60.3156 66.5042 60.3191C68.7047 60.3124 70.4146 60.9707 71.6345 62.2936C72.854 63.6161 73.4675 65.4081 73.4743 67.669L73.4813 70.0653L63.7448 70.0942L63.7146 70.1843C63.7984 71.2594 64.16 72.1425 64.8003 72.834C65.4403 73.5256 66.308 73.8696 67.4033 73.8664C68.3779 73.8634 69.1866 73.7635 69.8289 73.5652C70.4716 73.3675 71.1739 73.0565 71.9366 72.6322L73.1353 75.3417C72.4635 75.8761 71.5933 76.3257 70.5241 76.6908C69.4551 77.0553 68.2623 77.2401 66.9462 77.2443ZM80.7219 56.1898L80.7338 60.5746L83.5974 60.5661L83.6067 63.6558L80.743 63.6643L80.7675 71.9695C80.7693 72.6023 80.9014 73.054 81.1634 73.3242C81.4253 73.5951 81.7774 73.7295 82.2195 73.728C82.521 73.7274 82.7849 73.714 83.0107 73.6883C83.2369 73.6625 83.4903 73.6188 83.7714 73.5575L84.1576 76.7371C83.6659 76.889 83.1788 77.0038 82.6968 77.0805C82.2146 77.1573 81.6922 77.1964 81.1297 77.1985C79.6123 77.2025 78.4429 76.7891 77.6216 75.9575C76.8001 75.126 76.3868 73.8057 76.3815 71.9973L76.3569 63.6774L74.8264 63.6843L74.8171 60.5946L76.3478 60.5876L76.3359 56.2029L80.7219 56.1898ZM89.4463 68.8677C89.4508 70.3548 89.7154 71.5478 90.2406 72.4453C90.7658 73.3433 91.611 73.7903 92.7768 73.7866C93.9122 73.7831 94.7425 73.3289 95.2671 72.4227C95.7921 71.5169 96.0524 70.3254 96.0481 68.8481L96.0471 68.5315C96.0426 67.0845 95.7729 65.9052 95.2376 64.9919C94.7023 64.0793 93.862 63.6246 92.7166 63.628C91.5712 63.6313 90.7383 64.0912 90.2188 65.0069C89.6987 65.9232 89.441 67.1041 89.4454 68.5511L89.4463 68.8677ZM85.0444 68.5642C85.0372 66.1327 85.712 64.1387 87.0688 62.5821C88.4258 61.0258 90.305 60.244 92.7065 60.2368C95.1181 60.2297 97.0068 60.998 98.3731 62.541C99.7392 64.0846 100.426 66.0773 100.433 68.5186L100.434 68.8353C100.441 71.2873 99.7662 73.2861 98.4094 74.833C97.0524 76.3787 95.1781 77.1558 92.7868 77.1629C90.3652 77.1701 88.4714 76.4044 87.1053 74.8664C85.739 73.3274 85.0524 71.3326 85.0452 68.8808L85.0444 68.5642ZM101.559 74.1811L103.668 73.7222L103.638 63.6092L101.3 63.1638L101.292 60.5112L107.728 60.4921L107.931 62.8278C108.471 61.9923 109.137 61.3421 109.93 60.8776C110.722 60.4131 111.61 60.1793 112.596 60.1763C114.243 60.1714 115.531 60.6852 116.458 61.7173C117.386 62.7495 117.853 64.371 117.859 66.5818L117.881 73.68L119.992 74.1265L120 76.7639L111.59 76.7891L111.582 74.1517L113.464 73.6935L113.444 66.6099C113.44 65.5146 113.217 64.7389 112.773 64.2829C112.33 63.8269 111.661 63.6004 110.767 63.6029C110.184 63.6048 109.662 63.7245 109.2 63.9619C108.739 64.1995 108.353 64.5347 108.043 64.9677L108.068 73.7094L109.848 74.1569L109.856 76.7942L101.567 76.8185L101.559 74.1811ZM23.0985 83.1671L23.1028 84.6418L21.7963 84.8976L21.8152 91.2661C21.8175 92.0709 22.0356 92.672 22.4698 93.0704C22.904 93.4682 23.4982 93.6657 24.2523 93.6634C25.0176 93.6614 25.6175 93.4616 26.0522 93.0632C26.4868 92.6659 26.703 92.0614 26.7005 91.2513L26.6817 84.8828L25.382 84.6351L25.3777 83.1605L30.4305 83.1457L30.4348 84.6204L29.1285 84.8756L29.1473 91.2441C29.1514 92.6128 28.7033 93.6706 27.8033 94.4158C26.9033 95.1615 25.7214 95.5364 24.2578 95.5408C22.7999 95.5455 21.6215 95.1771 20.7225 94.4368C19.8238 93.6968 19.3724 92.642 19.3683 91.2732L19.3495 84.9047L18.0497 84.6571L18.0455 83.1824L19.3444 83.1786L21.7911 83.1715L23.0985 83.1671ZM31.1075 93.8781L32.2799 93.6233L32.2632 88.001L30.9637 87.7534L30.9594 86.2782L34.5375 86.2677L34.6504 87.5663C34.9505 87.1017 35.3208 86.7405 35.7615 86.482C36.2021 86.2233 36.6961 86.0936 37.2436 86.0922C38.1597 86.0893 38.8757 86.3751 39.3914 86.9485C39.9069 87.5224 40.1666 88.4241 40.1702 89.653L40.1819 93.5999L41.3557 93.8476L41.36 95.3141L36.6843 95.328L36.68 93.8614L37.7268 93.6071L37.715 89.6689C37.7133 89.0601 37.589 88.6288 37.3425 88.375C37.0959 88.1221 36.7241 87.9956 36.2269 87.9971C35.9029 87.9981 35.6125 88.0649 35.356 88.1971C35.0994 88.3287 34.8848 88.5152 34.7124 88.7561L34.7269 93.6161L35.7163 93.8643L35.7206 95.3309L31.1118 95.3446L31.1075 93.8781ZM45.6593 84.0646L43.2123 84.0718L43.2068 82.2364L45.6538 82.2293L45.6593 84.0646ZM42.0598 93.8456L43.2405 93.5909L43.2238 87.9685L41.9158 87.721L41.9116 86.2458L45.6657 86.2348L45.6874 93.5837L46.8612 93.8314L46.8656 95.298L42.0641 95.3122L42.0598 93.8456ZM51.1182 87.6923L50.2638 87.854L51.4741 91.9063L51.6359 92.7603H51.6862L51.8597 91.9054L53.0291 87.8545L52.1572 87.6894L52.1529 86.2143L56.2672 86.2019L56.2715 87.6771L55.4842 87.8048L52.8332 95.2793L50.4953 95.2859L47.7918 87.8278L47.0037 87.7047L46.9994 86.2296L51.1139 86.2172L51.1182 87.6923ZM60.6898 87.906C60.2372 87.9075 59.8802 88.0816 59.6187 88.4284C59.3571 88.7757 59.1965 89.2313 59.1368 89.7957L59.1621 89.8377L62.162 89.8291L62.1613 89.6112C62.1598 89.0915 62.037 88.6769 61.7931 88.3678C61.5493 88.0582 61.1813 87.9046 60.6898 87.906ZM60.93 95.43C59.6228 95.4338 58.5767 95.0183 57.7922 94.1824C57.0076 93.3471 56.6134 92.2837 56.6096 90.9932L56.6087 90.6583C56.6046 89.312 56.9714 88.2018 57.7091 87.3278C58.4467 86.4548 59.4384 86.0183 60.6842 86.0206C61.9077 86.0168 62.8584 86.3827 63.5366 87.1179C64.2146 87.8535 64.5557 88.8497 64.5593 90.1068L64.5632 91.4392L59.15 91.4551L59.1334 91.5051C59.1799 92.1029 59.3809 92.5943 59.7369 92.9783C60.0927 93.3628 60.5751 93.5542 61.1842 93.5522C61.7259 93.5503 62.1756 93.495 62.5327 93.3848C62.8898 93.2751 63.2805 93.1018 63.7043 92.8662L64.3708 94.3724C63.9974 94.6696 63.5135 94.9195 62.9192 95.1228C62.3249 95.3255 61.6617 95.4282 60.93 95.43ZM65.5353 93.7726L66.7077 93.5179L66.691 87.8955L65.3914 87.648L65.387 86.1728L68.9652 86.1623L69.0779 87.4857C69.2888 87.0163 69.5616 86.6494 69.896 86.3855C70.2305 86.1222 70.6181 85.9901 71.0596 85.9886C71.188 85.9882 71.3236 85.9978 71.4661 86.0168C71.6086 86.0364 71.7272 86.0592 71.8224 86.0869L71.5692 88.3168L70.5637 88.2944C70.206 88.2953 69.9102 88.3664 69.676 88.5066C69.4418 88.6469 69.2635 88.8458 69.1414 89.103L69.1544 93.5107L70.3283 93.7589L70.3326 95.2253L65.5395 95.2392L65.5353 93.7726ZM79.5843 89.2471L77.942 89.2518L77.6788 88.1217C77.5108 87.9881 77.2996 87.8769 77.0451 87.7882C76.7906 87.6994 76.5097 87.6555 76.2027 87.6564C75.7724 87.6579 75.432 87.7553 75.1812 87.9485C74.9303 88.1422 74.8053 88.3845 74.8062 88.6752C74.807 88.9489 74.9278 89.176 75.1686 89.3563C75.4092 89.5376 75.8902 89.6969 76.6112 89.8338C77.7348 90.0543 78.5681 90.3802 79.1114 90.8113C79.6544 91.2432 79.9272 91.8385 79.9294 92.5981C79.9318 93.4139 79.5832 94.0809 78.8838 94.5994C78.184 95.1184 77.2617 95.3794 76.1166 95.3832C75.4182 95.3852 74.7767 95.285 74.1925 95.0827C73.608 94.8805 73.0891 94.5904 72.6355 94.2116L72.6043 92.1754L74.3137 92.1706L74.6525 93.3513C74.798 93.4735 74.9967 93.5638 75.2482 93.6219C75.4998 93.6792 75.7624 93.7082 76.0361 93.7073C76.5334 93.7058 76.9115 93.6157 77.1708 93.4358C77.4299 93.256 77.5591 93.0132 77.5582 92.7059C77.5576 92.4378 77.4255 92.206 77.1623 92.0112C76.8991 91.8166 76.4154 91.6449 75.7112 91.4961C74.6435 91.2813 73.8368 90.9612 73.2908 90.5353C72.7448 90.1092 72.4708 89.528 72.4686 88.7905C72.4664 88.031 72.7772 87.375 73.4013 86.8226C74.0253 86.2706 74.9157 85.9929 76.072 85.9896C76.7759 85.9872 77.4424 86.0803 78.0714 86.2682C78.7005 86.4566 79.1941 86.6981 79.5525 86.9929L79.5843 89.2471ZM84.5547 83.9448L82.1077 83.952L82.1022 82.1167L84.5492 82.1095L84.5547 83.9448ZM80.9552 93.7264L82.1359 93.4711L82.1192 87.8487L80.8114 87.6012L80.807 86.126L84.5611 86.1151L84.5828 93.4639L85.7567 93.7121L85.761 95.1786L80.9595 95.1929L80.9552 93.7264ZM89.7679 83.8781L89.7746 86.0983L91.3667 86.0936L91.3717 87.8116L89.7795 87.8163L89.7932 92.4335C89.7942 92.7855 89.8677 93.0369 90.0133 93.1873C90.1591 93.3375 90.3546 93.4125 90.6006 93.4116C90.7682 93.411 90.9148 93.4033 91.0405 93.3895C91.1662 93.3753 91.3071 93.3509 91.4636 93.317L91.6782 95.0846C91.4047 95.169 91.1339 95.2325 90.8659 95.2755C90.5978 95.3179 90.3075 95.3399 89.9947 95.3408C89.151 95.3433 88.5009 95.1132 88.0443 94.651C87.5875 94.1886 87.3578 93.4544 87.3548 92.4492L87.341 87.8235L86.4973 87.8278L86.4923 86.1098L87.3361 86.1055L87.3294 83.8851L89.7679 83.8781ZM101.954 87.5377L101.108 87.6656L97.7995 96.4991C97.5387 97.1532 97.1899 97.7023 96.7528 98.1446C96.3155 98.5873 95.6555 98.8101 94.7729 98.813C94.5662 98.8135 94.372 98.7973 94.1903 98.7638C94.0086 98.7309 93.7948 98.6842 93.549 98.6236L93.8285 96.8374C93.9068 96.8489 93.9879 96.8593 94.0717 96.8708C94.1555 96.8813 94.228 96.887 94.2895 96.887C94.6973 96.8856 95.0098 96.7854 95.2272 96.5865C95.4445 96.3875 95.6113 96.1395 95.7278 95.8436L96.0024 95.1557L93.1059 87.698L92.2593 87.5663L92.255 86.0913L96.6961 86.0778L96.7004 87.553L95.6869 87.7237L96.9379 91.34L97.0655 91.9932L97.1159 92.0013L98.5361 87.7152L97.5132 87.5506L97.5089 86.0755L101.95 86.0626L101.954 87.5377ZM78.09 14.2244L70.905 21.973L74.011 8.41904L69.8743 10.6091L66.7724 2.17189L63.6705 10.6091L59.5338 8.41904L62.6399 21.973L55.3016 14.0592L54.825 17.5148L48.808 15.76L51.5849 22.3235L49.0358 23.0188L57.6349 29.4398C67.418 25.6664 73.5551 26.7625 77.1512 28.2203C76.6219 30.2867 75.8392 32.2079 74.8053 33.9817C74.5159 33.8229 74.2123 33.6692 73.8902 33.5231C72.6405 32.9565 71.1388 32.4969 69.3323 32.229C68.6375 32.1258 67.8957 32.0524 67.1083 32.0107C66.8886 31.9991 66.6653 31.9901 66.4381 31.9837C66.0058 31.9715 65.5596 31.9692 65.0994 31.9771C63.0681 32.012 60.7648 32.2478 58.1475 32.7497C58.0489 32.7687 57.9528 32.7846 57.8553 32.8024C57.3798 32.8887 56.9165 32.9611 56.465 33.0201C49.8944 33.8794 45.8388 31.9339 43.4069 29.7149C43.1542 28.9876 42.9372 28.2504 42.7582 27.5032C45.1961 30.0473 49.4924 32.2761 56.6132 29.8144L46.9932 22.631L50.3392 21.7186L47.221 14.3476L54.0663 16.3442L54.6617 12.0286L60.99 18.8533L58.2006 6.68196L63.1749 9.31547L66.2075 1.06752C66.6061 1.12003 67.0038 1.1775 67.4006 1.23941L70.3698 9.31547L75.344 6.68196L72.5549 18.8533L78.095 12.8786L78.09 14.2244Z" fill="white"/>
<path d="M56.5887 34.5483C49.8119 35.09 45.9916 33.2 43.8367 30.8593C44.1858 31.7183 44.586 32.563 45.0387 33.3924C45.0625 33.4359 45.0873 33.4782 45.1114 33.5214C47.1295 35.0029 50.5198 36.4089 56.2164 36.8699C62.1963 37.3539 66.1304 38.9641 68.7171 40.8087C70.2819 39.6013 71.653 38.275 72.8288 36.832C69.9006 35.1626 64.9499 33.88 56.5887 34.5483Z" fill="white"/>
<path d="M45.1114 33.5214C48.3458 39.3696 53.5431 42.6828 59.5498 45.2958C59.9065 45.451 60.2947 45.4591 60.6494 45.2958C62.4108 44.4796 64.3674 43.6663 66.0179 42.6607C66.9733 42.0778 67.8728 41.4602 68.7171 40.8087C66.1304 38.9641 62.1963 37.3539 56.2164 36.8699C50.5198 36.4089 47.1295 35.0029 45.1114 33.5214ZM58.1475 32.7498C50.5765 34.202 46.0407 32.1202 43.4077 29.7172C43.5411 30.1006 43.6832 30.4816 43.8367 30.8593C45.9916 33.2 49.8119 35.09 56.5887 34.5483C64.9499 33.88 69.9006 35.1626 72.8288 36.8321C73.5659 35.9274 74.2256 34.9766 74.8066 33.9795C71.6014 32.2197 66.4348 31.1603 58.1475 32.7498ZM75.344 6.68198L72.5549 18.8533L78.095 12.8786C78.1024 10.1638 78.0979 7.44883 78.1238 4.735C78.1298 4.24127 78.0129 3.96515 77.4929 3.7879C74.1906 2.65493 70.8312 1.77483 67.4006 1.23943L70.3698 9.31549L75.344 6.68198Z" fill="#211D1D"/>
<path d="M56.6132 29.8144L46.9931 22.631L50.3392 21.7186L47.2209 14.3476L54.0663 16.3442L54.6617 12.0287L60.9899 18.8533L58.2006 6.68198L63.1749 9.31548L66.2074 1.06754C65.3746 0.957817 64.5378 0.86795 63.6963 0.801207C56.5722 0.23694 49.6699 1.35542 42.9409 3.69516C42.2899 3.92282 42.0663 4.21305 42.0742 4.90428C42.1126 7.95745 42.1106 14.0679 42.1106 14.0679C42.1106 16.8207 42.0823 19.5736 42.1166 22.3265C42.1394 24.1007 42.3565 25.8274 42.7587 27.5052C45.1963 30.0496 49.493 32.2759 56.6132 29.8144Z" fill="#211D1D"/>
<path d="M77.1528 28.221C77.6083 26.4404 77.8756 24.5522 77.9464 22.5542C78.0453 19.7792 78.0773 17.0022 78.09 14.2245L70.905 21.9731L74.0111 8.41905L69.8743 10.6091L66.7724 2.17189L63.6705 10.6091L59.5339 8.41905L62.6399 21.9731L55.3016 14.0592L54.825 17.5148L48.808 15.76L51.5849 22.3235L49.0358 23.0188L57.635 29.4398C67.4193 25.6657 73.5568 26.7628 77.1528 28.221Z" fill="#211D1D"/>
<path d="M60.047 7.62939e-06C54.4207 7.62939e-06 48.5926 1.03449 42.7246 3.07486C41.797 3.39944 41.4064 3.94843 41.4177 4.91121C41.4555 7.92611 41.4538 14.0069 41.4538 14.0679C41.4538 14.9239 41.4511 15.7799 41.4484 16.6357C41.4425 18.5031 41.4363 20.4341 41.46 22.3359C41.4831 24.1361 41.7048 25.9257 42.1189 27.6549C42.1192 27.6562 42.1195 27.6575 42.1199 27.6587C42.12 27.6591 42.12 27.6596 42.1201 27.66C42.3019 28.4181 42.5261 29.1826 42.7867 29.9323C42.788 29.936 42.7893 29.9397 42.7907 29.9433C42.8317 30.0549 42.8685 30.1561 42.903 30.2507C43.0167 30.5623 43.1065 30.8085 43.2285 31.1087C43.5876 31.9922 44.0028 32.867 44.4626 33.7093C44.4774 33.7363 44.4926 33.7632 44.5079 33.7901C44.5176 33.8071 44.5273 33.8241 44.5368 33.8413C46.1039 36.6745 48.1826 39.0637 50.8916 41.1453C53.1485 42.8794 55.817 44.3906 59.2893 45.9012C59.5546 46.0165 59.8302 46.075 60.1086 46.075C60.3914 46.075 60.666 46.0146 60.9248 45.8954C61.3044 45.7196 61.6837 45.548 62.0855 45.3664C63.5344 44.7111 65.0327 44.0336 66.3609 43.2243C67.33 42.6332 68.2582 41.9963 69.1198 41.3314C70.7172 40.0991 72.137 38.7256 73.3398 37.2493C74.095 36.3225 74.7788 35.3366 75.3721 34.3191C75.3735 34.3166 75.3751 34.3142 75.3765 34.3117C76.4288 32.5054 77.2365 30.5272 77.7777 28.4314C77.7828 28.4164 77.7873 28.401 77.7912 28.3854C78.2596 26.5546 78.5334 24.6008 78.605 22.5787C78.7126 19.5615 78.7385 16.5309 78.7489 14.2277L78.7542 12.8812C78.7561 12.1256 78.7573 11.3707 78.7583 10.6159C78.7612 8.68957 78.7642 6.69765 78.7828 4.74049C78.789 4.2252 78.6845 3.49937 77.7079 3.16629C74.1695 1.95234 70.8313 1.1096 67.5037 0.590393C67.0945 0.526524 66.6879 0.467876 66.295 0.416153C65.4334 0.302647 64.5771 0.211864 63.7498 0.146297C62.5246 0.0492477 61.2789 7.62939e-06 60.047 7.62939e-06ZM60.047 0.655704C61.2576 0.655704 62.4746 0.702988 63.6979 0.799904C64.5395 0.86665 65.3765 0.956516 66.2093 1.06623C66.6081 1.11874 67.0058 1.17622 67.4026 1.23813C70.8337 1.77366 74.1935 2.65388 77.4962 3.78686C78.0163 3.96424 78.1331 4.24036 78.1271 4.73422C78.1013 7.44831 78.1056 10.1636 78.0985 12.8787L78.0934 14.2247C78.0806 17.0028 78.0487 19.7803 77.9497 22.5555C77.879 24.5538 77.6115 26.4421 77.1561 28.2231C77.1555 28.2228 77.155 28.2226 77.1545 28.2224C76.6254 30.288 75.8428 32.2089 74.8096 33.9823C74.8095 33.9824 74.8094 33.9826 74.8093 33.9828C74.8089 33.9833 74.8086 33.984 74.8083 33.9845H74.8082C74.2275 34.981 73.5681 35.9311 72.8316 36.8352C71.6556 38.2783 70.2844 39.6047 68.7194 40.8122C67.8749 41.4639 66.9752 42.0816 66.0198 42.6645C64.369 43.6703 62.4123 44.4836 60.6506 45.2998C60.4755 45.3804 60.2922 45.4193 60.1086 45.4193C59.9202 45.4193 59.7316 45.3785 59.551 45.2998C53.5435 42.6866 48.3456 39.3729 45.1107 33.5242C45.0867 33.4808 45.0619 33.4386 45.0381 33.395C44.5853 32.5656 44.185 31.7208 43.8359 30.8617C43.6823 30.4839 43.5815 30.1941 43.406 29.7171C43.1534 28.9903 42.9367 28.2538 42.7578 27.5072C42.7578 27.507 42.7578 27.507 42.7577 27.5069L42.7573 27.5052C42.3554 25.8278 42.1383 24.1015 42.1155 22.3278C42.0813 19.5745 42.1095 16.8213 42.1095 14.0681C42.1095 14.0681 42.1116 7.95707 42.0732 4.9035C42.0653 4.21214 42.289 3.92191 42.94 3.69412C48.5143 1.75589 54.2074 0.655704 60.047 0.655704Z" fill="white"/>
</svg>
