<svg width="120" height="99" viewBox="0 0 120 99" fill="none" xmlns="http://www.w3.org/2000/svg">
<path d="M18.539 61.4519L15.1763 61.4617L14.7028 58.4571C14.257 58.0143 13.6953 57.6647 13.0183 57.4082C12.3409 57.1523 11.5423 57.0252 10.6231 57.0278C8.66009 57.0337 7.15135 57.751 6.09678 59.1798C5.04199 60.6087 4.51814 62.4697 4.52478 64.7629L4.52718 65.5534C4.53401 67.8467 5.06633 69.7099 6.12433 71.1424C7.18227 72.5759 8.67202 73.2891 10.5937 73.2832C11.482 73.2811 12.2951 73.1493 13.0331 72.8889C13.7708 72.629 14.3407 72.2758 14.7422 71.8301L15.1984 68.8224L18.561 68.8126L18.5742 73.2752C17.6679 74.3319 16.5109 75.1742 15.1027 75.8036C13.6943 76.4325 12.1172 76.7502 10.3713 76.7555C7.34458 76.7646 4.86198 75.7231 2.92391 73.6316C0.986072 71.54 0.0120087 68.852 0.00246056 65.5666L7.02708e-05 64.8075C-0.00942559 61.5326 0.943478 58.8387 2.85855 56.7255C4.77386 54.6123 7.25508 53.5513 10.3028 53.5423C12.0484 53.5371 13.6249 53.8499 15.0318 54.4814C16.4384 55.1126 17.6033 55.9484 18.5258 56.9891L18.539 61.4519ZM26.989 73.4503C27.652 73.4482 28.2547 73.3036 28.7964 73.0157C29.338 72.7273 29.759 72.3669 30.0592 71.9338L30.0517 69.4469L27.8059 69.4535C26.8716 69.4567 26.1639 69.6775 25.6827 70.1152C25.2018 70.5538 24.9621 71.0801 24.9639 71.693C24.9656 72.2459 25.1451 72.6769 25.503 72.9874C25.8604 73.2978 26.3559 73.4524 26.989 73.4503ZM30.811 76.3781C30.6889 76.1058 30.5823 75.8268 30.4919 75.5424C30.4006 75.2561 30.3293 74.9683 30.2782 74.6762C29.7575 75.2807 29.1233 75.7704 28.3759 76.1443C27.6285 76.5176 26.7725 76.7066 25.8079 76.7097C24.2103 76.7143 22.9403 76.2834 21.9983 75.4172C21.056 74.5506 20.583 73.3689 20.5783 71.8715C20.574 70.3443 21.1834 69.1621 22.4069 68.3243C23.6302 67.4866 25.4276 67.0644 27.799 67.0571L30.0448 67.0504L30.0399 65.4527C30.0376 64.669 29.8097 64.0619 29.3563 63.6311C28.903 63.2005 28.2341 62.9863 27.3501 62.9888C26.8474 62.9903 26.4005 63.0499 26.0089 63.1665C25.6173 63.283 25.3012 63.4224 25.0607 63.5839L24.7792 65.333L21.4635 65.3427L21.4678 61.7252C22.2701 61.1805 23.1908 60.7203 24.2296 60.3455C25.2684 59.971 26.4007 59.7815 27.6267 59.7778C29.6464 59.7719 31.288 60.2621 32.5521 61.2476C33.816 62.2339 34.4509 63.6415 34.4563 65.4702L34.4761 72.2073C34.4769 72.4585 34.4799 72.6949 34.4859 72.9158C34.4913 73.1367 34.5096 73.3479 34.5405 73.5486L35.8824 73.7257L35.8903 76.3632L30.811 76.3781ZM37.4242 73.7201L39.533 73.2613L39.5031 63.1483L37.1657 62.7028L37.1577 60.0503L43.5935 60.0312L43.7964 62.4118C44.1756 61.5669 44.6664 60.9072 45.2677 60.4331C45.8692 59.9591 46.5668 59.721 47.3606 59.7186C47.5918 59.7179 47.8354 59.7348 48.0918 59.7693C48.3482 59.8038 48.5616 59.8459 48.7329 59.8952L48.2774 63.9061L46.4685 63.866C45.8254 63.8681 45.2932 63.9954 44.8721 64.2478C44.4506 64.5004 44.13 64.8576 43.9105 65.3208L43.9339 73.2485L46.0455 73.6949L46.0532 76.3322L37.4321 76.3574L37.4242 73.7201ZM49.301 56.0778L49.2931 53.425L56.0453 53.4053L56.1059 73.214L58.2325 73.6603L58.2402 76.2977L49.5889 76.3229L49.5809 73.6856L51.7047 73.2268L51.6535 56.523L49.301 56.0778ZM66.9461 63.0532C66.1322 63.0555 65.4898 63.3689 65.0195 63.9935C64.5491 64.6177 64.26 65.4372 64.1526 66.4526L64.1979 66.5276L69.5937 66.5116L69.5927 66.1198C69.5899 65.1857 69.3692 64.44 68.9306 63.8838C68.4918 63.3273 67.8301 63.0504 66.9461 63.0532ZM66.9462 76.5872C64.5949 76.5938 62.7134 75.8457 61.3025 74.3427C59.8912 72.8396 59.1822 70.9273 59.1754 68.6065L59.1737 68.0035C59.1664 65.5819 59.826 63.585 61.153 62.0138C62.4796 60.4426 64.2634 59.6584 66.5042 59.6619C68.7047 59.6553 70.4146 60.3136 71.6345 61.6364C72.854 62.959 73.4675 64.7509 73.4743 67.0118L73.4813 69.4082L63.7448 69.4371L63.7146 69.5272C63.7984 70.6023 64.16 71.4854 64.8003 72.1769C65.4403 72.8684 66.308 73.2124 67.4033 73.2093C68.3779 73.2062 69.1866 73.1064 69.8289 72.9081C70.4716 72.7103 71.1739 72.3993 71.9365 71.9751L73.1353 74.6845C72.4635 75.219 71.5933 75.6685 70.5241 76.0336C69.4551 76.3982 68.2623 76.583 66.9462 76.5872ZM80.7219 55.5326L80.7338 59.9174L83.5974 59.9089L83.6067 62.9986L80.743 63.007L80.7675 71.3123C80.7693 71.9452 80.9014 72.3967 81.1634 72.6671C81.4253 72.938 81.7774 73.0723 82.2195 73.0708C82.521 73.0703 82.7849 73.0569 83.0107 73.0311C83.2369 73.0054 83.4903 72.9616 83.7714 72.9004L84.1576 76.08C83.6659 76.2319 83.1788 76.3467 82.6968 76.4234C82.2146 76.5001 81.6922 76.5392 81.1297 76.5413C79.6123 76.5454 78.4429 76.132 77.6216 75.3003C76.8001 74.4688 76.3868 73.1486 76.3815 71.3402L76.3569 63.0202L74.8264 63.0272L74.8171 59.9374L76.3478 59.9305L76.3359 55.5458L80.7219 55.5326ZM89.4463 68.2106C89.4508 69.6976 89.7154 70.8907 90.2406 71.7882C90.7658 72.6862 91.611 73.1331 92.7768 73.1295C93.9122 73.1258 94.7425 72.6718 95.2671 71.7654C95.7921 70.8597 96.0524 69.6683 96.0481 68.191L96.0471 67.8744C96.0426 66.4274 95.7729 65.248 95.2376 64.3348C94.7023 63.4221 93.862 62.9675 92.7166 62.9709C91.5712 62.9741 90.7383 63.4339 90.2188 64.3498C89.6987 65.2661 89.441 66.447 89.4454 67.8938L89.4463 68.2106ZM85.0444 67.907C85.0372 65.4756 85.712 63.4816 87.0688 61.925C88.4258 60.3687 90.305 59.5868 92.7065 59.5797C95.1181 59.5726 97.0068 60.3409 98.3731 61.8839C99.7392 63.4275 100.426 65.4202 100.433 67.8614L100.434 68.178C100.441 70.6301 99.7662 72.629 98.4094 74.1757C97.0524 75.7216 95.1781 76.4986 92.7868 76.5058C90.3652 76.513 88.4714 75.7473 87.1053 74.2093C85.739 72.6702 85.0524 70.6754 85.0452 68.2236L85.0444 67.907ZM101.559 73.5239L103.668 73.0651L103.638 62.9521L101.3 62.5067L101.292 59.8541L107.728 59.835L107.931 62.1706C108.471 61.3352 109.137 60.6848 109.93 60.2205C110.722 59.756 111.61 59.5222 112.596 59.5191C114.243 59.5142 115.531 60.0281 116.458 61.0602C117.386 62.0923 117.853 63.7138 117.859 65.9246L117.881 73.0229L119.992 73.4693L120 76.1068L111.59 76.132L111.582 73.4946L113.464 73.0364L113.444 65.9526C113.44 64.8575 113.217 64.0818 112.773 63.6258C112.33 63.1698 111.661 62.9433 110.767 62.9458C110.184 62.9476 109.662 63.0674 109.2 63.3047C108.739 63.5423 108.353 63.8776 108.043 64.3106L108.068 73.0523L109.848 73.4996L109.856 76.1371L101.567 76.1612L101.559 73.5239ZM23.0985 82.51L23.1028 83.9847L21.7963 84.2404L21.8152 90.6089C21.8175 91.4138 22.0356 92.0149 22.4698 92.4132C22.904 92.8111 23.4982 93.0086 24.2523 93.0063C25.0176 93.0043 25.6175 92.8045 26.0522 92.4061C26.4868 92.0087 26.703 91.4043 26.7005 90.5941L26.6817 84.2257L25.382 83.978L25.3777 82.5033L30.4305 82.4886L30.4348 83.9633L29.1285 84.2185L29.1473 90.587C29.1514 91.9557 28.7033 93.0135 27.8033 93.7586C26.9033 94.5043 25.7214 94.8793 24.2578 94.8835C22.7999 94.8883 21.6215 94.52 20.7225 93.7797C19.8238 93.0397 19.3724 91.9849 19.3683 90.6161L19.3495 84.2476L18.0497 84L18.0455 82.5253L19.3444 82.5215L21.7911 82.5143L23.0985 82.51ZM31.1075 93.221L32.2799 92.9662L32.2632 87.3438L30.9637 87.0962L30.9594 85.621L34.5375 85.6106L34.6504 86.9092C34.9505 86.4444 35.3208 86.0833 35.7615 85.8248C36.2021 85.5662 36.6961 85.4365 37.2436 85.435C38.1597 85.4322 38.8757 85.7179 39.3914 86.2914C39.9069 86.8653 40.1666 87.7669 40.1702 88.9959L40.1819 92.9428L41.3557 93.1904L41.36 94.657L36.6843 94.6707L36.68 93.2043L37.7268 92.95L37.715 89.0117C37.7133 88.4029 37.589 87.9716 37.3425 87.7179C37.0959 87.4649 36.7241 87.3385 36.2269 87.3399C35.9029 87.3409 35.6125 87.4077 35.356 87.5399C35.0994 87.6716 34.8848 87.8581 34.7124 88.099L34.7269 92.959L35.7163 93.2071L35.7206 94.6736L31.1118 94.6874L31.1075 93.221ZM45.6593 83.4075L43.2123 83.4145L43.2068 81.5792L45.6538 81.572L45.6593 83.4075ZM42.0598 93.1885L43.2405 92.9338L43.2238 87.3114L41.9158 87.0637L41.9116 85.5886L45.6657 85.5777L45.6874 92.9266L46.8612 93.1742L46.8656 94.6407L42.0641 94.655L42.0598 93.1885ZM51.1182 87.0351L50.2638 87.1968L51.4741 91.2492L51.6359 92.1032H51.6862L51.8597 91.2481L53.0291 87.1973L52.1572 87.0322L52.1529 85.5572L56.2672 85.5448L56.2715 87.0198L55.4842 87.1477L52.8332 94.6221L50.4953 94.6288L47.7918 87.1707L47.0037 87.0475L46.9994 85.5725L51.1139 85.56L51.1182 87.0351ZM60.6898 87.2489C60.2372 87.2503 59.8802 87.4245 59.6187 87.7713C59.3571 88.1186 59.1965 88.5742 59.1368 89.1386L59.1621 89.1806L62.1618 89.172L62.1613 88.954C62.1598 88.4344 62.037 88.0198 61.7931 87.7107C61.5493 87.4011 61.1813 87.2475 60.6898 87.2489ZM60.93 94.7729C59.6228 94.7766 58.5767 94.3612 57.7922 93.5253C57.0076 92.6899 56.6134 91.6266 56.6096 90.3361L56.6087 90.0012C56.6046 88.6548 56.9714 87.5446 57.7091 86.6707C58.4467 85.7976 59.4384 85.3611 60.6842 85.3635C61.9077 85.3597 62.8584 85.7255 63.5366 86.4608C64.2146 87.1964 64.5557 88.1925 64.5593 89.4497L64.5632 90.7821L59.15 90.7978L59.1334 90.848C59.1799 91.4458 59.3809 91.9371 59.7369 92.3212C60.0927 92.7057 60.5751 92.8969 61.1842 92.8951C61.7259 92.8931 62.1756 92.8379 62.5327 92.7276C62.8898 92.6179 63.2805 92.4447 63.7043 92.2091L64.3708 93.7153C63.9974 94.0124 63.5135 94.2624 62.9192 94.4656C62.3249 94.6684 61.6617 94.771 60.93 94.7729ZM65.5352 93.1154L66.7076 92.8607L66.691 87.2383L65.3914 86.9908L65.387 85.5156L68.9652 85.5052L69.0779 86.8286C69.2888 86.3592 69.5616 85.9922 69.896 85.7284C70.2305 85.4651 70.6181 85.3329 71.0596 85.3314C71.188 85.3311 71.3236 85.3406 71.466 85.3597C71.6086 85.3791 71.7272 85.4021 71.8224 85.4298L71.5692 87.6596L70.5637 87.6372C70.206 87.6382 69.9102 87.7092 69.676 87.8495C69.4418 87.9898 69.2635 88.1887 69.1414 88.4459L69.1544 92.8536L70.3283 93.1016L70.3326 94.5682L65.5395 94.582L65.5352 93.1154ZM79.5843 88.59L77.942 88.5947L77.6788 87.4644C77.5108 87.331 77.2996 87.2198 77.0451 87.131C76.7906 87.0423 76.5097 86.9984 76.2025 86.9993C75.7724 87.0007 75.432 87.098 75.1812 87.2914C74.9303 87.4851 74.8053 87.7273 74.8062 88.0179C74.807 88.2918 74.9278 88.5188 75.1686 88.6992C75.4092 88.8804 75.8902 89.0398 76.6112 89.1767C77.7348 89.3971 78.5681 89.7229 79.1114 90.1542C79.6544 90.5861 79.9272 91.1814 79.9294 91.941C79.9318 92.7568 79.5832 93.4237 78.8838 93.9423C78.184 94.4613 77.2617 94.7223 76.1166 94.7261C75.4182 94.7281 74.7767 94.6278 74.1925 94.4255C73.608 94.2232 73.0891 93.9332 72.6355 93.5545L72.6043 91.5182L74.3137 91.5135L74.6525 92.6942C74.798 92.8164 74.9967 92.9066 75.2482 92.9647C75.4998 93.0219 75.7624 93.0511 76.0361 93.0501C76.5334 93.0487 76.9115 92.9586 77.1708 92.7787C77.4299 92.5989 77.5591 92.356 77.5582 92.0487C77.5576 91.7807 77.4255 91.5488 77.1623 91.3541C76.8991 91.1595 76.4154 90.9877 75.7112 90.8389C74.6435 90.6242 73.8368 90.3041 73.2908 89.878C72.7448 89.4521 72.4708 88.8709 72.4686 88.1333C72.4664 87.3738 72.7772 86.7178 73.4013 86.1655C74.0253 85.6135 74.9157 85.3358 76.072 85.3324C76.7759 85.33 77.4424 85.423 78.0714 85.6111C78.7005 85.7995 79.1941 86.0408 79.5525 86.3358L79.5843 88.59ZM84.5547 83.2877L82.1077 83.2949L82.1022 81.4596L84.5492 81.4524L84.5547 83.2877ZM80.9552 93.0692L82.1359 92.814L82.1192 87.1916L80.8114 86.9441L80.807 85.4689L84.5611 85.4579L84.5828 92.8068L85.7567 93.0548L85.761 94.5214L80.9595 94.5358L80.9552 93.0692ZM89.7679 83.221L89.7746 85.4412L91.3667 85.4365L91.3717 87.1544L89.7795 87.1592L89.7932 91.7764C89.7942 92.1284 89.8677 92.3798 90.0133 92.5302C90.1591 92.6804 90.3546 92.7553 90.6006 92.7543C90.7682 92.7539 90.9148 92.7462 91.0405 92.7324C91.1662 92.7181 91.3071 92.6937 91.4636 92.6599L91.6782 94.4275C91.4047 94.5119 91.1339 94.5754 90.8659 94.6183C90.5978 94.6608 90.3075 94.6827 89.9947 94.6836C89.151 94.686 88.5009 94.4561 88.0443 93.9938C87.5875 93.5315 87.3578 92.7973 87.3548 91.792L87.341 87.1663L86.4973 87.1707L86.4923 85.4527L87.3361 85.4484L87.3294 83.228L89.7679 83.221ZM101.954 86.8806L101.108 87.0084L97.7995 95.8419C97.5387 96.4961 97.1899 97.0452 96.7528 97.4874C96.3155 97.9301 95.6555 98.153 94.7729 98.1558C94.5662 98.1564 94.372 98.14 94.1903 98.1067C94.0086 98.0738 93.7948 98.0271 93.549 97.9664L93.8285 96.1803C93.9068 96.1917 93.9879 96.2022 94.0717 96.2137C94.1555 96.2241 94.228 96.2299 94.2895 96.2299C94.6973 96.2285 95.0098 96.1283 95.2272 95.9293C95.4445 95.7304 95.6113 95.4822 95.7278 95.1865L96.0024 94.4986L93.1059 87.0408L92.2593 86.9092L92.255 85.434L96.6961 85.4207L96.7004 86.8959L95.6869 87.0666L96.9379 90.6829L97.0655 91.3359L97.1158 91.3442L98.5361 87.0581L97.5132 86.8934L97.5089 85.4183L101.95 85.4054L101.954 86.8806Z" fill="#211D1D"/>
<path d="M78.09 13.5675L70.905 21.316L74.011 7.7621L69.8743 9.95202L66.7724 1.51494L63.6705 9.95202L59.5339 7.7621L62.6399 21.316L55.3016 13.4023L54.825 16.8579L48.808 15.103L51.5849 21.6665L49.0358 22.3618L57.6349 28.7828C67.418 25.0093 73.5551 26.1056 77.1512 27.5634C76.622 29.6297 75.8392 31.551 74.8053 33.3248C74.5159 33.1659 74.2123 33.0122 73.8902 32.8662C72.6405 32.2996 71.1388 31.8399 69.3323 31.5719C68.6375 31.4688 67.8957 31.3954 67.1083 31.3538C66.8886 31.3421 66.6653 31.3331 66.4381 31.3267C66.0058 31.3144 65.5596 31.3122 65.0994 31.3201C63.0681 31.3551 60.7648 31.5908 58.1475 32.0928C58.0489 32.1117 57.9529 32.1277 57.8553 32.1454C57.3798 32.2318 56.9164 32.3041 56.465 32.3632C49.8944 33.2225 45.8388 31.277 43.407 29.0579C43.1542 28.3305 42.9373 27.5934 42.7582 26.8463C45.1961 29.3902 49.4924 31.6192 56.6133 29.1574L46.9932 21.974L50.3392 21.0617L47.221 13.6907L54.0663 15.6873L54.6617 11.3717L60.99 18.1963L58.2006 6.02502L63.1749 8.65852L66.2075 0.410442C66.6061 0.463081 67.0038 0.520554 67.4007 0.582462L70.3698 8.65852L75.344 6.02502L72.5549 18.1963L78.0951 12.2215L78.09 13.5675Z" fill="white"/>
<path d="M56.5887 33.8912C49.8119 34.4329 45.9916 32.5429 43.8367 30.2022C44.1858 31.0612 44.586 31.9059 45.0387 32.7353C45.0625 32.7788 45.0873 32.8211 45.1114 32.8643C47.1295 34.3458 50.5198 35.7517 56.2164 36.2128C62.1963 36.6968 66.1304 38.307 68.7171 40.1516C70.2819 38.9442 71.653 37.6179 72.8288 36.1749C69.9006 34.5054 64.9499 33.2229 56.5887 33.8912Z" fill="white"/>
<path d="M45.1114 32.8644C48.3459 38.7125 53.5431 42.0257 59.5498 44.6387C59.9065 44.7939 60.2947 44.802 60.6495 44.6387C62.4109 43.8225 64.3675 43.0093 66.018 42.0037C66.9733 41.4207 67.8729 40.8032 68.7172 40.1517C66.1304 38.3071 62.1964 36.6968 56.2165 36.2129C50.5199 35.7518 47.1296 34.3459 45.1114 32.8644ZM58.1475 32.0927C50.5766 33.5449 46.0408 31.4631 43.4078 29.0602C43.5411 29.4435 43.6832 29.8245 43.8367 30.2023C45.9916 32.543 49.8119 34.433 56.5887 33.8913C64.9499 33.2229 69.9007 34.5055 72.8289 36.175C73.5659 35.2704 74.2257 34.3196 74.8067 33.3225C71.6015 31.5627 66.4349 30.5032 58.1475 32.0927ZM75.344 6.02494L72.555 18.1962L78.0951 12.2214C78.1024 9.50667 78.098 6.79166 78.1238 4.07796C78.1298 3.58423 78.0129 3.30811 77.493 3.13073C74.1907 1.99788 70.8312 1.11779 67.4007 0.582386L70.3699 8.65844L75.344 6.02494Z" fill="#211D1D"/>
<path d="M56.6133 29.1573L46.9932 21.9739L50.3392 21.0615L47.221 13.6906L54.0664 15.6872L54.6617 11.3716L60.99 18.1962L58.2007 6.02491L63.175 8.65841L66.2075 0.41033C65.3747 0.300611 64.5378 0.21088 63.6964 0.144135C56.5723 -0.420132 49.6699 0.698343 42.9409 3.03809C42.29 3.26575 42.0663 3.55598 42.0743 4.24721C42.1127 7.30038 42.1106 13.4108 42.1106 13.4108C42.1106 16.1635 42.0824 18.9164 42.1166 21.6693C42.1395 23.4435 42.3566 25.1704 42.7587 26.8481C45.1963 29.3926 49.4931 31.6188 56.6133 29.1573Z" fill="#211D1D"/>
<path d="M77.1527 27.5639C77.6082 25.7832 77.8756 23.8952 77.9464 21.8971C78.0452 19.1221 78.0772 16.345 78.0899 13.5674L70.9049 21.3159L74.011 7.76199L69.8742 9.95191L66.7723 1.51484L63.6704 9.95191L59.5338 7.76199L62.6399 21.3159L55.3016 13.4022L54.8249 16.8578L48.8079 15.1029L51.5848 21.6664L49.0357 22.3617L57.6349 28.7827C67.4193 25.0087 73.5567 26.1057 77.1527 27.5639Z" fill="#E91D27"/>
</svg>
