<svg width="38" height="47" viewBox="0 0 38 47" fill="none" xmlns="http://www.w3.org/2000/svg">
<path d="M36.6725 14.2245L29.4876 21.9731L32.5936 8.41905L28.4569 10.6091L25.355 2.1719L22.2531 10.6091L18.1164 8.41905L21.2225 21.9731L13.8842 14.0592L13.4076 17.5148L7.39055 15.76L10.1675 22.3235L7.61834 23.0188L16.2175 29.4398C26.0006 25.6664 32.1377 26.7625 35.7338 28.2203C35.2045 30.2867 34.4217 32.2079 33.3879 33.9817C33.0985 33.8229 32.7949 33.6692 32.4728 33.5231C31.2231 32.9565 29.7214 32.4969 27.9149 32.229C27.22 32.1258 26.4783 32.0524 25.6909 32.0107C25.4712 31.9991 25.2479 31.9901 25.0207 31.9837C24.5884 31.9715 24.1422 31.9692 23.682 31.9771C21.6507 32.012 19.3474 32.2478 16.7301 32.7497C16.6314 32.7687 16.5354 32.7846 16.4379 32.8024C15.9624 32.8887 15.4991 32.9611 15.0476 33.0201C8.47702 33.8794 4.42136 31.9339 1.98953 29.7149C1.73679 28.9876 1.51984 28.2504 1.34076 27.5032C3.77873 30.0473 8.07499 32.2761 15.1958 29.8144L5.57576 22.631L8.92177 21.7186L5.80355 14.3476L12.6489 16.3442L13.2443 12.0286L19.5726 18.8533L16.7832 6.68197L21.7575 9.31548L24.79 1.06753C25.1887 1.12004 25.5864 1.17751 25.9832 1.23942L28.9524 9.31548L33.9266 6.68197L31.1375 18.8533L36.6776 12.8786L36.6725 14.2245Z" fill="white"/>
<path d="M15.1713 34.5483C8.39446 35.09 4.57417 33.2 2.41925 30.8593C2.76839 31.7183 3.1686 32.563 3.62132 33.3924C3.64509 33.4359 3.66991 33.4782 3.69394 33.5214C5.7121 35.0029 9.1024 36.4089 14.799 36.8699C20.7789 37.3539 24.713 38.9641 27.2997 40.8087C28.8645 39.6013 30.2356 38.275 31.4114 36.8321C28.4832 35.1626 23.5325 33.88 15.1713 34.5483Z" fill="white"/>
<path d="M3.69393 33.5214C6.9284 39.3696 12.1257 42.6828 18.1323 45.2958C18.4891 45.451 18.8772 45.4591 19.232 45.2958C20.9934 44.4796 22.95 43.6663 24.6005 42.6607C25.5558 42.0778 26.4554 41.4602 27.2997 40.8087C24.713 38.9641 20.7789 37.3539 14.799 36.8699C9.1024 36.4089 5.7121 35.0029 3.69393 33.5214ZM16.73 32.7498C9.15908 34.202 4.62327 32.1202 1.9903 29.7172C2.12366 30.1006 2.26577 30.4816 2.41924 30.8593C4.57416 33.2 8.39445 35.09 15.1713 34.5483C23.5324 33.88 28.4832 35.1626 31.4114 36.8321C32.1485 35.9274 32.8082 34.9766 33.3892 33.9795C30.184 32.2197 25.0174 31.1603 16.73 32.7498ZM33.9266 6.68198L31.1375 18.8533L36.6776 12.8786C36.6849 10.1638 36.6805 7.44883 36.7063 4.735C36.7124 4.24127 36.5955 3.96515 36.0755 3.7879C32.7732 2.65493 29.4137 1.77482 25.9832 1.23943L28.9524 9.31548L33.9266 6.68198Z" fill="#211D1D"/>
<path d="M15.1958 29.8144L5.57573 22.631L8.92175 21.7186L5.80353 14.3476L12.6489 16.3442L13.2443 12.0287L19.5725 18.8533L16.7832 6.68198L21.7575 9.31548L24.79 1.06753C23.9572 0.957814 23.1203 0.867947 22.2789 0.801202C15.1548 0.236936 8.25247 1.35541 1.52347 3.69515C0.872471 3.92282 0.648853 4.21305 0.656821 4.90428C0.695222 7.95745 0.693133 14.0678 0.693133 14.0678C0.693133 16.8207 0.664919 19.5736 0.699141 22.3265C0.721999 24.1007 0.939086 25.8274 1.34126 27.5052C3.77883 30.0496 8.07561 32.2759 15.1958 29.8144Z" fill="#211D1D"/>
<path d="M35.7354 28.221C36.1908 26.4404 36.4582 24.5522 36.529 22.5542C36.6279 19.7792 36.6599 17.0022 36.6726 14.2245L29.4876 21.9731L32.5936 8.41906L28.4569 10.6091L25.355 2.1719L22.2531 10.6091L18.1164 8.41906L21.2225 21.9731L13.8842 14.0592L13.4076 17.5148L7.39056 15.76L10.1675 22.3235L7.61836 23.0188L16.2175 29.4398C26.0019 25.6657 32.1394 26.7628 35.7354 28.221Z" fill="#211D1D"/>
<path d="M18.6296 1.19583e-06C13.0033 1.19583e-06 7.17516 1.03448 1.30719 3.07485C0.379548 3.39944 -0.0109979 3.94842 0.000235175 4.9112C0.0381141 7.92611 0.0364164 14.0068 0.0364164 14.0678C0.0364164 14.9239 0.0336744 15.7798 0.0309315 16.6356C0.0250537 18.5031 0.0189133 20.4341 0.042555 22.3359C0.0656742 24.1361 0.287334 25.9257 0.701521 27.6549C0.701782 27.6562 0.702041 27.6575 0.702433 27.6587C0.702563 27.6591 0.702564 27.6596 0.702694 27.66C0.884513 28.4181 1.10865 29.1826 1.36923 29.9323C1.37054 29.936 1.37185 29.9396 1.37328 29.9433C1.4143 30.0549 1.45113 30.1561 1.48561 30.2507C1.59925 30.5623 1.68912 30.8085 1.81111 31.1087C2.17018 31.9922 2.58541 32.867 3.04518 33.7093C3.05994 33.7363 3.07522 33.7632 3.09051 33.7901C3.10017 33.8071 3.10984 33.8241 3.11937 33.8413C4.68652 36.6745 6.76516 39.0636 9.47415 41.1453C11.7311 42.8794 14.3996 44.3906 17.8719 45.9012C18.1372 46.0165 18.4128 46.075 18.6911 46.075C18.9739 46.075 19.2486 46.0146 19.5074 45.8954C19.8869 45.7196 20.2663 45.548 20.668 45.3664C22.117 44.7111 23.6153 44.0336 24.9435 43.2243C25.9126 42.6331 26.8407 41.9963 27.7024 41.3314C29.2997 40.099 30.7195 38.7256 31.9224 37.2492C32.6776 36.3225 33.3614 35.3366 33.9547 34.3191C33.9561 34.3166 33.9577 34.3141 33.9591 34.3117C35.0114 32.5054 35.8191 30.5272 36.3602 28.4314C36.3653 28.4164 36.3699 28.401 36.3738 28.3854C36.8422 26.5546 37.116 24.6008 37.1876 22.5787C37.2952 19.5615 37.3211 16.5309 37.3315 14.2277L37.3367 12.8812C37.3387 12.1256 37.3399 11.3707 37.3409 10.6159C37.3438 8.68956 37.3468 6.69765 37.3653 4.74048C37.3716 4.2252 37.2671 3.49936 36.2905 3.16629C32.7521 1.95233 29.4139 1.10959 26.0863 0.590386C25.6771 0.526515 25.2705 0.46787 24.8776 0.416145C24.016 0.302639 23.1597 0.211858 22.3324 0.146288C21.1072 0.04924 19.8615 1.19583e-06 18.6296 1.19583e-06ZM18.6296 0.655695C19.8402 0.655695 21.0571 0.702979 22.2805 0.799897C23.1221 0.866642 23.9591 0.956508 24.7919 1.06623C25.1907 1.11873 25.5884 1.17621 25.9852 1.23812C29.4162 1.77365 32.7761 2.65388 36.0788 3.78685C36.5989 3.96423 36.7156 4.24035 36.7096 4.73421C36.6839 7.4483 36.6882 10.1636 36.681 12.8787L36.6759 14.2247C36.6631 17.0028 36.6313 19.7803 36.5323 22.5555C36.4616 24.5538 36.1941 26.4421 35.7386 28.2231C35.7381 28.2228 35.7376 28.2226 35.7371 28.2224C35.2079 30.288 34.4254 32.2089 33.3922 33.9822C33.3921 33.9824 33.392 33.9826 33.3918 33.9828C33.3914 33.9833 33.3912 33.9839 33.3909 33.9845H33.3908C32.8101 34.9809 32.1507 35.9311 31.4142 36.8352C30.2382 38.2782 28.867 39.6047 27.3019 40.8122C26.4575 41.4639 25.5578 42.0816 24.6024 42.6645C22.9516 43.6702 20.9948 44.4836 19.2332 45.2998C19.0581 45.3804 18.8748 45.4193 18.6911 45.4193C18.5028 45.4193 18.3142 45.3785 18.1335 45.2998C12.1261 42.6866 6.92816 39.3729 3.6933 33.5242C3.66927 33.4808 3.64445 33.4386 3.62068 33.395C3.16783 32.5656 2.76762 31.7207 2.41848 30.8617C2.26488 30.4839 2.16404 30.1941 1.98862 29.7171C1.73601 28.9903 1.51931 28.2538 1.34037 27.5072C1.34037 27.507 1.34037 27.507 1.34024 27.5069L1.33984 27.5052C0.937936 25.8278 0.720852 24.1015 0.698124 22.3278C0.663903 19.5745 0.692113 16.8213 0.692113 14.0681C0.692113 14.0681 0.694206 7.95706 0.655805 4.90349C0.647837 4.21214 0.871582 3.92191 1.52258 3.69411C7.09692 1.75588 12.79 0.655695 18.6296 0.655695Z" fill="white"/>
</svg>
