<svg width="37" height="45" viewBox="0 0 37 45" fill="none" xmlns="http://www.w3.org/2000/svg">
<path d="M36.0159 13.5674L28.8309 21.3159L31.937 7.76204L27.8002 9.95196L24.6983 1.51488L21.5965 9.95196L17.4598 7.76204L20.5659 21.3159L13.2276 13.4022L12.7509 16.8578L6.73393 15.103L9.51085 21.6665L6.96173 22.3618L15.5609 28.7828C25.344 25.0092 31.481 26.1055 35.0772 27.5633C34.5479 29.6297 33.7651 31.5509 32.7313 33.3247C32.4418 33.1659 32.1383 33.0121 31.8162 32.8661C30.5664 32.2995 29.0647 31.8398 27.2583 31.5718C26.5634 31.4688 25.8217 31.3954 25.0343 31.3537C24.8146 31.3421 24.5912 31.3331 24.3641 31.3267C23.9318 31.3144 23.4856 31.3122 23.0254 31.32C20.9941 31.355 18.6907 31.5908 16.0734 32.0927C15.9748 32.1117 15.8788 32.1276 15.7813 32.1454C15.3058 32.2317 14.8424 32.3041 14.391 32.3631C7.8204 33.2224 3.76475 31.2769 1.33292 29.0578C1.08017 28.3304 0.863219 27.5934 0.684143 26.8462C3.12211 29.3901 7.41837 31.6191 14.5392 29.1574L4.91914 21.974L8.26516 21.0616L5.14694 13.6906L11.9923 15.6872L12.5877 11.3716L18.9159 18.1962L16.1266 6.02496L21.1009 8.65846L24.1334 0.410381C24.5321 0.46302 24.9298 0.520491 25.3266 0.582403L28.2958 8.65846L33.27 6.02496L30.4809 18.1962L36.021 12.2214L36.0159 13.5674Z" fill="white"/>
<path d="M14.5146 33.8913C7.73784 34.433 3.91755 32.543 1.76263 30.2023C2.11177 31.0613 2.51198 31.9059 2.9647 32.7354C2.98847 32.7789 3.01329 32.8212 3.03732 32.8644C5.05549 34.3459 8.44579 35.7518 14.1424 36.2129C20.1223 36.6969 24.0564 38.3071 26.6431 40.1517C28.2079 38.9442 29.579 37.618 30.7548 36.175C27.8266 34.5055 22.8758 33.223 14.5146 33.8913Z" fill="white"/>
<path d="M3.03732 32.8644C6.27179 38.7125 11.469 42.0257 17.4757 44.6387C17.8324 44.7939 18.2206 44.802 18.5754 44.6387C20.3368 43.8225 22.2934 43.0093 23.9439 42.0037C24.8992 41.4207 25.7988 40.8032 26.6431 40.1517C24.0563 38.3071 20.1223 36.6968 14.1424 36.2129C8.44578 35.7518 5.05548 34.3459 3.03732 32.8644ZM16.0734 32.0927C8.50247 33.5449 3.96666 31.4631 1.33368 29.0602C1.46704 29.4435 1.60915 29.8245 1.76263 30.2023C3.91755 32.5429 7.73784 34.433 14.5146 33.8913C22.8758 33.2229 27.8266 34.5055 30.7548 36.175C31.4919 35.2704 32.1516 34.3196 32.7326 33.3225C29.5274 31.5627 24.3608 30.5032 16.0734 32.0927ZM33.2699 6.02494L30.4809 18.1962L36.021 12.2214C36.0283 9.50666 36.0239 6.79166 36.0497 4.07796C36.0557 3.58423 35.9388 3.3081 35.4189 3.13072C32.1166 1.99788 28.7571 1.11778 25.3266 0.582383L28.2958 8.65844L33.2699 6.02494Z" fill="#100F0D"/>
<path d="M14.5392 29.1573L4.91911 21.9739L8.26513 21.0615L5.14691 13.6906L11.9923 15.6872L12.5876 11.3716L18.9159 18.1962L16.1266 6.02491L21.1009 8.65841L24.1334 0.410328C23.3006 0.30061 22.4637 0.210877 21.6223 0.144132C14.4982 -0.420134 7.59585 0.698341 0.86685 3.03808C0.215855 3.26575 -0.00776303 3.55598 0.000204608 4.24721C0.038606 7.30038 0.0365165 13.4108 0.0365165 13.4108C0.0365165 16.1635 0.00830274 18.9164 0.0425244 21.6693C0.0653824 23.4435 0.28247 25.1704 0.68464 26.8481C3.12222 29.3926 7.41899 31.6188 14.5392 29.1573Z" fill="#100F0D"/>
<path d="M35.0787 27.5639C35.5342 25.7832 35.8015 23.8952 35.8723 21.8971C35.9712 19.1221 36.0032 16.345 36.0159 13.5674L28.8309 21.3159L31.937 7.76199L27.8002 9.95191L24.6983 1.51483L21.5964 9.95191L17.4598 7.76199L20.5658 21.3159L13.2275 13.4022L12.7509 16.8578L6.73389 15.1029L9.51081 21.6664L6.96168 22.3617L15.5609 28.7827C25.3452 25.0087 31.4827 26.1057 35.0787 27.5639Z" fill="#100F0D"/>
</svg>
