<?xml version="1.0" standalone="no"?>
<!DOCTYPE svg PUBLIC "-//W3C//DTD SVG 20010904//EN"
 "http://www.w3.org/TR/2001/REC-SVG-20010904/DTD/svg10.dtd">
<svg version="1.0" xmlns="http://www.w3.org/2000/svg"
 width="720.000000pt" height="720.000000pt" viewBox="0 0 720.000000 720.000000"
 preserveAspectRatio="xMidYMid meet">
<metadata>
Created by potrace 1.14, written by Peter Selinger 2001-2017
</metadata>
<g transform="translate(0.000000,720.000000) scale(0.100000,-0.100000)"
fill="#000000" stroke="none">
<path d="M3190 7193 c-25 -1 -117 -7 -205 -13 -651 -44 -1363 -188 -2054 -415
-204 -68 -253 -95 -276 -149 -11 -26 -13 -273 -13 -1296 0 -1715 5 -1879 75
-2260 l26 -145 82 -80 c191 -187 462 -338 735 -409 131 -34 194 -44 346 -55
289 -20 607 23 958 130 96 30 98 31 80 49 -11 9 -356 269 -768 576 -412 307
-745 559 -740 561 5 1 123 33 262 71 139 38 255 71 257 74 3 2 -106 265 -240
583 -135 319 -244 582 -243 585 2 4 246 -64 543 -151 297 -87 541 -157 542
-156 1 1 23 154 49 340 26 186 51 336 55 335 4 -2 111 -114 236 -249 125 -135
347 -375 493 -532 146 -157 266 -283 268 -279 1 4 -96 437 -217 962 -120 525
-217 957 -216 958 2 2 180 -89 395 -203 215 -114 393 -205 396 -203 12 13 481
1304 476 1310 -9 9 -374 45 -589 58 -155 9 -598 11 -713 3z"/>
<path d="M4700 7093 c0 -16 465 -1273 471 -1273 4 0 181 92 394 205 213 113
389 204 391 202 3 -2 -95 -435 -215 -963 -121 -527 -219 -960 -217 -961 2 -2
199 208 438 465 l435 469 6 669 c5 448 3 681 -3 706 -6 20 -22 46 -37 58 -28
22 -294 111 -563 188 -308 89 -596 157 -891 212 -168 31 -209 35 -209 23z"/>
<path d="M4345 6284 c-132 -361 -243 -660 -246 -666 -4 -6 -139 60 -330 161
-177 94 -324 169 -326 167 -4 -3 467 -2075 484 -2130 3 -10 1 -17 -4 -15 -5 2
-267 282 -582 622 -316 340 -577 615 -581 610 -4 -4 -22 -116 -39 -248 -18
-132 -35 -250 -39 -261 -7 -21 -20 -18 -481 117 -261 76 -476 137 -477 136 -1
-1 97 -235 218 -521 131 -308 216 -521 210 -525 -6 -3 -94 -28 -196 -56 -102
-27 -186 -52 -186 -56 0 -4 300 -231 668 -505 367 -273 673 -501 679 -507 9
-6 73 12 196 56 1022 365 1912 439 2665 223 67 -20 155 -48 197 -65 l75 -29
11 41 c44 164 93 488 109 717 12 190 32 1089 28 1302 l-3 167 -565 -609 c-311
-336 -568 -610 -571 -610 -4 0 -3 17 3 38 5 20 116 504 247 1075 152 664 233
1036 225 1033 -7 -3 -154 -79 -325 -171 -172 -91 -315 -165 -318 -165 -3 0
-116 299 -250 665 -134 366 -247 665 -250 665 -3 0 -114 -295 -246 -656z"/>
<path d="M865 2519 c4 -13 21 -57 37 -97 28 -66 39 -81 127 -158 313 -277 690
-426 1226 -486 139 -15 547 -15 725 0 280 24 665 33 929 22 654 -28 1108 -124
1525 -323 l128 -61 29 34 c50 60 185 252 234 332 38 62 45 81 36 92 -18 22
-234 114 -376 161 -573 189 -1311 203 -2195 44 -412 -75 -626 -94 -924 -86
-230 7 -309 15 -491 52 -364 74 -685 226 -976 464 -39 33 -41 33 -34 10z"/>
<path d="M1140 1921 c0 -4 27 -50 59 -103 335 -551 813 -999 1461 -1374 169
-97 470 -250 660 -334 208 -93 202 -94 495 39 306 139 543 260 695 355 166
104 392 265 385 276 -12 19 -228 147 -355 211 -321 161 -690 277 -1111 348
-173 29 -302 45 -619 76 -680 66 -1200 217 -1582 458 -49 31 -88 52 -88 48z"/>
</g>
</svg>
