<svg width="1200" height="330" fill="none" xmlns="http://www.w3.org/2000/svg"><path d="m471.959 62.91-24.116.071-3.396-21.548c-3.197-3.176-7.226-5.684-12.082-7.523-4.858-1.836-10.585-2.747-17.178-2.728-14.078.042-24.898 5.186-32.462 15.433-7.565 10.248-11.321 23.595-11.274 40.042l.017 5.669c.05 16.447 3.867 29.809 11.454 40.083 7.588 10.281 18.273 15.395 32.054 15.354 6.371-.015 12.203-.961 17.495-2.829 5.291-1.864 9.379-4.397 12.258-7.593L448 115.77l24.117-.071.095 32.007c-6.5 7.578-14.798 13.619-24.897 18.133-10.101 4.51-21.412 6.788-33.933 6.827-21.708.063-39.513-7.404-53.412-22.405-13.898-15.001-20.884-34.279-20.953-57.84L339 86.976c-.067-23.486 6.766-42.807 20.501-57.962 13.736-15.156 31.531-22.765 53.388-22.83 12.521-.038 23.828 2.206 33.917 6.735 10.088 4.526 18.442 10.521 25.058 17.985l.095 32.007ZM532.563 148.961c4.754-.014 9.077-1.052 12.961-3.116 3.885-2.069 6.905-4.653 9.057-7.759l-.053-17.837-16.106.048c-6.701.023-11.777 1.607-15.228 4.746-3.449 3.146-5.168 6.92-5.155 11.315.012 3.966 1.3 7.057 3.866 9.283 2.563 2.227 6.117 3.335 10.658 3.32Zm27.41 20.998a56.37 56.37 0 0 1-2.288-5.994 47.03 47.03 0 0 1-1.533-6.211c-3.735 4.336-8.283 7.847-13.642 10.528-5.361 2.678-11.5 4.033-18.418 4.056-11.458.032-20.566-3.058-27.322-9.27-6.758-6.215-10.15-14.69-10.184-25.429-.031-10.953 4.34-19.432 13.114-25.44 8.774-6.008 21.665-9.037 38.672-9.089l16.106-.048-.035-11.458c-.017-5.62-1.651-9.974-4.902-13.063-3.252-3.09-8.049-4.626-14.389-4.607-3.605.011-6.81.437-9.619 1.274-2.808.836-5.076 1.835-6.8 2.993l-2.018 12.545-23.78.07.031-25.945c5.754-3.906 12.356-7.206 19.807-9.894 7.45-2.687 15.571-4.046 24.363-4.072 14.486-.043 26.259 3.474 35.324 10.541 9.065 7.074 13.618 17.168 13.657 30.284l.142 48.317c.005 1.802.028 3.497.07 5.081.039 1.585.17 3.099.392 4.538l9.623 1.271.057 18.915-36.428.107ZM607.401 150.895l15.124-3.291-.214-72.529-16.764-3.194-.057-19.023 46.157-.138 1.455 17.075c2.719-6.06 6.239-10.791 10.553-14.193 4.313-3.398 9.317-5.106 15.009-5.123a38.338 38.338 0 0 1 5.244.364c1.838.247 3.369.548 4.598.903l-3.267 28.765-12.973-.288c-4.613.014-8.429.93-11.449 2.738-3.023 1.811-5.322 4.374-6.897 7.696l.168 56.855 15.144 3.202.055 18.915-61.829.181-.057-18.915ZM692.581 24.369l-.058-19.025L740.95 5.2l.434 142.065 15.251 3.202.056 18.915-62.046.18-.057-18.915 15.231-3.289-.367-119.797-16.871-3.193ZM819.128 74.396c-5.837.016-10.444 2.263-13.818 6.743-3.373 4.478-5.447 10.355-6.217 17.636l.325.538 38.699-.115-.008-2.81c-.021-6.699-1.603-12.046-4.749-16.036-3.146-3.99-7.891-5.977-14.232-5.956Zm.001 97.063c-16.863.047-30.358-5.319-40.476-16.098-10.121-10.779-15.207-24.495-15.255-41.138l-.013-4.325c-.051-17.367 4.679-31.687 14.196-42.957 9.514-11.268 22.306-16.893 38.378-16.866 15.781-.048 28.045 4.673 36.794 14.16 8.746 9.485 13.146 22.336 13.194 38.55l.05 17.187-69.828.207-.216.646c.6 7.711 3.194 14.045 7.786 19.004 4.591 4.96 10.813 7.427 18.666 7.404 6.992-.022 12.792-.738 17.398-2.16 4.609-1.418 9.646-3.648 15.115-6.692l8.597 19.432c-4.817 3.834-11.058 7.058-18.726 9.676-7.666 2.614-16.221 3.94-25.66 3.97ZM917.925 20.459l.084 31.446 20.539-.06.067 22.159-20.539.06.176 59.565c.013 4.537.959 7.776 2.84 9.715 1.877 1.943 4.403 2.906 7.574 2.895 2.161-.004 4.055-.1 5.674-.284 1.622-.185 3.44-.498 5.456-.938l2.769 22.803a75.974 75.974 0 0 1-10.476 2.463c-3.458.551-7.205.831-11.24.846-10.882.03-19.269-2.935-25.159-8.9-5.892-5.964-8.856-15.432-8.894-28.401l-.176-59.67-10.977.05-.067-22.159 10.978-.05-.085-31.446 31.456-.094ZM980.497 111.382c.031 10.665 1.929 19.221 5.695 25.658 3.767 6.44 9.829 9.645 18.188 9.62 8.14-.026 14.1-3.283 17.86-9.783 3.77-6.496 5.63-15.041 5.6-25.636v-2.271c-.04-10.377-1.97-18.835-5.81-25.384-3.84-6.546-9.87-9.806-18.08-9.783-8.215.025-14.188 3.322-17.915 9.89-3.729 6.571-5.577 15.041-5.546 25.417l.008 2.272Zm-31.571-2.177c-.051-17.437 4.788-31.738 14.519-42.902 9.732-11.161 23.209-16.769 40.435-16.82 17.29-.05 30.84 5.459 40.64 16.524 9.8 11.072 14.72 25.363 14.77 42.871l.01 2.271c.05 17.585-4.79 31.921-14.52 43.015-9.73 11.086-23.18 16.658-40.33 16.709-17.364.052-30.946-5.439-40.743-16.469-9.799-11.038-14.724-25.345-14.775-42.928l-.006-2.271ZM1067.36 149.49l15.13-3.291-.22-72.529-16.76-3.195-.06-19.024 46.16-.136 1.45 16.751c3.88-5.991 8.66-10.656 14.34-13.987 5.68-3.331 12.05-5.007 19.12-5.03 11.82-.035 21.05 3.651 27.7 11.053 6.65 7.403 10 19.032 10.05 34.886l.15 50.909 15.14 3.201.06 18.915-60.32.181-.05-18.915 13.5-3.287-.15-50.802c-.02-7.855-1.63-13.418-4.8-16.688-3.19-3.27-7.98-4.895-14.4-4.876-4.18.012-7.92.871-11.23 2.573-3.31 1.704-6.08 4.109-8.3 7.214l.18 62.694 12.77 3.209.05 18.915-59.45.174-.06-18.915ZM632.801 213.935l.031 10.576-9.369 1.834.135 45.674c.017 5.772 1.581 10.083 4.695 12.94 3.114 2.854 7.375 4.27 12.784 4.253 5.489-.014 9.791-1.447 12.908-4.304 3.117-2.85 4.667-7.185 4.65-12.995l-.135-45.674-9.321-1.776-.031-10.576 36.238-.106.031 10.576-9.369 1.831.135 45.674c.029 9.816-3.185 17.402-9.639 22.746-6.455 5.348-14.93 8.037-25.427 8.068-10.457.034-18.908-2.608-25.355-7.917-6.445-5.307-9.683-12.872-9.713-22.688l-.135-45.675-9.321-1.775-.031-10.577 9.316-.027 17.548-.051 9.375-.031ZM690.242 290.751l8.408-1.826-.119-40.323-9.32-1.776-.031-10.579 25.661-.075.809 9.313c2.153-3.332 4.809-5.923 7.97-7.777 3.159-1.855 6.702-2.785 10.629-2.796 6.57-.02 11.705 2.03 15.403 6.142 3.698 4.116 5.56 10.583 5.586 19.397l.084 28.306 8.419 1.776.03 10.518-33.533.099-.031-10.518 7.507-1.824-.084-28.245c-.012-4.366-.904-7.458-2.672-9.278-1.768-1.814-4.435-2.721-8-2.71-2.325.006-4.408.485-6.247 1.434-1.84.943-3.379 2.282-4.615 4.01l.103 34.854 7.096 1.78.031 10.517-33.053.1-.031-10.519ZM794.604 220.372l-17.548.051-.04-13.162 17.549-.052.039 13.163Zm-25.815 70.148 8.469-1.827-.121-40.323-9.379-1.775-.031-10.58 26.923-.079.156 52.706 8.419 1.775.03 10.518-34.435.102-.031-10.517ZM833.755 246.39l-6.127 1.16 8.68 29.063 1.16 6.124h.362l1.243-6.132 8.387-29.051-6.252-1.184-.031-10.58 29.507-.089.031 10.579-5.647.918-19.012 53.605-16.768.048-19.39-53.489-5.651-.883-.03-10.58 29.508-.088.03 10.579ZM902.403 247.922c-3.246.01-5.807 1.259-7.682 3.747-1.876 2.491-3.028 5.758-3.456 9.805l.181.302 21.514-.062-.004-1.564c-.011-3.725-.892-6.698-2.64-8.916-1.75-2.221-4.389-3.322-7.913-3.312Zm1.722 53.961c-9.374.027-16.877-2.953-22.503-8.947-5.627-5.992-8.455-13.618-8.482-22.873l-.007-2.402c-.028-9.656 2.602-17.617 7.892-23.886 5.29-6.261 12.402-9.392 21.337-9.374 8.774-.029 15.594 2.596 20.458 7.868 4.863 5.276 7.308 12.421 7.335 21.437l.028 9.556-38.824.113-.119.359c.334 4.288 1.775 7.811 4.329 10.566 2.551 2.758 6.012 4.13 10.379 4.116 3.885-.014 7.11-.41 9.672-1.201 2.561-.787 5.362-2.029 8.402-3.719l4.781 10.802c-2.679 2.131-6.149 3.924-10.412 5.382-4.262 1.454-9.018 2.19-14.266 2.203ZM937.153 289.997l8.408-1.827-.119-40.323-9.321-1.774-.031-10.581 25.661-.075.809 9.491c1.513-3.367 3.469-5.997 5.868-7.89 2.398-1.888 5.179-2.837 8.345-2.846a21.45 21.45 0 0 1 2.915.201c1.021.141 1.873.305 2.555.503l-1.815 15.993-7.213-.161c-2.564.007-4.686.517-6.365 1.522-1.68 1.006-2.959 2.433-3.835 4.277l.094 31.612 8.419 1.779.031 10.518-34.376.099-.03-10.518ZM1037.91 257.541l-11.78.033-1.89-8.105c-1.2-.958-2.72-1.755-4.54-2.392-1.83-.636-3.84-.951-6.04-.944-3.09.01-5.53.708-7.33 2.093-1.8 1.39-2.69 3.128-2.69 5.212.01 1.963.87 3.593 2.6 4.886 1.73 1.299 5.18 2.442 10.35 3.425 8.06 1.58 14.03 3.917 17.93 7.01 3.89 3.097 5.85 7.367 5.87 12.814.01 5.85-2.49 10.634-7.5 14.353-5.02 3.723-11.64 5.594-19.85 5.622-5.01.014-9.61-.705-13.799-2.156-4.192-1.451-7.914-3.531-11.167-6.248l-.223-14.603 12.259-.034 2.43 8.468c1.04.877 2.47 1.524 4.27 1.941 1.81.41 3.69.618 5.65.612 3.57-.01 6.28-.657 8.14-1.947 1.86-1.289 2.79-3.031 2.78-5.235-.01-1.923-.95-3.585-2.84-4.982-1.89-1.395-5.36-2.627-10.41-3.695-7.66-1.539-13.44-3.835-17.356-6.89-3.915-3.056-5.881-7.224-5.897-12.513-.016-5.447 2.214-10.152 6.689-14.114 4.476-3.959 10.864-5.95 19.154-5.974 5.05-.017 9.83.65 14.34 1.998 4.51 1.352 8.05 3.083 10.62 5.198l.23 16.167ZM1073.56 219.512l-17.55.052-.04-13.163 17.55-.051.04 13.162Zm-25.82 70.153 8.47-1.831-.12-40.323-9.38-1.776-.03-10.579 26.92-.079.16 52.706 8.42 1.779.03 10.517-34.44.104-.03-10.518ZM1110.95 219.033l.04 15.924 11.42-.034.04 12.321-11.42.034.1 33.114c0 2.525.53 4.328 1.58 5.406 1.04 1.078 2.44 1.615 4.21 1.608 1.2-.003 2.25-.058 3.15-.157.9-.103 1.91-.277 3.04-.52l1.54 12.676a42.94 42.94 0 0 1-5.83 1.369c-1.92.304-4.01.462-6.25.469-6.05.017-10.71-1.632-13.99-4.948-3.27-3.316-4.92-8.581-4.94-15.79l-.1-33.175-6.05.031-.04-12.321 6.05-.031-.04-15.924 17.49-.052ZM1198.34 245.28l-6.06.918-23.73 63.353c-1.87 4.691-4.38 8.629-7.51 11.801-3.14 3.175-7.87 4.772-14.2 4.793a22.83 22.83 0 0 1-4.18-.352c-1.3-.236-2.83-.571-4.6-1.006l2.01-12.81c.56.082 1.14.157 1.74.239.6.075 1.12.117 1.56.117 2.93-.011 5.17-.729 6.73-2.156 1.56-1.427 2.75-3.206 3.59-5.327l1.97-4.935-20.78-53.484-6.07-.945-.03-10.579 31.85-.096.03 10.579-7.26 1.225 8.97 25.936.91 4.684.36.058 10.19-30.739-7.34-1.181-.03-10.579 31.85-.093.03 10.579ZM262.653 101.871l-51.464 55.498 22.248-97.078-29.629 15.685-22.211-60.43-22.219 60.43-29.629-15.685 22.247 97.078-52.562-56.682-3.41 24.751-43.095-12.569 19.89 47.009-18.256 4.98 61.587 45.99c70.068-27.027 114.028-19.176 139.779-8.734-3.785 14.8-9.392 28.561-16.801 41.265a96.248 96.248 0 0 0-6.555-3.285c-8.95-4.058-19.703-7.349-32.644-9.269-4.977-.738-10.293-1.264-15.927-1.563a198.035 198.035 0 0 0-4.799-.194 212.88 212.88 0 0 0-9.589-.047c-14.556.251-31.047 1.939-49.792 5.534-.704.136-1.399.25-2.094.377a203.772 203.772 0 0 1-9.955 1.56c-47.068 6.155-76.115-7.78-93.527-23.674a164.195 164.195 0 0 1-4.648-15.84c17.458 18.221 48.233 34.185 99.236 16.553l-68.903-51.45 23.967-6.535-22.342-52.793 49.031 14.301 4.264-30.91 45.331 48.881-19.984-87.175 35.63 18.862L177.55 7.637c2.855.375 5.7.788 8.546 1.232l21.261 57.843 35.631-18.862-19.975 87.175 39.677-42.793-.037 9.639Z" fill="#fff"/><path d="M108.655 247.437c-48.543 3.88-75.9-9.657-91.339-26.421a178.75 178.75 0 0 0 8.612 18.142c.17.311.348.614.526.925 14.453 10.61 38.73 20.68 79.534 23.982 42.833 3.466 71.007 14.999 89.536 28.211 11.203-8.647 21.027-18.148 29.451-28.483-20.98-11.956-56.432-21.143-116.32-16.356Z" fill="#fff"/><path d="M26.455 240.082c23.159 41.886 60.385 65.616 103.407 84.331 2.554 1.112 5.334 1.169 7.879 0 12.612-5.846 26.624-11.67 38.447-18.873 6.846-4.175 13.289-8.598 19.337-13.264-18.529-13.212-46.703-24.745-89.536-28.212-40.805-3.302-65.08-13.372-79.534-23.982ZM119.822 234.554c-54.225 10.402-86.718-4.51-105.576-21.72a174.4 174.4 0 0 0 3.071 8.181c15.44 16.764 42.796 30.301 91.339 26.421 59.887-4.787 95.339 4.4 116.319 16.356a159.043 159.043 0 0 0 14.162-20.43c-22.952-12.604-59.963-20.193-119.315-8.808ZM242.988 47.848l-19.976 87.175L262.69 92.23c.057-19.445.019-38.89.207-58.327.047-3.537-.798-5.513-4.517-6.784-23.657-8.114-47.717-14.417-72.284-18.252l21.261 57.843 35.631-18.862Z" fill="#030404"/><path d="M108.833 213.53 39.93 162.08l23.966-6.535-22.342-52.794 49.032 14.301 4.263-30.909 45.332 48.88-19.985-87.174 35.63 18.862 21.722-59.076a349.122 349.122 0 0 0-17.984-1.907C108.532 1.686 59.097 9.698 10.902 26.455c-4.66 1.632-6.262 3.71-6.205 8.66.274 21.868.26 65.633.26 65.633 0 19.717-.202 39.434.043 59.151a168.282 168.282 0 0 0 4.596 37.092c17.458 18.224 48.233 34.169 99.237 16.539Z" fill="#030404"/><path d="M255.937 202.119c3.268-12.753 5.184-26.278 5.691-40.588.705-19.874.939-39.766 1.024-59.66l-51.464 55.498 22.248-97.078-29.629 15.685-22.21-60.43-22.22 60.43-29.629-15.685 22.247 97.078-52.562-56.682-3.41 24.751-43.095-12.569 19.89 47.009-18.256 4.98 61.587 45.99c70.077-27.031 114.038-19.173 139.788-8.729Z" fill="#E91E27"/><path d="M133.42 0C93.122 0 51.387 7.41 9.362 22.021c-6.643 2.325-9.44 6.256-9.36 13.15.271 21.591.26 65.138.26 65.576 0 6.13-.02 12.259-.04 18.389-.042 13.373-.086 27.202.083 40.821.165 12.893 1.753 25.709 4.719 38.093l.007.026.002.011a173.476 173.476 0 0 0 4.798 16.352c.3.798.564 1.523.808 2.2.817 2.232 1.456 3.995 2.329 6.145a183.79 183.79 0 0 0 8.837 18.623c.113.194.216.387.329.581.066.121.14.243.206.366 11.223 20.29 26.108 37.399 45.51 52.306 16.162 12.419 35.274 23.242 60.141 34.059a14.626 14.626 0 0 0 5.87 1.245c2.019 0 3.991-.433 5.841-1.285 2.714-1.26 5.438-2.488 8.311-3.789 10.378-4.693 21.112-9.545 30.616-15.34 6.94-4.235 13.589-8.795 19.759-13.556 11.438-8.826 21.609-18.662 30.221-29.234a164.169 164.169 0 0 0 14.556-20.985l.028-.053c7.541-12.936 13.326-27.103 17.205-42.112.028-.108.066-.217.094-.328 3.352-13.113 5.315-27.104 5.822-41.585.77-21.608.958-43.312 1.033-59.805l.038-9.643c.019-5.411.019-10.817.028-16.224.028-13.795.047-28.06.179-42.076.047-3.69-.705-8.888-7.701-11.273-25.338-8.693-49.248-14.73-73.073-18.448-2.93-.457-5.841-.877-8.659-1.247a354.352 354.352 0 0 0-18.228-1.933A337.134 337.134 0 0 0 133.42 0Zm0 4.696c8.668 0 17.383.339 26.145 1.033 6.019.478 12.02 1.12 17.984 1.907 2.855.376 5.7.788 8.546 1.232 24.567 3.835 48.627 10.138 72.284 18.252 3.719 1.27 4.564 3.247 4.517 6.784-.188 19.437-.15 38.883-.207 58.327l-.037 9.639c-.085 19.894-.32 39.786-1.024 59.66-.507 14.311-2.423 27.835-5.691 40.588 0-.002 0-.003-.009-.004-3.785 14.793-9.392 28.548-16.792 41.248v.004c0 .004-.009.01-.009.012a159.9 159.9 0 0 1-14.153 20.415c-8.424 10.335-18.247 19.835-29.45 28.483-6.048 4.666-12.491 9.089-19.337 13.264-11.824 7.203-25.835 13.027-38.448 18.873a9.223 9.223 0 0 1-3.878.856c-1.352 0-2.705-.293-4.001-.856-43.02-18.715-80.248-42.445-103.406-84.331-.179-.311-.357-.613-.526-.925a178.75 178.75 0 0 1-8.612-18.142c-1.099-2.705-1.822-4.781-3.07-8.197a166.71 166.71 0 0 1-4.65-15.826v-.015c-2.882-12.012-4.433-24.375-4.595-37.078-.246-19.717-.044-39.433-.044-59.15 0 0 .014-43.765-.26-65.632-.057-4.951 1.545-7.03 6.205-8.661 39.922-13.881 80.69-21.76 122.518-21.76Z" fill="#fff"/></svg>