<svg width="5" height="7" fill="none" xmlns="http://www.w3.org/2000/svg"><path d="m4.989 2.388-.904.975.39-1.705-.52.275-.39-1.061-.39 1.061-.52-.275.39 1.705-.923-.996-.06.435-.756-.22.349.825-.32.087 1.08.808c1.232-.475 2.004-.337 2.456-.153-.067.26-.165.501-.295.724a2.141 2.141 0 0 0-.688-.22 2.992 2.992 0 0 0-.533-.032 5.122 5.122 0 0 0-.875.097l-.036.007c-.06.01-.118.02-.175.027-.827.109-1.337-.136-1.643-.415a2.884 2.884 0 0 1-.081-.279c.306.32.847.6 1.742.291l-1.21-.903.421-.115-.392-.927.861.25.075-.542.796.858-.351-1.53.626.33.381-1.037.15.022.374 1.016.626-.332-.351 1.531.697-.751-.001.17Z" fill="#fff"/><path d="M2.284 4.945C1.432 5.013.951 4.775.68 4.48c.044.108.094.214.151.318l.01.017c.253.186.68.363 1.396.42.753.062 1.248.264 1.573.496.197-.152.37-.319.517-.5-.368-.21-.99-.371-2.043-.287Z" fill="#fff"/><path d="M.84 4.816c.407.735 1.061 1.152 1.817 1.48.045.02.093.021.138 0 .222-.102.468-.204.675-.33.12-.074.234-.152.34-.234-.325-.232-.82-.434-1.573-.495-.716-.058-1.143-.235-1.396-.421ZM2.48 4.718C1.528 4.901.957 4.64.626 4.337l.054.144c.271.294.752.532 1.604.464 1.052-.084 1.675.077 2.043.287.093-.114.176-.233.249-.359-.403-.221-1.053-.355-2.096-.155Z" fill="#030404"/><path d="M4.871 4.149c.057-.224.091-.462.1-.713.012-.35.016-.699.018-1.048l-.904.975.39-1.705-.52.275-.39-1.061-.39 1.061-.52-.275.39 1.705-.923-.996-.06.435-.756-.22.349.825-.32.087 1.08.808c1.232-.475 2.004-.337 2.456-.153Z" fill="#E91E27"/><path d="m4.644 1.44-.351 1.53.697-.751c0-.342 0-.683.003-1.025.001-.062-.014-.096-.08-.119a7.456 7.456 0 0 0-1.269-.32l.374 1.016.626-.332ZM2.287 4.35l-1.21-.904.421-.115-.392-.927.861.25.075-.542.796.858-.351-1.53.626.33.381-1.037A6.132 6.132 0 0 0 3.178.7c-.896-.071-1.764.07-2.61.364-.082.028-.11.065-.11.152.005.384.005 1.152.005 1.152 0 .347-.004.693 0 1.04.004.222.031.44.082.65.306.32.847.6 1.742.291Z" fill="#030404"/></svg>