<svg xmlns="http://www.w3.org/2000/svg" fill="none" viewBox="0 0 50 18"><path fill="#fff" d="M40.6.416c3.9-.697 7.4-.365 9.4-.1V17.75H0V.316c4.8.797 5.7 1.594 8.5 2.89 2.8 1.294 13 2.888 20.9.298C37.3.914 36.276 1.19 40.6.416Z"/><path fill="#E91C24" d="M0 12.598c1.939-.092 5.288.176 8.623 1.783v-2.584C5.603 9.941 2.826 9.141 0 8.907v3.691Z"/><path fill="#E91C24" d="M0 8.132c.943.117 1.888.298 2.845.551 1.9.504 3.572 1.272 5.778 2.538V9.923v1.297c3.901 2.522 9.88 5.04 17.718 5.04a38.55 38.55 0 0 0 5.302-.374c3.14-.435 5.519-.996 7.824-1.54 3.018-.711 5.911-1.393 10.225-1.726.098-.007.2-.014.308-.02V8.902c-2.084-.167-4.195-.03-6.449.217-3.535.387-5.386.86-7.92 1.508-1.607.412-3.49.893-6.252 1.467-3.953.822-8.102 1.494-12.613.709-2.832-.493-6.706-2.304-8.143-3.097v-.004C6.005 8.15 3.547 7.265 1.389 6.766c.015-.016.015-.016 0 0A23.97 23.97 0 0 0 0 6.487v1.645Z"/><path fill="#E91C24" d="M0 5.563c.989.211 2.014.508 3.137.912 1.71.615 3.825 1.792 5.424 2.682l.062.034v.003c4.152 2.302 7.703 2.948 9.853 3.064.971.053 1.823.079 2.601.079 3.267 0 5.226-.463 9.144-1.387.801-.19 1.685-.398 2.679-.625l.963-.222C40.191 8.648 45.074 7.525 50 8.125V6.48c-2.252-.378-4.088-.356-5.315-.334-2.63.047-5.161.476-7.694.904-2.554.433-5.109.865-7.767.907-6.898.109-13.014-.944-20.6-3.6v.58l-.001-.58C5.24 3.152 2.81 2.592 0 2.505v3.058ZM0 1.347c1.456.083 2.974.3 4.554.69A29.231 29.231 0 0 0 0 .991v.355Z"/><path fill="#E91C24" d="M33.536 2.792C37.804 1.302 43.652.062 50 .984v.36c-6.366-.35-11.548 1.872-15.59 3.604-1.98.85-3.687 1.58-5.126 1.835a25.087 25.087 0 0 1-4.447.394c-1.569 0-3.363-.14-5.454-.502-2.18-.378-6.89-1.305-8.342-1.994 3.047.58 6.441 1.065 10.307.755 4.724-.378 6.236-.566 12.188-2.644Z"/><path fill="#E91C24" d="M47.82 2.527A29.124 29.124 0 0 1 50 2.503v3.05c-2.407-.508-4.606-.508-7.488-.306-1.925.135-4.176.593-6.455 1.056-2.254.459-4.534.922-6.548 1.083 2.471-.455 4.89-1.432 6.838-2.218.479-.194.93-.375 1.345-.535a32.353 32.353 0 0 1 10.127-2.106ZM8.623 14.378v-2.581l.101.066c2.125 1.378 4.932 3.2 8.61 4.198 3.72 1.012 7.593 1.4 12.187 1.134-.492.043-1.02.1-1.58.161-1.582.172-3.435.373-5.538.373-3.81 0-8.443-.66-13.78-3.351Z"/></svg>