<svg xmlns="http://www.w3.org/2000/svg" fill="none" viewBox="0 0 620 102"><path fill="#fff" d="M0 0h620v91H0z"/><path fill="#191919" d="M119.643 35.466c8.845 0 16.292-.864 22.811-2.019 25.921-4.598 68.817-39.463 129.877-24.41-41.437-13.112-80.968-5.598-108.067 3.886-30.532 10.681-38.285 11.652-62.517 13.597-19.826 1.588-37.238-.903-52.864-3.887 7.44 3.544 31.604 8.31 42.786 10.255 10.724 1.863 19.927 2.582 27.974 2.578ZM376.364 35.466c8.845 0 16.288-.864 22.811-2.019 25.917-4.598 68.813-39.463 129.873-24.41-41.433-13.112-80.965-5.598-108.067 3.886-30.528 10.681-38.281 11.652-62.513 13.597-19.827 1.588-37.242-.903-52.864-3.887 7.44 3.544 31.603 8.31 42.783 10.255 10.727 1.863 19.93 2.582 27.977 2.578ZM615.189 26.52c-19.831 1.588-37.242-.903-52.865-3.887 7.44 3.543 31.604 8.31 42.783 10.254 5.325.926 10.272 1.57 14.89 1.98v-8.742c-1.534.13-3.132.259-4.808.394Z"/><path fill="#191919" d="M549.921 20.967c-21.748-7.762-35.824-10.319-55.68-9.406-17.774.815-35.34 4.426-51.944 10.827-10.808 4.164-26.182 11.24-41.973 14.156 20.776-1.663 47.055-9.617 66.695-10.995 20.954-1.476 34.865-.86 54.76 6.31 8.887 3.203 19.901 9.37 28.139 13.965v.013c21.299 11.84 39.512 15.16 50.539 15.758 4.98.269 9.345.401 13.337.401 2.166 0 4.223-.038 6.203-.12v-24.04c-22.288-2.505-44.559-7.919-70.076-16.869Z"/><path fill="#191919" d="M591.687 64.394c-14.528-2.533-34.397-11.843-41.769-15.92v-.022c-13.43-7.986-26.034-12.53-37.103-15.098-14.928-3.463-27.06-3.33-34.646-3.194-27.092.492-52.15 8.885-79.301 9.312-35.379.563-66.753-4.853-105.664-18.505-21.749-7.762-35.824-10.319-55.681-9.406-17.773.815-35.339 4.426-51.944 10.827-10.808 4.16-26.182 11.24-41.972 14.156 20.776-1.666 47.055-9.617 66.695-10.995 20.954-1.476 34.865-.86 54.76 6.31 8.886 3.203 19.901 9.37 28.138 13.965v.013c21.3 11.84 39.512 15.16 50.54 15.758 4.979.269 9.348.401 13.34.401 20.185 0 30.631-3.446 60.636-10.344 41.366-9.507 70.645-16.923 102.571-8.44 9.743 2.59 18.319 6.537 29.634 13.05v-.006c16.398 10.63 39.967 21.246 70.079 24.725V66.012c-9.148.453-18.564.084-28.31-1.618h-.003Z"/><path fill="#191919" d="M549.918 59.223c-26.999-16.638-50.236-16.764-77.568-13.768-29.643 3.252-36.198 7.695-72.691 15.299-20.276 4.223-41.556 7.678-64.693 3.64-14.528-2.534-34.397-11.843-41.769-15.92v-.022c-13.43-7.986-26.033-12.53-37.103-15.099h-.003c-14.928-3.462-27.06-3.33-34.646-3.193-27.092.492-52.15 8.885-79.301 9.312-35.379.563-66.753-4.853-105.664-18.505C22.3 15.907 11.383 13.059 0 11.943V102h619.997V86.077a173.504 173.504 0 0 1-25.404-4.928c-19.162-5.22-33.719-14.8-44.675-21.926Z"/></svg>