<svg xmlns="http://www.w3.org/2000/svg" fill="none" viewBox="0 0 600 78"><path fill="#fff" d="M0 0h600v78H0z"/><path fill="#191919" d="M.024 39.8v-9.307C18.346 42.205 39.176 43.76 39.176 43.76c22.22 1.823 40.614-6.172 49.702-11.177 9.55-5.248 19.734-9.355 30.308-11.98 17.298-4.3 37.739-6.025 59.35-.923-48.191-8.14-79.45 21.189-99.282 26.194-5.36 1.36-11.353 2.479-18.906 2.989-10.695.729-21.415.024-31.94-1.968C20.05 45.29 8.6 42.812 0 39.8h.024ZM278.231 31.32c19.832-5.006 51.09-34.334 99.281-26.194-32.866-7.751-63.077.291-83.542 9.136-23.072 9.962-29.017 11.153-47.679 14.044-15.301 2.357-28.92 1.41-41.199 0 5.969 2.309 24.973 4.617 33.743 5.468 17.664 1.749 29.87-.049 39.396-2.455Z"/><path fill="#191919" d="M595.371 25.804c-9.356-8.7-21.318-14.215-30.065-15.551.033-.033.033-.033 0 0-11.767-1.823-21.147-1.045-27.043-.51-20.977 1.919-39.932 9.816-60.958 11.663-27.409 2.454-52.016.024-82.957-8.286-17.298-4.763-28.359-5.905-43.684-4.082-13.741 1.628-27.141 5.418-39.64 11.299-8.137 3.839-19.661 10.156-31.721 13.315 16.007-2.454 35.936-10.084 51.09-12.27 16.153-2.333 26.971-2.625 42.807 1.773 7.066 1.968 15.958 6.1 22.609 9.16 17.177 7.922 31.478 9.453 40.054 9.307 23.462-.462 29.382-3.475 56.791-11.858 31.502-9.695 53.795-17.057 79.036-12.343 7.698 1.433 14.569 4.009 23.705 8.383h-.024Z"/><path fill="#191919" d="M599.951 39.8v-9.307a308.526 308.526 0 0 1-4.41-2.405c-21.878-11.323-39.907-10.084-60.884-6.22-22.804 4.203-27.628 7.994-55.476 15.915-8.015 2.284-16.25 4.422-24.85 5.71-8.016 1.19-16.324 1.652-25.07.777a62.573 62.573 0 0 1-5.19-.777c-10.622-2.066-23.023-6.925-28.091-9.258-10.842-5.394-20.904-8.067-29.626-9.427-11.768-1.823-21.148-1.045-27.044-.51-20.952 1.919-39.931 9.816-60.957 11.662-27.409 2.454-52.016.049-82.958-8.285-12.157-3.354-21.245-4.909-30.893-4.909s-8.235.268-12.79.827c-13.717 1.628-27.141 5.418-39.64 11.298-4.994 2.357-11.28 5.662-18.175 8.578-4.337 1.822-8.893 3.523-13.546 4.738 6.383-.972 13.375-2.794 20.465-4.738 10.671-2.94 21.513-6.22 30.625-7.533 16.153-2.333 26.97-2.624 42.807 1.774 4.653 1.288 10.086 3.523 15.154 5.759a353.841 353.841 0 0 1 7.455 3.401c16.397 7.557 30.162 9.307 38.86 9.307h1.218c23.462-.462 29.382-3.475 56.791-11.858.926-.291 1.828-.559 2.729-.85 30.089-9.258 51.797-16.086 76.307-11.494 7.698 1.434 14.569 4.01 23.705 8.383a119.65 119.65 0 0 0 6.14 3.11c19.929 9.404 49.531 16.645 86.71 8.7 12.79-2.746 22.317-5.784 31.623-8.7 11.451-3.596 22.61-7.022 39.177-9.524 0 0 14.374-2.041 39.883 5.831"/><path fill="#191919" d="M599.951 43.517V78H.024V43.517h.05c.17.049.852.292 2.021.656 0 0 .049 0 .073.025.926.315 1.876.631 2.875.899.244.072.487.121.731.194 44.853 11.396 70.118 7.07 84.615 5.176h.024a147.096 147.096 0 0 0 13.497-3.062 558.796 558.796 0 0 1 14.789-3.888c26.97-6.56 37.227-5.394 53.527 0 6.748 2.236 14.52 5.2 24.923 8.626 39.737 13.097 49.385 13.024 98.673-4.738 3.922-1.41 7.674-2.721 11.304-3.888 36.107-11.736 58.692-11.809 88.708 0 4.873 1.92 9.94 4.155 15.3 6.707 41.662 19.827 84.907 5.564 108.929-2.163 4.824-1.555 9.551-3.11 14.35-4.544 18.127-5.345 37.252-8.529 65.514 0h.024Z"/></svg>

